<svg width="554" height="239" viewBox="0 0 554 239" fill="none" xmlns="http://www.w3.org/2000/svg">
    <path d="M46.3251 38.2862C44.9728 38.2862 43.6132 38.494 42.2752 38.9437C39.7774 39.7844 37.8308 41.2941 36.7949 43.1956C35.0146 46.4628 36.0091 50.6188 37.1569 53.5294C40.9909 63.2552 48.8665 69.7032 57.0825 73.9533C62.7529 66.4828 64.6728 57.3 62.0919 49.9424C59.9036 43.7055 53.2292 38.2862 46.3251 38.2862ZM-59.3759 41.8172C-61.2156 41.8172 -62.9967 42.3991 -64.2277 43.7555C-65.7257 45.4055 -66.3119 48.0404 -65.9704 51.5875C-64.9802 61.8634 -59.0793 71.2836 -48.0435 80.1017C-46.1075 78.609 -44.7061 77.0745 -43.7364 75.4042C-40.4458 69.7349 -41.562 62.1006 -47.1487 52.0656C-48.947 48.8361 -51.1417 45.2215 -54.4392 43.2034C-55.8622 42.333 -57.6448 41.8172 -59.3759 41.8172ZM188.38 13.732C201.147 13.732 213.045 17.24 222.389 23.9685C229.414 29.0271 235.009 36.3396 238.143 44.5599C241.4 53.1091 241.748 62.158 239.12 70.0387C235.697 80.3073 227.791 89.2213 214.24 98.0913C211.091 100.152 207.811 102.128 204.642 104.038C197.297 108.464 189.706 113.04 183.372 118.909C166.423 134.618 159.374 159.918 165.686 182.121L177.747 182.026C177.262 164.037 177.797 146.874 187.592 133.852C194.557 124.594 205.044 119.208 215.188 113.999C222.939 110.018 230.955 105.9 237.332 100.086C251.53 87.138 257.006 65.4922 250.959 46.2228C245.256 28.0455 229.74 12.84 210.466 6.54055C192.412 0.639953 171.458 2.38091 152.977 11.3174C138.892 18.128 127.736 28.4723 121.563 40.4452C114.71 53.7423 114.123 69.5105 120.001 81.7137C126.568 80.7267 133.052 79.2257 139.391 77.2136C137.136 60.2225 135.963 42.6817 146.183 29.9935C151.865 22.9379 160.756 18.05 172.606 15.4652C177.932 14.3037 183.228 13.732 188.38 13.732ZM164.844 184.378C164.345 184.378 163.907 184.053 163.763 183.575C156.805 160.38 164.069 133.729 181.84 117.259C188.342 111.232 196.037 106.595 203.479 102.111C206.63 100.211 209.891 98.2463 213.004 96.2085C226.108 87.6313 233.727 79.0894 236.982 69.327C241.979 54.3398 235.288 36.0317 221.073 25.7948C208.474 16.7243 190.986 13.7609 173.087 17.6645C161.751 20.1369 153.29 24.7596 147.937 31.405C138.093 43.6302 139.481 61.0512 141.747 77.8464C141.821 78.3851 141.497 78.8985 140.981 79.067C121.107 85.5402 99.7199 87.0687 79.1278 83.4882C71.2977 82.1267 63.9893 79.8397 57.6902 76.8006C51.9279 83.6745 44.1589 88.3545 37.2336 92.0489C23.1038 99.5858 11.1228 103.217 0.154945 103.217C-2.2464 103.217 -4.59769 103.043 -6.91404 102.698C-15.8691 101.364 -24.2849 97.3089 -32.0447 93.1258C-38.1859 89.816 -43.5302 86.4194 -48.0927 82.9205C-48.9006 83.4703 -49.6796 83.9461 -50.3801 84.355C-53.7731 86.3387 -57.4023 87.9553 -60.9118 89.5186C-64.8857 91.289 -68.9947 93.1194 -72.6899 95.4633C-80.6872 100.536 -85.2502 107.68 -84.8954 114.576C-84.8635 115.197 -85.3413 115.726 -85.9628 115.758C-86.5826 115.794 -87.1138 115.313 -87.1458 114.691C-87.5427 106.975 -82.5902 99.076 -73.8978 93.5627C-70.0632 91.1307 -65.8776 89.2663 -61.8295 87.4629C-58.3758 85.9238 -54.8044 84.333 -51.5178 82.4121C-50.9695 82.0914 -50.449 81.7716 -49.9557 81.4508C-61.1673 72.3463 -67.178 62.5499 -68.2133 51.8032C-68.6183 47.599 -67.8388 44.3823 -65.8971 42.243C-62.6027 38.6138 -56.9282 39.0401 -53.2619 41.284C-49.4991 43.587 -47.117 47.4921 -45.1796 50.9712C-39.1739 61.7583 -38.0642 70.1199 -41.787 76.5335C-42.9574 78.5493 -44.5646 80.1953 -46.209 81.5265C-41.8596 84.8107 -36.785 88.0126 -30.9749 91.1444C-23.3951 95.2307 -15.1939 99.1884 -6.58194 100.472C5.81202 102.318 19.3971 99.0108 36.1721 90.0629C42.7658 86.5456 50.1361 82.1221 55.6218 75.7562C54.7064 75.2726 53.8157 74.7728 52.9509 74.2566C44.2361 69.0576 38.2166 62.3613 35.0601 54.3545C33.1622 49.5404 33.0776 45.3092 34.8157 42.1191C36.1239 39.7179 38.5179 37.8328 41.5564 36.8105C45.8882 35.3526 50.7236 35.9546 55.1708 38.5064C59.3846 40.9233 62.6831 44.8205 64.2186 49.1981C67.0067 57.1453 65.0573 66.9642 59.1366 74.9679C66.9456 78.653 74.7836 80.4477 79.5141 81.2705C92.1102 83.4611 105.012 83.7052 117.667 82.0423C111.814 69.3095 112.509 53.0949 119.561 39.4141C125.954 27.0108 137.472 16.3127 151.996 9.29107C170.998 0.103054 192.565 -1.67919 211.167 4.40085C231.119 10.9228 247.193 26.69 253.109 45.5497C256.098 55.074 256.392 65.8056 253.937 75.7686C251.397 86.0799 246.182 95.0636 238.85 101.748C232.253 107.766 224.1 111.952 216.217 116.001C205.846 121.327 196.048 126.36 189.393 135.206C179.827 147.921 179.509 165.121 180.034 183.11C180.043 183.411 179.928 183.705 179.717 183.923C179.509 184.14 179.219 184.266 178.916 184.268L164.852 184.378C164.848 184.378 164.846 184.378 164.844 184.378Z" fill="#E0E0E0"/>
    <path d="M165.139 195.752C165.114 196.111 165.117 196.501 165.124 196.91L165.321 209.35C170.602 208.61 175.952 208.47 181.264 208.937L181.23 196.005C175.858 196.461 170.115 196.369 165.139 195.752ZM318.267 168.145C310.046 168.145 300.84 169.958 295.418 176.82C290.721 182.762 289.951 191.832 293.452 199.926C295.966 205.737 300.553 211.17 307.102 216.106C311.994 215.375 316.864 214.414 321.693 213.225C328.658 211.508 336.587 209.051 342.591 203.832C347.738 199.356 351.977 191.459 349.837 183.907C346.279 171.352 328.986 168.861 323.771 168.397C322.03 168.242 320.175 168.145 318.267 168.145ZM438.454 196.1C433.773 196.1 429.543 197.626 427.848 201.51C425.345 207.236 430.553 213.862 436.727 217.192C439.533 218.707 442.514 219.858 445.583 220.646C446.552 219.84 447.503 218.998 448.421 218.112C452.546 214.145 457.176 206.37 453.033 201.209C451.421 199.203 448.757 198.151 446.363 197.386C443.833 196.578 441.072 196.1 438.454 196.1ZM387.597 238.675C385.893 238.675 384.157 238.657 382.384 238.617C367.534 238.285 354.975 236.943 343.992 234.517C330.179 231.465 318.636 226.722 308.706 220.015C307.949 219.501 307.212 218.985 306.498 218.46C293.412 220.325 280.072 220.578 266.659 219.21C247.821 217.289 229.769 212.26 213.001 204.267C211.328 203.468 209.603 202.623 207.936 201.804C194.631 195.269 180.871 188.513 167.612 193.021C167.129 193.185 166.646 193.371 166.249 193.616C171.256 194.168 176.976 194.186 182.241 193.652C182.558 193.62 182.872 193.723 183.108 193.937C183.346 194.148 183.481 194.451 183.481 194.769L183.519 210.173C183.521 210.492 183.385 210.797 183.148 211.013C182.911 211.226 182.594 211.331 182.275 211.295C176.321 210.667 170.305 210.824 164.394 211.764C164.07 211.816 163.742 211.724 163.491 211.515C163.241 211.304 163.095 210.997 163.088 210.671L162.869 196.946C162.85 195.779 162.826 194.181 163.753 192.891C164.539 191.798 165.78 191.267 166.887 190.889C181.028 186.083 195.213 193.048 208.932 199.782C210.591 200.599 212.31 201.443 213.972 202.235C241.999 215.597 273.39 220.506 303.998 216.539C298.055 211.726 293.823 206.455 291.384 200.818C287.556 191.976 288.446 182.008 293.65 175.425C300.952 166.184 314.168 165.282 323.971 166.155C328.465 166.555 335.062 167.681 340.964 170.769C346.8 173.825 350.515 178.039 352.004 183.294C354.414 191.796 349.756 200.588 344.068 205.531C337.703 211.064 329.458 213.631 322.232 215.411C318.09 216.432 313.91 217.284 309.705 217.971C309.793 218.032 309.881 218.09 309.968 218.148C332.744 233.532 362.233 235.913 382.434 236.366C400.394 236.765 425.473 235.635 443.382 222.367C440.714 221.568 438.123 220.504 435.652 219.174C432.138 217.277 429.024 214.446 427.109 211.405C424.775 207.703 424.316 203.971 425.781 200.61C428.983 193.275 439.051 192.687 447.052 195.243C449.762 196.109 452.803 197.329 454.787 199.8C457.024 202.585 457.498 206.211 456.152 210.292C455.077 213.557 452.831 216.999 449.988 219.732C449.446 220.251 448.899 220.758 448.339 221.254C459.211 223.255 470.882 220.879 479.908 214.347C484.547 210.988 488.502 206.61 492.324 202.376C495.305 199.075 498.387 195.662 501.818 192.689C508.501 186.895 516.755 182.726 525.689 180.63C534.623 178.537 543.874 178.602 552.44 180.819C553.042 180.974 553.405 181.589 553.244 182.19C553.093 182.791 552.477 183.153 551.875 182.998C535.041 178.64 516.429 183.007 503.297 194.39C499.967 197.273 496.931 200.635 493.996 203.884C490.096 208.205 486.063 212.671 481.231 216.169C471.218 223.419 458.113 225.82 446.148 223.096C438.752 228.997 429.667 233.128 418.547 235.673C409.741 237.688 399.572 238.675 387.597 238.675Z" fill="#E0E0E0"/>
    <path d="M182.372 196.637C182.083 196.637 181.436 196.531 181.229 195.616C180.717 193.347 179.902 191.554 178.936 190.567C177.62 189.221 177.734 187.385 177.833 185.765C177.892 184.838 177.945 183.965 177.752 183.265C177.586 182.666 177.936 182.045 178.536 181.881C179.138 181.715 179.758 182.067 179.924 182.666C180.216 183.727 180.149 184.834 180.084 185.904C180 187.224 179.931 188.361 180.548 188.992C181.82 190.293 182.815 192.412 183.426 195.12L183.435 195.156C183.471 195.266 183.491 195.385 183.491 195.508C183.491 196.08 183.057 196.567 182.487 196.632C182.463 196.634 182.424 196.637 182.372 196.637Z" fill="#E0E0E0"/>
</svg>