<svg width="50" height="50" viewBox="0 0 50 50" fill="none" xmlns="http://www.w3.org/2000/svg">
    <g clip-path="url(#clip0_1731_92979)">
        <path fill-rule="evenodd" clip-rule="evenodd" d="M22.7356 2.11871H2.26413C2.05572 2.11871 1.88678 2.28766 1.88678 2.49606V47.4956C1.88678 47.7041 2.05572 47.873 2.26413 47.873H22.7356C22.944 47.873 23.113 47.7041 23.113 47.4956V2.49606C23.113 2.28766 22.944 2.11871 22.7356 2.11871ZM2.26413 0.231934C1.01369 0.231934 0 1.24562 0 2.49606V47.4956C0 48.7461 1.01369 49.7598 2.26413 49.7598H22.7356C23.9861 49.7598 24.9998 48.7461 24.9998 47.4956V2.49606C24.9998 1.24562 23.9861 0.231934 22.7356 0.231934H2.26413Z" fill="#599A39"/>
        <path fill-rule="evenodd" clip-rule="evenodd" d="M8.03509 0.373675C8.55603 0.382542 8.97115 0.812038 8.96229 1.33298C8.89702 5.1676 7.5119 15.2449 1.80957 28.4363C1.60284 28.9145 1.04755 29.1346 0.569301 28.9279C0.0910529 28.7212 -0.129051 28.1659 0.077684 27.6876C5.696 14.6906 7.01527 4.85612 7.07578 1.30087C7.08465 0.779927 7.51415 0.364807 8.03509 0.373675Z" fill="#599A39"/>
        <path fill-rule="evenodd" clip-rule="evenodd" d="M21.1948 0.725998C21.7035 0.838322 22.0249 1.34182 21.9126 1.85058C21.1207 5.43747 19.7623 13.869 19.5287 21.2523C19.4085 25.0499 18.6053 27.7972 17.4266 29.2848C16.83 30.0376 16.038 30.5819 15.1048 30.5768C14.1619 30.5716 13.3849 30.0084 12.821 29.2276C12.44 28.7 12.2692 27.9343 12.1777 27.1768C12.0809 26.375 12.0553 25.4012 12.0781 24.3217C12.1237 22.1594 12.3666 19.4684 12.6838 16.6705C12.9921 13.9516 13.3664 11.1568 13.7083 8.60468C14.0793 5.83462 14.412 3.35033 14.5805 1.55888C14.6293 1.04015 15.0893 0.659178 15.6081 0.707958C16.1268 0.756737 16.5078 1.2168 16.459 1.73553C16.2907 3.52513 15.9477 6.092 15.5697 8.92089C15.2267 11.4875 14.8549 14.2699 14.5586 16.8831C14.243 19.6668 14.0082 22.2883 13.9644 24.3615C13.9425 25.3997 13.9692 26.2743 14.0509 26.9507C14.1379 27.6714 14.2718 28.0138 14.3506 28.1229C14.7065 28.6157 14.9849 28.6893 15.1151 28.69C15.255 28.6908 15.5538 28.6101 15.9478 28.1129C16.7501 27.1005 17.5272 24.8479 17.6428 21.1927C17.8809 13.6705 19.2584 5.12102 20.0702 1.44382C20.1825 0.935054 20.686 0.613674 21.1948 0.725998Z" fill="#599A39"/>
        <path fill-rule="evenodd" clip-rule="evenodd" d="M6.63021 31.2392C6.74781 31.5498 6.86857 31.9794 6.98496 32.5274C7.29256 33.9758 7.51894 35.9981 7.67133 38.1462C7.82309 40.2854 7.89909 42.5134 7.91369 44.3568C7.92853 46.2308 7.87872 47.6285 7.79786 48.1541C7.71864 48.6691 8.07187 49.1507 8.58683 49.23C9.10179 49.3092 9.58347 48.9559 9.6627 48.441C9.77051 47.7402 9.81504 46.1898 9.8004 44.3418C9.78552 42.4632 9.70822 40.1954 9.55338 38.0127C9.39917 35.839 9.16565 33.7133 8.83057 32.1355C8.66527 31.3571 8.46216 30.6464 8.19934 30.1202C8.06936 29.8599 7.89245 29.5778 7.6428 29.361C7.37239 29.1262 6.97834 28.9419 6.50661 29.017C5.73528 29.1397 5.27062 29.6942 5.00582 30.2407C4.74566 30.7777 4.60242 31.447 4.51401 32.1361C4.34297 33.4691 4.34324 35.1941 4.34351 36.915C4.34352 36.9828 4.34353 37.0506 4.34353 37.1184C4.34353 40.748 3.82842 45.6156 3.19448 48.0608C3.06373 48.5651 3.36658 49.08 3.87092 49.2107C4.37527 49.3415 4.89012 49.0386 5.02088 48.5343C5.70768 45.8852 6.2303 40.8473 6.2303 37.1184C6.2303 37.0783 6.2303 37.0383 6.2303 36.9983C6.23022 35.2063 6.23015 33.5865 6.38544 32.3762C6.44943 31.8775 6.53399 31.5029 6.63021 31.2392ZM6.82643 30.8741C6.83417 30.8675 6.83834 30.8658 6.83848 30.8666C6.83862 30.8674 6.83475 30.8707 6.82643 30.8741Z" fill="#599A39"/>
        <path fill-rule="evenodd" clip-rule="evenodd" d="M24.3609 22.5151C24.8192 22.7629 24.9899 23.3353 24.7421 23.7936C23.0396 26.9422 21.4112 31.7009 20.091 36.4332C18.7746 41.1517 17.7857 45.7662 17.3443 48.585C17.2637 49.0997 16.7811 49.4517 16.2663 49.3711C15.7516 49.2905 15.3996 48.8078 15.4802 48.2931C15.9351 45.3887 16.9414 40.7014 18.2736 35.9262C19.6019 31.1649 21.2754 26.2382 23.0824 22.8962C23.3302 22.4379 23.9026 22.2673 24.3609 22.5151Z" fill="#599A39"/>
        <path fill-rule="evenodd" clip-rule="evenodd" d="M9.95327 9.64413C10.1934 6.54856 10.4241 3.57327 10.6661 1.53564L12.5397 1.75814C12.3028 3.75344 12.0762 6.67444 11.8363 9.76604C11.7767 10.5348 11.7162 11.314 11.6546 12.0922C11.3478 15.9655 11.0105 19.8319 10.597 22.099C9.70189 27.0074 11.1523 30.227 12.5107 33.2425C12.7758 33.8309 13.0374 34.4116 13.2774 34.9955C13.6216 35.8331 13.7803 36.9393 13.8478 38.093C13.9164 39.2674 13.8942 40.5801 13.8305 41.8791C13.7459 43.6054 13.5821 45.3826 13.4519 46.7957C13.3884 47.4849 13.3329 48.0875 13.2984 48.5554L11.4168 48.4168C11.4557 47.888 11.5146 47.2505 11.5804 46.5389C11.7086 45.1506 11.863 43.4805 11.946 41.7866C12.0081 40.5203 12.0273 39.2824 11.9642 38.2031C11.8999 37.1031 11.754 36.2525 11.5322 35.7127C11.3204 35.1974 11.078 34.6631 10.8241 34.1035C9.44702 31.0685 7.7325 27.2898 8.74088 21.7605C9.13343 19.608 9.46436 15.8487 9.77369 11.9433C9.83432 11.1777 9.89408 10.4073 9.95327 9.64413Z" fill="#599A39"/>
    </g>
    <defs>
        <clipPath id="clip0_1731_92979">
            <rect width="50" height="50" fill="white"/>
        </clipPath>
    </defs>
</svg>