<svg width="50" height="50" viewBox="0 0 50 50" fill="none" xmlns="http://www.w3.org/2000/svg">
    <g clip-path="url(#clip0_1731_92991)">
        <path fill-rule="evenodd" clip-rule="evenodd" d="M0 3.07953C0 1.37875 1.37875 0 3.07953 0H22.7342C24.435 0 25.8137 1.37875 25.8137 3.07953V22.6436C25.8137 23.1438 26.2192 23.5493 26.7194 23.5493H46.4647C48.1654 23.5493 49.5442 24.9281 49.5442 26.6289V46.2835C49.5442 47.9843 48.1654 49.363 46.4647 49.363H3.07953C1.37875 49.363 0 47.9843 0 46.2835V3.07953ZM3.07953 1.81149C2.37921 1.81149 1.81149 2.37921 1.81149 3.07953V46.2835C1.81149 46.9838 2.37921 47.5516 3.07953 47.5516H46.4647C47.165 47.5516 47.7327 46.9838 47.7327 46.2835V26.6289C47.7327 25.9286 47.165 25.3608 46.4647 25.3608H24.908C24.4077 25.3608 24.0022 24.9553 24.0022 24.4551V3.07953C24.0022 2.37921 23.4345 1.81149 22.7342 1.81149H3.07953Z" fill="#599A39"/>
        <path fill-rule="evenodd" clip-rule="evenodd" d="M8.34787 0.00012118C8.84804 0.00822037 9.24693 0.420248 9.23883 0.920411C9.17609 4.79545 7.43317 15.2744 1.97022 28.5584C1.77996 29.0211 1.25069 29.2419 0.788056 29.0516C0.325421 28.8614 0.104613 28.3321 0.294869 27.8694C5.70085 14.724 7.36957 4.47392 7.42758 0.891082C7.43568 0.390919 7.84771 -0.00797793 8.34787 0.00012118Z" fill="#599A39"/>
        <path fill-rule="evenodd" clip-rule="evenodd" d="M49.3178 30.9312C49.3178 31.4315 48.9123 31.837 48.4121 31.837C44.1231 31.837 38.616 30.5856 30.0492 25.3173C29.6231 25.0552 29.4901 24.4974 29.7521 24.0713C30.0142 23.6452 30.572 23.5122 30.9981 23.7742C39.3687 28.9219 44.5494 30.0255 48.4121 30.0255C48.9123 30.0255 49.3178 30.431 49.3178 30.9312Z" fill="#599A39"/>
        <path fill-rule="evenodd" clip-rule="evenodd" d="M20.926 0.381678C21.4157 0.484103 21.7295 0.964059 21.6271 1.45369C20.871 5.06802 19.5747 13.5601 19.3517 20.9983C19.2374 24.8106 18.4739 27.5565 17.36 29.0401C16.7993 29.7868 16.0403 30.3479 15.1262 30.3426C14.2024 30.3372 13.4592 29.7567 12.9304 28.984C12.5759 28.4659 12.4151 27.7117 12.3284 26.9534C12.2367 26.1524 12.2123 25.177 12.234 24.0924C12.2774 21.9204 12.5086 19.2152 12.8111 16.3997C13.1046 13.668 13.4615 10.8556 13.7875 8.28613C14.1417 5.49524 14.4595 2.99089 14.6201 1.18785C14.6645 0.689593 15.1044 0.321667 15.6027 0.366062C16.1009 0.410457 16.4689 0.850361 16.4245 1.34862C16.264 3.14996 15.9373 5.72958 15.5771 8.57411C15.25 11.1568 14.8953 13.958 14.6122 16.5932C14.3112 19.3958 14.0869 22.0377 14.0451 24.1287C14.0241 25.1756 14.0496 26.0607 14.1281 26.7475C14.2116 27.4771 14.3414 27.8381 14.4254 27.961C14.7739 28.4702 15.0372 28.5305 15.1367 28.5311C15.246 28.5318 15.5274 28.4638 15.9114 27.9524C16.6868 26.9196 17.4304 24.633 17.541 20.944C17.7678 13.3795 19.0806 4.77988 19.854 1.08277C19.9564 0.593144 20.4364 0.279252 20.926 0.381678Z" fill="#599A39"/>
        <path fill-rule="evenodd" clip-rule="evenodd" d="M49.2667 38.9497C49.1982 38.4542 48.741 38.108 48.2455 38.1765C44.5877 38.6821 36.0266 39.3911 28.5907 39.1019C24.7795 38.9536 21.9875 39.5263 20.4309 40.5355C19.6474 41.0435 19.0354 41.7621 18.9778 42.6744C18.9196 43.5964 19.4476 44.3778 20.1821 44.9584C20.6746 45.3478 21.4159 45.5601 22.1664 45.6988C22.9592 45.8453 23.9307 45.9368 25.0141 45.9898C27.184 46.0959 29.8987 46.0513 32.7283 45.9433C35.4737 45.8385 38.304 45.6759 40.8898 45.5274C43.6985 45.3661 46.2188 45.2214 48.0286 45.1852C48.5287 45.1752 48.926 44.7616 48.916 44.2615C48.906 43.7614 48.4925 43.364 47.9924 43.3741C46.1842 43.4102 43.5882 43.5586 40.7257 43.7223C38.1266 43.8709 35.3077 44.032 32.6592 44.1331C29.8426 44.2407 27.1915 44.2826 25.1026 44.1805C24.0567 44.1293 23.1754 44.0431 22.4956 43.9175C21.7735 43.784 21.4223 43.6297 21.3055 43.5374C20.8215 43.1547 20.7794 42.8879 20.7857 42.7885C20.7926 42.6794 20.8797 42.4034 21.4163 42.0555C22.5 41.353 24.8323 40.7685 28.5202 40.912C36.0824 41.2061 44.752 40.4881 48.4935 39.9709C48.989 39.9024 49.3352 39.4452 49.2667 38.9497Z" fill="#599A39"/>
        <path fill-rule="evenodd" clip-rule="evenodd" d="M6.98293 31.059C7.10127 31.378 7.22194 31.8208 7.33762 32.3849C7.63765 33.848 7.85798 35.8879 8.00619 38.0515C8.15382 40.2068 8.22775 42.4514 8.24195 44.3085C8.25637 46.1941 8.20816 47.6072 8.12853 48.1432C8.05503 48.638 8.39655 49.0987 8.89135 49.1722C9.38615 49.2457 9.84685 48.9042 9.92036 48.4094C10.0241 47.7108 10.0676 46.156 10.0534 44.2947C10.0389 42.4048 9.96384 40.1234 9.81344 37.9277C9.66361 35.7404 9.43689 33.6045 9.11218 32.021C8.95191 31.2394 8.75585 30.5304 8.50376 30.0077C8.37941 29.7499 8.21055 29.4709 7.97173 29.2562C7.71326 29.0238 7.32732 28.8334 6.85972 28.9105C6.10386 29.035 5.65913 29.5936 5.40888 30.1285C5.16024 30.66 5.02221 31.3252 4.93665 32.0158C4.77099 33.3528 4.77124 35.0851 4.77149 36.82C4.7715 36.8874 4.77151 36.9547 4.77151 37.0221C4.77151 40.6801 4.27048 45.5871 3.65233 48.0564C3.53085 48.5416 3.82575 49.0335 4.31101 49.155C4.79626 49.2764 5.28811 48.9815 5.40959 48.4963C6.07529 45.8371 6.583 40.7719 6.583 37.0221C6.583 36.9804 6.583 36.9388 6.583 36.8973C6.58292 35.0965 6.58284 33.4617 6.73439 32.2385C6.7984 31.7219 6.88393 31.3325 6.98293 31.059ZM7.17977 30.6908C7.18692 30.6847 7.19077 30.6831 7.19091 30.6838C7.19104 30.6845 7.18747 30.6875 7.17977 30.6908Z" fill="#599A39"/>
        <path fill-rule="evenodd" clip-rule="evenodd" d="M10.1577 9.33026C10.3894 6.21172 10.6118 3.21655 10.8451 1.16553L12.645 1.37021C12.4162 3.38227 12.1973 6.32747 11.9659 9.44236C11.9084 10.2166 11.8501 11.0013 11.7907 11.7848C11.4946 15.6883 11.1694 19.579 10.7714 21.8581C9.90304 26.8299 11.313 30.0971 12.6244 33.1358C12.8797 33.7273 13.1313 34.3102 13.3615 34.8953C13.6892 35.7278 13.8417 36.8317 13.9066 37.9912C13.9725 39.1702 13.9513 40.4895 13.8899 41.7967C13.8083 43.5345 13.6507 45.3201 13.5252 46.7428C13.4638 47.4382 13.4101 48.0469 13.3767 48.5209L11.5697 48.3934C11.6071 47.8634 11.6638 47.2226 11.7271 46.5065C11.851 45.1067 12.0002 43.4196 12.0804 41.7117C12.1404 40.4345 12.159 39.184 12.0979 38.0924C12.0358 36.9814 11.8944 36.1139 11.6759 35.5587C11.4704 35.0366 11.2357 34.4963 10.9902 33.9311C9.66195 30.8732 8.01868 27.0901 8.98688 21.5465C9.36648 19.373 9.68603 15.581 9.98437 11.6477C10.0429 10.876 10.1006 10.0994 10.1577 9.33026Z" fill="#599A39"/>
        <path fill-rule="evenodd" clip-rule="evenodd" d="M27.4343 31.104C28.7195 31.8632 30.1498 32.7081 32.2675 33.3219C35.2776 34.1945 39.1915 34.5209 42.426 34.5827C44.0349 34.6134 45.4545 34.5783 46.4815 34.5169C46.9968 34.4861 47.4019 34.4493 47.6778 34.4128C47.8183 34.3942 47.9069 34.3781 47.9531 34.3673C47.961 34.3654 47.9655 34.3642 47.9672 34.3638C47.9647 34.3645 47.956 34.3672 47.9426 34.3723C47.9289 34.3775 47.8948 34.3911 47.851 34.4161C47.8149 34.4366 47.7221 34.4925 47.631 34.5988L49.0064 35.7777C48.8425 35.9689 48.6385 36.0459 48.5931 36.063L48.5889 36.0646C48.5086 36.0952 48.4292 36.1163 48.3659 36.1311C48.2359 36.1615 48.0804 36.1868 47.9152 36.2087C47.5797 36.253 47.1272 36.293 46.5896 36.3252C45.5107 36.3897 44.0432 36.4254 42.3914 36.3938C39.1046 36.3311 35.0026 36.0008 31.7632 35.0618C29.4121 34.3804 27.6385 33.3352 26.3039 32.5488C25.8122 32.2591 25.3801 32.0044 25.0006 31.8161C24.2627 31.4497 23.7197 31.3094 23.189 31.3774C22.6531 31.4461 21.975 31.7482 21.0277 32.6008C19.2249 34.2233 18.3709 36.6799 17.9494 39.5053C17.6646 41.4141 17.5894 43.3617 17.5168 45.2418C17.4808 46.1738 17.4454 47.0892 17.3855 47.9751L15.5781 47.8528C15.631 47.0708 15.6646 46.2123 15.6998 45.3105C15.7754 43.3757 15.8588 41.2419 16.1577 39.238C16.6005 36.2703 17.5428 33.3001 19.8159 31.2543C20.9065 30.2727 21.9154 29.7143 22.9588 29.5806C24.0075 29.4463 24.9364 29.7617 25.8062 30.1935C26.351 30.464 26.8791 30.776 27.4343 31.104Z" fill="#599A39"/>
    </g>
    <defs>
        <clipPath id="clip0_1731_92991">
            <rect width="50" height="50" fill="white"/>
        </clipPath>
    </defs>
</svg>