<svg width="570" height="62" viewBox="0 0 570 62" fill="none" xmlns="http://www.w3.org/2000/svg">
    <g opacity="0.3" clip-path="url(#clip0_1858_12409)">
        <path d="M-35.5381 28.7601H-37.2812V61.8564H-35.5381V45.8256H-24.932V50.464H-23.8915V45.8256H-12.9321V50.464H-11.8916V45.8256H-0.932178V50.464H0.10825V45.8256H11.0638V50.464H12.1043V45.8256H22.9278V56.4044H24.2362V45.8256H35.0636V50.464L36.104 50.464V45.8256H47.0635V50.464H48.1039V45.8256L59.0595 45.8256V50.464H60.0999V45.8256H71.0594V50.464H72.0998V45.8256H82.706V61.8564H84.4491V45.8256H95.0592V50.464H96.0957V45.8256H107.055V50.464H108.096V45.8256H119.055V50.464H120.096V45.8256H131.055V50.464H132.095V45.8256H142.919V56.4044H144.227V45.8256H155.051V50.464H156.091V45.8256H167.051V50.464H168.091V45.8256H179.051V50.464H180.087V45.8256H191.051V50.464H192.091V45.8256H202.693V61.8564H204.44V45.8256H215.046V50.464H216.087V45.8256H227.046V50.464H228.087V45.8256H239.042V50.464H240.083V45.8256H251.042V50.464H252.083V45.8256H262.906V56.4044H264.215V45.8256H275.042V50.464H276.082V45.8256L287.042 45.8256V50.464H288.079V45.8256H299.038V50.464H300.078V45.8256H311.038V50.464H312.078V45.8256H322.684V61.8564H324.428V45.8256H335.038V50.464H336.074V45.8256L347.034 45.8256V50.464H348.074V45.8256H359.034V50.464H360.074V45.8256H371.033V50.464H372.074V45.8256H382.897V56.4044H384.206V45.8256H395.029V50.464H396.07V45.8256H407.029V50.464H408.07V45.8256H419.029V50.464H420.066V45.8256H431.025V50.464H432.066V45.8256H442.672V61.8564H444.419V45.8256H455.025V50.464H456.065V45.8256H467.025V50.464H468.065V45.8256H479.021V50.464H480.061V45.8256H491.021V50.464H492.061V45.8256H502.885V56.4044H504.193V45.8256L515.021 45.8256V50.464H516.057V45.8256H527.017V50.464H528.057V45.8256H539.016V50.464H540.057V45.8256H551.016V50.464H552.057V45.8256H562.663V61.8564H564.406V28.7601H562.663V44.791H552.057V40.1527H551.016V44.791H540.057V40.1527H539.016V44.791H528.057V40.1527H527.017V44.791H516.057V40.1527H515.021V44.791L504.193 44.791V34.3478H502.885V44.791H492.061V40.1527H491.021V44.791H480.061V40.1527H479.021V44.791H468.065V40.1527H467.025V44.791H456.065V40.1527H455.025V44.791H444.419V28.7601H442.672V44.791H432.066V40.1527H431.025V44.791H420.066V40.1527H419.029V44.791H408.07V40.1527H407.029V44.791H396.07V40.1527H395.029V44.791H384.206V34.3478H382.897V44.791H372.074V40.1527H371.033V44.791H360.074V40.1527H359.034V44.791H348.074V40.1527H347.034V44.791L336.074 44.791V40.1527H335.038V44.791H324.428V28.7601H322.684V44.791H312.078V40.1527H311.038V44.791H300.078V40.1527H299.038V44.791H288.079V40.1527H287.042V44.791L276.082 44.791V40.1527H275.042V44.791H264.215V34.3478H262.906V44.791H252.083V40.1527H251.042V44.791H240.083V40.1527H239.042V44.791H228.087V40.1527H227.046V44.791H216.087V40.1527H215.046V44.791H204.44V28.7601H202.693V44.791H192.091V40.1527H191.051V44.791H180.087V40.1527H179.051V44.791H168.091V40.1527H167.051V44.791H156.091V40.1527H155.051V44.791H144.227V34.3478H142.919V44.791H132.095V40.1527H131.055V44.791H120.096V40.1527H119.055V44.791H108.096V40.1527L107.055 40.1527V44.791H96.0957V40.1527H95.0592V44.791H84.4491V28.7601H82.706V44.791H72.0998V40.1527H71.0594V44.791H60.0999V40.1527H59.0595V44.791L48.1039 44.791V40.1527H47.0635V44.791H36.104V40.1527H35.0636V44.791H24.2362V34.3478H22.9278V44.791H12.1043V40.1527H11.0638V44.791H0.10825V40.1527H-0.932178V44.791H-11.8916V40.1527H-12.9321V44.791H-23.8915V40.1527H-24.932V44.791H-35.5381V28.7601Z" fill="white"/>
        <path d="M77.8409 16.0115V16.0541L79.1182 18.414L77.7128 18.7666L76.125 15.8023V14.2329H89.7127V16.0115H77.8409Z" fill="white"/>
        <path d="M82.7855 0.255793C87.4131 0.255793 89.9637 1.96852 89.9637 4.97939C89.9637 7.62989 87.4752 9.42783 82.9757 9.47046C78.4102 9.47046 75.8985 7.50577 75.8985 4.75064C75.8907 1.88702 78.4452 0.255793 82.7855 0.255793ZM82.9951 7.6182C86.5318 7.6182 88.5428 6.53316 88.5428 4.86303C88.5428 2.97978 86.3455 2.08469 82.8709 2.08469C79.5205 2.08469 77.3232 2.9412 77.3232 4.83995C77.3155 6.46357 79.2915 7.62983 82.9874 7.62983L82.9951 7.6182Z" fill="white"/>
        <path d="M209.735 22.2153H208.605L207.204 20.7738C203.896 17.2863 202.137 15.7363 200.084 15.7169C198.705 15.7169 197.428 16.3873 197.428 18.4294C197.471 19.4958 197.883 20.5144 198.593 21.3124L197.296 21.8976C196.397 20.8185 195.907 19.4573 195.914 18.0536C195.914 15.128 197.925 13.8957 199.87 13.8957C202.382 13.8957 204.412 15.713 207.176 18.5728L208.182 19.6617H208.221V13.5585H209.735V22.2153Z" fill="white"/>
        <path d="M202.77 2.47225C207.394 2.47225 209.948 4.18507 209.948 7.19207C209.948 9.84644 207.46 11.6444 202.96 11.687C198.395 11.687 195.883 9.72241 195.883 6.96341C195.883 4.09978 198.437 2.47225 202.77 2.47225ZM202.979 9.83475C206.516 9.83475 208.527 8.7498 208.527 7.0758C208.527 5.19642 206.33 4.29736 202.855 4.29736C199.505 4.29736 197.308 5.15378 197.308 7.05641C197.311 8.67616 199.276 9.84639 202.979 9.84639V9.83475Z" fill="white"/>
        <path d="M327.592 19.5612C328.136 18.6508 328.433 17.6143 328.453 16.5542C328.453 14.1943 326.943 13.4542 325.814 13.4813C323.911 13.5046 323.096 15.2174 323.096 16.9921V18.0151H321.714V16.9921C321.714 15.6552 321.023 13.9618 319.412 13.9618C318.325 13.9618 317.362 14.6516 317.362 16.3449C317.391 17.3174 317.704 18.2603 318.263 19.0574L316.923 19.5379C316.233 18.4814 315.869 17.2459 315.875 15.9846C315.875 13.3108 317.467 12.1096 319.121 12.1096C320.522 12.1096 321.714 12.9427 322.323 14.6128H322.362C322.7 12.9427 323.954 11.5864 325.856 11.5864C328.034 11.5864 329.936 13.2759 329.936 16.5348C329.952 17.7738 329.634 18.9942 329.016 20.0688L327.592 19.5612Z" fill="white"/>
        <path d="M322.754 0.259577C327.378 0.259577 329.932 1.97239 329.932 4.97939C329.932 7.63377 327.444 9.42783 322.944 9.47046C318.379 9.47046 315.867 7.50577 315.867 4.75064C315.867 1.88702 318.433 0.259577 322.754 0.259577ZM322.964 7.62208C326.501 7.62208 328.512 6.53316 328.512 4.86303C328.512 2.98366 326.314 2.08469 322.84 2.08469C319.489 2.08469 317.292 2.9412 317.292 4.83995C317.292 6.46357 319.26 7.63371 322.964 7.63371V7.62208Z" fill="white"/>
        <path d="M449.689 14.318H445.986V20.6265H444.77L436.086 14.5699V12.582H444.541V10.6832H445.986V12.582H449.689V14.318ZM444.541 14.318H439.999C439.289 14.318 438.574 14.318 437.864 14.256V14.318C438.64 14.7365 439.246 15.0698 439.875 15.4456L444.499 18.7664H444.541V14.318Z" fill="white"/>
        <path d="M442.743 0.259577C447.37 0.259577 449.925 1.97239 449.925 4.97939C449.925 7.63377 447.432 9.42783 442.937 9.47046C438.375 9.47046 435.859 7.50577 435.859 4.75064C435.855 1.88702 438.394 0.259577 442.743 0.259577ZM442.952 7.62208C446.489 7.62208 448.5 6.53316 448.5 4.86303C448.5 2.98366 446.303 2.08469 442.828 2.08469C439.478 2.08469 437.28 2.9412 437.28 4.83995C437.28 6.46357 439.249 7.63371 442.952 7.63371V7.62208Z" fill="white"/>
        <path d="M557.619 11.8965V17.0774L561.113 17.6005C561.056 17.2338 561.028 16.8633 561.028 16.4923C561.008 15.4693 561.261 14.4594 561.762 13.5666C562.113 12.9578 562.624 12.4558 563.24 12.1145C563.855 11.7732 564.552 11.6055 565.256 11.6291C567.915 11.6291 569.914 13.741 569.914 16.686C569.941 17.8687 569.653 19.0374 569.08 20.0728L567.678 19.6117C568.168 18.7221 568.427 17.7243 568.431 16.7093C568.431 14.9733 567.298 13.4891 565.477 13.4891C563.722 13.5124 562.464 14.6826 562.464 17.3989C562.47 18.0281 562.519 18.6561 562.612 19.2784L556.078 18.3987V11.9042L557.619 11.8965Z" fill="white"/>
        <path d="M562.731 0.259577C567.354 0.259577 569.909 1.97239 569.909 4.97939C569.909 7.63377 567.42 9.42783 562.921 9.47046C558.356 9.47046 555.844 7.50577 555.844 4.75064C555.844 1.88702 558.398 0.259577 562.731 0.259577ZM562.94 7.62208C566.477 7.62208 568.488 6.53316 568.488 4.86303C568.488 2.98366 566.291 2.08469 562.816 2.08469C559.466 2.08469 557.268 2.9412 557.268 4.83995C557.268 6.46357 559.237 7.63371 562.94 7.63371V7.62208Z" fill="white"/>
    </g>
    <defs>
        <clipPath id="clip0_1858_12409">
            <rect width="62" height="613" fill="white" transform="matrix(0 -1 1 0 -43 62)"/>
        </clipPath>
    </defs>
</svg>