<svg width="571" height="155" viewBox="0 0 571 155" fill="none" xmlns="http://www.w3.org/2000/svg">
    <path d="M94.9029 227.316C94.6204 227.317 94.3393 227.276 94.0688 227.195C93.6661 227.075 93.2942 226.869 92.9786 226.592C92.663 226.315 92.4111 225.972 92.2403 225.588L74.6278 186.071C74.4496 185.671 74.3741 185.233 74.4083 184.796C74.4425 184.36 74.5853 183.939 74.8236 183.572C75.062 183.204 75.3884 182.902 75.7731 182.693C76.1578 182.484 76.5887 182.375 77.0265 182.375H94.5679L128.765 121.143C128.812 121.058 128.881 120.988 128.965 120.939C129.048 120.89 129.144 120.864 129.24 120.864H141.672C141.818 120.864 141.962 120.828 142.091 120.758C142.219 120.688 142.328 120.587 142.408 120.465C142.487 120.342 142.535 120.201 142.547 120.055C142.558 119.91 142.533 119.763 142.473 119.63L130.243 92.1821C130.177 92.0359 130.081 91.9055 129.961 91.7999C129.841 91.6943 129.699 91.6159 129.546 91.5702C129.392 91.5244 129.231 91.5124 129.072 91.535C128.914 91.5575 128.762 91.6141 128.628 91.7008L85.6677 119.339C85.5171 119.436 85.4019 119.579 85.3394 119.747C85.2769 119.915 85.2704 120.098 85.3209 120.27C85.3714 120.442 85.4763 120.592 85.6197 120.699C85.7631 120.807 85.9374 120.864 86.1164 120.864H96.0692C96.164 120.865 96.2571 120.89 96.3392 120.937C96.4214 120.984 96.4898 121.052 96.5376 121.134C96.5854 121.216 96.611 121.309 96.6119 121.404C96.6128 121.499 96.5889 121.592 96.5426 121.675L80.7487 149.736C80.5954 150.006 80.3702 150.229 80.0982 150.378C79.8261 150.528 79.5179 150.6 79.2076 150.585C78.8973 150.57 78.5972 150.47 78.3406 150.295C78.084 150.12 77.881 149.877 77.754 149.594L71.2783 135.01C70.8115 133.962 70.0511 133.071 69.089 132.447C68.1269 131.822 67.0043 131.489 65.8571 131.489H0.543596C0.399425 131.489 0.261159 131.432 0.159215 131.33C0.0572711 131.228 0 131.09 0 130.945C0 130.801 0.0572711 130.663 0.159215 130.561C0.261159 130.459 0.399425 130.402 0.543596 130.402H65.8571C67.2149 130.403 68.5434 130.797 69.6819 131.537C70.8203 132.277 71.7198 133.331 72.2716 134.572L78.7483 149.157C78.7936 149.256 78.8653 149.34 78.9555 149.401C79.0456 149.462 79.1508 149.497 79.2595 149.502C79.3682 149.507 79.4762 149.482 79.5717 149.43C79.6672 149.378 79.7464 149.301 79.8009 149.206L95.1421 121.951H86.1164C85.7026 121.952 85.2998 121.818 84.9684 121.57C84.637 121.322 84.3948 120.973 84.2781 120.576C84.1614 120.179 84.1764 119.755 84.3209 119.367C84.4654 118.979 84.7316 118.649 85.0797 118.425L128.04 90.7866C128.306 90.6151 128.606 90.5032 128.92 90.4586C129.234 90.414 129.553 90.4378 129.857 90.5283C130.16 90.6188 130.441 90.7738 130.679 90.9829C130.917 91.1919 131.107 91.45 131.236 91.7393L143.473 119.187C143.607 119.486 143.664 119.814 143.639 120.141C143.614 120.468 143.507 120.784 143.329 121.059C143.15 121.334 142.906 121.56 142.618 121.716C142.33 121.873 142.007 121.955 141.679 121.954H129.562L95.3645 183.186C95.3174 183.27 95.2486 183.341 95.1652 183.39C95.0818 183.439 94.9868 183.465 94.8901 183.465H77.0265C76.77 183.465 76.5175 183.529 76.2921 183.652C76.0667 183.774 75.8755 183.951 75.7358 184.167C75.5961 184.382 75.5124 184.628 75.4922 184.884C75.472 185.14 75.5159 185.397 75.6201 185.631L93.2336 225.149C93.341 225.389 93.499 225.603 93.6969 225.777C93.8949 225.951 94.128 226.079 94.3803 226.154C94.6326 226.229 94.8982 226.249 95.1588 226.212C95.4194 226.175 95.669 226.082 95.8903 225.939L158.82 185.453C159.016 185.327 159.166 185.14 159.247 184.921C159.328 184.703 159.336 184.464 159.271 184.24C159.205 184.016 159.068 183.82 158.882 183.68C158.695 183.54 158.468 183.464 158.235 183.464L141.927 183.502C141.832 183.502 141.739 183.478 141.657 183.431C141.575 183.384 141.506 183.316 141.458 183.234C141.41 183.153 141.384 183.06 141.383 182.966C141.382 182.871 141.406 182.778 141.452 182.695L177.952 117.033C173.484 115.803 169.551 113.792 166.31 111.047C163.33 108.517 160.93 105.377 159.272 101.837C157.506 98.1123 156.447 93.8436 156.121 89.1489C155.767 84.04 156.368 79.208 157.909 74.7881C159.296 70.7615 161.512 67.0705 164.414 63.9537C167.157 61.0037 170.473 58.6453 174.16 57.0233C177.736 55.4489 181.617 54.6157 185.382 54.6157C193.48 54.6157 200.856 57.9336 205.62 63.7194C207.992 66.5956 209.627 69.9589 210.493 73.7147C211.415 77.7165 211.43 82.0663 210.535 86.6424C208.839 95.3152 204.031 101.962 196.994 105.361C192.932 107.323 188.494 107.984 184.593 107.314L179.574 116.343C182.553 117.035 185.787 117.384 189.26 117.372C191.014 117.367 193.221 117.123 195.556 116.865C197.278 116.676 199.063 116.479 200.794 116.361L233.105 57.2951C233.466 56.6346 233.999 56.0836 234.647 55.6998C235.294 55.316 236.033 55.1136 236.786 55.1138H248.121C248.532 55.1137 248.936 55.221 249.293 55.4251C249.65 55.6292 249.948 55.9229 250.156 56.2773C250.365 56.6316 250.477 57.0343 250.482 57.4455C250.487 57.8567 250.385 58.262 250.186 58.6215L226.624 101.061C231.131 98.9524 236.046 97.8859 241.274 97.8859C244.868 97.8859 248.262 98.2724 251.408 99.0314L281.286 44.9091L265.899 44.9446C265.432 44.944 264.977 44.7922 264.602 44.5118C264.228 44.2315 263.954 43.8376 263.822 43.389C263.69 42.9403 263.706 42.461 263.869 42.0225C264.032 41.5839 264.332 41.2097 264.724 40.9556L327.654 0.468613C328.007 0.241294 328.405 0.0930484 328.821 0.0340295C329.237 -0.0249895 329.661 0.00661412 330.063 0.126682C330.466 0.24675 330.838 0.452439 331.153 0.729649C331.469 1.00686 331.721 1.34904 331.892 1.73272L349.505 41.2462C349.683 41.6462 349.759 42.0843 349.724 42.5208C349.69 42.9572 349.547 43.3782 349.309 43.7454C349.07 44.1125 348.744 44.4143 348.359 44.6232C347.974 44.8322 347.543 44.9416 347.106 44.9417H329.565L295.368 106.174C295.321 106.259 295.252 106.329 295.169 106.378C295.085 106.426 294.99 106.452 294.894 106.452H282.458C282.312 106.452 282.168 106.489 282.04 106.558C281.911 106.628 281.802 106.729 281.723 106.852C281.643 106.974 281.595 107.115 281.584 107.261C281.572 107.407 281.597 107.553 281.657 107.686L293.89 135.134C293.955 135.281 294.051 135.411 294.171 135.517C294.291 135.623 294.433 135.701 294.587 135.747C294.74 135.793 294.902 135.805 295.06 135.783C295.219 135.76 295.371 135.703 295.506 135.616L338.464 107.978C338.615 107.881 338.73 107.738 338.792 107.57C338.855 107.402 338.861 107.219 338.81 107.047C338.76 106.876 338.655 106.725 338.512 106.618C338.369 106.51 338.195 106.452 338.016 106.452H328.064C327.969 106.452 327.876 106.427 327.793 106.38C327.711 106.333 327.643 106.265 327.595 106.183C327.547 106.101 327.521 106.008 327.52 105.913C327.52 105.819 327.544 105.725 327.591 105.643L343.268 77.7887C343.432 77.4981 343.673 77.2586 343.965 77.0969C344.256 76.9352 344.587 76.8576 344.92 76.8727C345.254 76.8879 345.576 76.9952 345.852 77.1827C346.128 77.3703 346.346 77.6307 346.483 77.935L370.04 130.402H570.455C570.6 130.402 570.738 130.459 570.84 130.561C570.942 130.663 570.999 130.801 570.999 130.945C570.999 131.09 570.942 131.228 570.84 131.33C570.738 131.432 570.6 131.489 570.455 131.489H369.688C369.583 131.489 369.481 131.458 369.393 131.401C369.306 131.344 369.236 131.263 369.193 131.168L345.493 78.3797C345.438 78.2588 345.352 78.1553 345.242 78.0808C345.132 78.0063 345.004 77.9637 344.872 77.9577C344.739 77.9518 344.608 77.9827 344.492 78.0471C344.376 78.1115 344.281 78.2068 344.216 78.3224L328.995 105.365H338.017C338.431 105.365 338.833 105.499 339.164 105.747C339.496 105.995 339.738 106.344 339.854 106.741C339.971 107.138 339.956 107.562 339.812 107.95C339.667 108.338 339.401 108.668 339.054 108.892L296.094 136.53C295.827 136.701 295.527 136.813 295.213 136.858C294.899 136.902 294.579 136.878 294.276 136.788C293.972 136.697 293.692 136.542 293.453 136.333C293.215 136.124 293.025 135.865 292.896 135.576L280.663 108.128C280.53 107.829 280.473 107.501 280.498 107.174C280.523 106.847 280.63 106.532 280.808 106.257C280.987 105.981 281.231 105.755 281.519 105.599C281.808 105.442 282.13 105.361 282.458 105.361H294.571L328.768 44.1292C328.815 44.0447 328.884 43.9743 328.967 43.9253C329.05 43.8763 329.145 43.8505 329.242 43.8505H347.102C347.358 43.8507 347.611 43.7867 347.836 43.6643C348.062 43.5419 348.253 43.3651 348.393 43.1498C348.533 42.9346 348.617 42.6879 348.637 42.432C348.657 42.1762 348.613 41.9194 348.508 41.685L330.896 2.16661C330.788 1.92646 330.63 1.71238 330.432 1.53898C330.234 1.36558 330.001 1.23696 329.749 1.16189C329.496 1.08683 329.231 1.06708 328.97 1.10402C328.71 1.14096 328.46 1.23371 328.239 1.37592L265.309 41.8639C265.113 41.9902 264.963 42.1766 264.882 42.3952C264.8 42.6138 264.792 42.8529 264.858 43.0767C264.923 43.3005 265.06 43.497 265.247 43.6369C265.433 43.7767 265.66 43.8524 265.893 43.8525L282.201 43.8149C282.296 43.8148 282.389 43.8394 282.471 43.8862C282.553 43.933 282.621 44.0004 282.669 44.0818C282.717 44.1631 282.743 44.2556 282.745 44.3501C282.746 44.4446 282.723 44.5378 282.677 44.6205L252.489 99.3062C256.996 100.54 260.959 102.559 264.218 105.315C267.197 107.839 269.597 110.974 271.256 114.507C273.021 118.227 274.082 122.493 274.407 127.188C274.761 132.297 274.16 137.129 272.619 141.549C271.233 145.575 269.017 149.266 266.114 152.382C263.371 155.332 260.055 157.691 256.368 159.313C252.792 160.888 248.911 161.721 245.146 161.721C237.048 161.721 229.672 158.402 224.908 152.617C222.536 149.741 220.901 146.378 220.035 142.621C219.113 138.619 219.098 134.27 219.993 129.694C221.689 121.021 226.497 114.375 233.534 110.976C237.579 109.021 242.002 108.358 245.888 109.015L250.867 99.9971C247.911 99.3151 244.704 98.9642 241.271 98.9642C234.967 98.9642 229.816 100.531 225.713 102.688L222.155 109.096C218.734 115.125 215.696 117.264 213.951 117.264H213.865C213.192 117.235 212.673 116.899 212.405 116.316C211.842 115.096 212.495 113.106 214.15 110.991C216.905 107.484 220.309 104.54 224.176 102.32C224.413 102.183 224.652 102.052 224.893 101.924L249.23 58.0888C249.338 57.8948 249.393 57.6759 249.39 57.454C249.387 57.2321 249.326 57.0147 249.214 56.8235C249.101 56.6322 248.941 56.4737 248.748 56.3637C248.555 56.2537 248.337 56.1959 248.115 56.1961H236.787C236.229 56.1959 235.682 56.3458 235.202 56.6301C234.722 56.9144 234.327 57.3227 234.059 57.812L202.073 116.288C206.343 116.107 210.14 116.562 211.752 119.009C213.305 121.365 212.572 125.137 209.511 130.539L194.956 157.503C194.597 158.169 194.065 158.726 193.415 159.114C192.765 159.502 192.022 159.706 191.265 159.706H181.069C180.658 159.706 180.255 159.6 179.898 159.397C179.542 159.194 179.244 158.902 179.034 158.549C178.825 158.197 178.711 157.795 178.704 157.385C178.697 156.975 178.796 156.57 178.993 156.21L200.173 117.494C198.677 117.613 197.149 117.781 195.669 117.945C193.304 118.206 191.07 118.453 189.257 118.458C185.631 118.471 182.204 118.081 179.034 117.312L142.85 182.411L158.234 182.375C158.702 182.374 159.158 182.525 159.534 182.806C159.909 183.086 160.183 183.481 160.316 183.93C160.448 184.38 160.431 184.86 160.267 185.299C160.104 185.738 159.802 186.112 159.408 186.366L96.4784 226.853C96.0087 227.155 95.4617 227.316 94.9029 227.316ZM242.895 109.86C239.986 109.86 236.902 110.565 234.01 111.961C227.289 115.207 222.695 121.581 221.063 129.91C219.399 138.419 221.063 146.24 225.75 151.932C230.307 157.467 237.377 160.641 245.149 160.641C252.637 160.641 259.989 157.362 265.322 151.647C271.141 145.41 273.983 136.753 273.328 127.269C272.35 113.181 264.577 103.607 251.961 100.274L247.008 109.251C248.125 109.516 249.206 109.915 250.228 110.437C253.266 112.011 255.941 114.968 257.758 118.766C259.741 122.907 260.513 127.622 259.991 132.399C259.398 137.819 257.447 142.245 254.346 145.198C251.558 147.85 248.035 149.133 244.424 148.811C240.954 148.501 237.59 146.063 235.644 142.451C234.154 139.684 232.283 133.871 236.513 126.011L245.335 110.029C244.527 109.914 243.711 109.858 242.895 109.86ZM201.464 117.405L179.951 156.732C179.845 156.926 179.791 157.144 179.795 157.365C179.799 157.587 179.86 157.803 179.973 157.993C180.085 158.184 180.246 158.341 180.438 158.451C180.63 158.561 180.848 158.618 181.069 158.618H191.265C191.826 158.619 192.376 158.467 192.858 158.18C193.339 157.892 193.734 157.48 193.999 156.986L208.556 130.019L208.561 130.009C211.365 125.068 212.133 121.563 210.844 119.607C209.431 117.461 205.675 117.158 201.464 117.405ZM246.459 110.239L237.465 126.534C233.482 133.947 235.213 139.366 236.6 141.94C238.347 145.185 241.455 147.458 244.519 147.732C250.577 148.273 257.664 143.672 258.909 132.285C259.409 127.71 258.671 123.198 256.776 119.238C255.059 115.652 252.556 112.87 249.726 111.406C248.692 110.877 247.594 110.485 246.459 110.239ZM223.896 103.728C220.487 105.827 217.477 108.515 215.009 111.668C213.465 113.644 213.086 115.198 213.395 115.867C213.459 116.007 213.577 116.17 213.914 116.184C214.251 116.199 215.172 116.07 216.757 114.59C218.198 113.244 219.737 111.163 221.205 108.572L223.896 103.728ZM185.379 55.7009C177.891 55.7009 170.539 58.9783 165.206 64.695C159.387 70.9305 156.545 79.5885 157.2 89.0728C158.177 103.172 165.918 112.744 178.479 116.072L183.476 107.078C182.375 106.812 181.309 106.416 180.301 105.899C177.263 104.326 174.588 101.369 172.771 97.5706C170.788 93.4294 170.016 88.715 170.538 83.9373C171.131 78.5171 173.082 74.0913 176.183 71.139C178.971 68.4863 182.494 67.2034 186.105 67.5256C189.571 67.836 193.074 70.4077 195.03 74.0764C196.192 76.2802 196.775 78.7426 196.724 81.2331C196.677 84.0994 195.849 87.0249 194.26 89.9148L185.153 106.301C188.735 106.831 192.788 106.18 196.519 104.378C203.24 101.133 207.833 94.7588 209.466 86.4299C211.13 77.9202 209.466 70.0993 204.778 64.4064C200.222 58.8745 193.151 55.7009 185.379 55.7009ZM185.055 68.5683C179.224 68.5683 172.799 73.266 171.621 84.0568C171.127 88.6329 171.859 93.1497 173.754 97.1031C175.471 100.689 177.974 103.471 180.804 104.935C181.824 105.458 182.908 105.847 184.028 106.093L193.313 89.39C197.132 82.436 195.429 77.1344 194.074 74.5894C192.286 71.2349 189.121 68.8876 186.012 68.6098C185.696 68.5822 185.379 68.5683 185.056 68.5683H185.055Z" fill="white"/>
</svg>