<svg width="50" height="50" viewBox="0 0 50 50" fill="none" xmlns="http://www.w3.org/2000/svg">
    <g clip-path="url(#clip0_1879_19036)">
        <path d="M23.2946 26.5294C23.3842 26.9239 23.7766 27.1711 24.171 27.0815C24.5655 26.992 24.8127 26.5996 24.7231 26.2052C24.3352 24.4957 23.3672 22.944 21.9975 21.8362C20.6065 20.7113 18.8536 20.0918 17.0615 20.0918C12.7283 20.0918 9.20312 23.6171 9.20312 27.9502C9.20312 32.2833 12.7284 35.8086 17.0615 35.8086C20.6197 35.8086 23.7425 33.409 24.6557 29.9733C24.7596 29.5824 24.5269 29.1812 24.1359 29.0773C23.7445 28.9736 23.3438 29.2062 23.2399 29.5971C22.4972 32.3919 19.9564 34.3438 17.0615 34.3438C13.536 34.3438 10.668 31.4756 10.668 27.9502C10.668 24.4248 13.5361 21.5566 17.0615 21.5566C18.5406 21.5566 19.9288 22.0472 21.0763 22.9752C22.1913 23.8771 22.9791 25.1394 23.2946 26.5294Z" fill="#599A39"/>
        <path d="M13.209 27.9506C13.209 30.0748 14.9372 31.803 17.0614 31.803C19.1856 31.803 20.9139 30.0748 20.9139 27.9506C20.9139 25.8264 19.1856 24.0981 17.0614 24.0981C14.9372 24.0981 13.209 25.8264 13.209 27.9506ZM19.449 27.9506C19.449 29.2671 18.3779 30.3382 17.0614 30.3382C15.7449 30.3382 14.6738 29.2671 14.6738 27.9506C14.6738 26.6341 15.7449 25.563 17.0614 25.563C18.3779 25.563 19.449 26.6341 19.449 27.9506Z" fill="#599A39"/>
        <path d="M48.7793 12.103H47.3439C47.2312 11.7567 47.0912 11.4187 46.9263 11.0941L47.9412 10.0793C48.417 9.60332 48.417 8.829 47.9411 8.35303L46.5793 6.99111C46.1034 6.51523 45.3289 6.51543 44.853 6.99121L43.8382 8.00596C43.5138 7.84102 43.1757 7.70107 42.8292 7.58828V6.15283C42.8292 5.47969 42.2816 4.93213 41.6085 4.93213H39.6826C39.0095 4.93213 38.4619 5.47969 38.4619 6.15283V7.58818C38.1155 7.70098 37.7774 7.84092 37.4529 8.00586L36.4381 6.99102C35.9621 6.51514 35.1876 6.51533 34.7118 6.99111L33.3499 8.35293C32.8741 8.82891 32.8741 9.60322 33.35 10.0792L34.3648 11.094C34.1999 11.4186 34.0599 11.7566 33.9472 12.1029H32.5117C31.8386 12.1029 31.291 12.6505 31.291 13.3236V15.2496C31.291 15.9228 31.8386 16.4703 32.5117 16.4703H33.9471C34.0598 16.8166 34.1998 17.1547 34.3647 17.4792L33.3498 18.494C32.874 18.97 32.874 19.7443 33.3499 20.2203L34.7118 21.5823C35.1878 22.0582 35.9623 22.0581 36.4381 21.5822L37.4529 20.5675C37.7774 20.7324 38.1155 20.8725 38.4619 20.9852V22.4205C38.4619 23.0937 39.0095 23.6412 39.6826 23.6412H41.6085C42.2816 23.6412 42.8292 23.0937 42.8292 22.4205V20.9852C43.1756 20.8725 43.5137 20.7325 43.8382 20.5675L44.8529 21.5823C45.3288 22.0582 46.1033 22.0581 46.5792 21.5822L47.9411 20.2204C48.4169 19.7444 48.4169 18.9701 47.941 18.4941L46.9262 17.4793C47.0911 17.1548 47.2312 16.8167 47.3438 16.4704H48.7793C49.4524 16.4704 50 15.9229 50 15.2497V13.3237C50 12.6506 49.4524 12.103 48.7793 12.103ZM48.5352 15.0055H47.1636C46.6194 15.0055 46.1489 15.3579 45.9929 15.8825C45.8841 16.2484 45.7368 16.604 45.5555 16.9394C45.295 17.4208 45.3785 18.0027 45.7632 18.3876L46.7327 19.3571L45.7162 20.3737L44.7466 19.4043C44.362 19.0195 43.7799 18.9359 43.2984 19.1966C42.9631 19.3779 42.6075 19.5252 42.2416 19.634C41.7169 19.7901 41.3645 20.2605 41.3645 20.8047V22.1763H39.9268V20.8047C39.9268 20.2605 39.5743 19.7901 39.0496 19.6339C38.6837 19.5251 38.3281 19.3778 37.993 19.1966C37.5114 18.9359 36.9292 19.0193 36.5447 19.4041L35.575 20.3736L34.5585 19.357L35.528 18.3876C35.9127 18.0029 35.9963 17.4209 35.7357 16.9393C35.5544 16.6038 35.4071 16.2482 35.2983 15.8824C35.1422 15.3578 34.6718 15.0054 34.1276 15.0054H32.7559V13.5677H34.1274C34.6716 13.5677 35.1421 13.2152 35.2981 12.6905C35.4069 12.3247 35.5541 11.9691 35.7355 11.6337C35.9961 11.1521 35.9125 10.57 35.5278 10.1854L34.5583 9.21592L35.5748 8.19932L36.5444 9.16875C36.929 9.55361 37.5111 9.63701 37.9926 9.37646C38.3279 9.19512 38.6835 9.04785 39.0495 8.93906C39.5741 8.78301 39.9266 8.3125 39.9266 7.76836V6.39697H41.3642V7.76855C41.3642 8.31279 41.7167 8.7833 42.2412 8.93926C42.6072 9.04814 42.9629 9.19541 43.298 9.37666C43.78 9.6374 44.3618 9.55371 44.7462 9.16904L45.7159 8.19951L46.7324 9.21611L45.7628 10.1857C45.3782 10.5705 45.2947 11.1524 45.5552 11.6339C45.7366 11.9693 45.8838 12.3249 45.9926 12.6907C46.1487 13.2153 46.6191 13.5678 47.1633 13.5678H48.5352V15.0055Z" fill="#599A39"/>
        <path d="M40.6455 10.8403C38.7452 10.8403 37.1992 12.3863 37.1992 14.2866C37.1992 16.1869 38.7452 17.7329 40.6455 17.7329C42.5458 17.7329 44.0918 16.1869 44.0918 14.2866C44.0918 12.3863 42.5458 10.8403 40.6455 10.8403ZM40.6455 16.2682C39.5529 16.2682 38.6641 15.3793 38.6641 14.2867C38.6641 13.1941 39.553 12.3053 40.6455 12.3053C41.738 12.3053 42.6269 13.1941 42.6269 14.2867C42.6269 15.3793 41.738 16.2682 40.6455 16.2682Z" fill="#599A39"/>
        <path d="M27.4049 10.8138C29.409 10.8138 31.2634 9.64492 32.1291 7.83604C32.3038 7.47119 32.1495 7.03379 31.7848 6.85918C31.4198 6.68447 30.9825 6.83877 30.8079 7.20361C30.1841 8.50684 28.8484 9.34883 27.4049 9.34883C25.326 9.34883 23.6348 7.65752 23.6348 5.57871C23.6348 3.4999 25.326 1.80859 27.4049 1.80859C29.0091 1.80859 30.4403 2.82676 30.9665 4.34209C31.099 4.72412 31.5162 4.92637 31.8986 4.79375C32.2808 4.66113 32.4829 4.24375 32.3503 3.86162C31.6198 1.75742 29.6324 0.34375 27.4049 0.34375C24.5183 0.34375 22.1699 2.69219 22.1699 5.57871C22.1699 8.46523 24.5183 10.8138 27.4049 10.8138Z" fill="#599A39"/>
        <path d="M27.4049 8.40898C27.8095 8.40898 28.1373 8.08106 28.1373 7.67656V6.31113H29.5026C29.9072 6.31113 30.2351 5.9832 30.2351 5.57871C30.2351 5.17422 29.9072 4.84629 29.5026 4.84629H28.1373V3.48096C28.1373 3.07647 27.8095 2.74854 27.4049 2.74854C27.0003 2.74854 26.6725 3.07647 26.6725 3.48096V4.84629H25.3071C24.9026 4.84629 24.5747 5.17422 24.5747 5.57871C24.5747 5.9832 24.9026 6.31113 25.3071 6.31113H26.6725V7.67647C26.6725 8.08106 27.0003 8.40898 27.4049 8.40898Z" fill="#599A39"/>
        <path d="M44.7439 31.7202L35.7035 26.5007C35.327 26.2833 34.8593 26.2833 34.4828 26.5007L34.123 26.7084V25.8855C34.123 25.1048 33.4878 24.4695 32.707 24.4695H29.2627C28.9968 23.5349 28.6229 22.6316 28.1508 21.7838L30.5859 19.3486C31.1379 18.7966 31.1379 17.8982 30.5859 17.3461L27.6658 14.426C27.3984 14.1585 27.0428 14.0111 26.6645 14.0111C26.2862 14.0111 25.9306 14.1584 25.6632 14.4259L23.2281 16.8609C22.3805 16.389 21.4772 16.0149 20.5424 15.749V12.3047C20.5424 11.5239 19.9071 10.8887 19.1264 10.8887H14.9967C14.2159 10.8887 13.5807 11.5239 13.5807 12.3047V15.749C12.6459 16.0149 11.7427 16.3889 10.8949 16.8609L8.45986 14.4259C8.19238 14.1584 7.83682 14.011 7.45859 14.011C7.08037 14.011 6.7248 14.1583 6.45732 14.4258L3.53711 17.3461C2.98496 17.8982 2.98496 18.7966 3.53711 19.3486L5.97217 21.7837C5.50019 22.6314 5.12617 23.5348 4.86025 24.4694H1.41602C0.635254 24.4694 0 25.1047 0 25.8854V30.0151C0 30.7959 0.635254 31.4311 1.41602 31.4311H4.86035C5.12627 32.3659 5.50019 33.2691 5.97226 34.1169L3.53711 36.5519C2.98496 37.1041 2.98496 38.0024 3.53711 38.5545L6.45723 41.4746C6.72471 41.7421 7.08027 41.8893 7.4585 41.8893C7.83682 41.8893 8.19238 41.7421 8.45976 41.4746L10.8948 39.0395C11.7426 39.5115 12.6459 39.8855 13.5806 40.1515V43.5958C13.5806 44.3766 14.2158 45.0118 14.9966 45.0118H19.1263C19.907 45.0118 20.5423 44.3766 20.5423 43.5958V40.1515C21.4771 39.8855 22.3804 39.5115 23.228 39.0395L24.8317 40.6433V43.2164C24.8317 43.6512 25.0656 44.0562 25.4421 44.2735L34.4825 49.493C34.6708 49.6017 34.8819 49.6561 35.093 49.6561C35.3041 49.6561 35.5151 49.6017 35.7033 49.4931L44.7436 44.2736C45.1201 44.0563 45.3541 43.6513 45.3541 43.2164V39.8438C45.3541 39.4394 45.0263 39.1114 44.6217 39.1114C44.2171 39.1114 43.8893 39.4394 43.8893 39.8438V43.0755L35.093 48.1541L26.2966 43.0755V32.9183L35.093 27.8396L43.8893 32.9183V36.4259C43.8893 36.8304 44.2171 37.1583 44.6217 37.1583C45.0263 37.1583 45.3541 36.8304 45.3541 36.4259V32.7773C45.3543 32.3425 45.1203 31.9374 44.7439 31.7202ZM25.4422 31.7202C25.0657 31.9376 24.8318 32.3427 24.8318 32.7773V38.5718L24.2376 37.9774C23.7915 37.5313 23.093 37.4364 22.5389 37.7467C21.775 38.1744 20.9596 38.512 20.1152 38.75C19.5043 38.9222 19.0775 39.4832 19.0775 40.1142V43.547H15.0455V40.1142C15.0455 39.4832 14.6187 38.9222 14.0078 38.75C13.1635 38.512 12.348 38.1745 11.5842 37.7467C11.0301 37.4365 10.3316 37.5313 9.88545 37.9774L7.45859 40.4043L4.60742 37.5533L7.03428 35.1265C7.48037 34.6804 7.57529 33.9818 7.26504 33.4277C6.83721 32.6638 6.49971 31.8483 6.26172 31.0041C6.08955 30.3932 5.52852 29.9664 4.89756 29.9664H1.46484V25.9344H4.89766C5.52861 25.9344 6.08965 25.5076 6.26182 24.8967C6.4998 24.0523 6.8373 23.2369 7.26514 22.473C7.57539 21.9189 7.48047 21.2204 7.03437 20.7743L4.60742 18.3474L7.4585 15.4963L9.88535 17.9231C10.3314 18.3692 11.0299 18.4642 11.5841 18.1539C12.348 17.7261 13.1635 17.3886 14.0077 17.1506C14.6187 16.9784 15.0454 16.4174 15.0454 15.7864V12.3536H19.0774V15.7864C19.0774 16.4174 19.5042 16.9784 20.1151 17.1506C20.9595 17.3886 21.775 17.7262 22.5388 18.1539C23.0928 18.4642 23.7914 18.3692 24.2375 17.9231L26.6644 15.4963L29.5155 18.3474L27.0887 20.7742C26.6424 21.2204 26.5475 21.9189 26.8578 22.4729C27.2856 23.2369 27.6231 24.0524 27.861 24.8967C28.0333 25.5076 28.5942 25.9344 29.2253 25.9344H32.658V27.5541L25.4422 31.7202Z" fill="#599A39"/>
        <path d="M29.0239 37.9973C29.0239 41.3438 31.7465 44.0663 35.093 44.0663C38.4395 44.0663 41.1619 41.3438 41.1619 37.9973C41.1619 34.6508 38.4394 31.9282 35.093 31.9282C31.7465 31.9282 29.0239 34.6508 29.0239 37.9973ZM39.6972 37.9973C39.6972 40.536 37.6318 42.6015 35.0931 42.6015C32.5543 42.6015 30.4889 40.536 30.4889 37.9973C30.4889 35.4585 32.5543 33.3931 35.0931 33.3931C37.6318 33.3931 39.6972 35.4585 39.6972 37.9973Z" fill="#599A39"/>
        <path d="M31.6606 37.9973C31.6606 39.8898 33.2004 41.4296 35.093 41.4296C36.9855 41.4296 38.5252 39.8898 38.5252 37.9973C38.5252 36.1047 36.9854 34.5649 35.093 34.5649C33.2004 34.5649 31.6606 36.1047 31.6606 37.9973ZM37.0604 37.9973C37.0604 39.0821 36.1778 39.9647 35.0931 39.9647C34.0082 39.9647 33.1256 39.0821 33.1256 37.9973C33.1256 36.9124 34.0082 36.0298 35.0931 36.0298C36.1778 36.0298 37.0604 36.9124 37.0604 37.9973Z" fill="#599A39"/>
    </g>
    <defs>
        <clipPath id="clip0_1879_19036">
            <rect width="50" height="50" fill="white"/>
        </clipPath>
    </defs>
</svg>