<svg width="40" height="40" viewBox="0 0 40 40" fill="none" xmlns="http://www.w3.org/2000/svg">
    <g clip-path="url(#clip0_1919_64079)">
        <path d="M37.2293 2.70508H2.77071C1.24302 2.70508 0 3.9481 0 5.47579V28.8539C0 30.3816 1.24302 31.6246 2.77071 31.6246H22.864L22.2573 35.3247C22.1432 36.0212 22.3735 36.6521 22.8737 37.0121C23.3737 37.3722 24.0447 37.3915 24.6693 37.0623L29.0044 34.7805C29.1254 34.7185 29.4586 34.7185 29.5796 34.7805L33.9147 37.0623C34.2113 37.2184 34.5184 37.2962 34.8128 37.2962C35.1383 37.2962 35.448 37.201 35.7105 37.012C36.2105 36.652 36.4408 36.0209 36.3268 35.3244L35.7203 31.6245H37.2294C38.7571 31.6245 40.0002 30.3814 40.0002 28.8538V5.47579C40 3.94794 38.757 2.70508 37.2293 2.70508ZM29.2921 26.8755C26.6295 26.8755 24.4631 24.7091 24.4631 22.0465C24.4631 19.3839 26.6295 17.2176 29.2921 17.2176C31.9547 17.2176 34.121 19.3839 34.121 22.0465C34.121 24.7091 31.9547 26.8755 29.2921 26.8755ZM30.6858 32.6791C29.8782 32.2538 28.7058 32.2538 27.8983 32.6791L24.8335 34.2923L25.8078 28.3489C26.8412 28.9225 28.029 29.2502 29.2922 29.2502C30.5555 29.2502 31.7431 28.9223 32.7767 28.3489L33.1563 30.666C33.1573 30.6698 33.1576 30.6739 33.1584 30.6777L33.751 34.2924L30.6858 32.6791ZM37.6251 28.8539C37.6251 29.0684 37.4438 29.2497 37.2293 29.2497H35.3308L34.8971 26.6043C34.8954 26.5938 34.8926 26.5838 34.8905 26.5734C35.8935 25.3356 36.4961 23.7602 36.4961 22.0465C36.4961 18.0743 33.2645 14.8427 29.2922 14.8427C25.32 14.8427 22.0884 18.0743 22.0884 22.0465C22.0884 23.7602 22.691 25.3353 23.694 26.5734C23.6919 26.5837 23.6891 26.5938 23.6873 26.6041L23.2534 29.2518C23.2401 29.2513 23.2272 29.2497 23.2139 29.2497H2.77071C2.55618 29.2497 2.37489 29.0684 2.37489 28.8539V5.47579C2.37489 5.26125 2.55618 5.07997 2.77071 5.07997H37.2293C37.4438 5.07997 37.6251 5.26125 37.6251 5.47579V28.8539Z" fill="#599A39"/>
        <path d="M33.0326 9.53906H6.11713C5.46119 9.53906 4.92969 10.0706 4.92969 10.7265C4.92969 11.3825 5.46119 11.914 6.11713 11.914H33.0326C33.6885 11.914 34.22 11.3825 34.22 10.7265C34.22 10.0706 33.6885 9.53906 33.0326 9.53906Z" fill="#599A39"/>
        <path d="M17.5166 15.9766H6.11713C5.46119 15.9766 4.92969 16.5081 4.92969 17.164C4.92969 17.82 5.46119 18.3515 6.11713 18.3515H17.5166C18.1726 18.3515 18.7041 17.82 18.7041 17.164C18.7041 16.5081 18.1726 15.9766 17.5166 15.9766Z" fill="#599A39"/>
    </g>
    <defs>
        <clipPath id="clip0_1919_64079">
            <rect width="40" height="40" fill="white"/>
        </clipPath>
    </defs>
</svg>