<svg width="40" height="24" viewBox="0 0 40 24" fill="none" xmlns="http://www.w3.org/2000/svg">    <g clip-path="url(#clip0_1536_74405)">        <path d="M12.32 0C9.04541 0.0102888 5.90884 1.28177 3.59897 3.53528C1.2891 5.78878 -0.00528252 8.84013 1.62044e-05 12.0194C0.00531493 15.1986 1.30986 18.2458 3.62723 20.4921C5.94461 22.7383 9.08539 23.9999 12.36 23.9999C15.6346 23.9999 18.7754 22.7383 21.0928 20.4921C23.4101 18.2458 24.7147 15.1986 24.72 12.0194C24.7253 8.84013 23.4309 5.78878 21.121 3.53528C18.8112 1.28177 15.6746 0.0102888 12.4 0L12.32 0Z" fill="#EB001B"/>        <path d="M27.6 0C24.3254 0.0102888 21.1889 1.28177 18.879 3.53528C16.5691 5.78878 15.2747 8.84013 15.28 12.0194C15.2853 15.1986 16.5899 18.2458 18.9073 20.4921C21.2246 22.7383 24.3654 23.9999 27.64 23.9999C30.9146 23.9999 34.0554 22.7383 36.3728 20.4921C38.6902 18.2458 39.9947 15.1986 40 12.0194C40.0053 8.84013 38.7109 5.78878 36.4011 3.53528C34.0912 1.28177 30.9546 0.0102888 27.68 0L27.6 0Z" fill="#F79E1B"/>        <path d="M20.0003 2.56299C18.5279 3.6858 17.3376 5.11867 16.519 6.75345C15.7005 8.38823 15.2751 10.1822 15.2751 11.9999C15.2751 13.8176 15.7005 15.6115 16.519 17.2463C17.3376 18.8811 18.5279 20.314 20.0003 21.4368C21.4726 20.314 22.663 18.8811 23.4815 17.2463C24.3001 15.6115 24.7254 13.8176 24.7254 11.9999C24.7254 10.1822 24.3001 8.38823 23.4815 6.75345C22.663 5.11867 21.4726 3.6858 20.0003 2.56299Z" fill="#FF5F00"/>    </g>    <defs>        <clipPath id="clip0_1536_74405">            <rect width="40" height="24" fill="white"/>        </clipPath>    </defs></svg>