<svg width="50" height="50" viewBox="0 0 50 50" fill="none" xmlns="http://www.w3.org/2000/svg">
    <path d="M42.1875 18.75C43.9109 18.75 45.3125 17.3484 45.3125 15.625C45.3125 13.9016 43.9109 12.5 42.1875 12.5H40.625V14.0625H42.1875C43.0492 14.0625 43.75 14.7633 43.75 15.625C43.75 16.4867 43.0492 17.1875 42.1875 17.1875H39.0625V6.25C39.0625 2.69766 31.8172 0.78125 25 0.78125C18.1828 0.78125 10.9375 2.69766 10.9375 6.25V17.1875H7.8125C6.95078 17.1875 6.25 16.4867 6.25 15.625C6.25 14.7633 6.95078 14.0625 7.8125 14.0625H9.375V12.5H7.8125C6.08906 12.5 4.6875 13.9016 4.6875 15.625C4.6875 17.3484 6.08906 18.75 7.8125 18.75H10.9375V20.5969C7.72891 22.1406 7.03125 23.8633 7.03125 25.0609V37.5609C7.03125 38.9578 8.10547 40.3859 10.1562 41.5906V49.2188H11.7188V42.3867C14.7508 43.7008 19.2125 44.5922 25 44.5922C30.7875 44.5922 35.2492 43.7 38.2812 42.3867V49.2188H39.8438V41.5906C41.8945 40.3859 42.9688 38.9578 42.9688 37.5609V25.0609C42.9688 23.8633 42.2711 22.1406 39.0625 20.5969V18.75H42.1875ZM25 2.34375C32.7445 2.34375 37.5 4.61875 37.5 6.25C37.5 7.88125 32.7445 10.1562 25 10.1562C17.2555 10.1562 12.5 7.88125 12.5 6.25C12.5 4.61875 17.2555 2.34375 25 2.34375ZM25.7812 27.3906V11.7047C26.3031 11.6938 26.8242 11.6734 27.3438 11.6406V23.4984H28.9062V11.5086C29.4359 11.4516 29.9555 11.3789 30.4688 11.2984V26.9789C29.082 27.2086 27.5109 27.3555 25.7812 27.3906ZM21.0938 11.5086V23.4984H22.6562V11.6406C23.1758 11.6734 23.6969 11.6938 24.2188 11.7047V27.3906C22.4891 27.3555 20.918 27.2094 19.5312 26.9797V11.2992C20.0445 11.3797 20.5641 11.4516 21.0938 11.5086ZM12.5 17.1875V8.84688C13.7695 9.80234 15.7117 10.5281 17.9688 11.0109V26.6719C14.4867 25.8672 12.5 24.5508 12.5 23.4984V18.75H16.4062V17.1875H12.5ZM25 43.0297C15.332 43.0297 8.59375 40.1477 8.59375 37.5609V27.9656C11.1219 30.2531 16.6906 32.0922 25 32.0922C33.3094 32.0922 38.8781 30.2539 41.4062 27.9656V37.5609C41.4062 40.1477 34.668 43.0297 25 43.0297ZM41.4062 25.0609C41.4062 27.6477 34.668 30.5297 25 30.5297C15.332 30.5297 8.59375 27.6477 8.59375 25.0609C8.59375 24.1625 9.44141 23.2094 10.9375 22.3633V23.4984C10.9375 27.0508 18.1828 28.9672 25 28.9672C31.8172 28.9672 39.0625 27.0508 39.0625 23.4984V22.3633C40.5586 23.2094 41.4062 24.1625 41.4062 25.0609ZM37.5 23.4984C37.5 24.55 35.5133 25.8672 32.0312 26.6719V11.0109C34.2883 10.5289 36.2305 9.80313 37.5 8.84688V17.1875H33.5938V18.75H37.5V23.4984Z" fill="#599A39"/>
</svg>