<svg width="40" height="40" viewBox="0 0 40 40" fill="none" xmlns="http://www.w3.org/2000/svg">
    <path d="M36.8249 28.1355L32.7621 25.7899L36.2829 23.7138C36.9323 23.3309 37.1483 22.494 36.7654 21.8447C36.3825 21.1955 35.5458 20.9794 34.8963 21.3622L30.0463 24.2219L22.7338 19.9999L30.0451 15.7786L34.8964 18.638C35.1139 18.7663 35.3527 18.8271 35.5882 18.8271C36.0556 18.8271 36.5108 18.5869 36.7654 18.155C37.1481 17.5056 36.9319 16.6688 36.2825 16.2858L32.7612 14.2105L36.8249 11.8644C37.4777 11.4874 37.7014 10.6526 37.3245 9.99977C36.9476 9.34676 36.1127 9.12308 35.4599 9.50019L31.3971 11.846L31.3602 7.75809C31.3535 7.00424 30.735 6.39509 29.983 6.40547C29.2292 6.4122 28.6235 7.02882 28.6304 7.78266L28.6812 13.4139L21.369 17.6357V9.19279L26.2715 6.42203C26.9278 6.05111 27.1591 5.21847 26.7882 4.562C26.4173 3.90571 25.5844 3.6742 24.9282 4.0453L21.369 6.05694V1.365C21.369 0.611154 20.7578 0 20.004 0C19.2501 0 18.639 0.611154 18.639 1.365V6.05694L15.0798 4.04548C14.4231 3.67439 13.5909 3.90571 13.2198 4.56218C12.8489 5.21847 13.0802 6.0513 13.7365 6.42221L18.6388 9.19297V17.6357L11.3266 13.4139L11.3774 7.78266C11.3843 7.02882 10.7786 6.4122 10.0248 6.40547C10.0206 6.40547 10.0166 6.40547 10.0122 6.40547C9.26419 6.40547 8.65431 7.00843 8.64758 7.75827L8.61063 11.846L4.54786 9.50019C3.89503 9.12308 3.0602 9.34694 2.68328 9.99977C2.30636 10.6526 2.53004 11.4874 3.18287 11.8644L7.24637 14.2105L3.7245 16.2862C3.07512 16.669 2.85891 17.5058 3.24165 18.1553C3.49627 18.5872 3.95145 18.8275 4.41901 18.8275C4.65452 18.8275 4.89312 18.7665 5.11079 18.6384L9.96271 15.779L17.2742 20.0003L9.96143 24.2223L5.11079 21.362C4.46178 20.9792 3.62458 21.1951 3.24165 21.8445C2.85873 22.4938 3.07476 23.3307 3.72413 23.7134L7.24546 25.7897L3.18269 28.1353C2.52985 28.5122 2.30618 29.347 2.6831 29.9999C2.9359 30.4378 3.39472 30.6825 3.86646 30.6825C4.09796 30.6825 4.33274 30.6236 4.54768 30.4995L8.61045 28.1537L8.6474 32.2417C8.65413 32.9914 9.26401 33.5945 10.012 33.5945C10.0162 33.5945 10.0204 33.5945 10.0246 33.5944C10.7784 33.5876 11.3841 32.971 11.3772 32.2172L11.3264 26.5857L18.6388 22.3639V30.807L13.7365 33.5778C13.0802 33.9487 12.8489 34.7814 13.2198 35.4378C13.4707 35.8819 13.9332 36.1314 14.4093 36.1314C14.6368 36.1314 14.8676 36.0745 15.0798 35.9545L18.639 33.9431V38.635C18.639 39.3888 19.2501 40 20.004 40C20.7578 40 21.369 39.3888 21.369 38.635V33.9431L24.9282 35.9545C25.1404 36.0745 25.371 36.1314 25.5986 36.1314C26.0747 36.1314 26.5372 35.8819 26.7882 35.4378C27.1591 34.7815 26.9278 33.9487 26.2715 33.5778L21.369 30.807V22.3641L28.6812 26.5857L28.6291 32.217C28.622 32.9708 29.2275 33.5876 29.9814 33.5945C29.9857 33.5947 29.9899 33.5947 29.9943 33.5947C30.7421 33.5947 31.352 32.9918 31.3589 32.2423L31.3968 28.1537L35.4601 30.4996C35.675 30.6238 35.9098 30.6827 36.1413 30.6827C36.6131 30.6827 37.0719 30.4378 37.3247 30C37.7016 29.3472 37.4779 28.5124 36.8249 28.1355Z" fill="#599A39"/>
</svg>