<svg width="50" height="50" viewBox="0 0 50 50" fill="none" xmlns="http://www.w3.org/2000/svg">
    <g clip-path="url(#clip0_1879_19026)">
        <path d="M45.773 23.1409H38.9424V16.8395C39.3758 16.9742 39.8186 17.0659 40.2658 17.1135C40.5857 17.161 40.908 17.1839 41.2306 17.182C42.4645 17.1767 43.6836 16.8741 44.8089 16.294C45.9342 15.7138 46.9404 14.8691 47.7625 13.8145C48.5845 12.76 49.2038 11.5191 49.5804 10.1726C49.9569 8.82597 50.0822 7.40372 49.9482 5.99805C49.8726 5.1654 49.7062 4.34689 49.4529 3.56165C48.7642 3.27383 48.0474 3.08325 47.3184 2.99414C47.0065 2.95481 46.693 2.93521 46.3792 2.93543C45.2197 2.92583 44.07 3.18039 42.9971 3.68431C41.9242 4.18823 40.9493 4.93147 40.1292 5.87085C39.1799 6.97504 38.4643 8.31399 38.0373 9.78475C37.9706 7.16133 37.0135 4.67121 35.3696 2.84393C33.7257 1.01664 31.5246 -0.00365167 29.2344 9.82087e-06C28.9206 -0.000212469 28.6071 0.0193867 28.2952 0.0587182C27.5662 0.147831 26.8494 0.338407 26.1606 0.626233C25.9074 1.41147 25.741 2.22998 25.6654 3.06263C25.531 4.47239 25.6574 5.89878 26.0365 7.24876C26.4155 8.59873 27.0387 9.84194 27.8654 10.8973C28.692 11.9526 29.7035 12.7964 30.8339 13.3735C31.9643 13.9506 33.1881 14.2481 34.4256 14.2466C34.7482 14.2484 35.0705 14.2256 35.3905 14.1781C36.005 14.098 36.6095 13.9371 37.192 13.6986V23.1018H13.2849V16.8395C13.7184 16.9742 14.1612 17.0659 14.6084 17.1135C14.9283 17.161 15.2506 17.1839 15.5732 17.182C16.8107 17.1835 18.0345 16.886 19.1649 16.3089C20.2953 15.7318 21.3068 14.888 22.1334 13.8327C22.9601 12.7774 23.5833 11.5342 23.9623 10.1842C24.3414 8.8342 24.4678 7.40781 24.3334 5.99805C24.2578 5.1654 24.0914 4.34689 23.8382 3.56165C23.1494 3.27383 22.4326 3.08325 21.7036 2.99414C21.3917 2.95481 21.0782 2.93521 20.7644 2.93543C19.6049 2.92583 18.4553 3.18039 17.3824 3.68431C16.3094 4.18823 15.3346 4.93147 14.5144 5.87085C13.5652 6.97504 12.8496 8.31399 12.4226 9.78475C12.3585 7.22897 11.4417 4.79864 9.86108 2.99414C9.04297 2.05711 8.07089 1.31523 7.00104 0.811379C5.9312 0.30753 4.78481 0.0517132 3.62816 0.0587182C3.31439 0.0584959 3.00084 0.0780951 2.68895 0.117427C1.95922 0.186768 1.23956 0.357626 0.545851 0.626233C0.29261 1.41147 0.126241 2.22998 0.0506324 3.06263C-0.0837997 4.47239 0.0426464 5.89878 0.421721 7.24876C0.800795 8.59873 1.42398 9.84194 2.25061 10.8973C3.07725 11.9526 4.08875 12.7964 5.21914 13.3735C6.34953 13.9506 7.57339 14.2481 8.81088 14.2466C9.13346 14.2484 9.45579 14.2256 9.7757 14.1781C10.3903 14.098 10.9948 13.9371 11.5773 13.6986V23.1018H5.34435C4.48227 23.1044 3.65615 23.498 3.04657 24.1965C2.43699 24.8951 2.09353 25.8418 2.09127 26.8298V33.7769C2.09012 34.2922 2.18295 34.8021 2.3638 35.2739C2.54466 35.7457 2.80954 36.169 3.14148 36.5166C2.80147 36.8627 2.52966 37.2877 2.34416 37.7635C2.15866 38.2392 2.06372 38.7548 2.06566 39.2759V46.2329C2.06228 46.7254 2.14387 47.2138 2.30574 47.67C2.4676 48.1263 2.70655 48.5413 3.00885 48.8914C3.31115 49.2415 3.67084 49.5196 4.06725 49.7099C4.46366 49.9001 4.88897 49.9987 5.31873 50H45.7474C46.6094 49.9974 47.4355 49.6038 48.0451 48.9053C48.6547 48.2067 48.9982 47.26 49.0004 46.272V39.3151C49.0014 38.8012 48.9085 38.2928 48.7276 37.8226C48.5467 37.3524 48.2819 36.9309 47.9502 36.5851C48.2896 36.2364 48.5609 35.8095 48.7463 35.3323C48.9317 34.8551 49.027 34.3384 49.026 33.8161V26.8689C49.0238 25.881 48.6803 24.9342 48.0707 24.2357C47.4612 23.5371 46.635 23.1435 45.773 23.1409ZM36.1333 12.0548C34.9457 12.3933 33.7018 12.374 32.5227 11.9988C31.3435 11.6236 30.269 10.9053 29.4037 9.91364C28.5383 8.92196 27.9115 7.69064 27.5841 6.3393C27.2567 4.98797 27.2399 3.56256 27.5353 2.20158C28.0928 2.0352 28.6668 1.95296 29.2429 1.95696C30.1773 1.95379 31.103 2.16319 31.9662 2.57301C32.8295 2.98284 33.6132 3.58495 34.2719 4.34443C35.1379 5.33514 35.7647 6.56646 36.091 7.91797C36.4172 9.26949 36.4318 10.6949 36.1333 12.0548ZM41.3502 7.27985C42.0089 6.52037 42.7926 5.91826 43.6558 5.50843C44.5191 5.09861 45.4448 4.88921 46.3792 4.89238C46.9553 4.88838 47.5293 4.97062 48.0868 5.137C48.3828 6.49898 48.3661 7.92558 48.0384 9.27798C47.7106 10.6304 47.083 11.8625 46.2165 12.8545C45.35 13.8465 44.2742 14.5646 43.0938 14.9388C41.9133 15.3131 40.6685 15.3308 39.4803 14.9902C39.1828 13.6295 39.1987 12.2036 39.5265 10.852C39.8543 9.50043 40.4827 8.26956 41.3502 7.27985ZM10.5185 12.0548C9.33092 12.3933 8.0871 12.374 6.90791 11.9988C5.72872 11.6236 4.65426 10.9053 3.78891 9.91364C2.92356 8.92196 2.29674 7.69064 1.96935 6.3393C1.64197 4.98797 1.62514 3.56256 1.92051 2.20158C2.47801 2.0352 3.05208 1.95296 3.62816 1.95696C4.56257 1.95379 5.48823 2.16319 6.3515 2.57301C7.21477 2.98284 7.99847 3.58495 8.65719 4.34443C9.52318 5.33514 10.15 6.56646 10.4762 7.91797C10.8025 9.26949 10.8171 10.6949 10.5185 12.0548ZM15.7354 7.27985C16.3941 6.52037 17.1778 5.91826 18.0411 5.50843C18.9044 5.09861 19.83 4.88921 20.7644 4.89238C21.3405 4.88838 21.9146 4.97062 22.4721 5.137C22.7681 6.49898 22.7514 7.92558 22.4236 9.27798C22.0959 10.6304 21.4682 11.8625 20.6018 12.8545C19.7353 13.8465 18.6595 14.5646 17.479 14.9388C16.2986 15.3131 15.0537 15.3308 13.8655 14.9902C13.5681 13.6295 13.584 12.2036 13.9118 10.852C14.2395 9.50043 14.8679 8.26956 15.7354 7.27985ZM47.3269 39.3151V46.272C47.3247 46.7409 47.1611 47.1899 46.8718 47.5215C46.5825 47.8531 46.1907 48.0405 45.7815 48.0431H5.31873C4.90955 48.0405 4.51777 47.8531 4.22843 47.5215C3.93909 47.1899 3.77555 46.7409 3.77331 46.272V39.3151C3.77555 38.8462 3.93909 38.3972 4.22843 38.0656C4.51777 37.734 4.90955 37.5466 5.31873 37.544H45.773C46.1777 37.5542 46.563 37.745 46.8468 38.0758C47.1306 38.4065 47.2906 38.8512 47.2928 39.3151H47.3269ZM5.31873 35.5871C4.91332 35.5794 4.52678 35.3894 4.24248 35.0581C3.95817 34.7268 3.79887 34.2807 3.79892 33.8161V26.8689C3.80117 26.4 3.96471 25.951 4.25405 25.6194C4.54338 25.2878 4.93517 25.1004 5.34435 25.0979H45.773C46.1821 25.1004 46.5739 25.2878 46.8633 25.6194C47.1526 25.951 47.3161 26.4 47.3184 26.8689V33.8161C47.3184 34.0486 47.2784 34.2789 47.2008 34.4938C47.1231 34.7087 47.0093 34.9039 46.8657 35.0684C46.7222 35.2328 46.5519 35.3633 46.3644 35.4523C46.1769 35.5413 45.9759 35.5871 45.773 35.5871H5.31873Z" fill="#599A39"/>
    </g>
    <defs>
        <clipPath id="clip0_1879_19026">
            <rect width="50" height="50" fill="white"/>
        </clipPath>
    </defs>
</svg>