<svg width="50" height="50" viewBox="0 0 50 50" fill="none" xmlns="http://www.w3.org/2000/svg">
    <path opacity="0.6" d="M41 37.7508L40.1753 32.5202C38.4891 32.6543 37.1512 32.386 36.1615 31.7154C35.1718 31.0784 34.4937 30.1563 34.1271 28.9492C33.7973 27.7757 33.7423 26.4345 33.9622 24.9257H41V12H27.4192V25.4286C27.4192 29.821 28.5556 33.1405 30.8282 35.3869C33.1008 37.667 36.4914 38.4549 41 37.7508ZM22.5808 37.7508L21.756 32.5202C20.0699 32.6543 18.732 32.386 17.7423 31.7154C16.7526 31.0784 16.0745 30.1563 15.7079 28.9492C15.378 27.7757 15.323 26.4345 15.543 24.9257H22.5808V12H9V25.4286C9 29.821 10.1363 33.1405 12.4089 35.3869C14.6816 37.667 18.0722 38.4549 22.5808 37.7508Z" fill="#599A39"/>
</svg>