<svg width="41" height="40" viewBox="0 0 41 40" fill="none" xmlns="http://www.w3.org/2000/svg">
    <g clip-path="url(#clip0_1702_74395)">
        <path d="M38.3984 33.1999C34.4195 31.09 31.3675 29.9068 28.6505 29.4532L28.9317 29.0666C29.0651 28.9333 29.1317 28.7333 29.0651 28.5333L28.4403 26.0343C30.0927 23.6983 31.065 20.7779 31.065 18V15.3333H31.7317H33.065C33.465 15.3333 33.7316 15.0667 33.7316 14.6667C33.7316 14.2667 33.465 14 33.065 14H32.3984V13.3334C32.3984 8.06677 28.9317 3.60011 23.7317 2.13341V1.99997C23.7317 0.933267 22.8651 0 21.7317 0H19.0651C17.9984 0 17.0651 0.866628 17.0651 1.99997V2.13333C11.8651 3.60003 8.39841 8.06669 8.39841 13.3333V14H7.73177C7.33178 14 7.06514 14.2666 7.06514 14.6666C7.06514 15.0666 7.33178 15.3332 7.73177 15.3332H9.06512H9.73175V17.9999C9.73175 20.7779 10.7041 23.6982 12.3565 26.0343L11.7317 28.5333C11.7317 28.6666 11.7317 28.9333 11.8651 29.0666L12.1462 29.4532C9.42937 29.9069 6.37731 31.09 2.39841 33.1999C1.13179 33.8 0.398438 35.0666 0.398438 36.4666V39.3333C0.398438 39.7333 0.665074 39.9999 1.06507 39.9999H17.0651H17.3317H23.4651H23.7317H39.7317C40.1317 39.9999 40.3984 39.7333 40.3984 39.3333V36.4666C40.3984 35.1333 39.5984 33.8666 38.3984 33.1999ZM19.9986 32.5829L20.4022 31.6749L21.3986 33.867L22.0503 35.3333H18.7985L19.9986 32.5829ZM18.2918 36.6666H22.5L22.881 38.6666H17.8918L18.2918 36.6666ZM27.3984 27.3333L27.665 28.5333L26.984 29.4684C26.9406 29.5039 26.9004 29.5469 26.865 29.5999L24.0921 33.4394L23.2122 34.6476L21.4149 30.6037C23.5632 30.3417 25.481 29.2632 27.0299 27.7134C27.0471 27.6964 27.0643 27.6795 27.0814 27.6624C27.0855 27.6582 27.0896 27.6539 27.0938 27.6497C27.1965 27.5467 27.2981 27.4414 27.3984 27.3333ZM26.5298 4.87594C26.6039 4.92519 26.6773 4.97523 26.7499 5.02622C27.5996 5.65949 28.3841 6.40134 28.9984 7.19998L25.9318 7.79997L26.5298 4.87594ZM14.8651 7.79997L11.7984 7.19998C12.4128 6.40126 13.1973 5.65941 14.0471 5.02614C14.1196 4.97523 14.193 4.92519 14.267 4.87594L14.8651 7.79997ZM9.73175 13.3333C9.73175 11.5593 10.1784 9.88572 10.9867 8.42316L15.5985 9.33339C15.6651 9.33339 15.6651 9.33339 15.7318 9.33339C15.9318 9.33339 16.0652 9.26675 16.2652 9.20003C16.4652 9.06667 16.5318 8.80004 16.4652 8.60004L15.5499 4.14577C16.032 3.91385 16.5378 3.71464 17.0652 3.55086V5.33337C17.0652 5.73336 17.3318 6 17.7318 6C18.1318 6 18.3984 5.73336 18.3984 5.33337V2.66668V1.99997C18.3984 1.66662 18.6651 1.33334 19.0651 1.33334H21.7317C22.0651 1.33334 22.3984 1.59998 22.3984 1.99997V2.6666V5.33329C22.3984 5.73328 22.665 5.99992 23.065 5.99992C23.465 5.99992 23.7316 5.73328 23.7316 5.33329V3.55086C24.2765 3.72004 24.7987 3.92687 25.2952 4.16873L24.3983 8.5334C24.3983 8.7334 24.465 9.00003 24.5983 9.13339C24.7317 9.26675 24.865 9.33339 25.065 9.33339C25.1316 9.33339 25.1316 9.33339 25.1983 9.33339L29.7802 8.36875C30.6075 9.84418 31.065 11.5374 31.065 13.3333V14H30.3983H10.3985H9.73183L9.73175 13.3333ZM11.0651 15.3333H29.7317V18C29.7317 20.9069 28.7345 23.4901 27.2373 25.4537L27.1984 25.4666C27.1317 25.5332 27.065 25.6 26.9984 25.6666C26.663 26.1139 26.309 26.5216 25.9391 26.8893C24.3694 28.3517 22.497 29.2375 20.6929 29.3252C20.6021 29.2862 20.5003 29.2666 20.3984 29.2666C20.2959 29.2666 20.2036 29.2867 20.1207 29.3261C19.0164 29.2754 17.8861 28.9254 16.8147 28.3266C15.7294 27.703 14.7083 26.8041 13.7983 25.6666C13.7317 25.6 13.665 25.5332 13.5983 25.4666L13.5594 25.4537C12.0622 23.4901 11.065 20.9069 11.065 18L11.0651 15.3333ZM19.3819 30.6039L17.5846 34.6477L16.7047 33.4396L13.9318 29.6001C13.9106 29.5789 13.8871 29.5578 13.8627 29.5371L13.1318 28.5334L13.3984 27.3334C13.4888 27.4307 13.5805 27.5255 13.673 27.6188C15.238 29.2194 17.1899 30.3365 19.3819 30.6039ZM1.73178 36.4666C1.73178 35.6 2.19841 34.7999 2.99848 34.3999C7.24791 32.1424 10.307 31.0093 13.0319 30.6709L17.0103 36.141L16.5052 38.6665H1.73178V36.4666ZM39.0651 38.6667H24.2918L23.7867 36.1412L27.8081 30.6118C30.5235 31.0216 33.6373 32.1537 37.7984 34.3334C38.5984 34.8 39.0651 35.6001 39.0651 36.4667V38.6667Z" fill="white"/>
    </g>
    <defs>
        <clipPath id="clip0_1702_74395">
            <rect width="40" height="40" fill="white" transform="translate(0.398438)"/>
        </clipPath>
    </defs>
</svg>