<svg width="40" height="40" viewBox="0 0 40 40" fill="none" xmlns="http://www.w3.org/2000/svg">
    <g clip-path="url(#clip0_1919_76699)">
        <path d="M21.2566 1.23637C21.0061 1.23443 20.7607 1.30769 20.5523 1.44666C20.3439 1.58564 20.1819 1.78394 20.0874 2.01593C19.9929 2.24792 19.9701 2.50293 20.022 2.748C20.074 2.99307 20.1982 3.21693 20.3787 3.39063L21.995 5.00939H13.7521C13.7121 5.00747 13.6723 5.00747 13.6323 5.00939C11.9626 5.08948 12.0824 7.59342 13.7521 7.51333H22.0048L20.3787 9.13942C20.2622 9.25598 20.1697 9.39436 20.1066 9.54666C20.0435 9.69896 20.0111 9.8622 20.0111 10.027C20.0111 10.1919 20.0435 10.3551 20.1066 10.5074C20.1697 10.6597 20.2622 10.7981 20.3787 10.9147C20.4953 11.0312 20.6337 11.1237 20.786 11.1868C20.9383 11.2499 21.1015 11.2823 21.2663 11.2823C21.4312 11.2823 21.5944 11.2499 21.7467 11.1868C21.899 11.1237 22.0374 11.0312 22.154 10.9147L25.905 7.15143C26.0216 7.03512 26.1141 6.89696 26.1772 6.74486C26.2403 6.59276 26.2728 6.4297 26.2728 6.26502C26.2728 6.10035 26.2403 5.93729 26.1772 5.78519C26.1141 5.63309 26.0216 5.49493 25.905 5.37862L22.154 1.61538C22.0373 1.49545 21.8978 1.40012 21.7436 1.33502C21.5895 1.26992 21.4239 1.23638 21.2566 1.23637ZM6.2574 16.2747C5.56574 16.2771 5.00766 16.8399 5.01032 17.5315V26.4176C2.16066 26.9995 0 29.5323 0 32.5478C0 35.9902 2.81501 38.8052 6.2574 38.8052H33.7885C33.7951 38.8052 33.8015 38.8052 33.808 38.8052C33.9085 38.8124 34.0095 38.8075 34.1088 38.7905C37.4115 38.6309 40.063 35.8884 40.063 32.5478C40.063 29.5323 37.9048 26.9995 35.0551 26.4176V17.5315C35.0578 16.8399 34.4997 16.2771 33.808 16.2747H22.5305C21.8389 16.2771 21.2808 16.8399 21.2835 17.5315V26.2929H18.7795V17.5315C18.7822 16.8399 18.2241 16.2771 17.5325 16.2747H6.2574ZM7.51426 18.7786H16.2756V26.2929H7.51426V18.7786ZM23.7898 18.7786H32.5487V26.2929H23.7898V18.7786ZM6.2574 28.7968C8.34656 28.7968 10.0182 30.4587 10.0182 32.5478C10.0182 34.637 8.34656 36.3111 6.2574 36.3111C4.16824 36.3111 2.50394 34.637 2.50394 32.5478C2.50394 30.4587 4.16824 28.7968 6.2574 28.7968ZM11.2335 28.7968H28.832C28.0345 29.8464 27.5409 31.1363 27.5409 32.5478C27.5409 33.9637 28.0374 35.2598 28.8393 36.3111H11.2261C12.0279 35.2599 12.5221 33.9635 12.5221 32.5478C12.5221 31.1365 12.0308 29.8463 11.2335 28.7968ZM33.808 28.7968C35.8972 28.7968 37.5591 30.4587 37.5591 32.5478C37.5591 34.6261 35.9136 36.2913 33.8398 36.3086C33.8252 36.3083 33.8105 36.3083 33.7958 36.3086C31.7126 36.3019 30.0448 34.6327 30.0448 32.5478C30.0448 30.4587 31.7189 28.7968 33.808 28.7968ZM6.25984 31.2983C6.09543 31.2983 5.93263 31.3307 5.78074 31.3936C5.62884 31.4565 5.49082 31.5487 5.37457 31.665C5.25831 31.7812 5.16609 31.9193 5.10317 32.0711C5.04026 32.223 5.00787 32.3858 5.00787 32.5503C5.00787 32.7147 5.04026 32.8775 5.10317 33.0294C5.16609 33.1813 5.25831 33.3193 5.37457 33.4355C5.49082 33.5518 5.62884 33.644 5.78074 33.7069C5.93263 33.7698 6.09543 33.8022 6.25984 33.8022C6.42425 33.8022 6.58705 33.7698 6.73895 33.7069C6.89085 33.644 7.02886 33.5518 7.14512 33.4355C7.26137 33.3193 7.35359 33.1813 7.41651 33.0294C7.47943 32.8775 7.51181 32.7147 7.51181 32.5503C7.51181 32.3858 7.47943 32.223 7.41651 32.0711C7.35359 31.9193 7.26137 31.7812 7.14512 31.665C7.02886 31.5487 6.89085 31.4565 6.73895 31.3936C6.58705 31.3307 6.42425 31.2983 6.25984 31.2983ZM33.8032 31.2983C33.6387 31.2983 33.4759 31.3307 33.324 31.3936C33.1721 31.4565 33.0341 31.5487 32.9179 31.665C32.8016 31.7812 32.7094 31.9193 32.6465 32.0711C32.5836 32.223 32.5512 32.3858 32.5512 32.5503C32.5512 32.7147 32.5836 32.8775 32.6465 33.0294C32.7094 33.1813 32.8016 33.3193 32.9179 33.4355C33.0341 33.5518 33.1721 33.644 33.324 33.7069C33.4759 33.7698 33.6387 33.8022 33.8032 33.8022C33.9676 33.8022 34.1304 33.7698 34.2823 33.7069C34.4342 33.644 34.5722 33.5518 34.6884 33.4355C34.8047 33.3193 34.8969 33.1813 34.9598 33.0294C35.0227 32.8775 35.0551 32.7147 35.0551 32.5503C35.0551 32.3858 35.0227 32.223 34.9598 32.0711C34.8969 31.9193 34.8047 31.7812 34.6884 31.665C34.5722 31.5487 34.4342 31.4565 34.2823 31.3936C34.1304 31.3307 33.9676 31.2983 33.8032 31.2983Z" fill="#599A39"/>
    </g>
    <defs>
        <clipPath id="clip0_1919_76699">
            <rect width="40" height="40" fill="white"/>
        </clipPath>
    </defs>
</svg>