<svg width="40" height="40" viewBox="0 0 40 40" fill="none" xmlns="http://www.w3.org/2000/svg">
    <g clip-path="url(#clip0_1606_50503)">
        <path d="M28.8213 3.14587C25.5191 0.462431 21.2028 -0.570382 16.9785 0.312274C11.6996 1.41532 7.39268 5.74087 6.26143 11.0759C5.30761 15.5745 6.483 20.091 9.48628 23.4671C10.9758 25.1417 11.7961 27.2364 11.7961 29.3716V31.7153C11.7961 33.2431 12.7759 34.5456 14.1399 35.0294V36.4809C14.1399 38.4195 15.717 39.9966 17.6555 39.9966H22.343C24.2815 39.9966 25.8586 38.4195 25.8586 36.4809V35.0294C27.2226 34.5456 28.2024 33.2431 28.2024 31.7153V29.3716C28.2024 27.2638 29.0471 25.1393 30.5807 23.3896C32.8255 20.8286 34.0617 17.5427 34.0617 14.1372C34.0617 9.85853 32.1517 5.85227 28.8213 3.14587ZM23.5149 36.4809C23.5149 37.1271 22.9892 37.6528 22.343 37.6528H17.6555C17.0093 37.6528 16.4836 37.1271 16.4836 36.4809V35.2309H23.5149V36.4809ZM25.8586 31.7153C25.8586 32.3615 25.3329 32.8872 24.6867 32.8872H15.3117C14.6656 32.8872 14.1399 32.3615 14.1399 31.7153V30.5435H25.8586V31.7153ZM19.9992 19.8932C20.7906 19.8932 21.5817 19.7667 22.343 19.5155V28.1998H17.6555V19.5155C18.4167 19.7667 19.2078 19.8932 19.9992 19.8932ZM18.0403 17.1599L19.9992 13.242L21.9582 17.1599C20.7025 17.6766 19.296 17.6766 18.0403 17.1599ZM28.8182 21.8448C27.1887 23.7038 26.1842 25.9243 25.9254 28.1997H24.6867V17.661C24.6867 17.6595 24.6867 17.658 24.6867 17.6564C24.6867 17.4965 24.6521 17.3203 24.5742 17.1549C24.5701 17.1463 24.5672 17.1373 24.563 17.1288L21.0474 10.0976C20.8489 9.70056 20.4431 9.44978 19.9992 9.44978C19.5553 9.44978 19.1496 9.70056 18.951 10.0976L15.4353 17.1288C15.3578 17.2843 15.3117 17.4734 15.3117 17.6556C15.3117 17.6577 15.3117 17.6597 15.3117 17.6618V28.1998H14.076C13.8247 25.9086 12.8389 23.7099 11.2375 21.9095C8.73456 19.0957 7.75651 15.3243 8.55425 11.5621C9.49581 7.12149 13.0739 3.52251 17.4579 2.60649C20.9882 1.86884 24.5912 2.72845 27.3432 4.96478C30.1235 7.22415 31.718 10.5674 31.718 14.1372C31.718 16.9741 30.6882 19.7113 28.8182 21.8448Z" fill="#599A39"/>
        <path d="M3.51562 14.1367H1.17188C0.524687 14.1367 0 14.6614 0 15.3086C0 15.9558 0.524687 16.4805 1.17188 16.4805H3.51562C4.16281 16.4805 4.6875 15.9558 4.6875 15.3086C4.6875 14.6614 4.16281 14.1367 3.51562 14.1367Z" fill="#599A39"/>
        <path d="M4.00152 8.27785L2.34426 6.62059C1.8866 6.16293 1.14465 6.16293 0.686992 6.62059C0.229336 7.07824 0.229336 7.8202 0.686992 8.27785L2.34426 9.93512C2.80199 10.3929 3.54395 10.3927 4.00152 9.93512C4.45918 9.47746 4.45918 8.73551 4.00152 8.27785Z" fill="#599A39"/>
        <path d="M4.00146 20.6831C3.54381 20.2254 2.80186 20.2254 2.3442 20.6831L0.686934 22.3404C0.229355 22.798 0.229355 23.54 0.686934 23.9976C1.14451 24.4552 1.88646 24.4553 2.3442 23.9976L4.00146 22.3404C4.45904 21.8827 4.45904 21.1407 4.00146 20.6831Z" fill="#599A39"/>
        <path d="M38.8281 14.1367H36.4844C35.8372 14.1367 35.3125 14.6614 35.3125 15.3086C35.3125 15.9558 35.8372 16.4805 36.4844 16.4805H38.8281C39.4753 16.4805 40 15.9558 40 15.3086C40 14.6614 39.4753 14.1367 38.8281 14.1367Z" fill="#599A39"/>
        <path d="M39.314 6.62059C38.8564 6.16293 38.1144 6.16293 37.6568 6.62059L35.9995 8.27785C35.5418 8.73551 35.5418 9.47746 35.9995 9.93512C36.4571 10.3928 37.1991 10.3928 37.6568 9.93512L39.314 8.27785C39.7717 7.8202 39.7717 7.07824 39.314 6.62059Z" fill="#599A39"/>
        <path d="M39.3141 22.3404L37.6568 20.6831C37.1993 20.2254 36.4573 20.2254 35.9995 20.6831C35.5418 21.1407 35.5419 21.8827 35.9995 22.3404L37.6568 23.9976C38.1143 24.4553 38.8564 24.4553 39.3141 23.9976C39.7717 23.54 39.7717 22.798 39.3141 22.3404Z" fill="#599A39"/>
    </g>
    <defs>
        <clipPath id="clip0_1606_50503">
            <rect width="40" height="40" fill="white"/>
        </clipPath>
    </defs>
</svg>