<svg width="25" height="24" viewBox="0 0 25 24" fill="none" xmlns="http://www.w3.org/2000/svg">
    <path d="M3.75 3H5.75L6.15 5M7.75 13H17.75L21.75 5H6.15M7.75 13L6.15 5M7.75 13L5.45711 15.2929C4.82714 15.9229 5.27331 17 6.16421 17H17.75M17.75 17C16.6454 17 15.75 17.8954 15.75 19C15.75 20.1046 16.6454 21 17.75 21C18.8546 21 19.75 20.1046 19.75 19C19.75 17.8954 18.8546 17 17.75 17ZM9.75 19C9.75 20.1046 8.85457 21 7.75 21C6.64543 21 5.75 20.1046 5.75 19C5.75 17.8954 6.64543 17 7.75 17C8.85457 17 9.75 17.8954 9.75 19Z" stroke="#292929" stroke-width="2" stroke-linecap="round" stroke-linejoin="round"/>
</svg>