<svg width="20" height="21" viewBox="0 0 20 21" fill="none" xmlns="http://www.w3.org/2000/svg">
    <g clip-path="url(#clip0_1522_50188)">
        <path d="M19.7392 15.1947L15.9042 16.2217L14.8771 12.3867L16.0846 12.0633L16.4891 13.574C16.9587 12.0457 16.9404 10.3875 16.4102 8.83582C15.6921 6.73424 14.1072 5.05006 12.062 4.21517L12.5344 3.05785C14.9143 4.02939 16.7581 5.98804 17.5931 8.43161C18.2748 10.4267 18.2286 12.5745 17.491 14.5027L19.4159 13.9872L19.7392 15.1947ZM7.70137 18.8246C6.09332 18.5105 4.64589 17.6964 3.55262 16.5217L5.05964 16.9254L5.38309 15.718L1.54916 14.6909L0.522035 18.5248L1.72948 18.8483L2.24533 16.9228C3.55231 18.5316 5.39304 19.6474 7.46178 20.0514C8.03303 20.163 8.60803 20.2178 9.17993 20.2178C11.1425 20.2178 13.0641 19.5713 14.6327 18.3523L13.8656 17.3653C12.1253 18.7178 9.87845 19.2495 7.70137 18.8246ZM3.40273 6.26766C4.47637 5.03815 5.90441 4.1967 7.46907 3.84087L6.36177 4.94871L7.24587 5.83236L10.0524 3.02444L7.24576 0.217773L6.36188 1.10165L7.77036 2.51013C5.72512 2.83482 3.84153 3.86471 2.46117 5.44547C0.76523 7.38763 -0.00813693 9.9672 0.339371 12.5228L1.57798 12.3544C1.27911 10.1565 1.94421 7.93795 3.40273 6.26766Z" fill="white"/>
    </g>
    <defs>
        <clipPath id="clip0_1522_50188">
            <rect width="20" height="20" fill="white" transform="translate(0 0.217773)"/>
        </clipPath>
    </defs>
</svg>