<svg width="50" height="50" viewBox="0 0 50 50" fill="none" xmlns="http://www.w3.org/2000/svg">
    <g clip-path="url(#clip0_1862_31345)">
        <path d="M49.8283 21.0332V16.0675H46.5178V5.79336L40.7244 0L34.9311 5.79336V16.0675H30.7929V5.79336L24.9996 0L19.2062 5.79336V16.0675H15.0681V5.79336L9.27475 0L3.48139 5.79336V16.0675H0.170898V21.0332H3.48139V36.758H0.170898V41.7238H3.48139V50H15.0681V41.7238H19.2062V50H30.7929V41.7238H34.9311V50H46.5178V41.7238H49.8283V36.758H46.5178V21.0332H49.8283ZM46.5178 17.7227H48.173V19.378H46.5178V17.7227ZM3.48139 40.0685H1.82614V38.4133H3.48139V40.0685ZM3.48139 19.378H1.82614V17.7227H3.48139V19.378ZM13.4129 48.3448H5.13663V6.47863L9.27475 2.34052L13.4129 6.47863V48.3448ZM19.2062 40.0685H15.0681V38.4133H19.2062V40.0685ZM19.2062 36.758H15.0681V21.0332H19.2062V36.758ZM19.2062 19.378H15.0681V17.7227H19.2062V19.378ZM29.1377 48.3448H20.8615V6.47863L24.9996 2.34052L29.1377 6.47863V48.3448ZM34.9311 40.0685H30.7929V38.4133H34.9311V40.0685ZM34.9311 36.758H30.7929V21.0332H34.9311V36.758ZM34.9311 19.378H30.7929V17.7227H34.9311V19.378ZM44.8625 36.758V48.3448H36.5863V6.47863L40.7244 2.34052L44.8625 6.47863V36.758ZM48.173 38.4133V40.0685H46.5178V38.4133H48.173Z" fill="#599A39"/>
    </g>
    <defs>
        <clipPath id="clip0_1862_31345">
            <rect width="50" height="50" fill="white"/>
        </clipPath>
    </defs>
</svg>