<svg width="40" height="40" viewBox="0 0 40 40" fill="none" xmlns="http://www.w3.org/2000/svg">
    <g clip-path="url(#clip0_1702_74403)">
        <path d="M1.33333 32.6668V33.3335C1.33437 34.1808 1.8682 34.9359 2.66667 35.2195V35.3335C2.66667 36.4381 3.5621 37.3335 4.66667 37.3335H5.4C5.71546 38.887 7.08141 40.0035 8.66667 40.0035C10.2519 40.0035 11.6179 38.887 11.9333 37.3335H19.4C19.7155 38.887 21.0814 40.0035 22.6667 40.0035C24.2519 40.0035 25.6179 38.887 25.9333 37.3335H26.6667C27.7712 37.3335 28.6667 36.4381 28.6667 35.3335V27.1388C28.6661 26.7249 28.5698 26.3167 28.3853 25.9462L26.4827 22.1408C26.0336 21.235 25.1084 20.6633 24.0973 20.6668H21.3333V16.6668C21.3333 15.9304 20.7364 15.3335 20 15.3335H1.33333C0.596954 15.3335 0 15.9304 0 16.6668V31.3335C0 32.0699 0.596954 32.6668 1.33333 32.6668ZM8.66667 38.6668C7.5621 38.6668 6.66667 37.7714 6.66667 36.6668C6.66667 35.5623 7.5621 34.6668 8.66667 34.6668C9.77124 34.6668 10.6667 35.5623 10.6667 36.6668C10.6667 37.7714 9.77124 38.6668 8.66667 38.6668ZM22.6667 38.6668C21.5621 38.6668 20.6667 37.7714 20.6667 36.6668C20.6667 35.5623 21.5621 34.6668 22.6667 34.6668C23.7712 34.6668 24.6667 35.5623 24.6667 36.6668C24.6667 37.7714 23.7712 38.6668 22.6667 38.6668ZM26.6667 36.0002H25.9333C25.6179 34.4466 24.2519 33.3302 22.6667 33.3302C21.0814 33.3302 19.7155 34.4466 19.4 36.0002H11.9333C11.6179 34.4466 10.2519 33.3302 8.66667 33.3302C7.08141 33.3302 5.71546 34.4466 5.4 36.0002H4.66667C4.29848 36.0002 4 35.7017 4 35.3335V34.6668C4 34.2986 3.70152 34.0002 3.33333 34.0002C2.96514 34.0002 2.66667 33.7017 2.66667 33.3335V32.6668H20C20.7364 32.6668 21.3333 32.0699 21.3333 31.3335V28.0002H27.3333V29.3335H26C24.8954 29.3335 24 30.2289 24 31.3335C24 32.4381 24.8954 33.3335 26 33.3335H27.3333V35.3335C27.3333 35.5103 27.2631 35.6799 27.1381 35.8049C27.013 35.9299 26.8435 36.0002 26.6667 36.0002ZM27.3333 32.0002H26C25.6318 32.0002 25.3333 31.7017 25.3333 31.3335C25.3333 30.9653 25.6318 30.6668 26 30.6668H27.3333V32.0002ZM24.0973 22.0002C24.6021 21.9977 25.0644 22.282 25.29 22.7335L27.1927 26.5388C27.2098 26.5795 27.2247 26.6212 27.2373 26.6635H21.3333V22.0002H24.0973ZM1.33333 16.6668H20V31.3335H1.33333V16.6668Z" fill="white"/>
        <path d="M3.33073 22C3.69892 22 3.9974 21.7015 3.9974 21.3333V19.3333H5.9974C6.36559 19.3333 6.66406 19.0349 6.66406 18.6667C6.66406 18.2985 6.36559 18 5.9974 18H3.33073C2.96254 18 2.66406 18.2985 2.66406 18.6667V21.3333C2.66406 21.7015 2.96254 22 3.33073 22Z" fill="white"/>
        <path d="M8.66667 37.3333C9.03486 37.3333 9.33333 37.0349 9.33333 36.6667C9.33333 36.2985 9.03486 36 8.66667 36C8.29848 36 8 36.2985 8 36.6667C8 37.0349 8.29848 37.3333 8.66667 37.3333Z" fill="white"/>
        <path d="M22.6667 37.3333C23.0349 37.3333 23.3333 37.0349 23.3333 36.6667C23.3333 36.2985 23.0349 36 22.6667 36C22.2985 36 22 36.2985 22 36.6667C22 37.0349 22.2985 37.3333 22.6667 37.3333Z" fill="white"/>
        <path d="M28 1.30656e-05C21.3758 0.00772783 16.0077 5.37579 16 12C15.9995 12.4729 16.028 12.9453 16.0853 13.4147C16.1072 13.657 16.2594 13.8682 16.4823 13.9657C16.7053 14.0631 16.9636 14.0314 17.1564 13.8828C17.3491 13.7342 17.4455 13.4924 17.408 13.252C17.3579 12.8366 17.333 12.4185 17.3333 12C17.3343 6.26592 21.8684 1.55853 27.5984 1.34264C33.3284 1.12674 38.2039 5.47959 38.6363 11.1974C39.0687 16.9151 34.9033 21.9517 29.206 22.6C28.854 22.6387 28.5938 22.9459 28.6133 23.2994C28.6328 23.6529 28.9253 23.9296 29.2793 23.9293C29.3043 23.9293 29.3292 23.928 29.354 23.9253C35.6852 23.2158 40.3583 17.6826 39.9984 11.322C39.6384 4.96136 34.3708 -0.00930015 28 1.30656e-05Z" fill="white"/>
        <path d="M28.0026 3.3335C27.6344 3.3335 27.3359 3.63197 27.3359 4.00016V12.0002C27.336 12.177 27.4062 12.3465 27.5313 12.4715L32.1979 17.1382C32.4595 17.3908 32.8753 17.3872 33.1325 17.13C33.3896 16.8729 33.3933 16.4571 33.1406 16.1955L28.6693 11.7242V4.00016C28.6693 3.63197 28.3708 3.3335 28.0026 3.3335Z" fill="white"/>
    </g>
    <defs>
        <clipPath id="clip0_1702_74403">
            <rect width="40" height="40" fill="white"/>
        </clipPath>
    </defs>
</svg>