<svg width="40" height="40" viewBox="0 0 40 40" fill="none" xmlns="http://www.w3.org/2000/svg">
    <g clip-path="url(#clip0_1919_88006)">
        <path d="M15.9011 26.9536L21.4254 10.3807C21.63 9.76668 21.2982 9.10301 20.6842 8.89832C20.0703 8.69371 19.4065 9.02551 19.2018 9.63949L13.6776 26.2124C13.473 26.8264 13.8048 27.49 14.4188 27.6947C14.5417 27.7357 14.6667 27.7551 14.7895 27.7551C15.2801 27.7552 15.7374 27.4446 15.9011 26.9536Z" fill="#599A39"/>
        <path d="M24.1797 21.8125C26.1182 21.8125 27.6953 20.2354 27.6953 18.2969C27.6953 16.3584 26.1182 14.7812 24.1797 14.7812C22.2412 14.7812 20.6641 16.3584 20.6641 18.2969C20.6641 20.2354 22.2412 21.8125 24.1797 21.8125ZM24.1797 17.125C24.8259 17.125 25.3516 17.6507 25.3516 18.2969C25.3516 18.943 24.8259 19.4688 24.1797 19.4688C23.5335 19.4688 23.0078 18.943 23.0078 18.2969C23.0078 17.6507 23.5335 17.125 24.1797 17.125Z" fill="#599A39"/>
        <path d="M10.9219 14.7812C8.98336 14.7812 7.40625 16.3584 7.40625 18.2969C7.40625 20.2354 8.98336 21.8125 10.9219 21.8125C12.8604 21.8125 14.4375 20.2354 14.4375 18.2969C14.4375 16.3584 12.8605 14.7812 10.9219 14.7812ZM10.9219 19.4688C10.2757 19.4688 9.75 18.943 9.75 18.2969C9.75 17.6507 10.2757 17.125 10.9219 17.125C11.568 17.125 12.0937 17.6507 12.0937 18.2969C12.0937 18.943 11.5681 19.4688 10.9219 19.4688Z" fill="#599A39"/>
        <path d="M39.7656 14.5312L35.6791 9.08256L35.8386 7.9667C35.8907 7.60154 35.7679 7.23311 35.5071 6.97232L33.0212 4.48639L35.507 2.00045C35.9647 1.54287 35.9647 0.80084 35.507 0.343184C35.0494 -0.114395 34.3074 -0.114395 33.8497 0.343184L31.3639 2.82912L28.8779 0.343184C28.6172 0.0823242 28.2487 -0.0400195 27.8836 0.0116992L16.2826 1.66896C16.0315 1.70482 15.799 1.82115 15.6197 2.00045L1.25654 16.3636C-0.418848 18.0389 -0.418848 20.765 1.25654 22.4403L13.4099 34.5937C13.6585 34.8423 13.9307 35.0532 14.2187 35.228V35.7031C14.2187 38.0724 16.1463 40 18.5156 40H35.7031C38.0724 40 40 38.0724 40 35.7031V15.2344C40 14.9808 39.9177 14.734 39.7656 14.5312ZM2.91381 20.783C2.15225 20.0215 2.15225 18.7824 2.91381 18.0208L17.0007 3.93396L27.6349 2.41482L29.7065 4.48646L28.0493 6.14373L27.2206 5.31506C26.763 4.85748 26.021 4.85748 25.5633 5.31506C25.1057 5.77264 25.1057 6.51467 25.5633 6.97232L28.8779 10.2869C29.1068 10.5158 29.4067 10.6302 29.7065 10.6302C30.0064 10.6302 30.3064 10.5158 30.5351 10.2869C30.9928 9.82936 30.9928 9.08732 30.5351 8.62967L29.7065 7.801L31.3637 6.14373L33.4354 8.21537L31.9162 18.8496L17.8294 32.9365C17.4604 33.3054 16.97 33.5085 16.4483 33.5085C15.9265 33.5085 15.4361 33.3053 15.0672 32.9365L2.91381 20.783ZM37.6562 35.7031C37.6562 36.7801 36.7801 37.6562 35.7031 37.6562H18.5156C17.4872 37.6562 16.6425 36.8572 16.5683 35.8473C17.6283 35.818 18.6794 35.4009 19.4865 34.5937L33.8497 20.2306C34.029 20.0513 34.1453 19.8187 34.1812 19.5677L35.2103 12.3638L37.6562 15.625V35.7031Z" fill="#599A39"/>
    </g>
    <defs>
        <clipPath id="clip0_1919_88006">
            <rect width="40" height="40" fill="white"/>
        </clipPath>
    </defs>
</svg>