<svg width="40" height="40" viewBox="0 0 40 40" fill="none" xmlns="http://www.w3.org/2000/svg">
    <g clip-path="url(#clip0_1919_64063)">
        <path d="M39.2432 31.5102L29.2928 21.5594C28.7863 21.0529 28.1156 21.2626 28.2352 21.2387C27.1518 21.4547 26.1588 20.7876 25.5356 20.2169L29.6348 16.1176C32.4527 16.8847 35.5067 16.0937 37.5971 14.0032C40.0516 11.5486 40.6956 7.79615 39.1997 4.66592C38.8511 3.93654 37.8847 3.77154 37.3137 4.34256L33.5313 8.12506L32.171 7.82756L31.8743 6.46748L35.6565 2.68521C36.2282 2.11357 36.0616 1.14732 35.333 0.799119C32.2017 -0.697053 28.4493 -0.0529906 25.9961 2.40177C23.9058 4.49217 23.1149 7.54662 23.8822 10.3649L17.9521 16.2953L9.91536 8.25826L11.0202 7.15334C11.5212 6.6524 11.4659 5.82388 10.9034 5.39373L6.20786 1.80287C5.74122 1.44607 5.08263 1.48982 4.66732 1.90513L1.90513 4.6674C1.48982 5.08271 1.44607 5.74138 1.80286 6.20795L5.39364 10.9037C5.82357 11.4661 6.65153 11.5221 7.15317 11.0205L8.25802 9.91568L16.2947 17.9527L10.3646 23.8831C7.54607 23.1158 4.492 23.9065 2.40193 25.9967C-0.0529186 28.4504 -0.697059 32.2028 0.799034 35.3341C1.14739 36.0634 2.1138 36.2287 2.68505 35.6576L6.46716 31.8753L7.82716 32.1719L8.12474 33.5323L4.34232 37.3149C3.77083 37.8864 3.93685 38.8527 4.66568 39.2009C7.79677 40.6975 11.549 40.0522 14.0027 37.5983C16.0932 35.5077 16.8842 32.4536 16.1171 29.6357L20.2154 25.5372C21.619 27.0733 21.2379 28.2374 21.2379 28.2374C21.1632 28.6135 21.2797 29.0145 21.5587 29.2937L31.5091 39.2444C32.5161 40.2512 34.1543 40.2512 35.1611 39.2444L39.243 35.1623C40.2524 34.153 40.2526 32.5195 39.2432 31.5102ZM4.28794 5.5992L5.59911 4.28802L8.41646 6.44256L6.44239 8.4167L4.28794 5.5992ZM13.6857 29.7265C14.496 31.877 13.97 34.3164 12.3455 35.9409C11.0201 37.2664 9.16575 37.8528 7.37318 37.5987L10.2352 34.7365C10.5176 34.4543 10.6367 34.0476 10.5514 33.6575L9.95646 30.9367C9.85864 30.4892 9.50896 30.1397 9.06138 30.0421L6.34122 29.4487C5.95153 29.3635 5.54505 29.4829 5.26286 29.7651L2.4013 32.6267C2.14708 30.8341 2.73357 28.9791 4.05911 27.6542C5.68349 26.0297 8.12302 25.504 10.2738 26.3145C10.7044 26.4768 11.1904 26.372 11.5158 26.0465L26.0458 11.516C26.3712 11.1905 26.4761 10.7047 26.3137 10.274C25.5032 8.12302 26.029 5.68342 27.6536 4.05881C28.9785 2.73318 30.8335 2.14693 32.6258 2.40115L29.7642 5.26295C29.4821 5.54506 29.3628 5.95146 29.4479 6.34131L30.0411 9.06154C30.1387 9.50912 30.4883 9.85888 30.9358 9.9567L33.6565 10.5517C34.0465 10.6369 34.4531 10.5178 34.7354 10.2354L37.5975 7.37334C37.8515 9.16545 37.2651 11.0204 35.9397 12.3458C34.3152 13.9704 31.8761 14.4965 29.7254 13.6861C29.2947 13.5238 28.809 13.6287 28.4836 13.954C28.3468 14.0908 14.3083 28.1298 13.9536 28.4845C13.6282 28.81 13.5233 29.2958 13.6857 29.7265ZM23.8786 21.874C24.39 22.3512 25.0964 22.8914 25.9507 23.2443L23.2433 25.9519C22.8904 25.0976 22.3503 24.3907 21.8733 23.8794L23.8786 21.874ZM37.5859 33.505L33.504 37.5871C33.4109 37.6801 33.2596 37.6801 33.1665 37.5871L24.0447 28.465L28.4641 24.0454L37.5859 33.1675C37.6793 33.2609 37.6793 33.4115 37.5859 33.505Z" fill="#599A39"/>
    </g>
    <defs>
        <clipPath id="clip0_1919_64063">
            <rect width="40" height="40" fill="white"/>
        </clipPath>
    </defs>
</svg>