<svg width="50" height="50" viewBox="0 0 50 50" fill="none" xmlns="http://www.w3.org/2000/svg">
    <path d="M40.2286 39.2949H9.42694C9.02904 39.2949 8.70654 38.9724 8.70654 38.5745V14.2087C8.70654 13.8108 9.02904 13.4883 9.42694 13.4883H40.2286C40.6265 13.4883 40.949 13.8108 40.949 14.2087V38.5744C40.949 38.9724 40.6265 39.2949 40.2286 39.2949ZM10.1473 37.8541H39.5083V14.9291H10.1473V37.8541Z" fill="#599A39"/>
    <path d="M40.2287 11.876H9.42699C9.08309 11.876 8.78709 11.6329 8.72039 11.2955C8.65339 10.9578 8.83459 10.6204 9.15289 10.4895L24.5536 4.15064C24.7292 4.07804 24.9262 4.07804 25.1018 4.15064L40.5028 10.4895C40.821 10.6203 41.0023 10.9578 40.9353 11.2955C40.8686 11.6329 40.5726 11.876 40.2287 11.876ZM13.07 10.4352H36.5856L24.8276 5.59564L13.07 10.4352Z" fill="#599A39"/>
    <path d="M43.6551 14.9291H6.00027C5.72987 14.9291 5.48217 14.7777 5.35897 14.5371C5.23567 14.2965 5.25767 14.007 5.41587 13.7877L7.61497 10.7345C7.75037 10.5465 7.96787 10.4351 8.19947 10.4351H41.456C41.6876 10.4351 41.9051 10.5465 42.0404 10.7345L44.2396 13.7877C44.3977 14.0069 44.4197 14.2965 44.2964 14.5371C44.1731 14.7778 43.9255 14.9291 43.6551 14.9291ZM7.40697 13.4883H42.2483L41.087 11.8759H8.56837L7.40697 13.4883Z" fill="#599A39"/>
    <path d="M26.2866 39.2949H23.3679C22.97 39.2949 22.6475 38.9724 22.6475 38.5745V14.2087C22.6475 13.8108 22.97 13.4883 23.3679 13.4883H26.2866C26.6845 13.4883 27.007 13.8108 27.007 14.2087V38.5744C27.0071 38.9724 26.6846 39.2949 26.2866 39.2949ZM24.0884 37.8541H25.5663V14.9291H24.0884V37.8541Z" fill="#599A39"/>
    <path d="M42.1824 42.6278H7.47284C7.07494 42.6278 6.75244 42.3053 6.75244 41.9074V38.5744C6.75244 38.1765 7.07494 37.854 7.47284 37.854H42.1824C42.5803 37.854 42.9028 38.1765 42.9028 38.5744V41.9074C42.9028 42.3053 42.5803 42.6278 42.1824 42.6278ZM8.19324 41.187H41.462V39.2949H8.19324V41.187Z" fill="#599A39"/>
    <path d="M44.4809 45.9034H5.17401C4.77611 45.9034 4.45361 45.5809 4.45361 45.183V41.9074C4.45361 41.5095 4.77611 41.187 5.17401 41.187H44.4809C44.8788 41.187 45.2013 41.5095 45.2013 41.9074V45.183C45.2013 45.5809 44.8788 45.9034 44.4809 45.9034ZM5.89441 44.4626H43.7605V42.6278H5.89441V44.4626Z" fill="#599A39"/>
    <path d="M46.7796 45.9037H3.2204C2.8225 45.9037 2.5 45.5812 2.5 45.1833C2.5 44.7854 2.8225 44.4629 3.2204 44.4629H46.7797C47.1776 44.4629 47.5001 44.7854 47.5001 45.1833C47.5 45.5812 47.1775 45.9037 46.7796 45.9037Z" fill="#599A39"/>
    <path d="M35.4305 39.2951C35.081 39.2951 34.7743 39.0404 34.7194 38.6844C33.7638 32.4783 37.0804 28.3546 38.8173 26.667C29.9704 23.2172 31.1926 14.1979 31.2067 14.1034C31.265 13.7097 31.6325 13.437 32.0247 13.4964C32.4178 13.5544 32.6894 13.9199 32.632 14.313C32.5811 14.6665 31.4873 22.9983 40.4368 25.702C40.6983 25.7811 40.8927 26.0011 40.9386 26.2702C40.9847 26.5395 40.8747 26.8113 40.6544 26.9729C40.4253 27.1423 35.028 31.2207 36.1435 38.4649C36.204 38.8583 35.9344 39.2261 35.5413 39.2866C35.504 39.2922 35.4669 39.2951 35.4305 39.2951Z" fill="#599A39"/>
    <path d="M37.2093 19.3932C36.9988 19.3932 36.7903 19.3015 36.6479 19.125C34.8568 16.9036 35.3107 14.1976 35.331 14.0836C35.4005 13.6919 35.7736 13.4294 36.1659 13.4997C36.5568 13.569 36.8179 13.9412 36.7501 14.3321C36.7464 14.3538 36.3986 16.5203 37.7696 18.2206C38.0192 18.5304 37.9708 18.9837 37.661 19.2337C37.5279 19.3408 37.368 19.3932 37.2093 19.3932Z" fill="#599A39"/>
    <path d="M14.2249 39.2948C14.1886 39.2948 14.1514 39.2923 14.1143 39.2863C13.7212 39.2258 13.4516 38.858 13.5121 38.4646C14.6273 31.2204 9.23033 27.1417 9.00013 26.9717C8.78093 26.8099 8.67113 26.5375 8.71753 26.269C8.76423 26.0003 8.95753 25.7808 9.21873 25.7017C18.1682 22.998 17.0741 14.6662 17.0232 14.3127C16.9664 13.9196 17.2388 13.5538 17.6319 13.4964C18.0275 13.4413 18.3905 13.7103 18.4485 14.1031C18.4626 14.1976 19.685 23.2169 10.8382 26.6667C12.575 28.3543 15.8914 32.478 14.936 38.6841C14.8811 39.0401 14.5744 39.2948 14.2249 39.2948Z" fill="#599A39"/>
    <path d="M12.4455 19.3928C12.2867 19.3928 12.1269 19.3404 11.9938 19.2333C11.684 18.9834 11.6356 18.53 11.8852 18.2202C13.2697 16.5033 12.909 14.3559 12.905 14.3345C12.8358 13.9425 13.0969 13.5688 13.4887 13.4993C13.8807 13.4287 14.2541 13.6912 14.3239 14.083C14.3441 14.1973 14.7984 16.9032 13.0069 19.1246C12.8645 19.3011 12.656 19.3928 12.4455 19.3928Z" fill="#599A39"/>
</svg>