<svg width="50" height="48" viewBox="0 0 50 48" fill="none" xmlns="http://www.w3.org/2000/svg">
    <path fill-rule="evenodd" clip-rule="evenodd" d="M43.3335 38.1467H6.66685H1.55728V46.2666H48.4431V38.1467H43.3335ZM0.0117188 37.3739V25.0094C0.0117188 24.8595 0.0463208 24.698 0.127059 24.5827L15.7441 0.534226C16.1478 -0.100145 17.1628 0.176671 17.1628 0.960985V10.1767H32.8376V0.960985C32.8376 0.188205 33.8526 -0.111679 34.2562 0.534226L49.8618 24.6403C49.9425 24.7672 49.9887 24.9056 49.9887 25.0556V47.0279V47.0394V47.051C49.9887 47.3624 49.8041 47.6277 49.5388 47.7545H49.5158L49.5042 47.7661H49.4812L49.4696 47.7776H49.4466L49.435 47.7891H49.412L49.3889 47.8007H49.3773H49.3543L49.3312 47.8122H49.3197H49.2966H49.2735H49.262H49.2389H49.2159H0.784498C0.35774 47.8122 0.0117188 47.4662 0.0117188 47.0394V37.3739ZM48.4431 36.6011V25.2862L34.3831 3.57921V17.1663H36.6323C37.059 17.1663 37.405 17.5123 37.405 17.9391V23.4177H39.9194C40.3462 23.4177 40.6922 23.7638 40.6922 24.1905V29.6692H43.3335C43.7603 29.6692 44.1063 30.0152 44.1063 30.442V36.6011H48.4431ZM15.6173 17.1663V3.57921L1.55728 25.2401V36.6011H5.89407V30.442C5.89407 30.0152 6.24009 29.6692 6.66685 29.6692H9.38888V24.1905C9.38888 23.7638 9.74644 23.4177 10.1732 23.4177H12.6645V17.9391C12.6645 17.5123 13.0221 17.1663 13.4373 17.1663H15.6173ZM17.1628 17.1663H32.8376V11.7338H17.1628V17.1663ZM14.2216 23.4177H35.8595V18.7119H33.6103H16.39H14.2216V23.4177ZM10.946 29.6692H39.1467V24.9633H36.6323H13.4373H10.946V29.6692ZM39.9194 31.2263H10.1732C10.1271 31.2263 10.0809 31.2147 10.0463 31.2147H7.45117V36.6011H42.5492V31.2147H40.0348C40.0002 31.2147 39.9656 31.2263 39.9194 31.2263Z" fill="#599A39"/>
</svg>