<svg width="20" height="21" viewBox="0 0 20 21" fill="none" xmlns="http://www.w3.org/2000/svg">
    <g clip-path="url(#clip0_1522_50198)">
        <path d="M18.0147 2.59602L10.1697 0.2425C10.06 0.209531 9.94281 0.209531 9.83297 0.2425L1.98789 2.59602C1.74004 2.67035 1.57031 2.89848 1.57031 3.15723V11.7868C1.57031 12.9092 2.02469 14.0582 2.92082 15.2018C3.60527 16.0752 4.55215 16.9523 5.7352 17.8087C7.72258 19.2473 9.67953 20.1298 9.76187 20.1666C9.83805 20.2007 9.91965 20.2178 10.0013 20.2178C10.0829 20.2178 10.1645 20.2007 10.2407 20.1666C10.323 20.1298 12.28 19.2473 14.2673 17.8087C15.4504 16.9523 16.3972 16.0752 17.0817 15.2018C17.9778 14.0582 18.4322 12.9092 18.4322 11.7868V3.15723C18.4322 2.89848 18.2625 2.67035 18.0147 2.59602ZM17.2604 11.7868C17.2604 13.7732 15.2673 15.6357 13.5953 16.8485C12.0963 17.9357 10.5761 18.7072 10.0013 18.9844C9.42656 18.7072 7.90633 17.9357 6.40734 16.8485C4.73531 15.6357 2.74219 13.7732 2.74219 11.7868V3.59316L10.0013 1.41543L17.2604 3.59316V11.7868Z" fill="white"/>
    </g>
    <defs>
        <clipPath id="clip0_1522_50198">
            <rect width="20" height="20" fill="white" transform="translate(0 0.217773)"/>
        </clipPath>
    </defs>
</svg>