<svg width="50" height="50" viewBox="0 0 50 50" fill="none" xmlns="http://www.w3.org/2000/svg">
    <path d="M12.8906 12.5C13.0978 12.5 13.2965 12.4177 13.4431 12.2712C13.5896 12.1247 13.6719 11.926 13.6719 11.7188V5.46875C13.6726 4.84736 13.9197 4.25161 14.3591 3.81222C14.7985 3.37283 15.3942 3.12568 16.0156 3.125H20.3125C20.5197 3.125 20.7184 3.04269 20.8649 2.89618C21.0114 2.74966 21.0938 2.55095 21.0938 2.34375C21.0938 2.13655 21.0114 1.93784 20.8649 1.79132C20.7184 1.64481 20.5197 1.5625 20.3125 1.5625H16.0156C14.98 1.56372 13.9871 1.97566 13.2548 2.70796C12.5225 3.44026 12.1106 4.43312 12.1094 5.46875V11.7188C12.1094 11.926 12.1917 12.1247 12.3382 12.2712C12.4847 12.4177 12.6834 12.5 12.8906 12.5Z" fill="#599A39"/>
    <path d="M28.7983 35.9373C28.7983 35.7301 28.716 35.5314 28.5695 35.3849C28.4229 35.2384 28.2242 35.1561 28.017 35.1561H16.7969V33.6104C16.7969 33.4032 16.7146 33.2044 16.5681 33.0579C16.4215 32.9114 16.2228 32.8291 16.0156 32.8291C15.8084 32.8291 15.6097 32.9114 15.4632 33.0579C15.3167 33.2044 15.2344 33.4032 15.2344 33.6104V35.9373C15.2344 36.1445 15.3167 36.3432 15.4632 36.4897C15.6097 36.6362 15.8084 36.7186 16.0156 36.7186H28.017C28.2242 36.7186 28.4229 36.6362 28.5695 36.4897C28.716 36.3432 28.7983 36.1445 28.7983 35.9373Z" fill="#599A39"/>
    <path d="M43.9674 24.5034L38.6719 19.2077V5.46875C38.6707 4.43312 38.2587 3.44026 37.5264 2.70796C36.7941 1.97566 35.8013 1.56372 34.7656 1.5625H24.2188C24.0116 1.5625 23.8128 1.64481 23.6663 1.79132C23.5198 1.93784 23.4375 2.13655 23.4375 2.34375C23.4375 2.55095 23.5198 2.74966 23.6663 2.89618C23.8128 3.04269 24.0116 3.125 24.2188 3.125H34.7656C35.387 3.12568 35.9828 3.37283 36.4222 3.81222C36.8616 4.25161 37.1087 4.84736 37.1094 5.46875V27.3438C37.1094 27.551 37.1917 27.7497 37.3382 27.8962C37.4847 28.0427 37.6834 28.125 37.8906 28.125C38.0978 28.125 38.2965 28.0427 38.4431 27.8962C38.5896 27.7497 38.6719 27.551 38.6719 27.3438V21.4173L42.8627 25.608C43.5176 26.2594 44.0368 27.0343 44.3903 27.8877C44.7437 28.7411 44.9244 29.6561 44.9219 30.5798V46.875H29.2969V40.7314C29.2981 39.6676 29.7213 38.6476 30.4735 37.8954C31.2258 37.1432 32.2457 36.72 33.3095 36.7188C33.464 36.7187 33.6151 36.6729 33.7435 36.5871C33.872 36.5012 33.9721 36.3792 34.0312 36.2365C34.0904 36.0938 34.1058 35.9367 34.0757 35.7851C34.0456 35.6336 33.9712 35.4944 33.862 35.3852L27.2881 28.8116C26.7752 28.2988 26.4871 27.6033 26.4871 26.878C26.4871 26.1528 26.7752 25.4573 27.2881 24.9445C27.8009 24.4316 28.4964 24.1435 29.2216 24.1435C29.9469 24.1435 30.6424 24.4316 31.1552 24.9445L40.0693 33.8585C40.2166 34.0013 40.4141 34.0805 40.6192 34.079C40.8244 34.0774 41.0206 33.9952 41.1657 33.8501C41.3107 33.7051 41.3929 33.5088 41.3945 33.3036C41.396 33.0985 41.3168 32.901 41.174 32.7537L35.5469 27.1265V5.46875C35.5469 5.26155 35.4646 5.06284 35.3181 4.91632C35.1715 4.76981 34.9728 4.6875 34.7656 4.6875H30.8594C30.6522 4.6875 30.4535 4.76981 30.307 4.91632C30.1604 5.06284 30.0781 5.26155 30.0781 5.46875C30.0779 5.67587 29.9955 5.87443 29.849 6.02088C29.7026 6.16734 29.504 6.24973 29.2969 6.25H21.4844C21.2773 6.24973 21.0787 6.16734 20.9322 6.02088C20.7858 5.87443 20.7034 5.67587 20.7031 5.46875C20.7031 5.26155 20.6208 5.06284 20.4743 4.91632C20.3278 4.76981 20.1291 4.6875 19.9219 4.6875H16.0156C15.8084 4.6875 15.6097 4.76981 15.4632 4.91632C15.3167 5.06284 15.2344 5.26155 15.2344 5.46875V13.2812H5.85938C5.23798 13.2819 4.64224 13.5291 4.20285 13.9685C3.76346 14.4079 3.51631 15.0036 3.51562 15.625V29.6875C3.51631 30.3089 3.76346 30.9046 4.20285 31.344C4.64224 31.7834 5.23798 32.0306 5.85938 32.0312H12.1094V39.0625C12.1106 40.0981 12.5225 41.091 13.2548 41.8233C13.9871 42.5556 14.98 42.9675 16.0156 42.9688H27.7344V47.6562C27.7344 47.8634 27.8167 48.0622 27.9632 48.2087C28.1097 48.3552 28.3084 48.4375 28.5156 48.4375H45.7031C45.9103 48.4375 46.1091 48.3552 46.2556 48.2087C46.4021 48.0622 46.4844 47.8634 46.4844 47.6562V30.5798C46.4875 29.4508 46.2666 28.3325 45.8346 27.2894C45.4025 26.2464 44.7679 25.2995 43.9674 24.5034ZM5.85938 14.8438H30.8594V16.4062H5.07813V15.625C5.07839 15.4179 5.16079 15.2193 5.30724 15.0729C5.4537 14.9264 5.65226 14.844 5.85938 14.8438ZM25.3906 41.4062H16.0156C15.3942 41.4056 14.7985 41.1584 14.3591 40.719C13.9197 40.2796 13.6726 39.6839 13.6719 39.0625V32.0312H25.4238C25.631 32.0312 25.8297 31.9489 25.9763 31.8024C26.1228 31.6559 26.2051 31.4572 26.2051 31.25C26.2051 31.0428 26.1228 30.8441 25.9763 30.6976C25.8297 30.5511 25.631 30.4688 25.4238 30.4688H5.85938C5.65226 30.4685 5.4537 30.3861 5.30724 30.2396C5.16079 30.0932 5.07839 29.8946 5.07813 29.6875V22.6562H26.2051C26.4123 22.6562 26.611 22.5739 26.7575 22.4274C26.904 22.2809 26.9863 22.0822 26.9863 21.875C26.9863 21.6678 26.904 21.4691 26.7575 21.3226C26.611 21.1761 26.4123 21.0938 26.2051 21.0938H5.07813V17.9688H30.8594V21.875C30.8594 22.0822 30.9417 22.2809 31.0882 22.4274C31.2347 22.5739 31.4334 22.6562 31.6406 22.6562C31.8478 22.6562 32.0465 22.5739 32.1931 22.4274C32.3396 22.2809 32.4219 22.0822 32.4219 21.875V11.7188C32.4219 11.5115 32.3396 11.3128 32.1931 11.1663C32.0465 11.0198 31.8478 10.9375 31.6406 10.9375C31.4334 10.9375 31.2347 11.0198 31.0882 11.1663C30.9417 11.3128 30.8594 11.5115 30.8594 11.7188V13.2812H16.7969V6.25H19.2745C19.4366 6.70666 19.736 7.10199 20.1316 7.38174C20.5273 7.66149 20.9998 7.81196 21.4844 7.8125H29.2969C29.7814 7.81196 30.254 7.66149 30.6496 7.38174C31.0453 7.10199 31.3447 6.70666 31.5067 6.25H33.9844V25.5639L32.2602 23.8395C31.4543 23.0337 30.3614 22.581 29.2217 22.581C28.0821 22.581 26.9891 23.0337 26.1833 23.8395C25.3774 24.6454 24.9247 25.7383 24.9247 26.878C24.9247 28.0176 25.3774 29.1106 26.1833 29.9164L31.6696 35.4023C30.5309 35.7545 29.5348 36.4617 28.8267 37.4205C28.1187 38.3793 27.7359 39.5395 27.7344 40.7314V41.4062H25.3906Z" fill="#599A39"/>
    <path d="M11.3281 24.2188H7.42188C7.21467 24.2188 7.01596 24.3011 6.86945 24.4476C6.72294 24.5941 6.64062 24.7928 6.64062 25V28.125C6.64062 28.3322 6.72294 28.5309 6.86945 28.6774C7.01596 28.8239 7.21467 28.9062 7.42188 28.9062H11.3281C11.5353 28.9062 11.734 28.8239 11.8806 28.6774C12.0271 28.5309 12.1094 28.3322 12.1094 28.125V25C12.1094 24.7928 12.0271 24.5941 11.8806 24.4476C11.734 24.3011 11.5353 24.2188 11.3281 24.2188ZM10.5469 27.3438H8.20312V25.7812H10.5469V27.3438Z" fill="#599A39"/>
    <path d="M27.7344 39.0625C27.7344 38.599 27.5969 38.1458 27.3394 37.7604C27.0818 37.375 26.7158 37.0746 26.2875 36.8972C25.8593 36.7198 25.388 36.6734 24.9334 36.7638C24.4787 36.8542 24.0611 37.0774 23.7333 37.4052C23.4056 37.733 23.1823 38.1506 23.0919 38.6053C23.0015 39.0599 23.0479 39.5311 23.2253 39.9594C23.4027 40.3877 23.7031 40.7537 24.0885 41.0113C24.4739 41.2688 24.9271 41.4063 25.3906 41.4063C26.012 41.4056 26.6078 41.1584 27.0472 40.719C27.4865 40.2796 27.7337 39.6839 27.7344 39.0625ZM25.3906 39.8438C25.2361 39.8438 25.0851 39.7979 24.9566 39.7121C24.8281 39.6262 24.728 39.5042 24.6688 39.3615C24.6097 39.2187 24.5942 39.0616 24.6244 38.9101C24.6545 38.7585 24.7289 38.6193 24.8382 38.5101C24.9475 38.4008 25.0867 38.3264 25.2382 38.2963C25.3898 38.2661 25.5468 38.2816 25.6896 38.3407C25.8324 38.3999 25.9544 38.5 26.0402 38.6285C26.1261 38.7569 26.1719 38.908 26.1719 39.0625C26.1716 39.2696 26.0892 39.4682 25.9428 39.6146C25.7963 39.7611 25.5977 39.8435 25.3906 39.8438Z" fill="#599A39"/>
</svg>