<svg width="40" height="40" viewBox="0 0 40 40" fill="none" xmlns="http://www.w3.org/2000/svg">
    <path d="M34.7559 8.5775L26.4225 0.244141C26.2663 0.0878906 26.0547 0 25.8333 0H8.33328C6.49492 0 5 1.49492 5 3.33336V36.6667C5 38.5051 6.49492 40 8.33336 40H31.6667C33.5051 40 35 38.5051 35 36.6666V9.16664C35 8.94531 34.9121 8.73375 34.7559 8.5775ZM26.6666 2.84508L32.1549 8.33336H28.3333C27.4145 8.33336 26.6666 7.58547 26.6666 6.66672V2.84508ZM33.3334 36.6666C33.3334 37.5854 32.5855 38.3333 31.6667 38.3333H8.33336C7.41461 38.3333 6.66672 37.5854 6.66672 36.6666V3.33336C6.66672 2.41461 7.41461 1.66672 8.33336 1.66672H25V6.66672C25 8.50508 26.4949 10 28.3334 10H33.3334V36.6666Z" fill="#599A39"/>
    <path d="M24.2488 24.4634C23.4773 23.8563 22.7441 23.2321 22.2559 22.7439C21.6211 22.1091 21.0555 21.4939 20.564 20.9079C21.3306 18.5389 21.6667 17.3175 21.6667 16.6664C21.6667 13.9003 20.6673 13.333 19.1667 13.333C18.0266 13.333 16.6667 13.9254 16.6667 16.7461C16.6667 17.9896 17.3479 19.4993 18.698 21.2538C18.3676 22.2621 17.9794 23.425 17.5432 24.7361C17.3332 25.3651 17.1054 25.9478 16.8645 26.4865C16.6684 26.5736 16.4779 26.6623 16.294 26.7543C15.6316 27.0855 15.0025 27.3833 14.419 27.66C11.7578 28.9198 10 29.7532 10 31.3986C10 32.5933 11.298 33.333 12.5 33.333C14.0495 33.333 16.3891 31.2635 18.0981 27.7771C19.8722 27.0773 22.0777 26.5589 23.8184 26.2342C25.2132 27.3068 26.7537 28.333 27.5 28.333C29.5662 28.333 30 27.1383 30 26.1365C30 24.1663 27.749 24.1663 26.6666 24.1663C26.3305 24.1664 25.4289 24.2657 24.2488 24.4634ZM12.5 31.6664C12.0239 31.6664 11.7016 31.4418 11.6666 31.3986C11.6666 30.8078 13.4285 29.9729 15.1327 29.1656C15.2409 29.1143 15.3508 29.063 15.4623 29.0101C14.2106 30.825 12.9728 31.6664 12.5 31.6664ZM18.3334 16.7461C18.3334 14.9997 18.8754 14.9997 19.1667 14.9997C19.7559 14.9997 20.0001 14.9997 20.0001 16.6664C20.0001 17.0179 19.7657 17.8968 19.3368 19.2689C18.6824 18.2614 18.3334 17.398 18.3334 16.7461ZM18.9722 25.7029C19.0243 25.558 19.0748 25.4115 19.1236 25.2634C19.4328 24.3357 19.7112 23.5023 19.9594 22.752C20.3052 23.1329 20.678 23.5227 21.0776 23.9222C21.2338 24.0785 21.6212 24.43 22.1372 24.8703C21.11 25.0941 20.0171 25.3716 18.9722 25.7029ZM28.3334 26.1366C28.3334 26.511 28.3334 26.6664 27.5602 26.6713C27.3332 26.6225 26.8083 26.3132 26.1605 25.8721C26.3956 25.8461 26.569 25.8331 26.6666 25.8331C27.898 25.8331 28.2471 25.9535 28.3334 26.1366Z" fill="#599A39"/>
</svg>