<svg width="50" height="50" viewBox="0 0 50 50" fill="none" xmlns="http://www.w3.org/2000/svg">
    <g clip-path="url(#clip0_1879_67143)">
        <path d="M50 30.8334V19.1666H45C44.5767 17.7142 43.9944 16.3132 43.2642 14.9884L46.8024 11.4499L38.5526 3.19977L35.0143 6.73828C33.6887 6.00708 32.287 5.42358 30.8334 5V0H19.1666V5C17.7142 5.42328 16.3132 6.00555 14.9884 6.73584L11.4499 3.19672L3.19977 11.4468L6.73828 14.9847C6.00647 16.311 5.42358 17.713 5 19.1666H0V30.8334H5C5.42328 32.2858 6.00555 33.6868 6.73584 35.0116L3.19672 38.5498L11.4468 46.7999L14.9847 43.2617C16.311 43.9929 17.713 44.5758 19.1666 45V50H30.8334V45C32.2858 44.5767 33.6868 43.9944 35.0116 43.2642L38.5498 46.8024L46.7999 38.5526L43.2617 35.014C43.9929 33.6887 44.5758 32.2864 45 30.8334H50ZM43.5602 29.791C43.1122 31.5241 42.4219 33.1845 41.5094 34.7241L41.1758 35.2811L44.4452 38.5501L38.5501 44.4464L35.2811 41.1774L34.7241 41.5106C33.1848 42.424 31.5241 43.1146 29.791 43.5614L29.1669 43.7219V48.3334H20.8331V43.7219L20.209 43.5602C18.476 43.1125 16.8152 42.4222 15.2759 41.5094L14.7189 41.1758L11.4499 44.4464L5.55359 38.5498L8.82263 35.2808L8.48938 34.7241C7.57629 33.1845 6.88599 31.5234 6.4386 29.791L6.27808 29.1663H1.66657V20.8331H6.27808L6.43982 20.209C6.88751 18.476 7.57782 16.8152 8.4906 15.2759L8.82416 14.7189L5.55359 11.4499L11.4499 5.55359L14.7189 8.82263L15.2759 8.48938C16.8152 7.57599 18.476 6.88538 20.209 6.4386L20.8331 6.27808V1.66657H29.1669V6.27808L29.791 6.43982C31.5241 6.88751 33.1848 7.57782 34.7241 8.4906L35.2811 8.82416L38.5501 5.55359L44.4464 11.4499L41.1774 14.7189L41.5106 15.2759C42.424 16.8152 43.1146 18.476 43.5614 20.209L43.7231 20.8331H48.3334V29.1669H43.7219L43.5602 29.791Z" fill="#599A39"/>
        <path d="M25.0006 10.8335C17.1807 10.8292 10.838 17.1656 10.834 24.9851C10.8312 30.5537 14.092 35.6064 19.1671 37.8974V37.9166L19.6829 38.129H19.6881L20.8337 38.5932V38.5364C22.1832 38.9551 23.5879 39.1675 25.0006 39.1666C25.2819 39.1666 25.559 39.1575 25.834 39.1416V39.1773L26.7678 39.0598L27.5006 38.9713V38.9341C35.1995 37.5581 40.3253 30.2018 38.9495 22.5031C37.7419 15.7471 31.8637 10.8292 25.0006 10.8335ZM20.8337 36.786V28.5435L20.5557 28.2932C17.8134 25.8405 17.579 21.6291 20.032 18.8871C21.2963 17.4732 23.1039 16.6657 25.0006 16.6669C25.245 16.6669 25.4894 16.6798 25.733 16.7057L21.8579 20.5836L22.5982 25.7392L27.7538 26.4789L31.6284 22.6041C31.654 22.8461 31.6671 23.0897 31.6671 23.3335C31.6522 26.4399 29.5077 29.1297 26.4831 29.8374L25.834 29.9842V37.4741C24.1381 37.5831 22.4374 37.349 20.8337 36.786ZM27.5006 37.2526V31.2867C30.9606 30.1762 33.3142 26.9669 33.3337 23.3335C33.3373 22.4277 33.1896 21.5278 32.8973 20.6708L32.4633 19.4092L27.1673 24.7074L24.0722 24.2643L23.6267 21.1668L28.9248 15.8677L27.6629 15.4343C26.8057 15.1429 25.9057 14.9961 25.0006 15.0001C20.4003 14.9979 16.6696 18.7253 16.6674 23.3253C16.6662 25.5649 17.5671 27.7106 19.1671 29.2783V36.056C13.0657 32.8327 10.7321 25.2744 13.9547 19.1727C17.1774 13.071 24.7366 10.7377 30.838 13.9603C36.9393 17.183 39.2733 24.7419 36.0504 30.8436C34.3029 34.1511 31.1657 36.5021 27.5006 37.2501V37.2526Z" fill="#599A39"/>
    </g>
    <defs>
        <clipPath id="clip0_1879_67143">
            <rect width="50" height="50" fill="white"/>
        </clipPath>
    </defs>
</svg>