<svg width="50" height="50" viewBox="0 0 50 50" fill="none" xmlns="http://www.w3.org/2000/svg">
    <g clip-path="url(#clip0_1879_76629)">
        <path d="M28.9307 12.25C29.2061 11.9676 29.2458 11.5307 29.0257 11.2033L24.2206 4.05334C22.5197 1.51782 19.6664 -0.00249692 16.6132 3.07847e-06H8.33398C7.87378 3.07847e-06 7.50065 0.373128 7.50065 0.833336V1.66667H6.91732L4.62982 0.140003C4.49273 0.0489614 4.3319 0.000315578 4.16732 3.07847e-06H1.66732C1.20711 3.07847e-06 0.833984 0.373128 0.833984 0.833336V9.16667C0.833984 9.62688 1.20711 10 1.66732 10H4.16732C4.3319 9.99969 4.49273 9.95105 4.62982 9.86L6.91732 8.33334H7.50065V12.5C7.50065 12.9602 7.87378 13.3333 8.33398 13.3333H10.0007V25H9.16732C8.70711 25 8.33398 25.3731 8.33398 25.8333V45.8333C8.33398 48.1345 10.1995 50 12.5007 50C14.8018 50 16.6673 48.1345 16.6673 45.8333V25.8333C16.6673 25.3731 16.2942 25 15.834 25H15.0007V13.3333H16.6673C17.1275 13.3333 17.5007 12.9602 17.5007 12.5V6.705C18.6632 6.82302 19.7818 7.21146 20.7673 7.83917L27.8865 12.37C28.2191 12.5822 28.6549 12.5321 28.9307 12.25ZM15.0007 45.8333C15.0007 47.2141 13.8814 48.3333 12.5007 48.3333C11.1199 48.3333 10.0007 47.2141 10.0007 45.8333V26.6667H15.0007V45.8333ZM11.6673 25V13.3333H13.334V25H11.6673ZM21.6623 6.43334C20.1693 5.48636 18.4353 4.98875 16.6673 5C16.2071 5 15.834 5.37313 15.834 5.83334V11.6667H9.16732V7.5C9.16732 7.03979 8.79419 6.66667 8.33398 6.66667H6.66732C6.50273 6.66698 6.3419 6.71563 6.20482 6.80667L3.91732 8.33334H2.50065V1.66667H3.91732L6.20482 3.19334C6.3419 3.28438 6.50273 3.33313 6.66732 3.33334H8.33398C8.79419 3.33334 9.16732 2.96021 9.16732 2.5V1.66667H16.6132C19.1099 1.66563 21.4429 2.90917 22.834 4.9825L25.4173 8.82417L21.6623 6.43334Z" fill="#599A39"/>
        <path d="M48.3346 25H46.668V0H41.668V25H40.0013C39.5411 25 39.168 25.3731 39.168 25.8333V28.3333C39.1662 28.6507 39.345 28.9415 39.6288 29.0833L40.8346 29.6817V30.4883L40.2455 31.0775C40.0892 31.2337 40.0013 31.4456 40.0013 31.6667V45.8333C40.0013 48.1345 41.8668 50 44.168 50C46.4691 50 48.3346 48.1345 48.3346 45.8333V31.6667C48.3346 31.4456 48.2467 31.2337 48.0905 31.0775L47.5013 30.4883V29.6817L48.7071 29.0792C48.9896 28.938 49.1681 28.6492 49.168 28.3333V25.8333C49.168 25.3731 48.7949 25 48.3346 25ZM43.3346 1.66667H45.0013V5H43.3346V1.66667ZM43.3346 6.66667H45.0013V25H43.3346V6.66667ZM47.5013 27.8183L46.2955 28.4208C46.013 28.562 45.8345 28.8508 45.8346 29.1667V30.8333C45.8346 31.0544 45.9226 31.2663 46.0788 31.4225L46.668 32.0117V45.8333C46.668 47.2141 45.5487 48.3333 44.168 48.3333C42.7873 48.3333 41.668 47.2141 41.668 45.8333V32.0117L42.2571 31.4225C42.4134 31.2663 42.5013 31.0544 42.5013 30.8333V29.1667C42.5031 28.8493 42.3243 28.5585 42.0405 28.4167L40.8346 27.8183V26.6667H47.5013V27.8183Z" fill="#599A39"/>
        <path d="M31.9816 13.8767V13.8775C31.5552 13.7045 31.0691 13.9099 30.8961 14.3364C30.8557 14.4359 30.8349 14.5425 30.8349 14.65V20H29.1683V14.2167C29.1682 13.9779 29.0656 13.7506 28.8866 13.5925C28.7073 13.4349 28.4694 13.361 28.2324 13.3892C24.13 13.898 21.2168 17.6361 21.7257 21.7385C21.9937 23.8997 23.1897 25.837 25.0016 27.045V45.8333C25.0016 48.1345 26.8671 50 29.1683 50C31.4694 50 33.3349 48.1345 33.3349 45.8333V27.0433C36.7738 24.7525 37.7044 20.1077 35.4135 16.6689C34.5772 15.4134 33.3809 14.4401 31.9816 13.8767ZM32.5016 16.0425C33.8294 16.9646 34.712 18.3991 34.9366 20H32.5016V16.0425ZM29.1683 48.3333C27.7875 48.3333 26.6683 47.2141 26.6683 45.8333V27.9042C26.8149 27.9567 26.9649 27.9983 27.1149 28.0408C27.1599 28.0542 27.1983 28.07 27.2474 28.0817C27.5075 28.1483 27.771 28.2013 28.0366 28.24C28.1424 28.2558 28.2491 28.2683 28.3566 28.28C28.5541 28.3008 28.7524 28.3133 28.9516 28.3192C29.0241 28.3192 29.0958 28.3333 29.1683 28.3333C29.2408 28.3333 29.3124 28.3208 29.3849 28.3192C29.5841 28.3133 29.7824 28.3008 29.9799 28.28C30.0874 28.2683 30.1941 28.2558 30.3008 28.2392C30.5648 28.2016 30.8266 28.1496 31.0849 28.0833C31.1333 28.0708 31.1799 28.0533 31.2283 28.04C31.3758 27.9975 31.5233 27.9567 31.6674 27.905L31.6683 45.8333C31.6683 47.2141 30.549 48.3333 29.1683 48.3333ZM32.0783 25.8825C30.7368 26.6462 29.1493 26.8536 27.6566 26.46C27.1631 26.3315 26.6896 26.1351 26.2499 25.8767C23.4614 24.2632 22.5088 20.6947 24.1222 17.9061C24.8672 16.6184 26.0762 15.6642 27.5016 15.2383V20.8333C27.5016 21.2935 27.8747 21.6667 28.3349 21.6667H34.9374C34.6817 23.4361 33.6277 24.9903 32.0783 25.8825Z" fill="#599A39"/>
    </g>
    <defs>
        <clipPath id="clip0_1879_76629">
            <rect width="50" height="50" fill="white"/>
        </clipPath>
    </defs>
</svg>
