<svg width="40" height="40" viewBox="0 0 40 40" fill="none" xmlns="http://www.w3.org/2000/svg">
    <g clip-path="url(#clip0_1919_66687)">
        <path d="M10.7327 0.125H1.1925C0.533906 0.125 0 0.658906 0 1.31742V10.8577C0 11.5163 0.533906 12.0502 1.1925 12.0502H10.7328C11.3914 12.0502 11.9253 11.5163 11.9253 10.8577V1.31742C11.9252 0.658906 11.3913 0.125 10.7327 0.125ZM9.54031 9.66523H2.38492V2.50992H9.54031V9.66523Z" fill="#599A39"/>
        <path d="M10.7327 14.0371H1.1925C0.533906 14.0371 0 14.571 0 15.2295V24.7698C0 25.4284 0.533906 25.9623 1.1925 25.9623H10.7328C11.3914 25.9623 11.9253 25.4284 11.9253 24.7698V15.2295C11.9252 14.571 11.3913 14.0371 10.7327 14.0371ZM9.54031 23.5773H2.38492V16.422H9.54031V23.5773Z" fill="#599A39"/>
        <path d="M10.7327 27.9492H1.1925C0.533906 27.9492 0 28.4831 0 29.1416V38.682C0 39.3405 0.533906 39.8745 1.1925 39.8745H10.7328C11.3914 39.8745 11.9253 39.3405 11.9253 38.682V29.1416C11.9252 28.4831 11.3913 27.9492 10.7327 27.9492ZM9.54031 37.4895H2.38492V30.3341H9.54031V37.4895Z" fill="#599A39"/>
        <path d="M24.7719 0.125H15.2316C14.573 0.125 14.0391 0.658906 14.0391 1.3175V10.8578C14.0391 11.5164 14.573 12.0503 15.2316 12.0503H24.7719C25.4305 12.0503 25.9644 11.5164 25.9644 10.8578V1.31742C25.9643 0.658906 25.4304 0.125 24.7719 0.125ZM23.5794 9.66523H16.424V2.50992H23.5794V9.66523Z" fill="#599A39"/>
        <path d="M24.7719 14.0371H15.2316C14.573 14.0371 14.0391 14.571 14.0391 15.2296V24.7699C14.0391 25.4285 14.573 25.9624 15.2316 25.9624H24.7719C25.4305 25.9624 25.9644 25.4285 25.9644 24.7699V15.2295C25.9643 14.571 25.4304 14.0371 24.7719 14.0371ZM23.5794 23.5773H16.424V16.422H23.5794V23.5773Z" fill="#599A39"/>
        <path d="M24.7719 27.9492H15.2316C14.573 27.9492 14.0391 28.4831 14.0391 29.1417V38.682C14.0391 39.3406 14.573 39.8745 15.2316 39.8745H24.7719C25.4305 39.8745 25.9644 39.3406 25.9644 38.682V29.1416C25.9643 28.4831 25.4304 27.9492 24.7719 27.9492ZM23.5794 37.4895H16.424V30.3341H23.5794V37.4895Z" fill="#599A39"/>
        <path d="M38.803 0.125H29.2628C28.6042 0.125 28.0703 0.658906 28.0703 1.3175V10.8578C28.0703 11.5164 28.6042 12.0503 29.2628 12.0503H38.803C39.4616 12.0503 39.9955 11.5164 39.9955 10.8578V1.31742C39.9955 0.658906 39.4616 0.125 38.803 0.125ZM37.6105 9.66523H30.4553V2.50992H37.6105V9.66523Z" fill="#599A39"/>
        <path d="M38.803 14.0371H29.2628C28.6042 14.0371 28.0703 14.571 28.0703 15.2296V24.7699C28.0703 25.4285 28.6042 25.9624 29.2628 25.9624H38.803C39.4616 25.9624 39.9955 25.4285 39.9955 24.7699V15.2295C39.9955 14.571 39.4616 14.0371 38.803 14.0371ZM37.6105 23.5773H30.4553V16.422H37.6105V23.5773Z" fill="#599A39"/>
        <path d="M38.803 27.9492H29.2628C28.6042 27.9492 28.0703 28.4831 28.0703 29.1417V38.682C28.0703 39.3406 28.6042 39.8745 29.2628 39.8745H38.803C39.4616 39.8745 39.9955 39.3406 39.9955 38.682V29.1416C39.9955 28.4831 39.4616 27.9492 38.803 27.9492ZM37.6105 37.4895H30.4553V30.3341H37.6105V37.4895Z" fill="#599A39"/>
    </g>
    <defs>
        <clipPath id="clip0_1919_66687">
            <rect width="40" height="40" fill="white"/>
        </clipPath>
    </defs>
</svg>