<svg width="40" height="40" viewBox="0 0 40 40" fill="none" xmlns="http://www.w3.org/2000/svg">
    <path d="M31.4375 0.859375C28.8528 0.859375 26.75 2.96219 26.75 5.54688C26.75 8.13156 28.8528 10.2344 31.4375 10.2344C34.0222 10.2344 36.125 8.13156 36.125 5.54688C36.125 2.96219 34.0222 0.859375 31.4375 0.859375ZM31.4375 7.89062C30.1452 7.89062 29.0938 6.83922 29.0938 5.54688C29.0938 4.25453 30.1452 3.20312 31.4375 3.20312C32.7298 3.20312 33.7812 4.25453 33.7812 5.54688C33.7812 6.83922 32.7298 7.89062 31.4375 7.89062Z" fill="#599A39"/>
    <path d="M19.7188 6.71875C12.8556 6.71875 9.17188 11.6777 9.17188 18.479C9.17188 27.461 10.1526 33.4301 12.1699 36.7272C14.1724 40 16.8457 40 18.1305 40C19.5723 40 21.503 39.3363 22.5126 36.1746C22.9983 34.6536 23.2344 32.7021 23.2344 30.2086C23.2344 26.8889 24.5401 24.8673 25.9224 22.727C27.2587 20.658 28.6405 18.5186 28.6405 15.3342C28.6405 8.53328 23.0324 6.71875 19.7188 6.71875ZM23.9536 21.4554C22.5179 23.6783 20.8906 26.1978 20.8906 30.2086C20.8906 32.4252 20.6852 34.1926 20.2799 35.4616C19.5791 37.6562 18.5266 37.6562 18.1305 37.6562C16.6836 37.6562 15.387 37.4943 14.1691 35.504C12.4084 32.6263 11.5156 26.8983 11.5156 18.4791C11.5156 15.6478 12.3149 9.06258 19.7188 9.06258C20.8173 9.06258 26.2967 9.36492 26.2967 15.3342C26.2967 17.8275 25.2109 19.5087 23.9536 21.4554Z" fill="#599A39"/>
    <path d="M22.6094 4.69531C23.9017 4.69531 24.9531 3.64391 24.9531 2.35156C24.9531 1.05922 23.9017 0.0078125 22.6094 0.0078125C21.317 0.0078125 20.2656 1.05922 20.2656 2.35156C20.2656 3.64391 21.317 4.69531 22.6094 4.69531Z" fill="#599A39"/>
    <path d="M16.5078 4.6875C17.8002 4.6875 18.8516 3.63609 18.8516 2.34375C18.8516 1.05141 17.8002 0 16.5078 0C15.2155 0 14.1641 1.05141 14.1641 2.34375C14.1641 3.63609 15.2155 4.6875 16.5078 4.6875Z" fill="#599A39"/>
    <path d="M12.9453 4.7832C12.9453 3.49086 11.8939 2.43945 10.6016 2.43945C9.30922 2.43945 8.25781 3.49086 8.25781 4.7832C8.25781 6.07555 9.30922 7.12695 10.6016 7.12695C11.8939 7.12695 12.9453 6.07555 12.9453 4.7832Z" fill="#599A39"/>
    <path d="M6.22656 7.48828C4.93422 7.48828 3.88281 8.53969 3.88281 9.83203C3.88281 11.1244 4.93422 12.1758 6.22656 12.1758C7.51891 12.1758 8.57031 11.1244 8.57031 9.83203C8.57031 8.53969 7.51891 7.48828 6.22656 7.48828Z" fill="#599A39"/>
</svg>