<svg width="50" height="50" viewBox="0 0 50 50" fill="none" xmlns="http://www.w3.org/2000/svg">
    <path d="M25.003 38.5397C24.3889 38.5408 23.7807 38.4205 23.2132 38.1858C22.6458 37.9511 22.1303 37.6065 21.6964 37.172L19.8796 35.3546C19.6393 35.1132 19.3536 34.9217 19.0389 34.7914C18.7241 34.661 18.3867 34.5944 18.046 34.5952H15.9169C14.6772 34.5938 13.4887 34.1008 12.6121 33.2242C11.7356 32.3476 11.2425 31.1591 11.2411 29.9194V27.7903C11.242 27.4496 11.1753 27.1121 11.0448 26.7974C10.9144 26.4826 10.7228 26.1969 10.4812 25.9567L8.66443 24.1399C7.7887 23.2623 7.29688 22.0732 7.29688 20.8334C7.29688 19.5936 7.7887 18.4044 8.66443 17.5268L10.4817 15.71C10.7232 15.4697 10.9147 15.1839 11.045 14.8692C11.1753 14.5545 11.242 14.217 11.2411 13.8764V11.7472C11.2425 10.5076 11.7356 9.31909 12.6122 8.44252C13.4888 7.56594 14.6773 7.07286 15.9169 7.07145H18.0461C18.3868 7.07234 18.7243 7.00564 19.039 6.8752C19.3538 6.74477 19.6395 6.55319 19.8797 6.31156L21.6965 4.49475C22.5741 3.61902 23.7633 3.1272 25.0031 3.1272C26.2429 3.1272 27.4321 3.61902 28.3097 4.49475L30.1265 6.31207C30.3668 6.55353 30.6525 6.74497 30.9673 6.87531C31.282 7.00566 31.6194 7.07232 31.9601 7.07145H34.0892C35.3289 7.07286 36.5173 7.56594 37.3939 8.44252C38.2705 9.31909 38.7636 10.5076 38.765 11.7472V13.8764C38.7641 14.2171 38.8308 14.5546 38.9612 14.8693C39.0917 15.184 39.2832 15.4698 39.5249 15.71L41.3417 17.5268C42.2174 18.4044 42.7092 19.5936 42.7092 20.8334C42.7092 22.0732 42.2174 23.2623 41.3417 24.1399L39.5249 25.9567C39.2832 26.1969 39.0917 26.4827 38.9612 26.7974C38.8308 27.1122 38.7641 27.4496 38.765 27.7903V29.9195C38.7636 31.1592 38.2705 32.3477 37.3939 33.2242C36.5173 34.1008 35.3289 34.5939 34.0892 34.5953H31.96C31.6193 34.5944 31.2818 34.6611 30.9671 34.7916C30.6524 34.922 30.3666 35.1136 30.1264 35.3552L28.3096 37.172C27.8757 37.6065 27.3602 37.951 26.7927 38.1857C26.2253 38.4204 25.6171 38.5407 25.003 38.5397ZM15.9169 9.15478C15.2296 9.15564 14.5707 9.42905 14.0847 9.91505C13.5987 10.401 13.3253 11.0599 13.3245 11.7472V13.8764C13.326 14.4906 13.2059 15.0992 12.9708 15.6667C12.7358 16.2343 12.3906 16.7496 11.9552 17.1829L10.1374 18.9998C9.65178 19.4864 9.37904 20.1458 9.37904 20.8334C9.37904 21.5209 9.65178 22.1803 10.1374 22.6669L11.9547 24.4838C12.3903 24.917 12.7356 25.4323 12.9707 25.9999C13.2058 26.5674 13.3261 27.176 13.3245 27.7903V29.9195C13.3253 30.6068 13.5987 31.2657 14.0847 31.7517C14.5707 32.2377 15.2296 32.5111 15.9169 32.512H18.0461C18.6604 32.5104 19.2689 32.6306 19.8364 32.8656C20.404 33.1006 20.9193 33.4458 21.3527 33.8812L23.1694 35.699C23.6561 36.1846 24.3155 36.4573 25.003 36.4573C25.6905 36.4573 26.35 36.1846 26.8366 35.699L28.6534 33.8817C29.0867 33.4461 29.602 33.1008 30.1696 32.8657C30.7371 32.6305 31.3457 32.5103 31.96 32.5119H34.0891C34.7764 32.5111 35.4353 32.2377 35.9213 31.7517C36.4073 31.2657 36.6807 30.6068 36.6816 29.9195V27.7903C36.68 27.176 36.8002 26.5675 37.0352 25.9999C37.2702 25.4324 37.6154 24.917 38.0508 24.4837L39.8687 22.6669C40.3543 22.1803 40.627 21.5209 40.627 20.8334C40.627 20.1458 40.3543 19.4864 39.8687 18.9998L38.0513 17.1829C37.6158 16.7497 37.2704 16.2344 37.0353 15.6668C36.8002 15.0993 36.68 14.4907 36.6816 13.8764V11.7472C36.6807 11.0599 36.4073 10.401 35.9213 9.91505C35.4353 9.42905 34.7764 9.15564 34.0891 9.15478H31.96C31.3457 9.15637 30.7372 9.03618 30.1697 8.80116C29.6021 8.56614 29.0868 8.22096 28.6534 7.78556L26.8366 5.96773C26.35 5.4821 25.6905 5.20936 25.003 5.20936C24.3155 5.20936 23.6561 5.4821 23.1694 5.96773L21.3526 7.78505C20.9194 8.22061 20.4041 8.56594 19.8365 8.80105C19.2689 9.03616 18.6604 9.15639 18.046 9.15478H15.9169Z" fill="#599A39"/>
    <path d="M24.9967 31.9941C22.7893 31.9941 20.6315 31.3396 18.7961 30.1132C16.9607 28.8868 15.5302 27.1438 14.6855 25.1044C13.8408 23.065 13.6198 20.821 14.0504 18.656C14.481 16.491 15.544 14.5023 17.1049 12.9415C18.6657 11.3806 20.6544 10.3176 22.8194 9.887C24.9844 9.45636 27.2284 9.67738 29.2678 10.5221C31.3072 11.3669 33.0502 12.7974 34.2766 14.6327C35.503 16.4681 36.1575 18.6259 36.1575 20.8333C36.1541 23.7923 34.9771 26.6291 32.8848 28.7214C30.7925 30.8138 27.9557 31.9907 24.9967 31.9941ZM24.9967 11.7559C23.2014 11.7559 21.4464 12.2883 19.9536 13.2857C18.4608 14.2832 17.2973 15.7009 16.6103 17.3596C15.9232 19.0182 15.7434 20.8434 16.0937 22.6043C16.444 24.3651 17.3085 25.9826 18.578 27.2521C19.8475 28.5216 21.465 29.3861 23.2258 29.7364C24.9867 30.0866 26.8118 29.9069 28.4705 29.2198C30.1292 28.5328 31.5469 27.3693 32.5444 25.8765C33.5418 24.3837 34.0742 22.6287 34.0742 20.8333C34.0715 18.4267 33.1143 16.1194 31.4125 14.4176C29.7107 12.7158 27.4034 11.7586 24.9967 11.7559Z" fill="#599A39"/>
    <path d="M13.6915 46.3338C13.6356 46.3338 13.5796 46.3318 13.5232 46.3272C13.1693 46.3007 12.8282 46.1836 12.5327 45.9872C12.2372 45.7908 11.9971 45.5217 11.8355 45.2057L9.62963 40.9709L4.91416 40.184C4.56498 40.1257 4.23638 39.9795 3.95931 39.7592C3.68224 39.5388 3.46582 39.2516 3.33043 38.9245C3.19504 38.5974 3.14514 38.2412 3.18543 37.8895C3.22571 37.5378 3.35487 37.2021 3.56071 36.9141L11.3147 26.2319C11.3951 26.1212 11.4964 26.0275 11.613 25.956C11.7296 25.8845 11.8592 25.8366 11.9942 25.8152C12.1293 25.7937 12.2673 25.7991 12.4003 25.831C12.5333 25.8629 12.6587 25.9206 12.7694 26.001C12.8801 26.0814 12.9738 26.1827 13.0453 26.2993C13.1168 26.4159 13.1647 26.5454 13.1861 26.6805C13.2076 26.8156 13.2022 26.9536 13.1703 27.0866C13.1384 27.2196 13.0807 27.345 13.0003 27.4557L5.25037 38.1328L9.97347 38.9099C10.2958 38.9629 10.601 39.0917 10.8638 39.2856C11.1267 39.4795 11.3398 39.733 11.4856 40.0254L13.6854 44.2479L20.5539 34.7844C20.6342 34.6737 20.7355 34.5798 20.8521 34.5082C20.9686 34.4366 21.0981 34.3887 21.2332 34.3672C21.3683 34.3456 21.5063 34.3509 21.6393 34.3827C21.7724 34.4145 21.8978 34.4722 22.0086 34.5525C22.1193 34.6327 22.2132 34.7341 22.2848 34.8506C22.3563 34.9672 22.4043 35.0967 22.4258 35.2318C22.4474 35.3668 22.4421 35.5048 22.4103 35.6379C22.3785 35.7709 22.3208 35.8964 22.2405 36.0071L15.3761 45.4757C15.1831 45.7417 14.9299 45.9582 14.637 46.1074C14.3442 46.2566 14.0202 46.3342 13.6915 46.3338Z" fill="#599A39"/>
    <path d="M36.1307 46.4117C35.8005 46.4125 35.4749 46.3342 35.1812 46.1834C34.8874 46.0325 34.6342 45.8134 34.4426 45.5444L27.6819 36.085C27.6015 35.9738 27.5438 35.8477 27.5123 35.7142C27.4807 35.5806 27.4759 35.4421 27.498 35.3066C27.5202 35.1711 27.5689 35.0414 27.6413 34.9248C27.7138 34.8082 27.8086 34.7071 27.9203 34.6273C28.0319 34.5474 28.1583 34.4905 28.292 34.4596C28.4258 34.4288 28.5643 34.4247 28.6997 34.4476C28.835 34.4705 28.9645 34.5199 29.0807 34.593C29.1969 34.666 29.2975 34.7614 29.3767 34.8735L36.1369 44.3319L38.3687 40.1072C38.5216 39.8157 38.7418 39.565 39.0111 39.3757C39.2804 39.1865 39.5909 39.0643 39.917 39.0193L44.6162 38.2731L36.9628 27.5747C36.8825 27.4634 36.8249 27.3374 36.7934 27.2039C36.7619 27.0703 36.7571 26.9319 36.7793 26.7964C36.8015 26.661 36.8502 26.5313 36.9227 26.4148C36.9951 26.2983 37.0899 26.1972 37.2015 26.1174C37.3131 26.0376 37.4394 25.9807 37.5731 25.9498C37.7068 25.919 37.8453 25.9148 37.9806 25.9377C38.1159 25.9605 38.2454 26.0098 38.3616 26.0829C38.4777 26.1559 38.5783 26.2511 38.6576 26.3631L46.3038 37.061C46.5117 37.3453 46.6429 37.6783 46.6847 38.0279C46.7266 38.3776 46.6777 38.7321 46.5428 39.0574C46.4092 39.3888 46.1922 39.6801 45.9129 39.903C45.6337 40.1259 45.3016 40.273 44.9488 40.33L40.2135 41.0812L37.9816 45.2993C37.8159 45.6147 37.5718 45.8822 37.2729 46.0761C36.974 46.27 36.6302 46.3838 36.2746 46.4066C36.2263 46.4101 36.1785 46.4117 36.1307 46.4117Z" fill="#599A39"/>
    <path d="M24.261 24.942C24.0194 24.942 23.7853 24.8581 23.5987 24.7045L20.6192 22.2509C20.4069 22.075 20.273 21.822 20.2469 21.5475C20.2207 21.273 20.3045 20.9994 20.4798 20.7865C20.6551 20.5737 20.9076 20.439 21.182 20.412C21.4564 20.3851 21.7303 20.468 21.9437 20.6426L24.1074 22.4248L28.3549 17.1158C28.4402 17.0084 28.5458 16.9189 28.6657 16.8525C28.7856 16.786 28.9174 16.7439 29.0536 16.7285C29.1898 16.7131 29.3278 16.7247 29.4595 16.7627C29.5912 16.8007 29.7141 16.8644 29.8212 16.95C29.9282 17.0357 30.0173 17.1416 30.0833 17.2617C30.1494 17.3819 30.191 17.5139 30.2059 17.6501C30.2208 17.7864 30.2087 17.9243 30.1702 18.0559C30.1317 18.1874 30.0675 18.3101 29.9815 18.4168L25.0743 24.5509C24.9881 24.6587 24.8814 24.7482 24.7602 24.8144C24.6391 24.8806 24.5061 24.9221 24.3688 24.9364C24.3327 24.94 24.2966 24.942 24.261 24.942Z" fill="#599A39"/>
</svg>