<svg width="40" height="40" viewBox="0 0 40 40" fill="none" xmlns="http://www.w3.org/2000/svg">
    <g clip-path="url(#clip0_1702_74383)">
        <path d="M22.2702 0H2.14735C1.68452 0 1.30889 0.374788 1.30889 0.838451C1.30889 1.30211 1.68452 1.6769 2.14735 1.6769H22.2702C30.5918 1.6769 37.3623 8.4474 37.3623 16.769C37.3623 25.0907 30.5918 31.8612 22.2702 31.8612H4.17137L9.44774 26.5848L8.26217 25.3992L1.5554 32.106L1.55372 32.1077L0.960938 32.6996L1.55288 33.2916L1.55456 33.2932L8.26133 40L9.4469 38.8144L4.17137 33.5381H22.2702C31.5166 33.5381 39.0392 26.0155 39.0392 16.769C39.0392 7.52259 31.5158 0 22.2702 0Z" fill="white"/>
        <path d="M23.3361 22.2002C22.6561 22.2002 22.0561 22.0558 21.5361 21.7669C21.0161 21.4735 20.6095 21.0669 20.3161 20.5469C20.0273 20.0269 19.8828 19.4269 19.8828 18.7469V15.6535C19.8828 14.9735 20.0273 14.3735 20.3161 13.8535C20.6095 13.3335 21.0161 12.9291 21.5361 12.6402C22.0561 12.3469 22.6561 12.2002 23.3361 12.2002C24.0161 12.2002 24.6139 12.3469 25.1295 12.6402C25.6495 12.9291 26.0561 13.3335 26.3495 13.8535C26.6428 14.3735 26.7895 14.9735 26.7895 15.6535V18.7469C26.7895 19.4269 26.6428 20.0269 26.3495 20.5469C26.0561 21.0669 25.6495 21.4735 25.1295 21.7669C24.6139 22.0558 24.0161 22.2002 23.3361 22.2002ZM23.3361 20.6735C23.6739 20.6735 23.9806 20.5935 24.2561 20.4335C24.5317 20.2691 24.7495 20.0513 24.9095 19.7802C25.0695 19.5046 25.1495 19.198 25.1495 18.8602V15.5335C25.1495 15.1913 25.0695 14.8846 24.9095 14.6135C24.7495 14.338 24.5317 14.1202 24.2561 13.9602C23.9806 13.7958 23.6739 13.7135 23.3361 13.7135C22.9984 13.7135 22.6917 13.7958 22.4161 13.9602C22.1406 14.1202 21.9228 14.338 21.7628 14.6135C21.6028 14.8846 21.5228 15.1913 21.5228 15.5335V18.8602C21.5228 19.198 21.6028 19.5046 21.7628 19.7802C21.9228 20.0513 22.1406 20.2691 22.4161 20.4335C22.6917 20.5935 22.9984 20.6735 23.3361 20.6735Z" fill="white"/>
        <path d="M14.9216 22.2C14.2949 22.2 13.7305 22.0534 13.2282 21.76C12.7305 21.4623 12.3349 21.0512 12.0416 20.5267C11.7482 20.0023 11.6016 19.4 11.6016 18.72V15.8C11.6016 15.0712 11.746 14.4378 12.0349 13.9C12.3282 13.3623 12.7371 12.9467 13.2616 12.6534C13.7905 12.36 14.4038 12.2134 15.1016 12.2134C15.586 12.2134 16.046 12.2956 16.4816 12.46C16.9171 12.62 17.3038 12.8778 17.6416 13.2334L16.4816 14.36C16.3127 14.16 16.106 14.0023 15.8616 13.8867C15.6216 13.7712 15.3682 13.7134 15.1016 13.7134C14.7282 13.7134 14.4016 13.8023 14.1216 13.98C13.8416 14.1534 13.6238 14.3823 13.4682 14.6667C13.3171 14.9512 13.2416 15.2556 13.2416 15.58V17.1734L12.9482 16.8534C13.2238 16.5334 13.5549 16.2845 13.9416 16.1067C14.3282 15.9245 14.7327 15.8334 15.1549 15.8334C15.7593 15.8334 16.2927 15.9712 16.7549 16.2467C17.2171 16.5178 17.5816 16.8912 17.8482 17.3667C18.1149 17.8378 18.2482 18.3756 18.2482 18.98C18.2482 19.58 18.0949 20.1245 17.7882 20.6134C17.486 21.0978 17.0838 21.4845 16.5816 21.7734C16.0793 22.0578 15.526 22.2 14.9216 22.2ZM14.9216 20.66C15.2327 20.66 15.5171 20.5867 15.7749 20.44C16.0327 20.2889 16.2371 20.0867 16.3882 19.8334C16.5438 19.5756 16.6216 19.2912 16.6216 18.98C16.6216 18.6689 16.546 18.3845 16.3949 18.1267C16.2438 17.8689 16.0393 17.6645 15.7816 17.5134C15.5282 17.3578 15.246 17.28 14.9349 17.28C14.6238 17.28 14.3393 17.3578 14.0816 17.5134C13.8238 17.6645 13.6193 17.8689 13.4682 18.1267C13.3171 18.3845 13.2416 18.6689 13.2416 18.98C13.2416 19.2823 13.3149 19.5623 13.4616 19.82C13.6127 20.0734 13.8149 20.2778 14.0682 20.4334C14.326 20.5845 14.6105 20.66 14.9216 20.66Z" fill="white"/>
    </g>
    <defs>
        <clipPath id="clip0_1702_74383">
            <rect width="40" height="40" fill="white"/>
        </clipPath>
    </defs>
</svg>