<svg width="50" height="50" viewBox="0 0 50 50" fill="none" xmlns="http://www.w3.org/2000/svg">
    <path d="M49.2188 31.25C49.0116 31.25 48.8128 31.3323 48.6663 31.4788C48.5198 31.6253 48.4375 31.824 48.4375 32.0312C48.4375 32.2385 48.3552 32.4372 48.2087 32.5837C48.0622 32.7302 47.8634 32.8125 47.6562 32.8125H36.7188C36.5116 32.8125 36.3128 32.7302 36.1663 32.5837C36.0198 32.4372 35.9375 32.2385 35.9375 32.0312V27.3438C35.9375 27.1365 36.0198 26.9378 36.1663 26.7913C36.3128 26.6448 36.5116 26.5625 36.7188 26.5625C36.9259 26.5625 37.1247 26.4802 37.2712 26.3337C37.4177 26.1872 37.5 25.9885 37.5 25.7812C37.5 25.574 37.4177 25.3753 37.2712 25.2288C37.1247 25.0823 36.9259 25 36.7188 25C36.1403 25.002 35.5833 25.2193 35.1562 25.6094C34.7292 25.2193 34.1722 25.002 33.5938 25H9.375C9.1678 25 8.96909 24.9177 8.82257 24.7712C8.67606 24.6247 8.59375 24.426 8.59375 24.2188V19.5312C8.59375 19.324 8.67606 19.1253 8.82257 18.9788C8.96909 18.8323 9.1678 18.75 9.375 18.75H22.6562C22.8635 18.75 23.0622 18.6677 23.2087 18.5212C23.3552 18.3747 23.4375 18.176 23.4375 17.9688C23.4375 17.7615 23.3552 17.5628 23.2087 17.4163C23.0622 17.2698 22.8635 17.1875 22.6562 17.1875H16.4062C16.199 17.1875 16.0003 17.1052 15.8538 16.9587C15.7073 16.8122 15.625 16.6135 15.625 16.4062V11.7188C15.625 11.5115 15.7073 11.3128 15.8538 11.1663C16.0003 11.0198 16.199 10.9375 16.4062 10.9375H17.9688C18.176 10.9375 18.3747 10.8552 18.5212 10.7087C18.6677 10.5622 18.75 10.3635 18.75 10.1562C18.75 9.94905 18.6677 9.75034 18.5212 9.60382C18.3747 9.45731 18.176 9.375 17.9688 9.375H16.4062C15.8278 9.37703 15.2708 9.59426 14.8438 9.98437C14.4167 9.59426 13.8597 9.37703 13.2812 9.375H2.34375C1.72215 9.375 1.12601 9.62193 0.686468 10.0615C0.24693 10.501 0 11.0971 0 11.7188L0 16.4062C0.00203411 16.9847 0.219256 17.5417 0.609375 17.9688C0.219256 18.3958 0.00203411 18.9528 0 19.5312L0 24.2188C0.00203411 24.7972 0.219256 25.3542 0.609375 25.7812C0.219256 26.2083 0.00203411 26.7653 0 27.3438L0 32.0312C0.00203411 32.6097 0.219256 33.1667 0.609375 33.5938C0.219256 34.0208 0.00203411 34.5778 0 35.1562L0 39.8438C0.00203411 40.4222 0.219256 40.9792 0.609375 41.4062C0.219256 41.8333 0.00203411 42.3903 0 42.9688L0 47.6562C0 48.2779 0.24693 48.874 0.686468 49.3135C1.12601 49.7531 1.72215 50 2.34375 50H13.2812C13.8597 49.998 14.4167 49.7807 14.8438 49.3906C15.2708 49.7807 15.8278 49.998 16.4062 50H33.5938C34.1722 49.998 34.7292 49.7807 35.1562 49.3906C35.5833 49.7807 36.1403 49.998 36.7188 50H47.6562C48.2779 50 48.874 49.7531 49.3135 49.3135C49.7531 48.874 50 48.2779 50 47.6562V42.9688C49.998 42.3903 49.7807 41.8333 49.3906 41.4062C49.7807 40.9792 49.998 40.4222 50 39.8438V35.1562C49.998 34.5778 49.7807 34.0208 49.3906 33.5938C49.7807 33.1667 49.998 32.6097 50 32.0312C50 31.824 49.9177 31.6253 49.7712 31.4788C49.6247 31.3323 49.4259 31.25 49.2188 31.25ZM47.6562 34.375C47.8634 34.375 48.0622 34.4573 48.2087 34.6038C48.3552 34.7503 48.4375 34.949 48.4375 35.1562V39.8438C48.4375 40.051 48.3552 40.2497 48.2087 40.3962C48.0622 40.5427 47.8634 40.625 47.6562 40.625H43.75C43.5428 40.625 43.3441 40.5427 43.1976 40.3962C43.0511 40.2497 42.9688 40.051 42.9688 39.8438V35.1562C42.9688 34.949 43.0511 34.7503 43.1976 34.6038C43.3441 34.4573 43.5428 34.375 43.75 34.375H47.6562ZM40.625 34.375C40.8322 34.375 41.0309 34.4573 41.1774 34.6038C41.3239 34.7503 41.4062 34.949 41.4062 35.1562V39.8438C41.4062 40.051 41.3239 40.2497 41.1774 40.3962C41.0309 40.5427 40.8322 40.625 40.625 40.625H29.6875C29.4803 40.625 29.2816 40.5427 29.1351 40.3962C28.9886 40.2497 28.9062 40.051 28.9062 39.8438V35.1562C28.9062 34.949 28.9886 34.7503 29.1351 34.6038C29.2816 34.4573 29.4803 34.375 29.6875 34.375H40.625ZM33.5938 26.5625C33.8009 26.5625 33.9997 26.6448 34.1462 26.7913C34.2927 26.9378 34.375 27.1365 34.375 27.3438V32.0312C34.375 32.2385 34.2927 32.4372 34.1462 32.5837C33.9997 32.7302 33.8009 32.8125 33.5938 32.8125H22.6562C22.449 32.8125 22.2503 32.8948 22.1038 33.0413C21.9573 33.1878 21.875 33.3865 21.875 33.5938C21.875 33.801 21.9573 33.9997 22.1038 34.1462C22.2503 34.2927 22.449 34.375 22.6562 34.375H26.5625C26.7697 34.375 26.9684 34.4573 27.1149 34.6038C27.2614 34.7503 27.3438 34.949 27.3438 35.1562V39.8438C27.3438 40.051 27.2614 40.2497 27.1149 40.3962C26.9684 40.5427 26.7697 40.625 26.5625 40.625H9.375C9.1678 40.625 8.96909 40.5427 8.82257 40.3962C8.67606 40.2497 8.59375 40.051 8.59375 39.8438V35.1562C8.59375 34.949 8.67606 34.7503 8.82257 34.6038C8.96909 34.4573 9.1678 34.375 9.375 34.375H19.5312C19.7385 34.375 19.9372 34.2927 20.0837 34.1462C20.2302 33.9997 20.3125 33.801 20.3125 33.5938C20.3125 33.3865 20.2302 33.1878 20.0837 33.0413C19.9372 32.8948 19.7385 32.8125 19.5312 32.8125H16.4062C16.199 32.8125 16.0003 32.7302 15.8538 32.5837C15.7073 32.4372 15.625 32.2385 15.625 32.0312V27.3438C15.625 27.1365 15.7073 26.9378 15.8538 26.7913C16.0003 26.6448 16.199 26.5625 16.4062 26.5625H33.5938ZM1.5625 39.8438V35.1562C1.5625 34.949 1.64481 34.7503 1.79132 34.6038C1.93784 34.4573 2.13655 34.375 2.34375 34.375H6.25C6.4572 34.375 6.65591 34.4573 6.80243 34.6038C6.94894 34.7503 7.03125 34.949 7.03125 35.1562V39.8438C7.03125 40.051 6.94894 40.2497 6.80243 40.3962C6.65591 40.5427 6.4572 40.625 6.25 40.625H2.34375C2.13655 40.625 1.93784 40.5427 1.79132 40.3962C1.64481 40.2497 1.5625 40.051 1.5625 39.8438ZM13.2812 26.5625C13.4885 26.5625 13.6872 26.6448 13.8337 26.7913C13.9802 26.9378 14.0625 27.1365 14.0625 27.3438V32.0312C14.0625 32.2385 13.9802 32.4372 13.8337 32.5837C13.6872 32.7302 13.4885 32.8125 13.2812 32.8125H2.34375C2.13655 32.8125 1.93784 32.7302 1.79132 32.5837C1.64481 32.4372 1.5625 32.2385 1.5625 32.0312V27.3438C1.5625 27.1365 1.64481 26.9378 1.79132 26.7913C1.93784 26.6448 2.13655 26.5625 2.34375 26.5625H13.2812ZM1.5625 24.2188V19.5312C1.5625 19.324 1.64481 19.1253 1.79132 18.9788C1.93784 18.8323 2.13655 18.75 2.34375 18.75H6.25C6.4572 18.75 6.65591 18.8323 6.80243 18.9788C6.94894 19.1253 7.03125 19.324 7.03125 19.5312V24.2188C7.03125 24.426 6.94894 24.6247 6.80243 24.7712C6.65591 24.9177 6.4572 25 6.25 25H2.34375C2.13655 25 1.93784 24.9177 1.79132 24.7712C1.64481 24.6247 1.5625 24.426 1.5625 24.2188ZM1.5625 11.7188C1.5625 11.5115 1.64481 11.3128 1.79132 11.1663C1.93784 11.0198 2.13655 10.9375 2.34375 10.9375H13.2812C13.4885 10.9375 13.6872 11.0198 13.8337 11.1663C13.9802 11.3128 14.0625 11.5115 14.0625 11.7188V16.4062C14.0625 16.6135 13.9802 16.8122 13.8337 16.9587C13.6872 17.1052 13.4885 17.1875 13.2812 17.1875H2.34375C2.13655 17.1875 1.93784 17.1052 1.79132 16.9587C1.64481 16.8122 1.5625 16.6135 1.5625 16.4062V11.7188ZM13.2812 48.4375H2.34375C2.13655 48.4375 1.93784 48.3552 1.79132 48.2087C1.64481 48.0622 1.5625 47.8634 1.5625 47.6562V42.9688C1.5625 42.7616 1.64481 42.5628 1.79132 42.4163C1.93784 42.2698 2.13655 42.1875 2.34375 42.1875H13.2812C13.4885 42.1875 13.6872 42.2698 13.8337 42.4163C13.9802 42.5628 14.0625 42.7616 14.0625 42.9688V47.6562C14.0625 47.8634 13.9802 48.0622 13.8337 48.2087C13.6872 48.3552 13.4885 48.4375 13.2812 48.4375ZM33.5938 48.4375H16.4062C16.199 48.4375 16.0003 48.3552 15.8538 48.2087C15.7073 48.0622 15.625 47.8634 15.625 47.6562V42.9688C15.625 42.7616 15.7073 42.5628 15.8538 42.4163C16.0003 42.2698 16.199 42.1875 16.4062 42.1875H33.5938C33.8009 42.1875 33.9997 42.2698 34.1462 42.4163C34.2927 42.5628 34.375 42.7616 34.375 42.9688V47.6562C34.375 47.8634 34.2927 48.0622 34.1462 48.2087C33.9997 48.3552 33.8009 48.4375 33.5938 48.4375ZM48.4375 47.6562C48.4375 47.8634 48.3552 48.0622 48.2087 48.2087C48.0622 48.3552 47.8634 48.4375 47.6562 48.4375H36.7188C36.5116 48.4375 36.3128 48.3552 36.1663 48.2087C36.0198 48.0622 35.9375 47.8634 35.9375 47.6562V42.9688C35.9375 42.7616 36.0198 42.5628 36.1663 42.4163C36.3128 42.2698 36.5116 42.1875 36.7188 42.1875H47.6562C47.8634 42.1875 48.0622 42.2698 48.2087 42.4163C48.3552 42.5628 48.4375 42.7616 48.4375 42.9688V47.6562Z" fill="#599A39"/>
    <path d="M26.4037 22.3703C26.6736 22.9492 27.0804 23.4537 27.5889 23.8401C28.0975 24.2265 28.6925 24.4833 29.3225 24.5883C29.5531 24.6286 29.7868 24.649 30.0209 24.6492C30.5399 24.6486 31.0537 24.545 31.5324 24.3445C32.0111 24.1441 32.4454 23.8506 32.81 23.4813L35.8342 20.457L38.1233 22.7453L37.5443 23.3242C37.3979 23.4707 37.3156 23.6694 37.3156 23.8766C37.3156 24.0837 37.3979 24.2824 37.5443 24.4289L43.2006 30.0844C43.9473 30.8311 44.9602 31.2507 46.0162 31.2507C47.0723 31.2507 48.0851 30.8311 48.8318 30.0844C49.5786 29.3376 49.9981 28.3248 49.9981 27.2688C49.9981 26.2127 49.5786 25.1999 48.8318 24.4531L43.1764 18.7977C43.0299 18.6512 42.8312 18.5689 42.624 18.5689C42.4169 18.5689 42.2182 18.6512 42.0717 18.7977L41.4928 19.3766L39.2045 17.0875L42.2287 14.0625C42.6777 13.611 43.012 13.0585 43.2034 12.4512C43.3949 11.8439 43.4381 11.1996 43.3293 10.5722C43.2205 9.94482 42.9629 9.35265 42.5781 8.8453C42.1934 8.33796 41.6926 7.93022 41.1178 7.65626L34.7068 4.61798C34.6138 4.57133 34.5124 4.54373 34.4086 4.53681C34.3047 4.52989 34.2005 4.54379 34.1022 4.57769C34.0038 4.61159 33.9131 4.6648 33.8356 4.73421C33.758 4.80362 33.6951 4.88782 33.6506 4.98187C33.606 5.07593 33.5807 5.17793 33.5761 5.2819C33.5715 5.38587 33.5878 5.48971 33.6239 5.58732C33.66 5.68493 33.7152 5.77434 33.7863 5.85031C33.8575 5.92628 33.9431 5.98727 34.0381 6.0297L40.449 9.06642C40.7985 9.23295 41.103 9.48082 41.3369 9.78926C41.5708 10.0977 41.7274 10.4577 41.7935 10.8392C41.8596 11.2206 41.8333 11.6123 41.7168 11.9815C41.6004 12.3507 41.3971 12.6865 41.124 12.9609L38.0998 15.9852L36.3904 14.2758C35.9368 13.843 35.3339 13.6015 34.7068 13.6015C34.0798 13.6015 33.4769 13.843 33.0233 14.2758C32.8021 14.4969 32.6266 14.7594 32.5069 15.0484C32.3872 15.3373 32.3256 15.647 32.3256 15.9598C32.3256 16.2725 32.3872 16.5822 32.5069 16.8712C32.6266 17.1601 32.8021 17.4226 33.0233 17.6438L34.7326 19.3531L31.7084 22.3766C31.434 22.6496 31.0981 22.8529 30.7289 22.9694C30.3598 23.0859 29.968 23.1121 29.5866 23.046C29.2052 22.9799 28.8452 22.8233 28.5367 22.5894C28.2283 22.3555 27.9804 22.051 27.8139 21.7016L20.5443 6.35157C20.3315 5.90076 20.263 5.39526 20.3482 4.90406C20.4333 4.41287 20.668 3.95992 21.0201 3.60704L22.3561 2.27111C22.7086 1.91897 23.1614 1.6844 23.6524 1.59951C24.1435 1.51462 24.6487 1.58356 25.099 1.79689L30.9131 4.55079C31.0061 4.59745 31.1075 4.62504 31.2114 4.63196C31.3152 4.63888 31.4194 4.62498 31.5178 4.59108C31.6162 4.55719 31.7068 4.50397 31.7844 4.43456C31.8619 4.36515 31.9248 4.28095 31.9694 4.1869C32.0139 4.09285 32.0392 3.99084 32.0438 3.88687C32.0484 3.7829 32.0322 3.67906 31.9961 3.58145C31.96 3.48384 31.9047 3.39443 31.8336 3.31846C31.7625 3.2425 31.6769 3.18151 31.5818 3.13907L25.7678 0.383605C25.0259 0.0326921 24.1938 -0.0805879 23.3852 0.0592458C22.5765 0.19908 21.8308 0.585205 21.2498 1.16486L19.9139 2.50001C19.3342 3.08095 18.9481 3.8267 18.8083 4.63536C18.6684 5.44402 18.7817 6.27613 19.1326 7.01798L26.4037 22.3703ZM47.7318 25.5602C47.9778 25.7796 48.1763 26.047 48.3153 26.3459C48.4543 26.6448 48.5308 26.9689 48.5401 27.2984C48.5495 27.6278 48.4915 27.9558 48.3697 28.2621C48.2479 28.5683 48.0648 28.8465 47.8318 29.0796C47.5987 29.3127 47.3205 29.4957 47.0142 29.6175C46.7079 29.7393 46.38 29.7973 46.0505 29.788C45.721 29.7786 45.3969 29.7021 45.098 29.5631C44.7992 29.4242 44.5318 29.2256 44.3123 28.9797L39.2092 23.8766L42.6287 20.457L47.7318 25.5602ZM33.8881 15.9594C33.8879 15.7975 33.9358 15.6391 34.0256 15.5044C34.1155 15.3697 34.2433 15.2647 34.3929 15.2027C34.5425 15.1407 34.7071 15.1245 34.8659 15.1562C35.0247 15.1878 35.1706 15.2659 35.285 15.3805L40.3881 20.4836L39.2311 21.6406L34.1279 16.5375C34.0517 16.4618 33.9912 16.3717 33.9501 16.2725C33.9089 16.1733 33.8878 16.0668 33.8881 15.9594Z" fill="#599A39"/>
</svg>