<svg width="50" height="50" viewBox="0 0 50 50" fill="none" xmlns="http://www.w3.org/2000/svg">
    <path fill-rule="evenodd" clip-rule="evenodd" d="M5.59554 18.574L5.16279 18.5173C4.78838 18.4684 4.52387 18.1261 4.57083 17.7515L6.34034 3.64803C6.37161 3.39773 6.53965 3.1794 6.78436 3.0894L11.9822 1.17744C12.0898 1.13793 12.2055 1.12587 12.319 1.14254L44.8486 5.92577C45.1281 5.96685 45.3539 6.17499 45.4174 6.45028C45.4293 6.50166 45.435 47.6799 45.435 47.6799C45.435 48.0179 45.189 48.3056 44.855 48.3579C44.855 48.3579 41.494 48.8742 41.4265 48.8644L5.37946 43.6059C5.01338 43.5524 4.75554 43.2186 4.79642 42.851L6.12357 30.9171L5.38907 30.8206C5.02946 30.7733 4.76867 30.4543 4.79387 30.0924L5.59554 18.574ZM7.61495 4.5145L6.01769 17.2449L40.8393 21.7997V9.40175L7.61495 4.5145ZM40.8393 23.1839L6.95907 18.7523L6.20799 29.5438L40.8393 34.0957V23.1839ZM44.0625 7.90548L42.2118 9.17117V47.383L44.0625 47.0928V7.90548ZM40.8393 47.3917V35.4801L7.48475 31.096L6.23387 42.3434L40.8393 47.3917ZM42.9134 7.02852L12.2921 2.52597L9.78838 3.44685L41.3598 8.09107L42.9134 7.02852Z" fill="#599A39"/>
</svg>
