<svg width="21" height="20" viewBox="0 0 21 20" fill="none" xmlns="http://www.w3.org/2000/svg">
    <path d="M10.5026 5.00016V3.3335M10.5026 5.00016C9.58213 5.00016 8.83594 5.74635 8.83594 6.66683C8.83594 7.5873 9.58213 8.3335 10.5026 8.3335M10.5026 5.00016C11.4231 5.00016 12.1693 5.74635 12.1693 6.66683C12.1693 7.5873 11.4231 8.3335 10.5026 8.3335M5.5026 15.0002C6.42308 15.0002 7.16927 14.254 7.16927 13.3335C7.16927 12.413 6.42308 11.6668 5.5026 11.6668M5.5026 15.0002C4.58213 15.0002 3.83594 14.254 3.83594 13.3335C3.83594 12.413 4.58213 11.6668 5.5026 11.6668M5.5026 15.0002V16.6668M5.5026 11.6668V3.3335M10.5026 8.3335V16.6668M15.5026 15.0002C16.4231 15.0002 17.1693 14.254 17.1693 13.3335C17.1693 12.413 16.4231 11.6668 15.5026 11.6668M15.5026 15.0002C14.5821 15.0002 13.8359 14.254 13.8359 13.3335C13.8359 12.413 14.5821 11.6668 15.5026 11.6668M15.5026 15.0002V16.6668M15.5026 11.6668V3.3335" stroke="#292929" stroke-width="2" stroke-linecap="round" stroke-linejoin="round"/>
</svg>