<svg width="20" height="21" viewBox="0 0 20 21" fill="none" xmlns="http://www.w3.org/2000/svg">
    <g clip-path="url(#clip0_1522_50192)">
        <path d="M18.0131 2.20472C16.7317 0.923436 15.0282 0.217773 13.2161 0.217773C11.4041 0.217773 9.70049 0.923397 8.4192 2.20472C7.36932 3.2546 6.70534 4.58468 6.49897 6.05124C6.31995 7.32331 6.51092 8.63967 7.03729 9.80447L0 16.8418V20.2177H3.37601L4.46804 19.1257L4.45952 17.8902L5.71202 17.8817L7.05377 16.54L7.05393 15.4246L8.18069 15.4131L10.4133 13.1804C11.5781 13.7068 12.8945 13.8979 14.1665 13.7188C15.6331 13.5124 16.9632 12.8484 18.0131 11.7985C19.2944 10.5172 20 8.81365 20 7.00163C20 5.1896 19.2944 3.48605 18.0131 2.20472ZM17.1844 10.9699C16.0987 12.0556 14.6725 12.6221 13.224 12.622C12.3229 12.622 11.4132 12.4028 10.5717 11.9529L10.1885 11.7481L7.6903 14.2462L5.88218 14.2647L5.88194 16.0545L5.22331 16.7132L3.27956 16.7264L3.29277 18.6437L2.89058 19.0459H1.17187V17.3272L8.46975 10.0293L8.26487 9.64604C7.09182 7.45178 7.48686 4.79433 9.24787 3.03331C10.3078 1.97339 11.7171 1.38965 13.2161 1.38965C14.7151 1.38965 16.1244 1.97339 17.1844 3.03335C18.2443 4.09331 18.8281 5.50261 18.8281 7.00163C18.8281 8.50065 18.2444 9.90994 17.1844 10.9699Z" fill="white"/>
        <path d="M12.9243 4.02783C12.0252 4.92693 12.0252 6.3899 12.9243 7.28896C13.3599 7.72451 13.939 7.96439 14.5549 7.96439C15.1709 7.96439 15.75 7.72451 16.1855 7.28896C16.621 6.85342 16.8609 6.27432 16.8609 5.65838C16.8609 5.04244 16.621 4.46334 16.1855 4.02779C15.2864 3.12873 13.8234 3.12877 12.9243 4.02783ZM15.3569 6.46033C15.1426 6.67455 14.8579 6.79252 14.5549 6.79252C14.252 6.79252 13.9672 6.67451 13.753 6.46033C13.3108 6.01814 13.3108 5.29865 13.753 4.85646C13.9741 4.63533 14.2644 4.52482 14.5549 4.52482C14.8453 4.52482 15.1358 4.63541 15.3569 4.85646C15.571 5.07068 15.6891 5.35549 15.6891 5.65842C15.689 5.96135 15.571 6.24615 15.3569 6.46033Z" fill="white"/>
    </g>
    <defs>
        <clipPath id="clip0_1522_50192">
            <rect width="20" height="20" fill="white" transform="translate(0 0.217773)"/>
        </clipPath>
    </defs>
</svg>