<svg width="40" height="40" viewBox="0 0 40 40" fill="none" xmlns="http://www.w3.org/2000/svg">
    <path d="M20.0273 0L15.1888 1.97531L16.0757 4.14797L18.8245 3.02578V19.323L8.46961 25.3135L4.98188 23.2995V17.8109H2.63508L2.625 29.9679L19.9977 40L37.3772 29.968V8.03219L20.0273 0ZM19.9988 21.3548L29.1982 26.6602L19.998 31.9709L10.8148 26.668L19.9988 21.3548ZM29.512 24.1321L26.3441 22.3052V15.4886L29.512 17.1026V24.1321ZM4.9718 26.0037L18.8245 34.0031V36.6127L4.9718 28.6131V26.0037ZM35.0304 28.613L21.1713 36.613V34.0032L35.0304 26.0034V28.613ZM35.0304 23.2936L31.8588 25.1244V15.6645L23.9973 11.6591V20.9518L21.1713 19.322V3.1157L35.0304 9.53172V23.2936Z" fill="#599A39"/>
    <path d="M2.71094 11.3184H5.05773V15.1514H2.71094V11.3184Z" fill="#599A39"/>
    <path d="M9.35938 4.53125L12.9088 3.08619L13.7935 5.25925L10.2441 6.70431L9.35938 4.53125Z" fill="#599A39"/>
    <path d="M3.26562 7.05273L6.81503 5.60768L7.69974 7.78074L4.15034 9.2258L3.26562 7.05273Z" fill="#599A39"/>
</svg>