<svg width="40" height="40" viewBox="0 0 40 40" fill="none" xmlns="http://www.w3.org/2000/svg">
    <g clip-path="url(#clip0_1919_77412)">
        <path d="M19.6633 22.6068C19.7731 22.6398 19.8866 22.6562 20 22.6562C20.1134 22.6562 20.2269 22.6398 20.3367 22.6068C22.8551 21.8513 25.0159 20.337 26.5853 18.2276C28.1548 16.1181 28.9844 13.6134 28.9844 10.9841V4.29688C28.9844 3.64969 28.4597 3.125 27.8125 3.125C26.3316 3.125 25.0003 2.30219 24.3381 0.977812L24.1732 0.647891C23.9747 0.250781 23.5689 0 23.125 0H16.875C16.4311 0 16.0253 0.250781 15.8268 0.647812L15.6619 0.977656C14.9997 2.30219 13.6684 3.125 12.1875 3.125C11.5403 3.125 11.0156 3.64969 11.0156 4.29688V10.9841C11.0156 13.6134 11.8452 16.1181 13.4147 18.2276C14.9841 20.337 17.1449 21.8513 19.6633 22.6068ZM13.3594 5.35961C15.1329 5.02484 16.6748 3.93773 17.5879 2.34375H22.4121C23.3252 3.93766 24.8671 5.02484 26.6406 5.35961V10.9842C26.6406 15.223 23.9866 18.9049 20 20.2545C16.0134 18.9049 13.3594 15.223 13.3594 10.9842V5.35961Z" fill="#599A39"/>
        <path d="M18.8973 14.7085C19.1972 14.7085 19.4971 14.5941 19.7259 14.3652L24.1453 9.94582C24.6029 9.48816 24.6029 8.74621 24.1453 8.28855C23.6877 7.8309 22.9457 7.8309 22.488 8.28855L18.8972 11.8793L17.5161 10.4982C17.0586 10.0406 16.3165 10.0406 15.8589 10.4982C15.4012 10.9559 15.4012 11.6979 15.8589 12.1555L18.0686 14.3652C18.2975 14.5941 18.5974 14.7085 18.8973 14.7085Z" fill="#599A39"/>
        <path d="M35.4033 27.5554C36.3124 26.6373 36.875 25.3755 36.875 23.9844C36.875 21.1843 34.597 18.9062 31.7969 18.9062C28.9968 18.9062 26.7188 21.1843 26.7188 23.9844C26.7188 25.373 27.2795 26.6328 28.1859 27.5505C26.3134 28.4663 24.8415 30.0745 24.107 32.0532C23.8373 31.8402 23.551 31.6477 23.25 31.4779C23.9014 30.7245 24.2969 29.7437 24.2969 28.6719C24.2969 26.3026 22.3693 24.375 20 24.375C17.6307 24.375 15.7031 26.3026 15.7031 28.6719C15.7031 29.7437 16.0986 30.7245 16.75 31.4779C16.449 31.6476 16.1627 31.8402 15.893 32.0532C15.1585 30.0745 13.6866 28.4663 11.8141 27.5505C12.7205 26.6328 13.2812 25.373 13.2812 23.9844C13.2812 21.1843 11.0032 18.9062 8.20312 18.9062C5.40305 18.9062 3.125 21.1843 3.125 23.9844C3.125 25.3755 3.68758 26.6373 4.59672 27.5554C1.87672 28.8924 0 31.692 0 34.9219V38.8281C0 39.4753 0.524687 40 1.17188 40H38.8281C39.4753 40 40 39.4753 40 38.8281V34.9219C40 31.692 38.1233 28.8924 35.4033 27.5554ZM29.0625 23.9844C29.0625 22.4766 30.2891 21.25 31.7969 21.25C33.3046 21.25 34.5312 22.4766 34.5312 23.9844C34.5312 25.4921 33.3046 26.7188 31.7969 26.7188C30.2891 26.7188 29.0625 25.4921 29.0625 23.9844ZM18.0469 28.6719C18.0469 27.5949 18.923 26.7188 20 26.7188C21.077 26.7188 21.9531 27.5949 21.9531 28.6719C21.9531 29.7488 21.077 30.625 20 30.625C18.923 30.625 18.0469 29.7488 18.0469 28.6719ZM5.46875 23.9844C5.46875 22.4766 6.69539 21.25 8.20312 21.25C9.71086 21.25 10.9375 22.4766 10.9375 23.9844C10.9375 25.4921 9.71086 26.7188 8.20312 26.7188C6.69539 26.7188 5.46875 25.4921 5.46875 23.9844ZM2.34375 34.9219C2.34375 31.691 4.97227 29.0625 8.20312 29.0625C11.242 29.0625 13.748 31.3622 14.0347 34.3513C13.6028 35.2317 13.3594 36.2206 13.3594 37.2656V37.6562H2.34375V34.9219ZM24.2969 37.6562H15.7031V37.2656C15.7031 34.8963 17.6307 32.9688 20 32.9688C22.3693 32.9688 24.2969 34.8963 24.2969 37.2656V37.6562ZM37.6562 37.6562H26.6406V37.2656C26.6406 36.2206 26.3972 35.2317 25.9653 34.3513C26.252 31.3622 28.758 29.0625 31.7969 29.0625C35.0277 29.0625 37.6562 31.691 37.6562 34.9219V37.6562Z" fill="#599A39"/>
    </g>
    <defs>
        <clipPath id="clip0_1919_77412">
            <rect width="40" height="40" fill="white"/>
        </clipPath>
    </defs>
</svg>