<svg width="40" height="39" viewBox="0 0 40 39" fill="none" xmlns="http://www.w3.org/2000/svg">
    <path d="M39.3086 0.357396C38.832 -0.119132 38.0618 -0.119132 37.5853 0.357396L1.03709 36.905C0.560554 37.3816 0.560554 38.1518 1.03709 38.6283C1.27475 38.866 1.58675 38.9854 1.89875 38.9854C2.21075 38.9854 2.52154 38.8672 2.76041 38.6283L39.3086 2.0807C39.7851 1.60417 39.7851 0.833924 39.3086 0.357396Z" fill="#599A39"/>
    <path d="M9.20635 0.0136719C4.49706 0.0136719 0.664062 3.84418 0.664062 8.55218C0.664062 13.2614 4.49706 17.0931 9.20635 17.0931C13.9144 17.0931 17.7462 13.2626 17.7462 8.55218C17.7462 3.84418 13.9144 0.0136719 9.20635 0.0136719ZM9.20635 14.6569C5.84013 14.6569 3.10158 11.9196 3.10158 8.5534C3.10158 5.18967 5.84013 2.45237 9.20635 2.45237C12.5713 2.45237 15.3087 5.18967 15.3087 8.5534C15.3087 11.9196 12.5713 14.6569 9.20635 14.6569Z" fill="#599A39"/>
    <path d="M31.1102 21.918C26.4021 21.918 22.5703 25.7497 22.5703 30.4577C22.5703 35.1669 26.4021 38.9999 31.1102 38.9999C35.8194 38.9999 39.65 35.1669 39.65 30.4577C39.65 25.7497 35.8182 21.918 31.1102 21.918ZM31.1102 36.5624C27.7452 36.5624 25.0078 33.8239 25.0078 30.4577C25.0078 27.0927 27.7452 24.3555 31.1102 24.3555C34.4752 24.3555 37.2125 27.0927 37.2125 30.4577C37.2125 33.8239 34.4752 36.5624 31.1102 36.5624Z" fill="#599A39"/>
</svg>