<svg width="41" height="40" viewBox="0 0 41 40" fill="none" xmlns="http://www.w3.org/2000/svg">
    <g clip-path="url(#clip0_1702_74399)">
        <path d="M5.5347 40H34.8661C35.9705 40 36.8659 39.1046 36.8659 38.0001V15.5043L37.1025 15.6609C37.5374 15.9612 38.0766 16.0697 38.5937 15.9609C39.1258 15.8508 39.59 15.5284 39.879 15.0683L39.883 15.0616C40.4687 14.118 40.2123 12.8809 39.2997 12.2478L21.2976 0.336016C20.6364 -0.112005 19.769 -0.112005 19.1078 0.336016L1.09563 12.2539C0.184924 12.8891 -0.0682771 14.1265 0.519685 15.0684C0.80551 15.5281 1.267 15.8509 1.79692 15.9616C1.93012 15.9884 2.0657 16.0018 2.20155 16.0016C2.59007 16.0022 2.96974 15.8861 3.29149 15.6683L3.53478 15.505V38.0001C3.53478 39.1046 4.43017 40 5.5347 40ZM35.5326 38.0001C35.5326 38.3683 35.2342 38.6668 34.866 38.6668H5.5347C5.16652 38.6668 4.86808 38.3683 4.86808 38.0001V14.6237L20.2003 4.49105L35.5326 14.6237V38.0001ZM2.54886 14.5584C2.40931 14.6549 2.23615 14.6896 2.07019 14.6544C1.89505 14.6178 1.7427 14.5108 1.64892 14.3584C1.43785 14.0292 1.52001 13.5925 1.83621 13.3625L19.849 1.44398C19.9526 1.37359 20.0751 1.33601 20.2003 1.33601C20.3281 1.33654 20.4528 1.3753 20.5584 1.44735L38.5591 13.3592C38.8779 13.5871 38.9633 14.0241 38.7537 14.3552C38.6577 14.5094 38.5029 14.6178 38.3251 14.6551C38.1581 14.6884 37.9846 14.6518 37.8452 14.5538L20.5683 3.13582C20.3456 2.99033 20.0578 2.99033 19.8351 3.13582L2.54886 14.5584Z" fill="white"/>
        <path d="M14.6341 12.5798C13.8599 11.8093 12.6085 11.8093 11.8343 12.5798L8.11723 16.2969C7.34634 17.0709 7.34634 18.3226 8.11723 19.0967L14.1495 25.1343L10.439 28.8454C10.3586 28.9252 10.3 29.0243 10.269 29.1334L8.71517 34.5737C8.60468 34.9597 8.68188 35.3752 8.92359 35.6958C9.1653 36.0164 9.54359 36.2049 9.94505 36.2049C10.0639 36.2046 10.1821 36.1881 10.2964 36.1556L15.7367 34.6004C15.8457 34.5694 15.9449 34.5108 16.0247 34.4304L19.7365 30.7213L25.77 36.7556C26.5444 37.5257 27.7954 37.5257 28.5698 36.7556L32.2869 33.0385C33.0578 32.2644 33.0578 31.0128 32.2869 30.2387L26.2566 24.2011L31.3609 19.0968C31.8564 18.602 32.1349 17.9305 32.1349 17.2303C32.1349 16.5301 31.8564 15.8586 31.3609 15.3638L29.5024 13.5053C29.0086 13.0086 28.3363 12.7303 27.6359 12.7326C26.9356 12.7303 26.2634 13.0082 25.7694 13.5046L20.6697 18.6143L14.6341 12.5798ZM12.3063 32.5638C11.9141 32.1754 11.445 31.8734 10.9291 31.6772L11.3437 30.2246L13.6556 31.2153L14.6462 33.5271L13.1936 33.9418C12.9972 33.4255 12.6949 32.9561 12.3063 32.5638ZM14.9534 30.8599L24.8494 20.9639L26.2299 22.3445L15.7813 32.7924L14.9534 30.8599ZM23.4695 17.6981L24.8501 16.3175L28.5539 20.0213L27.1726 21.4012L23.4695 17.6981ZM23.9075 20.0213L14.0108 29.9173L12.0776 29.0893L22.5262 18.6407L23.9075 20.0213ZM9.05984 18.1547C8.8071 17.9017 8.8071 17.4918 9.05984 17.2388L12.7769 13.5218C13.0299 13.269 13.4398 13.269 13.6928 13.5218L15.0801 14.909L13.6928 16.2963C13.5195 16.4636 13.45 16.7115 13.511 16.9446C13.572 17.1777 13.754 17.3597 13.9871 17.4207C14.2201 17.4817 14.468 17.4122 14.6354 17.2389L16.0227 15.8516L17.4032 17.2335L16.4807 18.1561C16.3074 18.3235 16.2379 18.5713 16.2988 18.8044C16.3599 19.0375 16.5419 19.2195 16.7749 19.2805C17.008 19.3416 17.2558 19.272 17.4233 19.0987L18.3459 18.1761L19.7264 19.5567L15.0934 24.1898L9.05984 18.1547ZM10.0238 34.847L10.5571 32.9671C11.1628 33.2226 11.6447 33.7047 11.9003 34.3104L10.0238 34.847ZM26.6946 26.5262L25.772 27.4488C25.5987 27.6162 25.5293 27.864 25.5902 28.0971C25.6512 28.3302 25.8332 28.5122 26.0663 28.5732C26.2994 28.6342 26.5472 28.5647 26.7146 28.3914L27.6372 27.4675L29.0178 28.8481L27.6305 30.2353C27.4573 30.4027 27.3878 30.6505 27.4487 30.8837C27.5098 31.1167 27.6918 31.2987 27.9248 31.3598C28.1579 31.4208 28.4057 31.3512 28.5731 31.1779L29.9604 29.7907L31.3469 31.1779C31.5997 31.4309 31.5997 31.8408 31.3469 32.0938L27.6299 35.8109C27.3769 36.0637 26.967 36.0637 26.714 35.8109L20.6804 29.7773L25.3134 25.1443L26.6946 26.5262ZM27.6366 14.0684C27.9828 14.0673 28.3151 14.2048 28.5591 14.4504L30.4177 16.3089C30.9265 16.8185 30.9265 17.6438 30.4177 18.1534L29.4957 19.0787L25.792 15.3749L26.7146 14.4524C26.9582 14.2064 27.2903 14.0681 27.6366 14.0684Z" fill="white"/>
    </g>
    <defs>
        <clipPath id="clip0_1702_74399">
            <rect width="40" height="40" fill="white" transform="translate(0.203125)"/>
        </clipPath>
    </defs>
</svg>