<svg width="40" height="40" viewBox="0 0 40 40" fill="none" xmlns="http://www.w3.org/2000/svg">
    <g clip-path="url(#clip0_1919_41784)">
        <path d="M35.9673 5.33594H4.03273C1.80906 5.33594 0 7.145 0 9.36867V27.0826C0 29.3063 1.80906 31.1154 4.03273 31.1154H32.3427C32.3427 31.1154 38.2417 34.5162 38.2427 34.5169C38.9956 34.9509 39.9999 34.3838 39.9999 33.5016V9.36867C40 7.145 38.1909 5.33594 35.9673 5.33594ZM8.29859 16.0055L11.0848 17.9559C11.4882 18.2383 12.0253 18.2383 12.4288 17.9559L15.2149 16.0055C15.5282 15.7862 15.7148 15.4279 15.7148 15.0455V13.8092C16.2072 14.5637 16.4822 15.4568 16.4822 16.3922C16.4822 18.1359 15.5266 19.7324 13.9884 20.5585C13.6082 20.7627 13.371 21.1593 13.371 21.5909V28.7713H10.1424V21.5909C10.1424 21.1593 9.90523 20.7627 9.525 20.5584C7.9868 19.7323 7.03125 18.1359 7.03125 16.3922C7.03125 15.4567 7.30633 14.5637 7.79867 13.8092V15.0455C7.79867 15.428 7.98531 15.7862 8.29859 16.0055ZM37.6562 31.4734L33.2416 28.9283C33.0636 28.8257 32.8617 28.7716 32.6562 28.7716H15.7148V22.2503C17.65 20.943 18.8259 18.7584 18.8259 16.3922C18.8259 13.7839 17.3973 11.3962 15.0973 10.161C14.7341 9.96602 14.2951 9.97609 13.9414 10.1877C13.5876 10.3993 13.3709 10.7813 13.3709 11.1934V14.4354L11.7566 15.5654L10.1423 14.4354V11.1935C10.1423 10.7813 9.92578 10.3994 9.57195 10.1878C9.21805 9.97609 8.77906 9.96609 8.41602 10.1611C6.11625 11.3963 4.6875 13.784 4.6875 16.3922C4.6875 18.7584 5.86344 20.943 7.79867 22.2503V28.7716H4.03273C3.10141 28.7716 2.34375 28.014 2.34375 27.0826V9.36867C2.34375 8.43734 3.10141 7.67969 4.03273 7.67969H35.9673C36.8986 7.67969 37.6562 8.43734 37.6562 9.36867V31.4734Z" fill="#599A39"/>
        <path d="M34.1407 10.0215H22.3438C21.6966 10.0215 21.1719 10.5462 21.1719 11.1934C21.1719 11.8405 21.6966 12.3652 22.3438 12.3652H34.1407C34.7879 12.3652 35.3126 11.8405 35.3126 11.1934C35.3126 10.5462 34.7879 10.0215 34.1407 10.0215Z" fill="#599A39"/>
        <path d="M34.1407 14.709H22.3438C21.6966 14.709 21.1719 15.2337 21.1719 15.8809C21.1719 16.528 21.6966 17.0527 22.3438 17.0527H34.1407C34.7879 17.0527 35.3126 16.528 35.3126 15.8809C35.3126 15.2337 34.7879 14.709 34.1407 14.709Z" fill="#599A39"/>
        <path d="M34.1407 19.3965H22.3438C21.6966 19.3965 21.1719 19.9212 21.1719 20.5684C21.1719 21.2155 21.6966 21.7402 22.3438 21.7402H34.1407C34.7879 21.7402 35.3126 21.2155 35.3126 20.5684C35.3126 19.9212 34.7879 19.3965 34.1407 19.3965Z" fill="#599A39"/>
        <path d="M29.375 24.084H22.3438C21.6966 24.084 21.1719 24.6087 21.1719 25.2559C21.1719 25.903 21.6966 26.4277 22.3438 26.4277H29.375C30.0222 26.4277 30.5469 25.903 30.5469 25.2559C30.5469 24.6087 30.0222 24.084 29.375 24.084Z" fill="#599A39"/>
    </g>
    <defs>
        <clipPath id="clip0_1919_41784">
            <rect width="40" height="40" fill="white"/>
        </clipPath>
    </defs>
</svg>