<svg width="26" height="26" viewBox="0 0 26 26" fill="none" xmlns="http://www.w3.org/2000/svg">
    <path d="M13.646 11.3535L11.6455 11.7062L12.0688 14.1068L14.0693 13.7541C14.7311 13.6374 15.1746 13.004 15.0579 12.3422C14.9412 11.6804 14.3079 11.2372 13.646 11.3535Z" fill="#599A39"/>
    <path d="M25.9938 16.962L24.3687 3.96147C24.2923 3.35451 23.5983 3.04742 23.0986 3.39473C18.6861 6.46305 12.9019 7.58841 8.8265 7.99214C4.36621 8.43395 0.919555 8.13128 0.885023 8.12824C0.388464 8.08294 -0.0624911 8.49824 0.00713274 9.05518L1.63001 22.0383C1.6808 22.445 2.02663 22.7503 2.43645 22.7503C6.80279 22.7503 10.8168 22.4096 14.4195 21.7356C14.9644 21.6337 15.4126 21.1853 15.4418 20.4915C15.5616 17.6604 17.932 15.4128 20.7656 15.4377C22.5103 15.453 24.0552 16.3182 25.0067 17.6386C25.3489 18.1135 26.0745 17.6146 25.9938 16.962ZM14.3531 15.3545L12.3526 15.7073L12.4937 16.5075L14.094 16.2253C14.5361 16.1473 14.9575 16.4425 15.0353 16.8844C15.1132 17.3263 14.8182 17.7478 14.3762 17.8257L12.7758 18.1079L12.9169 18.9081C12.9949 19.35 12.6998 19.7715 12.2578 19.8494C11.8169 19.9273 11.3946 19.6331 11.3166 19.1902C11.1451 18.2177 10.0774 12.163 9.9056 11.1884C9.82765 10.7465 10.1227 10.325 10.5647 10.2471L13.3654 9.75325C14.9092 9.48105 16.3876 10.5158 16.6599 12.06C16.9322 13.6043 15.8974 15.0822 14.3531 15.3545Z" fill="#599A39"/>
    <path d="M20.7189 24.3763C18.7027 24.3763 17.0625 22.736 17.0625 20.7199C17.0625 18.7037 18.7027 17.0635 20.7189 17.0635C22.735 17.0635 24.3753 18.7037 24.3753 20.7199C24.3753 22.736 22.735 24.3763 20.7189 24.3763Z" fill="#599A39"/>
    <path d="M10.4604 2.55855C10.1951 2.71902 10.2044 3.10756 10.475 3.25885C11.3885 3.76932 12.1669 4.49405 12.742 5.36447C12.8816 5.57578 13.1351 5.68141 13.3825 5.62702C14.9545 5.28119 16.6089 4.81489 18.2566 4.18666C18.5299 4.08245 18.6073 3.72874 18.4001 3.52231C16.2609 1.39023 12.983 1.03266 10.4604 2.55855Z" fill="#599A39"/>
    <path d="M3.44785 5.96919C3.24396 6.23413 3.43668 6.61846 3.77098 6.61963C5.97772 6.62745 8.27312 6.47611 10.4975 6.15176C10.8318 6.10301 10.9637 5.69364 10.7223 5.45715C8.6252 3.4021 5.22801 3.65597 3.44785 5.96919Z" fill="#599A39"/>
</svg>