<svg width="50" height="50" viewBox="0 0 50 50" fill="none" xmlns="http://www.w3.org/2000/svg">
    <path d="M14.6089 34.6648H9.54293C9.32434 34.6648 9.11471 34.578 8.96015 34.4234C8.80558 34.2689 8.71875 34.0592 8.71875 33.8407C8.71875 33.6221 8.80558 33.4124 8.96015 33.2579C9.11471 33.1033 9.32434 33.0165 9.54293 33.0165H14.6089C14.8274 33.0165 15.0371 33.1033 15.1916 33.2579C15.3462 33.4124 15.433 33.6221 15.433 33.8407C15.433 34.0592 15.3462 34.2689 15.1916 34.4234C15.0371 34.578 14.8274 34.6648 14.6089 34.6648Z" fill="#599A39"/>
    <path d="M35.1635 34.6648H24.0976C23.879 34.6648 23.6694 34.578 23.5148 34.4234C23.3603 34.2689 23.2734 34.0592 23.2734 33.8407C23.2734 33.6221 23.3603 33.4124 23.5148 33.2579C23.6694 33.1033 23.879 33.0165 24.0976 33.0165H35.1635C35.3821 33.0165 35.5918 33.1033 35.7463 33.2579C35.9009 33.4124 35.9877 33.6221 35.9877 33.8407C35.9877 34.0592 35.9009 34.2689 35.7463 34.4234C35.5918 34.578 35.3821 34.6648 35.1635 34.6648Z" fill="#599A39"/>
    <path d="M48.6092 34.6648H44.6422C44.4236 34.6648 44.214 34.578 44.0594 34.4234C43.9048 34.2689 43.818 34.0592 43.818 33.8406C43.818 33.6221 43.9048 33.4124 44.0594 33.2579C44.214 33.1033 44.4236 33.0165 44.6422 33.0165H47.8015V26.6319C47.8024 26.2191 47.7028 25.8123 47.5113 25.4467C47.3199 25.081 47.0423 24.7674 46.7026 24.533L44.1751 22.8242C44.0868 22.7614 44.0105 22.6832 43.9499 22.5934L37.9499 13.3242C37.7003 12.9331 37.3558 12.6116 36.9484 12.3897C36.541 12.1678 36.0841 12.0526 35.6202 12.0549H12.6367C12.4181 12.0549 12.2085 11.9681 12.0539 11.8135C11.8993 11.659 11.8125 11.4493 11.8125 11.2308C11.8125 11.0122 11.8993 10.8025 12.0539 10.648C12.2085 10.4934 12.4181 10.4066 12.6367 10.4066H35.6202C36.3594 10.4041 37.0873 10.5881 37.7365 10.9415C38.3857 11.295 38.9353 11.8064 39.3345 12.4286L45.2411 21.5549L47.6037 23.1703C48.1704 23.553 48.6349 24.0685 48.9567 24.6718C49.2785 25.2752 49.4478 25.9481 49.4499 26.6319V33.8406C49.4499 33.9503 49.428 34.0588 49.3856 34.1599C49.3431 34.261 49.281 34.3526 49.2027 34.4293C49.1244 34.5061 49.0316 34.5664 48.9297 34.6069C48.8278 34.6473 48.7188 34.667 48.6092 34.6648Z" fill="#599A39"/>
    <path d="M19.3527 39.5934C18.2508 39.5934 17.1736 39.2667 16.2574 38.6545C15.3411 38.0423 14.627 37.1721 14.2054 36.1541C13.7837 35.136 13.6733 34.0158 13.8883 32.9351C14.1033 31.8543 14.6339 30.8616 15.4131 30.0824C16.1923 29.3032 17.185 28.7726 18.2657 28.5576C19.3465 28.3426 20.4667 28.453 21.4848 28.8747C22.5028 29.2964 23.373 30.0105 23.9852 30.9267C24.5973 31.8429 24.9241 32.9201 24.9241 34.022C24.9241 35.4996 24.3371 36.9167 23.2923 37.9616C22.2474 39.0064 20.8303 39.5934 19.3527 39.5934ZM19.3527 30.0989C18.5768 30.0989 17.8183 30.329 17.1731 30.7601C16.528 31.1911 16.0252 31.8038 15.7282 32.5207C15.4313 33.2375 15.3536 34.0263 15.505 34.7873C15.6564 35.5484 16.03 36.2474 16.5786 36.796C17.1273 37.3447 17.8263 37.7183 18.5873 37.8697C19.3483 38.0211 20.1371 37.9434 20.854 37.6464C21.5708 37.3495 22.1835 36.8467 22.6146 36.2015C23.0457 35.5564 23.2758 34.7979 23.2758 34.022C23.2743 32.982 22.8605 31.985 22.1251 31.2496C21.3897 30.5142 20.3927 30.1004 19.3527 30.0989Z" fill="#599A39"/>
    <path d="M39.8917 39.5934C38.7898 39.5934 37.7126 39.2667 36.7964 38.6545C35.8802 38.0423 35.1661 37.1721 34.7444 36.1541C34.3227 35.136 34.2124 34.0158 34.4274 32.9351C34.6423 31.8543 35.173 30.8616 35.9521 30.0824C36.7313 29.3032 37.7241 28.7726 38.8048 28.5576C39.8856 28.3426 41.0058 28.453 42.0238 28.8747C43.0419 29.2964 43.912 30.0105 44.5242 30.9267C45.1364 31.8429 45.4632 32.9201 45.4632 34.022C45.4617 35.4992 44.8743 36.9154 43.8297 37.96C42.7852 39.0045 41.3689 39.592 39.8917 39.5934ZM39.8917 30.0989C39.1158 30.0989 38.3573 30.329 37.7122 30.7601C37.0671 31.1911 36.5642 31.8038 36.2673 32.5207C35.9704 33.2375 35.8927 34.0263 36.044 34.7873C36.1954 35.5484 36.5691 36.2474 37.1177 36.796C37.6664 37.3447 38.3654 37.7183 39.1264 37.8697C39.8874 38.0211 40.6762 37.9434 41.393 37.6464C42.1099 37.3495 42.7226 36.8467 43.1537 36.2015C43.5847 35.5564 43.8148 34.7979 43.8148 34.022C43.8119 32.9824 43.3977 31.9863 42.6626 31.2512C41.9275 30.5161 40.9313 30.1018 39.8917 30.0989Z" fill="#599A39"/>
    <path d="M44.6454 22.967H31.2773C31.0587 22.967 30.8491 22.8802 30.6945 22.7256C30.54 22.571 30.4531 22.3614 30.4531 22.1428V11.2307C30.4531 11.0122 30.54 10.8025 30.6945 10.648C30.8491 10.4934 31.0587 10.4066 31.2773 10.4066H35.4861C36.2676 10.4048 37.0371 10.5996 37.7236 10.9731C38.4101 11.3466 38.9916 11.8868 39.4147 12.5439L45.3377 21.6978C45.4195 21.8218 45.466 21.9658 45.4722 22.1142C45.4784 22.2626 45.4441 22.41 45.3729 22.5404C45.3018 22.6708 45.1965 22.7794 45.0683 22.8546C44.9402 22.9297 44.794 22.9686 44.6454 22.967ZM32.1015 21.3187H43.1289L38.03 13.4395C37.7562 13.0138 37.3797 12.6639 36.9351 12.4219C36.4906 12.18 35.9922 12.0537 35.4861 12.0549H32.1015V21.3187Z" fill="#599A39"/>
    <path d="M15.6349 18.0714H7.01949C6.8009 18.0714 6.59127 17.9846 6.43671 17.8301C6.28214 17.6755 6.19531 17.4659 6.19531 17.2473C6.19531 17.0287 6.28214 16.8191 6.43671 16.6645C6.59127 16.5099 6.8009 16.4231 7.01949 16.4231H15.6349C15.8535 16.4231 16.0631 16.5099 16.2177 16.6645C16.3722 16.8191 16.459 17.0287 16.459 17.2473C16.459 17.4659 16.3722 17.6755 16.2177 17.8301C16.0631 17.9846 15.8535 18.0714 15.6349 18.0714Z" fill="#599A39"/>
    <path d="M11.7558 24.0495H1.51949C1.3009 24.0495 1.09127 23.9626 0.936708 23.8081C0.782145 23.6535 0.695313 23.4439 0.695312 23.2253C0.695313 23.0067 0.782145 22.7971 0.936708 22.6425C1.09127 22.488 1.3009 22.4011 1.51949 22.4011H11.7558C11.9743 22.4011 12.184 22.488 12.3385 22.6425C12.4931 22.7971 12.5799 23.0067 12.5799 23.2253C12.5799 23.4439 12.4931 23.6535 12.3385 23.8081C12.184 23.9626 11.9743 24.0495 11.7558 24.0495Z" fill="#599A39"/>
    <path d="M10.8085 29.0495H4.66011C4.44153 29.0495 4.2319 28.9626 4.07733 28.8081C3.92277 28.6535 3.83594 28.4439 3.83594 28.2253C3.83594 28.0067 3.92277 27.7971 4.07733 27.6425C4.2319 27.488 4.44153 27.4011 4.66011 27.4011H10.8085C11.0271 27.4011 11.2367 27.488 11.3912 27.6425C11.5458 27.7971 11.6326 28.0067 11.6326 28.2253C11.6326 28.4439 11.5458 28.6535 11.3912 28.8081C11.2367 28.9626 11.0271 29.0495 10.8085 29.0495Z" fill="#599A39"/>
</svg>