<svg width="50" height="50" viewBox="0 0 50 50" fill="none" xmlns="http://www.w3.org/2000/svg">
    <path d="M49.9875 4.54774C49.956 4.2036 49.5817 3.96697 49.3633 3.92195L29.8438 0.0157041C29.5885 -0.0355654 29.3244 0.0445127 29.1406 0.228985L0.223447 29.1407C0.0839938 29.2828 0.00411097 29.4728 9.40709e-06 29.672V29.6821V34.3751C-8.82492e-05 34.7464 0.26124 35.0665 0.625009 35.1407L4.40157 35.8962L0.228916 40.0727C0.192002 40.1163 -0.00155309 40.3329 9.40709e-06 40.6251V45.3126C-8.82492e-05 45.6839 0.26124 46.004 0.625009 46.0782L20.1563 49.9845C20.2076 49.9953 20.26 50.0006 20.3125 50.0001C20.5197 50.0001 20.7184 49.9177 20.8649 49.7712L49.7711 20.8649C49.9176 20.7184 50 20.5198 50 20.3126V15.6251C50.0001 15.2538 49.7388 14.9337 49.375 14.8595L45.5984 14.1032L49.7742 9.92742C49.9196 9.78045 50.0008 9.58182 50 9.37508V4.67352C49.9994 4.63133 49.9952 4.58924 49.9875 4.54774ZM20.0555 43.6837L18.1555 43.3032C18.6431 41.8066 19.3151 40.3766 20.1563 39.0462C20.2076 39.0573 20.26 39.0628 20.3125 39.0626C20.4155 39.0625 20.5176 39.0418 20.6125 39.0016C20.707 38.9632 20.7929 38.906 20.8649 38.8337L34.1406 25.5587C33.5004 27.2741 33.0705 29.0608 32.8602 30.8798L20.0555 43.6837ZM18.5211 38.7196C17.7244 40.0672 17.0847 41.5015 16.6141 42.9946L9.57032 41.5884C9.98458 40.1032 10.5116 38.6518 11.1469 37.247L18.5211 38.7196ZM20.0555 32.7462L18.8406 32.5001C20.9035 23.1164 25.4917 14.4749 32.1094 7.50945L36.4586 2.93211L39.7656 3.59383L35.5742 7.5407C30.3665 12.4328 27.1643 19.0867 26.5899 26.2087L20.0555 32.7462ZM34.6453 2.56961L30.9734 6.43289C24.1535 13.6133 19.4279 22.5226 17.3086 32.1962L9.81563 30.6977C14.8675 21.7926 21.0953 13.6081 28.3313 6.36492L32.5461 2.15008L34.6453 2.56961ZM36.6453 8.6782L41.6453 3.97039L47.6313 5.16727L28.3742 24.4274C29.2898 18.3996 32.2024 12.8536 36.6453 8.6782ZM29.9445 1.62899L30.707 1.78524L27.2289 5.26024C19.7689 12.7237 13.3658 21.1735 8.19845 30.3743L2.36563 29.2079L29.9445 1.62899ZM1.56251 30.6407L19.5313 34.2345V37.3282L1.56251 33.7345V30.6407ZM9.57657 36.9305C8.9587 38.3411 8.44337 39.7943 8.03438 41.279L2.36563 40.1454L6.25001 36.2649L9.57657 36.9305ZM1.56251 41.5782L19.5313 45.172V48.2657L1.56251 44.672V41.5782ZM48.4375 19.9891L21.0938 47.3329V44.8548L48.4375 17.511V19.9891ZM47.6344 16.1048L34.7656 28.9712C35.403 25.6022 37.0759 22.5161 39.5508 20.143L44.2649 15.429L47.6344 16.1048ZM48.4375 9.05164L21.0938 36.3954V33.9173L48.4375 6.57352V9.05164Z" fill="#599A39"/>
</svg>