<svg width="40" height="40" viewBox="0 0 40 40" fill="none" xmlns="http://www.w3.org/2000/svg">
    <path d="M33.2812 0H12.5969C12.2861 0 11.988 0.123438 11.7683 0.343281L5.89016 6.22141C5.67031 6.44109 5.54688 6.73922 5.54688 7.05V38.8281C5.54688 39.4753 6.07156 40 6.71875 40H33.2812C33.9284 40 34.4531 39.4753 34.4531 38.8281V1.17188C34.4531 0.524687 33.9284 0 33.2812 0ZM32.1094 37.6562H7.89062V7.53539L13.0823 2.34375H32.1094V37.6562Z" fill="#599A39"/>
    <path d="M28.5938 25.4688H11.4062C10.7591 25.4688 10.2344 25.9934 10.2344 26.6406C10.2344 27.2878 10.7591 27.8125 11.4062 27.8125H28.5938C29.2409 27.8125 29.7656 27.2878 29.7656 26.6406C29.7656 25.9934 29.2409 25.4688 28.5938 25.4688Z" fill="#599A39"/>
    <path d="M28.5938 19.6094H11.4062C10.7591 19.6094 10.2344 20.1341 10.2344 20.7812C10.2344 21.4284 10.7591 21.9531 11.4062 21.9531H28.5938C29.2409 21.9531 29.7656 21.4284 29.7656 20.7812C29.7656 20.1341 29.2409 19.6094 28.5938 19.6094Z" fill="#599A39"/>
    <path d="M28.5938 31.3281H11.4062C10.7591 31.3281 10.2344 31.8528 10.2344 32.5C10.2344 33.1472 10.7591 33.6719 11.4062 33.6719H28.5938C29.2409 33.6719 29.7656 33.1472 29.7656 32.5C29.7656 31.8528 29.2409 31.3281 28.5938 31.3281Z" fill="#599A39"/>
    <path d="M24.1216 7.71434C23.6641 7.25668 22.9221 7.25668 22.4643 7.71434L18.8966 11.282L17.5318 9.91715C17.0742 9.45957 16.3321 9.45957 15.8745 9.91715C15.4168 10.3747 15.4168 11.1168 15.8745 11.5744L18.0681 13.7679C18.2969 13.9968 18.5968 14.1111 18.8967 14.1111C19.1965 14.1111 19.4965 13.9967 19.7253 13.7679L24.1216 9.3716C24.5793 8.91402 24.5793 8.17199 24.1216 7.71434Z" fill="#599A39"/>
</svg>