<svg width="50" height="50" viewBox="0 0 50 50" fill="none" xmlns="http://www.w3.org/2000/svg">
    <path d="M36.624 29.7123C36.5657 29.0473 36.2053 28.4666 35.6353 28.1191C34.9229 27.6849 34.024 27.7174 33.3449 28.2022L28.0387 31.991L27.5978 27.8905C27.4633 26.6391 26.4127 25.6953 25.1541 25.6953C23.9327 25.6953 22.8858 26.6078 22.7192 27.8178L21.9646 33.2959L18.5245 28.673C18.0667 28.0576 17.3083 27.7238 16.545 27.8023C15.7669 27.882 15.1071 28.3539 14.78 29.0644C14.453 29.7749 14.5236 30.5829 14.9689 31.2259L20.6883 39.4846C20.6159 43.7098 18.5606 48.9414 18.5394 48.9947C18.4498 49.2209 18.4779 49.4768 18.6146 49.6781C18.7513 49.8794 18.9789 49.9999 19.2221 49.9999H30.3482C30.6057 49.9999 30.8443 49.865 30.9772 49.6445C31.1101 49.424 31.1177 49.1499 30.9975 48.9223C30.9708 48.8723 28.3872 43.9099 28.5975 37.916L35.9279 31.4534C36.4286 31.0119 36.6825 30.3774 36.624 29.7123ZM34.9566 30.3518L27.3917 37.0211C27.2433 37.152 27.154 37.3372 27.1439 37.5347C26.8952 42.4195 28.3822 46.6275 29.1968 48.5314H20.2752V48.5313C20.9166 46.6992 22.1592 42.7047 22.1592 39.2583C22.1592 39.1088 22.1135 38.9629 22.0285 38.8402L16.1764 30.39C15.9652 30.085 16.0625 29.791 16.1143 29.6787C16.166 29.5665 16.326 29.3014 16.695 29.2635C16.945 29.2378 17.1955 29.3475 17.3462 29.55L21.8581 35.6131C22.036 35.8523 22.341 35.9603 22.63 35.886C22.9187 35.8118 23.1341 35.5704 23.1747 35.2749L24.1742 28.0185C24.2413 27.5316 24.6626 27.1643 25.1541 27.1643C25.6606 27.1643 26.0834 27.5441 26.1376 28.0477L26.7128 33.3976C26.7407 33.6571 26.9042 33.8823 27.1423 33.9891C27.3804 34.0959 27.6574 34.0682 27.8696 33.9167L34.1985 29.3977C34.3975 29.2554 34.6615 29.2457 34.8707 29.3733C35.038 29.4753 35.1438 29.6457 35.1609 29.8408C35.178 30.036 35.1035 30.2222 34.9566 30.3518Z" fill="#599A39"/>
    <path d="M47.8817 21.2512C47.8817 19.5499 47.3273 17.8838 46.3102 16.5002C46.7806 15.7596 47.0267 14.9177 47.0267 14.0343C47.0267 11.4152 44.813 9.28441 42.0919 9.28441C42.0702 9.28441 42.0484 9.28451 42.0266 9.2848C41.0348 6.04651 37.8983 3.75753 34.3283 3.75753C33.5882 3.75753 32.8593 3.85392 32.1537 4.04474C30.7974 1.56778 28.1263 0 25.1722 0C21.8698 0 18.9345 1.98292 17.7898 4.90295C17.0853 4.73771 16.3634 4.65422 15.6356 4.65422C11.5403 4.65422 7.94367 7.32005 6.87678 11.066C4.49737 11.4162 2.70576 13.3811 2.70576 15.7544C2.70576 16.9607 3.19024 18.12 4.03292 18.9917C2.80733 20.2524 2.11865 21.9119 2.11865 23.6587C2.11865 26.8393 4.36124 29.5534 7.52483 30.3011C8.19543 34.2066 11.5557 37.217 15.7145 37.5496C16.1174 37.5816 16.4728 37.2804 16.5051 36.876C16.5375 36.4717 16.2359 36.1178 15.8316 36.0855C12.1868 35.7941 9.2761 33.0689 8.91057 29.6057C8.87571 29.2757 8.62395 29.0102 8.29651 28.9576C5.56788 28.5202 3.58741 26.2917 3.58741 23.6587C3.58741 22.0729 4.32032 20.5753 5.59835 19.55C5.77804 19.4057 5.8797 19.1856 5.87287 18.9553C5.86603 18.7251 5.75148 18.5113 5.56349 18.3781C4.68077 17.7522 4.17452 16.7959 4.17452 15.7544C4.17452 13.9914 5.63146 12.554 7.49123 12.4821C7.82629 12.4692 8.11008 12.2308 8.18078 11.903C8.90247 8.55384 12.0376 6.12297 15.6356 6.12297C16.4545 6.12297 17.2641 6.24807 18.0422 6.49475C18.2317 6.55481 18.4378 6.53547 18.613 6.44104C18.7881 6.34661 18.9174 6.18508 18.9713 5.99348C19.72 3.32941 22.2699 1.46876 25.1723 1.46876C27.7729 1.46876 30.0998 2.94435 31.1004 5.22805C31.2551 5.58147 31.6573 5.75481 32.0204 5.62473C32.7589 5.36037 33.5355 5.22639 34.3283 5.22639C37.435 5.22639 40.1366 7.32474 40.752 10.2158C40.8324 10.5934 41.1915 10.8437 41.5735 10.79C41.7456 10.7656 41.92 10.7532 42.0919 10.7532C44.003 10.7532 45.558 12.225 45.558 14.0343C45.558 14.7725 45.304 15.4702 44.8236 16.052C44.5968 16.3266 44.5999 16.7242 44.8304 16.9954C45.8656 18.2127 46.4129 19.6843 46.4129 21.2512C46.4129 24.3716 44.1919 27.0742 41.0117 27.8236C40.8139 27.8702 40.6443 27.9967 40.5431 28.173C40.442 28.3492 40.4184 28.5596 40.4781 28.7538C41.1035 30.7913 40.3893 32.3627 39.6802 33.3222C38.4473 34.9904 36.2422 36.1112 34.1934 36.1112C33.9823 36.1112 33.7692 36.1013 33.5601 36.0818C33.1553 36.0447 32.7984 36.341 32.7607 36.7449C32.723 37.1487 33.0199 37.5066 33.4237 37.5443C33.678 37.568 33.9368 37.58 34.1933 37.58C36.7242 37.58 39.3415 36.2515 40.8613 34.1953C41.9949 32.6616 42.411 30.8599 42.0641 29.0531C45.5243 27.9285 47.8817 24.8156 47.8817 21.2512Z" fill="#599A39"/>
</svg>