<svg width="40" height="40" viewBox="0 0 40 40" fill="none" xmlns="http://www.w3.org/2000/svg">
    <g clip-path="url(#clip0_1606_50498)">
        <path d="M39.8025 14.6469L33.2667 4.14585C33.0279 3.76242 32.6083 3.5293 32.1568 3.5293H7.84334C7.39194 3.5293 6.97233 3.76242 6.73351 4.14585L0.197619 14.6469C-0.116129 15.151 -0.0512074 15.8029 0.356211 16.2347L19.0489 36.0597C19.2959 36.3216 19.6401 36.4702 20 36.4702C20.36 36.4702 20.7042 36.3216 20.9512 36.0594L39.6439 16.2347C40.0509 15.8024 40.1163 15.151 39.8025 14.6469ZM20.0001 33.2577L2.94924 15.1737L8.56966 6.14365H31.4309L37.0509 15.1737L20.0001 33.2577Z" fill="#599A39"/>
        <path d="M38.69 14.0312H1.30469V16.6456H38.69V14.0312Z" fill="#599A39"/>
        <path d="M13.4229 15.2134L15.4386 5.09273L12.8743 4.58203L10.7829 15.083C10.7337 15.3314 10.7572 15.5885 10.8513 15.8238L18.7816 35.6494L21.209 34.6786L13.4229 15.2134Z" fill="#599A39"/>
        <path d="M29.297 14.9773L27.1184 4.78125L24.562 5.32765L26.6574 15.1328L18.7891 34.6752L21.2139 35.6512L29.2317 15.7389C29.3284 15.4971 29.3515 15.2317 29.297 14.9773Z" fill="#599A39"/>
    </g>
    <defs>
        <clipPath id="clip0_1606_50498">
            <rect width="40" height="40" fill="white"/>
        </clipPath>
    </defs>
</svg>