<svg width="208" height="130" viewBox="0 0 208 130" fill="none" xmlns="http://www.w3.org/2000/svg">
    <path d="M19.3364 48.2926C18.3706 49.2615 17.3371 49.8767 16.2359 50.1382C15.1301 50.3953 14.0171 50.3277 12.8969 49.9354C11.7812 49.5386 10.7232 48.8417 9.72289 47.8446C8.72261 46.8475 8.02229 45.7918 7.62192 44.6773C7.22603 43.5584 7.15707 42.4478 7.41504 41.3458C7.66852 40.2392 8.27815 39.2015 9.24391 38.2326C10.2052 37.2682 11.2387 36.6575 12.3445 36.4004C13.4502 36.1344 14.5609 36.1998 15.6767 36.5966C16.7924 36.9934 17.8504 37.6903 18.8507 38.6874C19.851 39.6844 20.5513 40.7402 20.9517 41.8547C21.352 42.9691 21.4232 44.0819 21.1653 45.1929C20.9073 46.295 20.2977 47.3283 19.3364 48.2926ZM17.9975 46.958C18.6905 46.2807 19.1081 45.5612 19.2502 44.7997C19.3922 44.0292 19.2992 43.2523 18.971 42.4691C18.6383 41.6815 18.1019 40.9188 17.3618 40.1811C16.6217 39.4433 15.8618 38.9139 15.082 38.5927C14.2978 38.267 13.5229 38.1787 12.7573 38.3277C11.9962 38.4722 11.2714 38.8854 10.5828 39.5672C9.88979 40.2446 9.46999 40.9663 9.32344 41.7323C9.18135 42.4938 9.27665 43.2684 9.60931 44.0561C9.94198 44.8438 10.4761 45.6087 11.2118 46.3509C11.9474 47.0931 12.7074 47.6271 13.4916 47.9527C14.2713 48.2739 15.044 48.36 15.8096 48.211C16.5796 48.0575 17.3089 47.6398 17.9975 46.958Z" fill="#292929"/>
    <path d="M25.0415 42.6261L19.2661 34.1461L26.4192 29.2743L32.1946 37.7544L30.5536 38.8721L25.8316 31.9388L21.9606 34.5752L26.6826 41.5085L25.0415 42.6261Z" fill="#292929"/>
    <path d="M34.2635 36.438L29.6935 27.252L31.4797 26.3634L33.0665 29.553L34.2743 28.9521C34.5351 28.8223 34.8186 28.6884 35.1248 28.5502C35.431 28.412 35.7002 28.3134 35.9326 28.2544C36.4767 28.1111 36.9895 28.0682 37.4708 28.1258C37.9522 28.1834 38.388 28.3627 38.7783 28.6637C39.1714 28.9563 39.5104 29.3889 39.7954 29.9616C40.1931 30.7611 40.3035 31.502 40.1265 32.1842C39.9467 32.8608 39.5433 33.4576 38.9164 33.9747C38.7149 34.1386 38.4625 34.3066 38.1591 34.4787C37.8586 34.6424 37.5779 34.7891 37.317 34.9189L34.2635 36.438ZM35.3388 34.1205L36.7082 33.4392C36.8556 33.3658 37.0172 33.2784 37.1931 33.1768C37.3689 33.0751 37.5234 32.9664 37.6568 32.8505C37.8838 32.6386 38.0444 32.3571 38.1386 32.0061C38.2327 31.655 38.1783 31.2754 37.9752 30.8671C37.7664 30.4475 37.4922 30.1666 37.1526 30.0243C36.8187 29.8791 36.4718 29.8501 36.1119 29.9372C35.9447 29.9709 35.7761 30.0229 35.606 30.0934C35.4416 30.161 35.2885 30.2301 35.1468 30.3006L33.7774 30.9819L35.3388 34.1205ZM42.2928 32.4435L37.7228 23.2575L39.5004 22.3731L44.0704 31.5591L42.2928 32.4435Z" fill="#292929"/>
    <path d="M48.511 29.853L45.5498 21.9132L42.2653 23.1382L41.6412 21.4648L50.0705 18.321L50.6946 19.9944L47.4101 21.2194L50.3714 29.1592L48.511 29.853Z" fill="#292929"/>
    <path d="M64.9047 25.0136C63.9514 25.2478 63.0952 25.2136 62.3361 24.9109C61.5754 24.6021 60.9316 24.0918 60.4046 23.38C59.8776 22.6682 59.4917 21.8141 59.2469 20.8177C59.0022 19.8213 58.9453 18.8864 59.0764 18.0129C59.2137 17.1379 59.5462 16.3942 60.0741 15.782C60.6065 15.1621 61.3433 14.7365 62.2843 14.5054C63.2192 14.2757 64.0816 14.3084 64.8714 14.6035C65.6659 14.891 66.3452 15.3861 66.9091 16.0888C67.4715 16.7855 67.8758 17.635 68.1221 18.6376C68.3668 19.6339 68.4029 20.5772 68.2303 21.4674C68.0623 22.35 67.6967 23.105 67.1335 23.7325C66.5764 24.3585 65.8335 24.7855 64.9047 25.0136ZM61.2379 30.3165L57.7025 15.9243L59.4185 15.5028L61.1794 22.6712L61.4008 22.6168L63.1753 29.8406L61.2379 30.3165ZM64.2089 23.3357C64.8239 23.1846 65.2928 22.9031 65.6155 22.4913C65.9444 22.0779 66.1423 21.5825 66.2092 21.0052C66.2807 20.4203 66.2356 19.7988 66.074 19.1407C65.9138 18.4887 65.6673 17.9232 65.3344 17.4441C65.0077 16.9635 64.5997 16.617 64.1106 16.4045C63.6215 16.1921 63.0571 16.1644 62.4174 16.3215C61.8147 16.4696 61.3527 16.7396 61.0316 17.1315C60.7167 17.5219 60.5288 18.005 60.4681 18.5808C60.4135 19.1551 60.4708 19.7866 60.64 20.4755C60.8092 21.1643 61.0511 21.7506 61.3655 22.2342C61.68 22.7178 62.0741 23.0612 62.5479 23.2644C63.0217 23.4675 63.5754 23.4913 64.2089 23.3357Z" fill="#292929"/>
    <path d="M74.5149 22.9627C73.7653 23.0875 73.1145 23.0546 72.5627 22.8639C72.0099 22.667 71.5643 22.3623 71.2261 21.9499C70.893 21.5302 70.6807 21.0455 70.5892 20.4957C70.5039 19.9835 70.5196 19.5186 70.6364 19.1011C70.7531 18.6836 70.9671 18.3109 71.2785 17.983C71.5889 17.6488 71.9893 17.3543 72.4797 17.0993C72.9077 16.8932 73.3976 16.6929 73.9495 16.4983C74.5014 16.3038 75.0824 16.1108 75.6926 15.9193C76.3091 15.7269 76.9192 15.5354 77.5232 15.345L76.8765 15.8571C76.7569 15.0616 76.4905 14.5025 76.0772 14.1796C75.6692 13.8494 75.0434 13.7545 74.2 13.8949C73.669 13.9833 73.2025 14.1893 72.8005 14.513C72.3975 14.8305 72.1558 15.2881 72.0755 15.8857L70.1546 15.6275C70.26 14.7176 70.6199 13.9482 71.2343 13.3195C71.855 12.6897 72.7495 12.2776 73.9178 12.0832C74.8236 11.9324 75.6368 11.9576 76.3573 12.1587C77.0829 12.3525 77.6576 12.7577 78.0812 13.3742C78.2987 13.6783 78.4569 14.0115 78.5557 14.3738C78.6546 14.7362 78.7393 15.1298 78.81 15.5546L79.8472 21.7864L78.1135 22.0749L77.7283 19.7603L78.1156 20.004C77.8259 20.8483 77.3879 21.5151 76.8016 22.0043C76.2205 22.4863 75.4583 22.8057 74.5149 22.9627ZM74.595 21.3026C75.151 21.21 75.6128 21.0337 75.9804 20.7734C76.347 20.507 76.6266 20.2004 76.8193 19.8537C77.012 19.5071 77.1183 19.1619 77.1382 18.8184C77.1945 18.5008 77.1977 18.1536 77.1478 17.7766C77.1041 17.3987 77.0636 17.0972 77.0262 16.8723L77.7024 17.0006C77.0995 17.1972 76.5513 17.3751 76.0577 17.5343C75.5641 17.6935 75.1174 17.8449 74.7176 17.9885C74.3229 18.1248 73.9746 18.2694 73.6726 18.4224C73.4196 18.5608 73.1978 18.7133 73.0072 18.8799C72.8229 19.0454 72.6838 19.2322 72.5901 19.4404C72.5026 19.6476 72.4812 19.8855 72.5259 20.1542C72.5695 20.4166 72.6757 20.6493 72.8443 20.8524C73.0119 21.0492 73.2409 21.1908 73.5314 21.2773C73.8219 21.3638 74.1764 21.3722 74.595 21.3026Z" fill="#292929"/>
    <path d="M86.9372 21.2536C85.9657 21.3408 85.1195 21.2091 84.3986 20.8586C83.6777 20.5081 83.0874 19.9604 82.6275 19.2157C82.1734 18.4641 81.8614 17.5366 81.6915 16.4331C81.6084 15.9003 81.5545 15.3074 81.5298 14.6545C81.5045 13.9952 81.5129 13.3549 81.5549 12.7337C81.6032 12.1119 81.6895 11.5882 81.814 11.1626C81.9531 10.6911 82.1621 10.2511 82.4409 9.84249C82.719 9.42759 83.0348 9.07269 83.3882 8.7778C83.7649 8.46157 84.1919 8.20413 84.6691 8.00549C85.1456 7.80054 85.6476 7.62814 86.1749 7.48829C86.7086 7.34783 87.2466 7.21968 87.789 7.10383C88.3371 6.98107 88.8679 6.84407 89.3815 6.69282L89.7408 8.44293C89.402 8.55827 88.9986 8.66392 88.5306 8.75988C88.069 8.85523 87.589 8.9587 87.0908 9.0703C86.5988 9.18129 86.1313 9.31538 85.6884 9.47256C85.2454 9.62973 84.8668 9.82843 84.5528 10.0686C84.1079 10.4041 83.786 10.8614 83.5873 11.4405C83.3948 12.0189 83.3047 12.6352 83.3167 13.2894C83.6505 12.6592 84.1076 12.1857 84.6879 11.869C85.2676 11.5459 85.8821 11.3531 86.5315 11.2906C87.4393 11.2032 88.2416 11.3423 88.9385 11.7079C89.6418 12.0728 90.2054 12.6071 90.6294 13.3107C91.0535 14.0143 91.3104 14.8326 91.4003 15.7656C91.4974 16.7743 91.3743 17.6769 91.0311 18.4735C90.6935 19.2631 90.1732 19.9049 89.4699 20.3989C88.7661 20.8866 87.9218 21.1715 86.9372 21.2536ZM86.8618 19.3807C87.7696 19.2933 88.4266 18.9469 88.8328 18.3415C89.2453 17.7355 89.4066 16.966 89.3168 16.033C89.2245 15.0748 88.9124 14.3445 88.3805 13.8422C87.8486 13.3398 87.1445 13.1308 86.2682 13.2152C85.3793 13.3008 84.7249 13.6406 84.3049 14.2346C83.8912 14.8279 83.7304 15.6038 83.8227 16.562C83.9162 17.5328 84.2254 18.2666 84.7504 18.7632C85.2755 19.2598 85.9793 19.4657 86.8618 19.3807Z" fill="#292929"/>
    <path d="M99.168 20.4525C98.1424 20.4815 97.2464 20.2756 96.4799 19.8347C95.7135 19.3939 95.1131 18.7741 94.6787 17.9754C94.2504 17.1702 94.0213 16.2358 93.9912 15.1722C93.9609 14.1023 94.1433 13.1563 94.5382 12.3341C94.9329 11.5056 95.5006 10.856 96.2413 10.3852C96.9818 9.90808 97.8553 9.65529 98.8619 9.62683C99.8875 9.59784 100.784 9.80377 101.55 10.2446C102.316 10.6855 102.917 11.3052 103.351 12.104C103.786 12.9027 104.018 13.8306 104.048 14.8879C104.078 15.9578 103.896 16.907 103.501 17.7355C103.112 18.5574 102.548 19.2102 101.808 19.6936C101.067 20.1707 100.187 20.4237 99.168 20.4525ZM99.1151 18.5818C100.096 18.554 100.818 18.2041 101.281 17.5321C101.749 16.8536 101.969 15.9921 101.94 14.9475C101.909 13.8776 101.638 13.0299 101.126 12.4044C100.621 11.7725 99.8834 11.4702 98.9148 11.4976C98.2501 11.5164 97.7068 11.6838 97.2848 11.9998C96.8628 12.3096 96.5548 12.7333 96.3609 13.271C96.1668 13.8023 96.0797 14.4162 96.0993 15.1126C96.1298 16.1888 96.401 17.0428 96.9131 17.6746C97.4251 18.3064 98.1591 18.6088 99.1151 18.5818Z" fill="#292929"/>
    <path d="M108.916 20.1356L109.21 11.6668L105.707 11.5448L105.769 9.75991L114.76 10.0728L114.698 11.8578L111.195 11.7358L110.9 20.2047L108.916 20.1356Z" fill="#292929"/>
    <path d="M116.984 20.431L118.058 10.2273L120.042 10.436L119.669 13.9789L121.011 14.12C121.3 14.1505 121.612 14.1896 121.944 14.2373C122.277 14.285 122.557 14.3463 122.784 14.4212C123.32 14.5922 123.776 14.8312 124.151 15.1381C124.527 15.4451 124.798 15.8302 124.966 16.2937C125.141 16.7515 125.195 17.2984 125.128 17.9346C125.034 18.8227 124.73 19.5071 124.214 19.9878C123.7 20.4622 123.039 20.7494 122.233 20.8492C121.975 20.8794 121.671 20.8857 121.323 20.8682C120.982 20.845 120.666 20.8182 120.376 20.7877L116.984 20.431ZM119.135 19.0524L120.657 19.2124C120.82 19.2296 121.004 19.2426 121.207 19.2512C121.409 19.2598 121.598 19.251 121.773 19.2247C122.078 19.1677 122.365 19.0163 122.633 18.7707C122.9 18.525 123.058 18.1754 123.106 17.7219C123.155 17.2558 123.074 16.8716 122.864 16.5693C122.66 16.2677 122.383 16.057 122.033 15.9374C121.874 15.8761 121.703 15.8295 121.522 15.7977C121.347 15.7666 121.181 15.7427 121.023 15.7261L119.502 15.5662L119.135 19.0524ZM125.903 21.369L126.976 11.1653L128.951 11.373L127.878 21.5767L125.903 21.369Z" fill="#292929"/>
    <path d="M137.044 23.1737L139.343 11.9108L136.507 12.9319L136.949 10.7631L139.78 9.76996L141.762 10.1746L139.027 23.5783L137.044 23.1737Z" fill="#292929"/>
    <path d="M147.846 26.0127C146.985 25.7729 146.27 25.3895 145.701 24.8625C145.139 24.3311 144.754 23.7045 144.548 22.9829C144.348 22.263 144.361 21.4974 144.587 20.686C144.798 19.9295 145.168 19.2864 145.697 18.7566C146.226 18.2269 146.891 17.8799 147.693 17.7155L147.473 18.3642C147.008 17.86 146.696 17.3061 146.536 16.7025C146.383 16.0945 146.397 15.4671 146.577 14.8205C146.786 14.0701 147.141 13.4688 147.642 13.0167C148.143 12.5646 148.74 12.2741 149.433 12.1452C150.133 12.0181 150.879 12.065 151.672 12.2861C152.465 12.5072 153.125 12.8523 153.652 13.3213C154.179 13.7903 154.539 14.3478 154.734 14.9938C154.929 15.6398 154.921 16.338 154.712 17.0884C154.532 17.735 154.226 18.2777 153.795 18.7163C153.364 19.1549 152.803 19.4687 152.112 19.6576L152.263 19.0093C152.864 19.5449 153.255 20.18 153.438 20.9148C153.623 21.6436 153.61 22.3862 153.399 23.1427C153.173 23.954 152.785 24.6151 152.235 25.1258C151.685 25.6366 151.029 25.9731 150.267 26.1355C149.507 26.2917 148.7 26.2508 147.846 26.0127ZM148.353 24.1916C149.061 24.3889 149.688 24.3566 150.234 24.0947C150.782 23.8267 151.16 23.3206 151.368 22.5763C151.575 21.832 151.514 21.2034 151.183 20.6905C150.861 20.1732 150.343 19.8151 149.629 19.6161C148.915 19.4171 148.283 19.4547 147.733 19.7288C147.191 19.9985 146.817 20.5055 146.609 21.2497C146.402 21.994 146.463 22.6226 146.794 23.1355C147.126 23.6423 147.646 23.9944 148.353 24.1916ZM150.139 17.7859C150.743 17.9543 151.273 17.9409 151.728 17.7457C152.191 17.5461 152.509 17.1382 152.681 16.522C152.852 15.9059 152.792 15.3925 152.499 14.9821C152.213 14.5672 151.768 14.2755 151.164 14.1072C150.561 13.9388 150.026 13.9575 149.561 14.1632C149.098 14.3627 148.78 14.7706 148.608 15.3868C148.437 16.003 148.497 16.5163 148.791 16.9268C149.086 17.3312 149.535 17.6175 150.139 17.7859Z" fill="#292929"/>
    <path d="M158.199 26.3182L159.428 23.0248L156.134 21.7965L156.692 20.3011L159.985 21.5294L161.207 18.2538L162.702 18.8115L161.481 22.0871L164.765 23.3121L164.208 24.8075L160.923 23.5825L159.695 26.8759L158.199 26.3182Z" fill="#292929"/>
    <path d="M168.275 33.0733L169.09 31.603C169.389 31.8483 169.646 31.9799 169.86 31.9976C170.084 32.0129 170.297 31.9356 170.5 31.7657C170.708 31.5989 170.938 31.3608 171.189 31.0513C171.563 30.5996 171.962 30.071 172.385 29.4655C172.816 28.8575 173.269 28.1924 173.742 27.47C174.215 26.7476 174.703 25.9861 175.205 25.1856L181.651 28.7629L176.672 37.734L174.928 36.7659L178.999 29.4312L175.859 27.6887C175.583 28.1077 175.286 28.5513 174.968 29.0196C174.659 29.4854 174.346 29.9454 174.028 30.3995C173.711 30.8536 173.408 31.2757 173.119 31.6659C172.83 32.056 172.572 32.3837 172.345 32.6489C171.903 33.1855 171.475 33.5711 171.062 33.8056C170.658 34.0377 170.235 34.096 169.792 33.9806C169.346 33.8707 168.84 33.5682 168.275 33.0733Z" fill="#292929"/>
    <path d="M182.358 42.0096C181.543 41.3974 180.959 40.682 180.607 39.8636C180.265 39.0439 180.16 38.1856 180.295 37.2889C180.439 36.3909 180.828 35.519 181.463 34.6732C182.136 33.7768 182.887 33.1248 183.716 32.7174C184.549 32.3138 185.403 32.1584 186.275 32.2513C187.148 32.3443 187.984 32.6911 188.785 33.292C189.62 33.9194 190.185 34.6487 190.48 35.4797C190.779 36.3058 190.804 37.1842 190.557 38.1151C190.314 39.0498 189.794 39.9856 188.995 40.9225L187.408 39.7303L187.841 39.153C188.546 38.1932 188.892 37.3523 188.88 36.6303C188.873 35.9121 188.509 35.283 187.79 34.743C186.995 34.146 186.209 33.948 185.433 34.149C184.656 34.35 183.912 34.924 183.201 35.8711C182.524 36.7726 182.199 37.6218 182.227 38.4185C182.258 39.2102 182.651 39.8893 183.406 40.4559C183.902 40.8286 184.414 41.0385 184.941 41.0856C185.476 41.1315 186.003 41.0203 186.522 40.7521L187.708 42.4152C186.838 42.91 185.926 43.1166 184.974 43.0351C184.025 42.9484 183.153 42.6066 182.358 42.0096ZM182.348 35.9315L183.278 34.6932L189.135 39.0909L188.205 40.3293L182.348 35.9315Z" fill="#292929"/>
    <path d="M189.191 47.4489L195.348 41.6265L192.94 39.0795L194.237 37.8523L200.419 44.3889L199.121 45.6161L196.713 43.0691L190.556 48.8915L189.191 47.4489Z" fill="#292929"/>
    <path fill-rule="evenodd" clip-rule="evenodd" d="M6.75739 52.686C3.32412 58.4684 1.46436 64.6566 1.46436 71.0894C1.46436 103.122 47.579 129.089 104.464 129.089C161.35 129.089 207.464 103.122 207.464 71.0894C207.464 63.9727 205.188 57.1554 201.023 50.8558L200.223 51.4602C204.273 57.6072 206.464 64.2242 206.464 71.0894C206.464 86.5845 195.3 100.816 176.806 111.23C158.342 121.627 132.768 128.089 104.464 128.089C76.1611 128.089 50.5866 121.627 32.123 111.23C13.6283 100.816 2.46436 86.5845 2.46436 71.0894C2.46436 64.9358 4.22504 58.9816 7.50633 53.3866L6.75739 52.686Z" fill="#292929"/>
</svg>
