<svg width="80" height="80" viewBox="0 0 80 80" fill="none" xmlns="http://www.w3.org/2000/svg">
    <path d="M40 0L46.8984 5.31943L55.3073 3.04482L59.645 10.5992L68.2843 11.7157L69.4008 20.355L76.9552 24.6927L74.6806 33.1016L80 40L74.6806 46.8984L76.9552 55.3073L69.4008 59.645L68.2843 68.2843L59.645 69.4008L55.3073 76.9552L46.8984 74.6806L40 80L33.1016 74.6806L24.6927 76.9552L20.355 69.4008L11.7157 68.2843L10.5992 59.645L3.04482 55.3073L5.31943 46.8984L0 40L5.31943 33.1016L3.04482 24.6927L10.5992 20.355L11.7157 11.7157L20.355 10.5992L24.6927 3.04482L33.1016 5.31943L40 0Z" fill="#FBCF58"/>
    <path fill-rule="evenodd" clip-rule="evenodd" d="M53.4142 30.8036C54.1953 31.5846 54.1953 32.8509 53.4142 33.632L37.4142 49.632C36.6332 50.413 35.3668 50.413 34.5858 49.632L26.5858 41.632C25.8047 40.8509 25.8047 39.5846 26.5858 38.8036C27.3668 38.0225 28.6332 38.0225 29.4142 38.8036L36 45.3893L50.5858 30.8036C51.3668 30.0225 52.6332 30.0225 53.4142 30.8036Z" fill="#292929"/>
</svg>