<svg width="41" height="40" viewBox="0 0 41 40" fill="none" xmlns="http://www.w3.org/2000/svg">
    <path d="M40.4468 10.9067L33.7802 2.90677C33.6536 2.75545 33.4663 2.66748 33.2682 2.66748H7.9352C7.73723 2.66748 7.54989 2.75482 7.42318 2.90677L0.756626 10.9067C0.590613 11.1053 0.554598 11.382 0.664596 11.616C0.774595 11.8499 1.0099 11.9999 1.26857 11.9999H39.9347C40.1934 11.9999 40.4287 11.8499 40.5387 11.616C40.6481 11.3827 40.6128 11.106 40.4468 10.9067ZM2.69199 10.6667L8.24723 4.00012H32.9556L38.5108 10.6667H2.69199Z" fill="white"/>
    <path d="M21.215 3.07831C21.1117 2.82902 20.8684 2.66699 20.599 2.66699H7.93257C7.6939 2.66699 7.47391 2.79433 7.35461 3.00168C7.23532 3.20902 7.23594 3.463 7.35664 3.66963L12.0232 11.6695C12.1272 11.8475 12.3079 11.9682 12.5132 11.9948C12.5419 11.9982 12.5706 12.0001 12.5985 12.0001C12.7745 12.0001 12.9445 11.9308 13.0705 11.8048L21.0704 3.80495C21.2611 3.61432 21.3184 3.32761 21.215 3.07831ZM12.7385 10.2509L9.09256 4.00033H18.9891L12.7385 10.2509Z" fill="white"/>
    <path d="M40.5312 11.0373C40.4192 10.81 40.1872 10.666 39.9339 10.666H1.26777C1.01442 10.666 0.783094 10.81 0.670439 11.0373C0.558409 11.2647 0.584425 11.536 0.738407 11.7373L20.0715 37.0703C20.1975 37.2356 20.3935 37.333 20.6015 37.333C20.8095 37.333 21.0055 37.2356 21.1302 37.0703L40.4633 11.7373C40.6172 11.536 40.6432 11.2647 40.5312 11.0373ZM20.6015 35.5677L2.61573 12.0001H38.5873L20.6015 35.5677Z" fill="white"/>
    <path d="M21.2369 36.465L13.237 11.132C13.149 10.8547 12.8923 10.666 12.601 10.666H1.26777C1.01442 10.666 0.783094 10.81 0.670439 11.0373C0.558409 11.2647 0.584425 11.536 0.738407 11.7373L20.0715 37.0703C20.2008 37.2403 20.3988 37.333 20.6015 37.333C20.7055 37.333 20.8108 37.309 20.9081 37.257C21.1955 37.1084 21.3341 36.7737 21.2369 36.465ZM2.6151 12.0001H12.1123L18.8162 33.2291L2.6151 12.0001Z" fill="white"/>
    <path d="M33.8488 3.00168C33.7301 2.79433 33.5095 2.66699 33.2709 2.66699H20.6043C20.335 2.66699 20.0917 2.82902 19.9883 3.07831C19.8849 3.32761 19.9423 3.61432 20.133 3.80495L28.1329 11.8048C28.2582 11.9308 28.4282 12.0001 28.6042 12.0001C28.6329 12.0001 28.6615 11.9981 28.6902 11.9948C28.8949 11.9682 29.0762 11.8482 29.1802 11.6695L33.8468 3.66963C33.9668 3.463 33.9675 3.20902 33.8488 3.00168ZM28.4642 10.2509L22.2136 4.00033H32.1101L28.4642 10.2509Z" fill="white"/>
    <path d="M40.5349 11.0388C40.4228 10.8115 40.1909 10.6675 39.9375 10.6675H28.6043C28.313 10.6675 28.0557 10.8561 27.9683 11.1335L19.9684 36.4665C19.8711 36.7745 20.0098 37.1091 20.2971 37.2585C20.3944 37.3091 20.4997 37.3332 20.6037 37.3332C20.8058 37.3332 21.0037 37.2406 21.1337 37.0719L40.4668 11.7389C40.6209 11.5374 40.6468 11.2661 40.5349 11.0388ZM22.3885 33.2291L29.0924 12H38.5896L22.3885 33.2291Z" fill="white"/>
</svg>