<svg width="50" height="50" viewBox="0 0 50 50" fill="none" xmlns="http://www.w3.org/2000/svg">
    <g clip-path="url(#clip0_1848_13593)">
        <path d="M49.5884 14.2815L25.4217 0.114802C25.1675 -0.0335375 24.855 -0.038518 24.5976 0.103963L0.430859 13.4374C0.165039 13.5832 0 13.8631 0 14.1665V49.1665C0 49.6273 0.37334 49.9998 0.833301 49.9998H5C5.45996 49.9998 5.8333 49.6273 5.8333 49.1665V19.9999H44.1666V49.1666C44.1666 49.6274 44.5391 49.9999 44.9999 49.9999H49.1666C49.6274 49.9999 49.9999 49.6274 49.9999 49.1666V14.9999C50 14.704 49.8434 14.4306 49.5884 14.2815ZM48.3333 48.3332H45.8333V19.1665C45.8333 18.7065 45.4608 18.3332 45 18.3332H5C4.54004 18.3332 4.1667 18.7065 4.1667 19.1665V48.3332H1.6667V14.6582L24.9875 1.79146L48.3333 15.4773V48.3332Z" fill="#599A39"/>
        <path d="M41.6692 38.3331H31.6692C31.2084 38.3331 30.8359 38.7056 30.8359 39.1664V49.1664C30.8359 49.6273 31.2084 49.9997 31.6692 49.9997H41.6692C42.1301 49.9997 42.5025 49.6273 42.5025 49.1664V39.1664C42.5025 38.7056 42.1301 38.3331 41.6692 38.3331ZM40.8358 48.3331H32.5025V39.9998H40.8358V48.3331Z" fill="#599A39"/>
        <path d="M37.4975 39.1664V41.6664H35.8308V39.1664H34.1641V42.4997C34.1641 42.9605 34.5365 43.333 34.9974 43.333H38.3307C38.7915 43.333 39.164 42.9605 39.164 42.4997V39.1664H37.4975Z" fill="#599A39"/>
        <path d="M31.6692 38.3331H21.6692C21.2093 38.3331 20.8359 38.7056 20.8359 39.1664V49.1664C20.8359 49.6273 21.2093 49.9997 21.6692 49.9997H31.6692C32.1301 49.9997 32.5025 49.6273 32.5025 49.1664V39.1664C32.5025 38.7056 32.1301 38.3331 31.6692 38.3331ZM30.8358 48.3331H22.5025V39.9998H30.8358V48.3331Z" fill="#599A39"/>
        <path d="M27.4975 39.1664V41.6664H25.8308V39.1664H24.1641V42.4997C24.1641 42.9605 24.5374 43.333 24.9974 43.333H28.3307C28.7915 43.333 29.164 42.9605 29.164 42.4997V39.1664H27.4975Z" fill="#599A39"/>
        <path d="M41.6692 28.3331H31.6692C31.2084 28.3331 30.8359 28.7056 30.8359 29.1664V39.1664C30.8359 39.6273 31.2084 39.9997 31.6692 39.9997H41.6692C42.1301 39.9997 42.5025 39.6273 42.5025 39.1664V29.1664C42.5025 28.7056 42.1301 28.3331 41.6692 28.3331ZM40.8358 38.3331H32.5025V29.9998H40.8358V38.3331Z" fill="#599A39"/>
        <path d="M37.4975 29.1664V31.6664H35.8308V29.1664H34.1641V32.4997C34.1641 32.9605 34.5365 33.333 34.9974 33.333H38.3307C38.7915 33.333 39.164 32.9605 39.164 32.4997V29.1664H37.4975Z" fill="#599A39"/>
        <path d="M45 24.9998H5V26.6665H45V24.9998Z" fill="#599A39"/>
        <path d="M45 21.6664H5V23.3331H45V21.6664Z" fill="#599A39"/>
        <path d="M29.1666 11.6664H20.8333C20.3733 11.6664 20 12.0397 20 12.4997V15.833C20 16.2929 20.3733 16.6663 20.8333 16.6663H29.1666C29.6274 16.6663 29.9999 16.2929 29.9999 15.833V12.4997C29.9999 12.0397 29.6274 11.6664 29.1666 11.6664ZM28.3332 14.9998H21.6665V13.3331H28.3332V14.9998Z" fill="#599A39"/>
    </g>
    <defs>
        <clipPath id="clip0_1848_13593">
            <rect width="50" height="50" fill="white"/>
        </clipPath>
    </defs>
</svg>