<svg width="51" height="50" viewBox="0 0 51 50" fill="none" xmlns="http://www.w3.org/2000/svg">
    <g clip-path="url(#clip0_1879_83398)">
        <path d="M5.99433 36.4639L4.51758 37.3165L9.68642 46.2695H20.0237V44.5641H10.6711L5.99433 36.4639Z" fill="#599A39"/>
        <path d="M24.2097 13.4418L25.6864 12.5892L20.5176 3.63623H9.98633V5.34155H19.533L24.2097 13.4418Z" fill="#599A39"/>
        <path d="M50.3341 24.9527L42.9499 12.1628H29.3781L22.4861 0.225586H7.71816L0.333984 13.0155L7.22605 24.9527L0.333984 36.89L7.71816 49.6799H22.4861L29.3781 37.7426H42.9499L50.3341 24.9527ZM8.70196 1.93091H21.5023L27.7956 12.8315L21.2899 24.1001H8.70196L2.30201 13.0155L8.70196 1.93091ZM21.5023 47.9746H8.70196L2.30201 36.89L8.70196 25.8054H21.2899L27.7956 37.0744L21.5023 47.9746ZM29.3781 36.0373L22.9782 24.9527L29.3781 13.8682H41.9661L48.3661 24.9527L41.9661 36.0373H29.3781Z" fill="#599A39"/>
        <path d="M44.6723 24.5269L39.9956 32.6271H30.6426V34.3324H40.9803L46.1491 25.3795L44.6723 24.5269Z" fill="#599A39"/>
    </g>
    <defs>
        <clipPath id="clip0_1879_83398">
            <rect width="50" height="50" fill="white" transform="translate(0.333984)"/>
        </clipPath>
    </defs>
</svg>