<svg width="40" height="40" viewBox="0 0 40 40" fill="none" xmlns="http://www.w3.org/2000/svg">
    <g clip-path="url(#clip0_1919_77273)">
        <path d="M21.6259 17.0259C20.3551 16.6147 19.0195 16.4062 17.6562 16.4062C16.2808 16.4062 14.8432 16.6263 13.6083 17.0259C12.9925 17.2251 12.6548 17.8858 12.8541 18.5016C13.0533 19.1173 13.7137 19.455 14.3299 19.2558C15.3379 18.9296 16.5192 18.75 17.6562 18.75C18.7743 18.75 19.8671 18.9202 20.9043 19.2558C21.5204 19.4551 22.1808 19.1171 22.3801 18.5016C22.5794 17.8859 22.2416 17.2252 21.6259 17.0259Z" fill="#599A39"/>
        <path d="M38.8281 11.7194C38.1809 11.7194 37.6562 12.2441 37.6562 12.8913C37.6562 13.3021 37.5848 13.6964 37.4547 14.0632C36.9709 12.6993 35.6684 11.7194 34.1406 11.7194C32.2021 11.7194 30.625 13.2965 30.625 15.235C30.625 17.1736 32.2021 18.7507 34.1406 18.7507C34.2012 18.7507 34.2614 18.7491 34.3213 18.7461C34.5955 18.7377 34.8648 18.7107 35.1284 18.6657C34.7091 19.8811 33.6151 20.8237 32.3051 21.0444C31.5938 18.9342 30.2491 17.0057 28.3502 15.4233C25.4839 13.0348 21.6861 11.7194 17.6562 11.7194C15.4364 11.7194 13.2275 12.1302 11.2216 12.912C9.75617 11.7703 7.95586 11.1621 6.08172 11.1842C3.93672 11.2102 1.91977 12.0602 0.402187 13.5778C-0.0550782 14.035 -0.0554688 14.7775 0.402187 15.235L4.00336 18.8361C3.53109 19.6066 3.16719 20.3721 2.90422 21.1477C1.25602 21.4378 0 22.88 0 24.61V27.0319C0 28.9704 1.57711 30.5475 3.51562 30.5475H4.01891C4.81719 31.8822 5.84383 33.0774 7.03125 34.0533V38.8288C7.03125 39.476 7.55594 40.0007 8.20312 40.0007H12.8906C13.5378 40.0007 14.0625 39.476 14.0625 38.8288V37.2986C15.2389 37.5344 16.4584 37.6569 17.6562 37.6569C18.8345 37.6569 20.0117 37.5378 21.1719 37.302V38.8288C21.1719 39.476 21.6966 40.0007 22.3438 40.0007H27.0312C27.6784 40.0007 28.2031 39.476 28.2031 38.8288V34.0543C31.1487 31.6448 32.8906 28.1554 32.8906 24.61C32.8906 24.1815 32.8659 23.7564 32.8177 23.3357C33.9684 23.1207 35.0334 22.5701 35.8915 21.7314C37.0295 20.619 37.6562 19.1443 37.6562 17.5788V17.5756C39.0784 16.5055 40 14.8041 40 12.8913C40 12.2441 39.4753 11.7194 38.8281 11.7194ZM26.3298 32.5447C26.0338 32.766 25.8594 33.1139 25.8594 33.4834V37.6569H23.5156V35.8039C23.5156 35.4345 23.3414 35.0866 23.0454 34.8653C22.7494 34.6441 22.3666 34.5753 22.012 34.68C20.5881 35.1001 19.1227 35.3132 17.6562 35.3132C16.1595 35.3132 14.6262 35.0942 13.2223 34.68C12.868 34.5754 12.485 34.6442 12.1889 34.8654C11.893 35.0866 11.7188 35.4345 11.7188 35.8039V37.6569H9.375V33.4834C9.375 33.1139 9.2007 32.7659 8.90461 32.5446C7.60531 31.5736 6.51102 30.2886 5.74008 28.8285C5.53727 28.4443 5.13836 28.2038 4.70383 28.2038H3.51562C2.86945 28.2038 2.34375 27.6781 2.34375 27.0319V24.61C2.34375 23.9639 2.86945 23.4382 3.51562 23.4382H3.79797C4.33836 23.4382 4.80875 23.0686 4.93656 22.5436C5.19328 21.4892 5.69297 20.4485 6.46398 19.3621C6.79477 18.896 6.74109 18.2593 6.33695 17.8552L2.97008 14.4884C5.18992 13.0124 8.17664 13.2164 10.2047 15.1237C10.548 15.4467 11.0515 15.5323 11.4824 15.3414C13.3688 14.5051 15.5037 14.0632 17.6562 14.0632C24.7641 14.0632 30.5469 18.7945 30.5469 24.61C30.5469 27.605 28.9703 30.5712 26.3298 32.5447ZM34.1406 16.4069C33.4945 16.4069 32.9688 15.8812 32.9688 15.235C32.9688 14.5889 33.4945 14.0632 34.1406 14.0632C34.7868 14.0632 35.3125 14.5889 35.3125 15.235C35.3125 15.8812 34.7868 16.4069 34.1406 16.4069Z" fill="#599A39"/>
        <path d="M17.6562 0C14.4254 0 11.7969 2.62852 11.7969 5.85938C11.7969 9.09023 14.4254 11.7188 17.6562 11.7188C20.8871 11.7188 23.5156 9.09023 23.5156 5.85938C23.5156 2.62852 20.8871 0 17.6562 0ZM17.6562 9.375C15.7177 9.375 14.1406 7.79789 14.1406 5.85938C14.1406 3.92086 15.7177 2.34375 17.6562 2.34375C19.5948 2.34375 21.1719 3.92086 21.1719 5.85938C21.1719 7.79789 19.5948 9.375 17.6562 9.375Z" fill="#599A39"/>
        <path d="M8.20312 23.4375C8.85033 23.4375 9.375 22.9128 9.375 22.2656C9.375 21.6184 8.85033 21.0938 8.20312 21.0938C7.55592 21.0938 7.03125 21.6184 7.03125 22.2656C7.03125 22.9128 7.55592 23.4375 8.20312 23.4375Z" fill="#599A39"/>
    </g>
    <defs>
        <clipPath id="clip0_1919_77273">
            <rect width="40" height="40" fill="white"/>
        </clipPath>
    </defs>
</svg>