<svg width="40" height="40" viewBox="0 0 40 40" fill="none" xmlns="http://www.w3.org/2000/svg">
    <g clip-path="url(#clip0_1919_80030)">
        <path d="M36.7096 16.9459L36.5644 16.1479L35.7664 16.0027C33.3409 15.5336 29.0784 15.7222 26.6935 16.896C30.6229 8.99953 22.8414 1.86747 20.6649 0.46173L19.998 0L19.331 0.46173C17.0624 1.94528 9.38286 9.03234 13.3133 16.9381C10.9267 15.714 6.67662 15.533 4.23179 16.0027L3.4338 16.1479L3.28864 16.9459C2.24502 22.772 3.67795 34.0368 16.8072 33.885H16.8081C17.6017 33.885 18.2933 33.8418 18.8272 33.792V40H21.1711V33.792C35.2813 35.0768 37.9637 24.2967 36.7096 16.9459ZM19.9979 2.9057C25.9665 7.81371 27.8197 14.2953 21.1699 20.5873V12.2691H18.8261V20.5873C12.1603 14.2811 14.0501 7.79543 19.9979 2.9057ZM16.8073 31.5412C6.87553 31.6617 4.85681 24.4076 5.48854 18.2007C14.933 17.3175 19.0298 22.3109 18.82 29.8767L12.938 23.9947L11.2807 25.6521L17.1665 31.5378C17.0499 31.54 16.9302 31.5411 16.808 31.5411H16.8073V31.5412ZM31.7271 28.6617C30.5082 29.9986 27.3464 31.6895 22.8316 31.5378L28.7174 25.6521L27.0601 23.9947L21.174 29.8808C21.1642 29.3376 21.1756 28.7276 21.2257 28.0781C21.9205 20.3408 26.6414 17.636 34.5095 18.2006C34.7101 20.2378 34.8737 25.5151 31.7271 28.6617Z" fill="#599A39"/>
    </g>
    <defs>
        <clipPath id="clip0_1919_80030">
            <rect width="40" height="40" fill="white"/>
        </clipPath>
    </defs>
</svg>