<svg width="20" height="21" viewBox="0 0 20 21" fill="none" xmlns="http://www.w3.org/2000/svg">
    <g clip-path="url(#clip0_1522_50204)">
        <path d="M4.47643 19.8134C4.2573 19.8134 4.03971 19.7451 3.854 19.6108C3.50808 19.3601 3.34648 18.9291 3.44063 18.5133L4.72729 12.8456L0.363771 9.01892C0.0430227 8.73892 -0.0795085 8.29548 0.0521782 7.88974C0.183865 7.48476 0.542151 7.19804 0.966356 7.15883L6.73982 6.63468L9.02244 1.29289C9.19075 0.900428 9.57406 0.646973 9.99994 0.646973C10.4258 0.646973 10.8091 0.900428 10.9774 1.29198L13.2601 6.63468L19.0326 7.15883C19.4577 7.19713 19.816 7.48476 19.9477 7.88974C20.0794 8.29472 19.9576 8.73892 19.6369 9.01892L15.2734 12.8449L16.56 18.5124C16.6543 18.9291 16.4926 19.3601 16.1468 19.61C15.8018 19.86 15.3417 19.8792 14.9784 19.6608L9.99994 16.6857L5.02148 19.6625C4.85317 19.7625 4.66564 19.8134 4.47643 19.8134ZM9.99994 15.4041C10.1892 15.4041 10.3765 15.4549 10.545 15.5549L15.2435 18.365L14.0291 13.0156C13.9425 12.6349 14.0717 12.2374 14.3659 11.9798L18.486 8.36644L13.035 7.87143C12.6425 7.83557 12.305 7.58883 12.1516 7.22719L9.99994 2.18617L7.84565 7.22795C7.69398 7.58715 7.35644 7.83389 6.96489 7.86975L1.51309 8.36476L5.63307 11.9781C5.92818 12.2365 6.05728 12.6332 5.96984 13.0148L4.75643 18.3641L9.45489 15.5549C9.62319 15.4549 9.81073 15.4041 9.99994 15.4041ZM6.69572 6.73798C6.69572 6.73798 6.69572 6.7389 6.69481 6.73966L6.69572 6.73798ZM13.3025 6.73554L13.3034 6.73722C13.3034 6.7363 13.3034 6.7363 13.3025 6.73554Z" fill="white"/>
    </g>
    <defs>
        <clipPath id="clip0_1522_50204">
            <rect width="20" height="20" fill="white" transform="translate(0 0.217773)"/>
        </clipPath>
    </defs>
</svg>