<svg width="50" height="50" viewBox="0 0 50 50" fill="none" xmlns="http://www.w3.org/2000/svg">
    <g clip-path="url(#clip0_1879_19016)">
        <path d="M48.4848 0H11.692C5.24492 0 0 5.24502 0 11.692V48.4848C0 49.3203 0.679688 50 1.51523 50H15.6062C16.4417 50 17.1214 49.3203 17.1214 48.4848V46.7483C18.0304 46.4417 18.687 45.5817 18.687 44.5706V33.6111C18.687 33.0065 18.452 32.4562 18.069 32.0454C18.452 31.6347 18.687 31.0843 18.687 30.4798V19.5202C18.687 19.1082 18.5774 18.7216 18.3868 18.3868C18.7216 18.5774 19.1082 18.6869 19.5202 18.6869H30.4798C31.0843 18.6869 31.6348 18.452 32.0454 18.0689C32.4562 18.452 33.0065 18.6869 33.611 18.6869H44.5706C45.5817 18.6869 46.4417 18.0303 46.7483 17.1213H48.4848C49.3203 17.1213 50 16.4416 50 15.6061V1.51523C50 0.679688 49.3203 0 48.4848 0ZM15.6564 48.4848C15.6565 48.5126 15.6339 48.5352 15.6062 48.5352H4.59609V46.8688H15.6564V48.4848ZM11.692 6.2626C8.69824 6.2626 6.2626 8.69814 6.2626 11.692V17.2222H4.59609V11.692C4.59609 7.77939 7.7793 4.59619 11.6919 4.59619H17.2221V6.2626H11.692ZM12.4908 10.4386L10.8302 12.0992C10.5054 12.424 9.97676 12.4241 9.65176 12.0992L8.54473 10.9922C8.21982 10.6674 8.21982 10.1388 8.54473 9.81387L10.2054 8.15332C10.3628 7.9959 10.572 7.90918 10.7945 7.90918C11.0171 7.90918 11.2263 7.9959 11.3837 8.15322L12.4908 9.26025C12.8157 9.58516 12.8157 10.1138 12.4908 10.4386ZM11.7424 44.5706C11.7424 45.0301 11.3686 45.4038 10.9092 45.4038H8.56065C8.10117 45.4038 7.72744 45.03 7.72744 44.5706V43.005C7.72744 42.5455 8.10127 42.1718 8.56065 42.1718H10.9091C11.3686 42.1718 11.7423 42.5455 11.7423 43.005L11.7424 44.5706ZM6.2625 18.6869V31.313H4.59609V18.6869H6.2625ZM6.2625 32.7779V45.4039H4.59609V32.7779H6.2625ZM17.2222 30.4798C17.2222 30.9393 16.8483 31.3131 16.389 31.3131H11.6919C11.2874 31.3131 10.9595 31.6409 10.9595 32.0455C10.9595 32.45 11.2874 32.7779 11.6919 32.7779H16.389C16.8484 32.7779 17.2222 33.1517 17.2222 33.6111V44.5706C17.2222 45.0301 16.8483 45.4038 16.389 45.4038H13.0502C13.1512 45.1453 13.2072 44.8645 13.2072 44.5706V43.005C13.2072 41.7378 12.1763 40.7069 10.9092 40.7069H8.56065C8.2668 40.7069 7.98594 40.763 7.72744 40.8639V32.7778H8.56084C8.96533 32.7778 9.29326 32.4499 9.29326 32.0454C9.29326 31.6408 8.96533 31.313 8.56084 31.313H7.72744V18.6869H16.389C16.8484 18.6869 17.2222 19.0607 17.2222 19.5202V30.4798ZM17.2223 16.3889H17.2222C17.2222 16.8483 16.8483 17.2221 16.389 17.2221H7.72744V12.2466L8.61602 13.1352C9.06406 13.5832 9.65254 13.8071 10.241 13.8071C10.8295 13.8071 11.4181 13.5832 11.866 13.1352L13.5267 11.4745C14.4227 10.5785 14.4227 9.12061 13.5267 8.22461L13.0296 7.72744H17.2223V16.3889ZM45.4038 16.3889C45.4039 16.8483 45.0301 17.2221 44.5706 17.2221H33.611C33.1516 17.2221 32.7778 16.8483 32.7778 16.3889V11.6921C32.7778 11.2876 32.4499 10.9597 32.0454 10.9597C31.6409 10.9597 31.313 11.2876 31.313 11.6921V16.3889C31.313 16.8483 30.9392 17.2221 30.4798 17.2221H19.5202C19.0607 17.2221 18.687 16.8483 18.687 16.3889V7.72744H31.313V8.56104C31.313 8.96562 31.6409 9.29346 32.0454 9.29346C32.4499 9.29346 32.7778 8.96562 32.7778 8.56104V7.72744H40.864C40.763 7.98594 40.7069 8.2668 40.7069 8.56065V10.9092C40.7069 12.1764 41.7379 13.2072 43.005 13.2072H44.5706C44.8645 13.2072 45.1453 13.1512 45.4038 13.0502V16.3889ZM18.687 6.2625V4.59609H31.313V6.2625H18.687ZM45.4038 10.9092C45.4038 11.3686 45.03 11.7424 44.5706 11.7424H43.005C42.5455 11.7424 42.1718 11.3686 42.1718 10.9092V8.56065C42.1718 8.10127 42.5456 7.72744 43.005 7.72744H44.5706C45.0301 7.72744 45.4038 8.10127 45.4038 8.56065V10.9092ZM32.7778 6.2626V4.59609H45.4039V6.2626H32.7778ZM48.5352 15.6061C48.5352 15.6339 48.5126 15.6564 48.4848 15.6564H46.8688V4.59609H48.5352V15.6061ZM48.5352 3.13125H11.692C6.97168 3.13125 3.13135 6.97158 3.13135 11.6919V48.5352H1.51523C1.4874 48.5352 1.46484 48.5126 1.46484 48.4848V11.692C1.46484 6.05264 6.05264 1.46484 11.692 1.46484H48.4848C48.5126 1.46484 48.5352 1.4874 48.5352 1.51523V3.13125Z" fill="#599A39"/>
    </g>
    <defs>
        <clipPath id="clip0_1879_19016">
            <rect width="50" height="50" fill="white"/>
        </clipPath>
    </defs>
</svg>