<svg width="40" height="40" viewBox="0 0 40 40" fill="none" xmlns="http://www.w3.org/2000/svg">
    <path d="M40 14.1406V11.7969H32.8906V4.76562H35.2344V2.42188H21.1719V4.76562H23.5156V11.7969H16.4844V4.76562H18.8281V2.42188H4.76562V4.76562H7.10938V11.7969H0V14.1406H2.42188V30.5469H0V32.8906H2.42188V35.2344H0V37.5781H40V35.2344H37.5781V32.8906H40V30.5469H37.5781V14.1406H40ZM25.8594 9.45312H30.5469V23.5156C30.5469 24.808 29.4955 25.8594 28.2031 25.8594C26.9108 25.8594 25.8594 24.808 25.8594 23.5156V9.45312ZM30.5469 4.76562V7.10938H25.8594V4.76562H30.5469ZM9.45312 9.45312H14.1406V23.5156C14.1406 24.808 13.0892 25.8594 11.7969 25.8594C10.5045 25.8594 9.45312 24.808 9.45312 23.5156V9.45312ZM14.1406 4.76562V7.10938H9.45312V4.76562H14.1406ZM4.76562 14.1406H7.10938V23.5156C7.10938 26.1003 9.21219 28.2031 11.7969 28.2031C14.3816 28.2031 16.4844 26.1003 16.4844 23.5156V14.1406H18.8281V30.5469H4.76562V14.1406ZM35.2344 35.2344H4.76562V32.8906H35.2344V35.2344ZM35.2344 30.5469H21.1719V14.1406H23.5156V23.5156C23.5156 26.1003 25.6184 28.2031 28.2031 28.2031C30.7878 28.2031 32.8906 26.1003 32.8906 23.5156V14.1406H35.2344V30.5469Z" fill="#599A39"/>
</svg>