<svg width="25" height="25" viewBox="0 0 25 25" fill="none" xmlns="http://www.w3.org/2000/svg">
    <path d="M20.3906 11.7188C21.0742 11.7188 21.6406 11.1523 21.6406 10.4688C21.6406 9.78516 21.0742 9.21875 20.3906 9.21875H19.8438V7.65625H20.3906C21.0742 7.65625 21.6406 7.08984 21.6406 6.40625C21.6406 5.72266 21.0742 5.15625 20.3906 5.15625H19.8438V4.60938C19.8438 3.92578 19.2773 3.35938 18.5938 3.35938C17.9102 3.35938 17.3438 3.92578 17.3438 4.60938V5.15625H15.7813V4.60938C15.7813 3.92578 15.2148 3.35938 14.5313 3.35938C13.8477 3.35938 13.2813 3.92578 13.2813 4.60938V5.15625H11.7188V4.60938C11.7188 3.92578 11.1523 3.35938 10.4688 3.35938C9.78516 3.35938 9.21875 3.92578 9.21875 4.60938V5.15625H7.65625V4.60938C7.65625 3.92578 7.08984 3.35938 6.40625 3.35938C5.72266 3.35938 5.15625 3.92578 5.15625 4.60938V5.15625H4.60938C3.92578 5.15625 3.35938 5.72266 3.35938 6.40625C3.35938 7.08984 3.92578 7.65625 4.60938 7.65625H5.15625V9.21875H4.60938C3.92578 9.21875 3.35938 9.78516 3.35938 10.4688C3.35938 11.1523 3.92578 11.7188 4.60938 11.7188H5.15625V13.2813H4.60938C3.92578 13.2813 3.35938 13.8477 3.35938 14.5313C3.35938 15.2148 3.92578 15.7813 4.60938 15.7813H5.15625V17.3438H4.60938C3.92578 17.3438 3.35938 17.9102 3.35938 18.5938C3.35938 19.2773 3.92578 19.8438 4.60938 19.8438H5.15625V20.3906C5.15625 21.0742 5.72266 21.6406 6.40625 21.6406C7.08984 21.6406 7.65625 21.0742 7.65625 20.3906V19.8438H9.21875V20.3906C9.21875 21.0742 9.78516 21.6406 10.4688 21.6406C11.1523 21.6406 11.7188 21.0742 11.7188 20.3906V19.8438H13.2813V20.3906C13.2813 21.0742 13.8477 21.6406 14.5313 21.6406C15.2148 21.6406 15.7813 21.0742 15.7813 20.3906V19.8438H17.3438V20.3906C17.3438 21.0742 17.9102 21.6406 18.5938 21.6406C19.2773 21.6406 19.8438 21.0742 19.8438 20.3906V19.8438H20.3906C21.0742 19.8438 21.6406 19.2773 21.6406 18.5938C21.6406 17.9102 21.0742 17.3438 20.3906 17.3438H19.8438V15.7813H20.3906C21.0742 15.7813 21.6406 15.2148 21.6406 14.5313C21.6406 13.8477 21.0742 13.2813 20.3906 13.2813H19.8438V11.7188H20.3906ZM20.957 10.4688C20.957 10.7813 20.7031 11.0352 20.3906 11.0352H15.7813V9.90234H20.3906C20.7031 9.90234 20.9375 10.1563 20.957 10.4688ZM15.7813 17.3438V15.7813H17.3438V17.3438H15.7813ZM13.2813 17.3438H11.7188V15.7813H13.2813V17.3438ZM7.65625 17.3438V15.7813H9.21875V17.3438H7.65625ZM9.21875 7.65625V9.21875H7.65625V7.65625H9.21875ZM11.7188 7.65625H13.2813V9.21875H11.7188V7.65625ZM17.3438 7.65625V9.21875H15.7813V7.65625H17.3438ZM15.0977 13.2813H13.9648V7.65625H15.0977V13.2813ZM11.7188 13.2813V11.7188H13.2813V13.2813H11.7188ZM13.2813 9.90234V11.0352H7.65625V9.90234H13.2813ZM7.65625 11.7188H9.21875V13.2813H7.65625V11.7188ZM9.90234 11.7188H11.0352V17.3438H9.90234C9.90234 15.3125 9.90234 13.75 9.90234 11.7188ZM11.7188 15.0977V13.9648H17.3438V15.0977H11.7188ZM17.3438 13.2813H15.7813V11.7188H17.3438V13.2813ZM20.3906 5.83984C20.7031 5.83984 20.957 6.09375 20.957 6.40625C20.957 6.71875 20.7031 6.97266 20.3906 6.97266H19.8438V5.83984H20.3906ZM18.0273 4.60938C18.0273 4.29688 18.2813 4.04297 18.5938 4.04297C18.9063 4.04297 19.1602 4.29688 19.1602 4.60938V9.21875H18.0273V4.60938ZM13.9648 4.60938C13.9648 4.29688 14.2188 4.04297 14.5313 4.04297C14.8438 4.04297 15.0977 4.29688 15.0977 4.60938V5.15625H13.9648V4.60938ZM17.3438 5.83984V6.97266H11.7188V5.83984H17.3438ZM9.90234 4.60938C9.90234 4.29688 10.1563 4.04297 10.4688 4.04297C10.7813 4.04297 11.0352 4.29688 11.0352 4.60938V9.21875H9.90234V4.60938ZM5.83984 4.60938C5.83984 4.29688 6.09375 4.04297 6.40625 4.04297C6.71875 4.04297 6.97266 4.29688 6.97266 4.60938V5.15625H5.83984V4.60938ZM4.0625 6.40625C4.0625 6.09375 4.31641 5.83984 4.62891 5.83984H9.23828V6.97266H4.60938C4.29688 6.97266 4.0625 6.71875 4.0625 6.40625ZM4.60938 11.0352C4.29688 11.0352 4.04297 10.7813 4.04297 10.4688C4.04297 10.1563 4.29688 9.90234 4.60938 9.90234H5.15625V11.0352H4.60938ZM5.83984 7.65625H6.97266V13.2813H5.83984C5.83984 11.25 5.83984 9.6875 5.83984 7.65625ZM4.0625 14.5313C4.0625 14.2188 4.31641 13.9648 4.62891 13.9648H9.23828V15.0977H4.60938C4.29688 15.0977 4.0625 14.8438 4.0625 14.5313ZM4.60938 19.1602C4.29688 19.1602 4.04297 18.9063 4.04297 18.5938C4.04297 18.2813 4.29688 18.0273 4.60938 18.0273H5.15625V19.1602H4.60938ZM6.97266 20.3906C6.97266 20.7031 6.71875 20.957 6.40625 20.957C6.09375 20.957 5.83984 20.7031 5.83984 20.3906V15.7813H6.97266V20.3906ZM11.0352 20.3906C11.0352 20.7031 10.7813 20.957 10.4688 20.957C10.1563 20.957 9.90234 20.7031 9.90234 20.3906V19.8438H11.0352V20.3906ZM7.65625 19.1602V18.0273H13.2813V19.1602C11.25 19.1602 9.6875 19.1602 7.65625 19.1602ZM15.0977 20.3906C15.0977 20.7031 14.8438 20.957 14.5313 20.957C14.2188 20.957 13.9648 20.7031 13.9648 20.3906V15.7813H15.0977V20.3906ZM19.1602 20.3906C19.1602 20.7031 18.9063 20.957 18.5938 20.957C18.2813 20.957 18.0273 20.7031 18.0273 20.3906V19.8438H19.1602V20.3906ZM20.957 18.5938C20.957 18.9063 20.7031 19.1602 20.3906 19.1602H15.7813V18.0273H20.3906C20.7031 18.0273 20.9375 18.2813 20.957 18.5938ZM20.3906 13.9648C20.7031 13.9648 20.957 14.2188 20.957 14.5313C20.957 14.8438 20.7031 15.0977 20.3906 15.0977H19.8438V13.9648H20.3906ZM19.1602 17.3438H18.0273V11.7188H19.1602V17.3438Z" fill="#599A39"/>
</svg>