<svg width="40" height="40" viewBox="0 0 40 40" fill="none" xmlns="http://www.w3.org/2000/svg">
    <path d="M6.25 10V23.75C6.25 23.9375 6.3125 24.125 6.375 24.25C6.5625 24.625 10.4375 32.875 19.5 36.75H19.5625H19.625C19.75 36.75 19.8125 36.8125 19.9375 36.8125C20.0625 36.8125 20.125 36.8125 20.25 36.75H20.3125H20.375C29.4375 32.875 33.375 24.625 33.5 24.25C33.5625 24.0625 33.625 23.9375 33.625 23.75V10C33.625 9.4375 33.25 8.9375 32.6875 8.8125C27.9375 7.625 20.625 2.8125 20.5625 2.75C20.5 2.6875 20.4375 2.6875 20.3125 2.625C20.25 2.625 20.25 2.625 20.1875 2.5625C20.125 2.5625 20.125 2.5625 20.0625 2.5625C20 2.5625 19.9375 2.5625 19.875 2.5625H19.8125C19.75 2.5625 19.6875 2.5625 19.6875 2.5625H19.625C19.5625 2.5625 19.5 2.625 19.4375 2.625C19.375 2.6875 19.3125 2.6875 19.1875 2.75C19.0625 2.8125 11.8125 7.625 7.0625 8.8125C6.625 8.9375 6.25 9.4375 6.25 10ZM8.75 10.9375C12.9375 9.625 18.125 6.4375 20 5.25C21.875 6.4375 27.0625 9.625 31.25 10.9375V23.4375C30.5625 24.75 27.0625 31 20 34.25C12.9375 31 9.4375 24.75 8.75 23.4375V10.9375Z" fill="#599A39"/>
    <path d="M17.875 24C18.125 24.25 18.4375 24.375 18.75 24.375C19.0625 24.375 19.375 24.25 19.625 24L25.8125 17.8125C26.3125 17.3125 26.3125 16.5625 25.8125 16.0625C25.3125 15.5625 24.5625 15.5625 24.0625 16.0625L18.75 21.375L15.9375 18.5625C15.4375 18.0625 14.6875 18.0625 14.1875 18.5625C13.6875 19.0625 13.6875 19.8125 14.1875 20.3125L17.875 24Z" fill="#599A39"/>
</svg>