<svg width="40" height="40" viewBox="0 0 40 40" fill="none" xmlns="http://www.w3.org/2000/svg">
    <g clip-path="url(#clip0_1919_61469)">
        <path d="M1.17188 37.1424H13.6064C14.1097 38.7944 15.6473 39.9999 17.4617 39.9999H22.5383C24.3527 39.9999 25.8903 38.7944 26.3936 37.1424H38.8281C39.4753 37.1424 40 36.6178 40 35.9706C40 35.3234 39.4753 34.7987 38.8281 34.7987H38.1194V30.7117C38.1194 29.9552 37.4122 29.3971 36.6767 29.5715C34.8027 30.0166 33.5588 30.2381 31.9606 30.2173C29.2282 30.1813 28.0603 29.6352 24.8118 29.3847C22.7248 29.2239 21.032 30.1881 19.9536 31.5581C18.8748 30.1881 17.1819 29.2238 15.0956 29.3847C11.8547 29.6346 10.6745 30.1814 7.94664 30.2173C6.34852 30.2379 5.10492 30.0166 3.2307 29.5715C2.495 29.3968 1.78805 29.9556 1.78805 30.7117V34.7987H1.17188C0.524687 34.7987 0 35.3234 0 35.9706C0 36.6178 0.524687 37.1424 1.17188 37.1424ZM4.13188 32.1743C5.32633 32.4164 6.53984 32.58 7.97781 32.5607C10.9356 32.5218 12.1651 31.9613 15.2759 31.7214C16.405 31.6346 18.2816 32.2824 18.8169 34.4246C18.817 34.4253 18.8173 34.4258 18.8174 34.4264C19.1087 35.5806 20.7875 35.6272 21.0903 34.426C21.0905 34.4255 21.0906 34.425 21.0907 34.4246C21.626 32.2824 23.5018 31.6346 24.6316 31.7214C27.743 31.9613 28.9714 32.5217 31.9295 32.5607C33.3675 32.5801 34.581 32.4163 35.7755 32.1743V34.7987H25.4021C25.4001 34.7987 25.3981 34.7984 25.3961 34.7984C24.7489 34.7984 24.2242 35.3231 24.2242 35.9703C24.2242 36.8999 23.4679 37.6562 22.5383 37.6562H17.4617C16.5321 37.6562 15.7758 36.8999 15.7758 35.9703C15.7758 35.3231 15.2511 34.7984 14.6039 34.7984C14.6019 34.7984 14.5999 34.7987 14.5979 34.7987H4.13188V32.1743Z" fill="#599A39"/>
        <path d="M18.7813 27.0819H21.1947C23.0583 27.0819 24.5848 25.6162 24.5975 23.815L24.616 21.3566C24.9526 19.2477 25.7944 17.2865 27.1195 15.5273C28.2905 13.9737 28.9095 12.1211 28.9095 10.1695C28.9095 5.15406 24.8047 1.18804 19.8713 1.25874C15.0685 1.32538 11.1572 5.23132 11.0869 10.0359C11.0573 12.0473 11.6823 13.955 12.8947 15.5529C14.2077 17.2831 15.0427 19.2306 15.3787 21.3418V23.7913C15.3786 25.6058 16.905 27.0819 18.7813 27.0819ZM22.2537 23.7979C22.25 24.3164 21.7749 24.7382 21.1946 24.7382H18.7812C18.1973 24.7382 17.7223 24.3134 17.7223 23.7913V22.3944H22.2642L22.2537 23.7979ZM13.4303 10.0702C13.4818 6.55257 16.3858 3.65109 19.9038 3.60226C23.5617 3.54812 26.5656 6.49609 26.5656 10.1695C26.5656 11.608 26.1099 12.9727 25.2476 14.1168C23.8866 15.9237 22.958 17.9157 22.4801 20.0508H21.1696V13.2562C21.1696 12.6091 20.6449 12.0844 19.9977 12.0844C19.3505 12.0844 18.8259 12.6091 18.8259 13.2562V20.0508H17.5184C17.0427 17.9087 16.1178 15.9233 14.7618 14.1362C13.8689 12.9594 13.4085 11.5534 13.4303 10.0702Z" fill="#599A39"/>
        <path d="M8.82109 9.01367C8.82109 8.36648 8.29641 7.8418 7.64922 7.8418H3.74219C3.095 7.8418 2.57031 8.36648 2.57031 9.01367C2.57031 9.66086 3.095 10.1855 3.74219 10.1855H7.64922C8.29648 10.1855 8.82109 9.66086 8.82109 9.01367Z" fill="#599A39"/>
        <path d="M31.2412 15.881L34.6076 17.8642C35.1656 18.1929 35.8839 18.0066 36.2121 17.4493C36.5406 16.8917 36.3549 16.1734 35.7973 15.8448L32.4309 13.8616C31.8733 13.5331 31.1549 13.7187 30.8264 14.2764C30.498 14.8341 30.6837 15.5524 31.2412 15.881Z" fill="#599A39"/>
        <path d="M5.3841 17.8642L8.75043 15.881C9.30808 15.5524 9.49379 14.8341 9.16527 14.2764C8.83668 13.7187 8.11832 13.5331 7.56074 13.8616L4.19441 15.8448C3.63676 16.1733 3.45105 16.8917 3.77957 17.4493C4.10816 18.0071 4.82644 18.1926 5.3841 17.8642Z" fill="#599A39"/>
        <path d="M32.431 4.16494L35.7973 2.18174C36.355 1.85322 36.5407 1.13486 36.2121 0.577209C35.8836 0.0194743 35.1651 -0.166073 34.6076 0.162365L31.2413 2.14557C30.6836 2.47408 30.4979 3.19244 30.8264 3.7501C31.155 4.30791 31.8733 4.49338 32.431 4.16494Z" fill="#599A39"/>
        <path d="M8.75043 2.14557L5.3841 0.162365C4.82644 -0.166073 4.10824 0.0194743 3.77957 0.577209C3.45105 1.13487 3.63676 1.85315 4.19441 2.18174L7.56074 4.16494C8.11871 4.49362 8.83683 4.30752 9.16527 3.7501C9.49371 3.19244 9.30801 2.47408 8.75043 2.14557Z" fill="#599A39"/>
        <path d="M37.4305 9.01367C37.4305 8.36648 36.9058 7.8418 36.2586 7.8418H32.3516C31.7044 7.8418 31.1797 8.36648 31.1797 9.01367C31.1797 9.66086 31.7044 10.1855 32.3516 10.1855H36.2586C36.9058 10.1855 37.4305 9.66086 37.4305 9.01367Z" fill="#599A39"/>
    </g>
    <defs>
        <clipPath id="clip0_1919_61469">
            <rect width="40" height="40" fill="white"/>
        </clipPath>
    </defs>
</svg>