<svg width="40" height="40" viewBox="0 0 40 40" fill="none" xmlns="http://www.w3.org/2000/svg">
    <g clip-path="url(#clip0_1919_64055)">
        <path d="M39.8517 35.4718L32.7427 11.8794C32.3003 10.4048 30.9155 9.375 29.375 9.375H24.6843C25.4216 8.395 25.8594 7.17742 25.8594 5.85938C25.8594 2.62852 23.2309 0 20 0C16.7691 0 14.1406 2.62852 14.1406 5.85938C14.1406 7.17742 14.5784 8.395 15.3157 9.375H10.625C9.08445 9.375 7.69969 10.4048 7.25766 11.878L0.147969 35.4731C0.0497656 35.8003 0 36.1405 0 36.4844C0 38.4229 1.57711 40 3.51562 40H36.4844C38.4229 40 40 38.4229 40 36.4844C40 36.1405 39.9502 35.8003 39.8517 35.4718ZM16.4844 5.85938C16.4844 3.92086 18.0615 2.34375 20 2.34375C21.9385 2.34375 23.5156 3.92086 23.5156 5.85938C23.5156 7.79789 21.9385 9.375 20 9.375C18.0615 9.375 16.4844 7.79789 16.4844 5.85938ZM36.4844 37.6562H3.51562C2.86945 37.6562 2.34375 37.1305 2.34375 36.4844C2.34375 36.3688 2.36023 36.2552 2.39242 36.148L9.50219 12.5528C9.64953 12.0617 10.1112 11.7188 10.625 11.7188H29.375C29.8888 11.7188 30.3505 12.0617 30.4982 12.5542L37.6072 36.1466C37.6398 36.2552 37.6562 36.3688 37.6562 36.4844C37.6562 37.1305 37.1305 37.6562 36.4844 37.6562Z" fill="#599A39"/>
        <path d="M29.375 23.5938H27.0312C26.3841 23.5938 25.8594 24.1184 25.8594 24.7656C25.8594 25.4128 26.3841 25.9375 27.0312 25.9375H28.2031C28.2031 27.2298 27.1517 28.2812 25.8594 28.2812C24.567 28.2812 23.5156 27.2298 23.5156 25.9375V23.5938C23.5156 22.3014 24.567 21.25 25.8594 21.25C26.4855 21.25 27.0741 21.4938 27.5167 21.9365C27.9743 22.3941 28.7163 22.3941 29.174 21.9365C29.6316 21.4788 29.6316 20.7369 29.174 20.2792C28.2887 19.3938 27.1115 18.9062 25.8594 18.9062C23.2859 18.9062 21.1901 20.991 21.172 23.5603C21.172 23.5659 21.1719 25.9375 21.1719 25.9375C21.1719 28.5222 23.2747 30.625 25.8594 30.625C28.4441 30.625 30.5469 28.5222 30.5469 25.9375V24.7656C30.5469 24.1184 30.0222 23.5938 29.375 23.5938Z" fill="#599A39"/>
        <path d="M18.1177 18.9794C17.5391 18.69 16.835 18.9246 16.5455 19.5035L14.5257 23.5432H14.0781V20.0275C14.0781 19.3804 13.5534 18.8557 12.9062 18.8557C12.2591 18.8557 11.7344 19.3804 11.7344 20.0275V29.4025C11.7344 30.0497 12.2591 30.5744 12.9062 30.5744C13.5534 30.5744 14.0781 30.0497 14.0781 29.4025V25.8869H14.5257L16.5455 29.9266C16.835 30.5057 17.539 30.7401 18.1177 30.4507C18.6966 30.1612 18.9313 29.4573 18.6418 28.8784L16.5601 24.715L18.6418 20.5515C18.9313 19.9728 18.6966 19.2689 18.1177 18.9794Z" fill="#599A39"/>
    </g>
    <defs>
        <clipPath id="clip0_1919_64055">
            <rect width="40" height="40" fill="white"/>
        </clipPath>
    </defs>
</svg>