<svg width="39" height="50" viewBox="0 0 39 50" fill="none" xmlns="http://www.w3.org/2000/svg">
    <path d="M34.2227 0.195312H4.44922C2.20312 0.195312 0.375 2.02344 0.375 4.26953V45.7305C0.375 47.9766 2.20312 49.8047 4.44922 49.8047H34.2227C36.4688 49.8047 38.2969 47.9766 38.2969 45.7305V4.26953C38.2969 2.02344 36.4688 0.195312 34.2227 0.195312ZM36.7344 45.7305C36.7344 47.1172 35.6094 48.2422 34.2227 48.2422H4.44922C3.0625 48.2422 1.9375 47.1172 1.9375 45.7305V4.26953C1.9375 2.88281 3.0625 1.75781 4.44922 1.75781H34.2227C35.6094 1.75781 36.7344 2.88281 36.7344 4.26953V45.7305Z" fill="#599A39"/>
    <path d="M31.0391 5.01172H7.63281C6.55469 5.01172 5.67969 5.88672 5.67969 6.96484V13.4375C5.67969 14.5156 6.55469 15.3906 7.63281 15.3906H31.0391C32.1172 15.3906 32.9922 14.5156 32.9922 13.4375V6.96484C32.9922 5.88672 32.1133 5.01172 31.0391 5.01172ZM31.4297 13.4375C31.4297 13.6523 31.2539 13.8281 31.0391 13.8281H7.63281C7.41797 13.8281 7.24219 13.6523 7.24219 13.4375V6.96484C7.24219 6.75 7.41797 6.57422 7.63281 6.57422H31.0391C31.2539 6.57422 31.4297 6.75 31.4297 6.96484V13.4375Z" fill="#599A39"/>
    <path d="M11.4688 17.6328H7.63281C6.55469 17.6328 5.67969 18.5078 5.67969 19.5859V23.4219C5.67969 24.5 6.55469 25.375 7.63281 25.375H11.4688C12.5469 25.375 13.4219 24.5 13.4219 23.4219V19.5859C13.4219 18.5078 12.5469 17.6328 11.4688 17.6328ZM11.8594 23.4219C11.8594 23.6367 11.6836 23.8125 11.4688 23.8125H7.63281C7.41797 23.8125 7.24219 23.6367 7.24219 23.4219V19.5859C7.24219 19.3711 7.41797 19.1953 7.63281 19.1953H11.4688C11.6836 19.1953 11.8594 19.3711 11.8594 19.5859V23.4219Z" fill="#599A39"/>
    <path d="M21.2578 17.6328H17.4219C16.3438 17.6328 15.4688 18.5078 15.4688 19.5859V23.4219C15.4688 24.5 16.3438 25.375 17.4219 25.375H21.2578C22.3359 25.375 23.2109 24.5 23.2109 23.4219V19.5859C23.2109 18.5078 22.3359 17.6328 21.2578 17.6328ZM21.6484 23.4219C21.6484 23.6367 21.4727 23.8125 21.2578 23.8125H17.4219C17.207 23.8125 17.0312 23.6367 17.0312 23.4219V19.5859C17.0312 19.3711 17.207 19.1953 17.4219 19.1953H21.2578C21.4727 19.1953 21.6484 19.3711 21.6484 19.5859V23.4219Z" fill="#599A39"/>
    <path d="M31.0391 17.6328H27.2031C26.125 17.6328 25.25 18.5078 25.25 19.5859V23.4219C25.25 24.5 26.125 25.375 27.2031 25.375H31.0391C32.1172 25.375 32.9922 24.5 32.9922 23.4219V19.5859C32.9922 18.5078 32.1133 17.6328 31.0391 17.6328ZM31.4297 23.4219C31.4297 23.6367 31.2539 23.8125 31.0391 23.8125H27.2031C26.9883 23.8125 26.8125 23.6367 26.8125 23.4219V19.5859C26.8125 19.3711 26.9883 19.1953 27.2031 19.1953H31.0391C31.2539 19.1953 31.4297 19.3711 31.4297 19.5859V23.4219Z" fill="#599A39"/>
    <path d="M11.4688 27.6172H7.63281C6.55469 27.6172 5.67969 28.4922 5.67969 29.5703V33.4062C5.67969 34.4844 6.55469 35.3594 7.63281 35.3594H11.4688C12.5469 35.3594 13.4219 34.4844 13.4219 33.4062V29.5703C13.4219 28.4922 12.5469 27.6172 11.4688 27.6172ZM11.8594 33.4062C11.8594 33.6211 11.6836 33.7969 11.4688 33.7969H7.63281C7.41797 33.7969 7.24219 33.6211 7.24219 33.4062V29.5703C7.24219 29.3555 7.41797 29.1797 7.63281 29.1797H11.4688C11.6836 29.1797 11.8594 29.3555 11.8594 29.5703V33.4062Z" fill="#599A39"/>
    <path d="M21.2578 27.6172H17.4219C16.3438 27.6172 15.4688 28.4922 15.4688 29.5703V33.4062C15.4688 34.4844 16.3438 35.3594 17.4219 35.3594H21.2578C22.3359 35.3594 23.2109 34.4844 23.2109 33.4062V29.5703C23.2109 28.4922 22.3359 27.6172 21.2578 27.6172ZM21.6484 33.4062C21.6484 33.6211 21.4727 33.7969 21.2578 33.7969H17.4219C17.207 33.7969 17.0312 33.6211 17.0312 33.4062V29.5703C17.0312 29.3555 17.207 29.1797 17.4219 29.1797H21.2578C21.4727 29.1797 21.6484 29.3555 21.6484 29.5703V33.4062Z" fill="#599A39"/>
    <path d="M11.4688 37.6016H7.63281C6.55469 37.6016 5.67969 38.4766 5.67969 39.5547V43.3906C5.67969 44.4688 6.55469 45.3438 7.63281 45.3438H11.4688C12.5469 45.3438 13.4219 44.4688 13.4219 43.3906V39.5547C13.4219 38.4766 12.5469 37.6016 11.4688 37.6016ZM11.8594 43.3906C11.8594 43.6055 11.6836 43.7812 11.4688 43.7812H7.63281C7.41797 43.7812 7.24219 43.6055 7.24219 43.3906V39.5547C7.24219 39.3398 7.41797 39.1641 7.63281 39.1641H11.4688C11.6836 39.1641 11.8594 39.3398 11.8594 39.5547V43.3906Z" fill="#599A39"/>
    <path d="M21.2578 37.6016H17.4219C16.3438 37.6016 15.4688 38.4766 15.4688 39.5547V43.3906C15.4688 44.4688 16.3438 45.3438 17.4219 45.3438H21.2578C22.3359 45.3438 23.2109 44.4688 23.2109 43.3906V39.5547C23.2109 38.4766 22.3359 37.6016 21.2578 37.6016ZM21.6484 43.3906C21.6484 43.6055 21.4727 43.7812 21.2578 43.7812H17.4219C17.207 43.7812 17.0312 43.6055 17.0312 43.3906V39.5547C17.0312 39.3398 17.207 39.1641 17.4219 39.1641H21.2578C21.4727 39.1641 21.6484 39.3398 21.6484 39.5547V43.3906Z" fill="#599A39"/>
    <path d="M31.0391 27.6172H27.2031C26.125 27.6172 25.25 28.4922 25.25 29.5703V43.3906C25.25 44.4688 26.125 45.3438 27.2031 45.3438H31.0391C32.1172 45.3438 32.9922 44.4688 32.9922 43.3906V29.5703C32.9922 28.4922 32.1133 27.6172 31.0391 27.6172ZM31.4297 43.3906C31.4297 43.6055 31.2539 43.7813 31.0391 43.7813H27.2031C26.9883 43.7813 26.8125 43.6055 26.8125 43.3906V29.5703C26.8125 29.3555 26.9883 29.1797 27.2031 29.1797H31.0391C31.2539 29.1797 31.4297 29.3555 31.4297 29.5703V43.3906Z" fill="#599A39"/>
</svg>