<svg width="25" height="25" viewBox="0 0 25 25" fill="none" xmlns="http://www.w3.org/2000/svg">
    <path d="M14.806 23.6993C14.2776 23.6993 13.8055 23.3131 13.3469 22.9381C13.0667 22.7087 12.6826 22.3946 12.4971 22.3946C12.312 22.3946 11.9279 22.7087 11.6477 22.9381C11.1453 23.3488 10.5755 23.8157 9.94818 23.672C9.30078 23.5248 8.98385 22.8441 8.70417 22.2438C8.56458 21.9436 8.35313 21.4897 8.20286 21.417C8.04349 21.3392 7.5487 21.4592 7.22135 21.5379C6.58411 21.6912 5.86224 21.8642 5.35182 21.4571C4.83958 21.048 4.8487 20.303 4.85729 19.6459C4.86146 19.3108 4.86771 18.8045 4.7599 18.6691C4.65339 18.5358 4.16042 18.4303 3.83411 18.3605C3.1888 18.2225 2.45807 18.066 2.17161 17.4722C1.88932 16.8876 2.21875 16.2246 2.50885 15.6397C2.65964 15.3366 2.88724 14.878 2.8474 14.7022C2.81146 14.5446 2.41927 14.2402 2.1599 14.0386C1.63464 13.6313 1.03906 13.1688 1.03906 12.5001C1.03906 11.8313 1.63464 11.3691 2.16016 10.9613C2.41953 10.76 2.81172 10.4556 2.84766 10.2978C2.8875 10.122 2.6599 9.66338 2.50937 9.35999C2.21901 8.7751 1.88984 8.11233 2.1724 7.52718C2.45885 6.93369 3.18958 6.77718 3.83464 6.63916C4.16094 6.56937 4.65391 6.4639 4.76016 6.33082C4.86849 6.19515 4.86224 5.68864 4.85807 5.35348C4.84974 4.69645 4.84062 3.95166 5.3526 3.54254C5.86276 3.13525 6.58516 3.30869 7.22214 3.46181C7.55 3.54046 8.04427 3.65947 8.20338 3.58291C8.35391 3.51025 8.5651 3.05661 8.70495 2.75609C8.98437 2.15556 9.30104 1.4751 9.94844 1.32796C10.575 1.18577 11.1458 1.65088 11.6479 2.06181C11.9284 2.29124 12.3125 2.6053 12.4977 2.6053C12.6828 2.6053 13.0669 2.29124 13.3471 2.06207C13.8497 1.65088 14.4193 1.18473 15.0469 1.32796C15.694 1.4751 16.0109 2.15582 16.2906 2.75635C16.4305 3.05661 16.6417 3.51051 16.7922 3.58317C16.9518 3.65999 17.4458 3.54072 17.7732 3.46207C18.4104 3.30895 19.1326 3.13551 19.643 3.5428C20.1552 3.95192 20.1461 4.69671 20.1375 5.354C20.1333 5.68916 20.1271 6.19567 20.2349 6.33082C20.3414 6.4639 20.8344 6.56963 21.1607 6.63942C21.806 6.77744 22.5367 6.93369 22.8232 7.52744C23.1055 8.11233 22.776 8.77536 22.4859 9.36025C22.3352 9.66364 22.1076 10.122 22.1474 10.2978C22.1833 10.4556 22.5755 10.76 22.8349 10.9613C23.3602 11.3691 23.9557 11.8313 23.9557 12.5001C23.9557 13.1688 23.3602 13.6311 22.8346 14.0389C22.5753 14.2402 22.1831 14.5444 22.1471 14.7027C22.1073 14.8785 22.3349 15.3368 22.4854 15.6402C22.7758 16.2251 23.1049 16.8879 22.8224 17.473C22.5359 18.0665 21.8052 18.223 21.1602 18.3608C20.8339 18.4308 20.3409 18.5363 20.2344 18.6694C20.1263 18.805 20.1326 19.3116 20.1367 19.6467C20.1451 20.3035 20.1542 21.0483 19.6422 21.4574C19.132 21.8647 18.4096 21.691 17.7727 21.5381C17.4448 21.4595 16.9505 21.3399 16.7914 21.4173C16.6409 21.4897 16.4297 21.9436 16.2898 22.2438C16.0104 22.8446 15.6937 23.5251 15.0464 23.6722C14.9651 23.6907 14.8849 23.6993 14.806 23.6993ZM8.04167 20.3517C8.25755 20.3517 8.46458 20.3866 8.65547 20.4785C9.14062 20.7123 9.39896 21.2673 9.6487 21.804C9.7724 22.0696 10.0297 22.6222 10.1789 22.6561C10.3177 22.6806 10.7708 22.309 10.988 22.1313C11.4562 21.7485 11.9401 21.3527 12.4971 21.3527C13.0542 21.3527 13.5383 21.7488 14.0062 22.1313C14.2234 22.309 14.663 22.6733 14.8159 22.6561C14.9646 22.622 15.2221 22.0696 15.3456 21.804C15.5951 21.2673 15.8534 20.7129 16.3388 20.4785C16.8326 20.2402 17.4336 20.3853 18.0156 20.5251C18.2956 20.5923 18.8792 20.7326 18.9917 20.6431C19.106 20.5519 19.0984 19.9491 19.0948 19.6595C19.0872 19.0626 19.0794 18.4457 19.4201 18.0191C19.7586 17.5951 20.3599 17.4665 20.9417 17.342C21.2266 17.2811 21.819 17.1543 21.8839 17.0201C21.9443 16.8944 21.6792 16.36 21.5518 16.1032C21.2849 15.5655 21.0086 15.0092 21.131 14.4717C21.2495 13.9504 21.7305 13.5769 22.1953 13.216C22.4469 13.0212 22.9141 12.6587 22.9141 12.5001C22.9141 12.3415 22.4469 11.979 22.1958 11.7839C21.7307 11.423 21.2497 11.0498 21.1312 10.5282C21.0091 9.99072 21.2854 9.43447 21.5523 8.89671C21.6797 8.63994 21.9451 8.10582 21.8844 7.97978C21.8195 7.84541 21.2271 7.71885 20.9424 7.65791C20.3607 7.53343 19.7591 7.40478 19.4206 6.98108C19.0802 6.55478 19.088 5.9376 19.0956 5.34098C19.0992 5.0514 19.1068 4.44827 18.9924 4.35713C18.8805 4.26754 18.2966 4.40791 18.0161 4.4751C17.4344 4.61494 16.8333 4.75973 16.3393 4.52145C15.8542 4.28733 15.5958 3.73265 15.3461 3.19619C15.2224 2.93056 14.9654 2.37796 14.8159 2.34411C14.6727 2.31937 14.2237 2.69124 14.0065 2.86858C13.5385 3.25166 13.0547 3.64749 12.4977 3.64749C11.9406 3.64749 11.4568 3.2514 10.9885 2.86858C10.7714 2.69098 10.3182 2.32093 10.1789 2.34385C10.0299 2.3777 9.7724 2.9303 9.64896 3.19593C9.39922 3.73239 9.14115 4.28707 8.65599 4.52119C8.16224 4.75921 7.5612 4.61494 6.97891 4.47483C6.69896 4.40739 6.11484 4.26728 6.00286 4.35661C5.88854 4.44801 5.89609 5.05088 5.89974 5.34046C5.90729 5.93734 5.9151 6.55452 5.57448 6.98056C5.23594 7.40452 4.63464 7.53317 4.05286 7.65765C3.76797 7.71859 3.17552 7.84541 3.11068 7.97952C3.05026 8.1053 3.31536 8.63968 3.44271 8.89645C3.70964 9.43421 3.98594 9.99046 3.86354 10.528C3.74505 11.0493 3.26406 11.4228 2.79922 11.7837C2.54792 11.979 2.08073 12.3415 2.08073 12.5001C2.08073 12.6587 2.54792 13.0214 2.79896 13.2162C3.26406 13.5772 3.74505 13.9501 3.86354 14.4717C3.98568 15.0092 3.70937 15.5652 3.44245 16.1032C3.3151 16.36 3.04974 16.8941 3.11042 17.0201C3.17526 17.1548 3.76771 17.2813 4.0526 17.3423C4.63411 17.4668 5.23568 17.5954 5.57422 18.0194C5.91458 18.4457 5.90677 19.0626 5.89922 19.6595C5.89557 19.9491 5.88802 20.5522 6.00234 20.6433C6.11432 20.7316 6.69818 20.5925 6.97865 20.5251C7.33516 20.4392 7.69948 20.3517 8.04167 20.3517ZM9.21979 16.5142L16.5115 9.22249C16.7148 9.01911 16.7148 8.68942 16.5115 8.48603C16.3081 8.28265 15.9784 8.28265 15.775 8.48603L8.48333 15.7777C8.27995 15.9811 8.27995 16.3108 8.48333 16.5142C8.58516 16.616 8.71823 16.6668 8.85156 16.6668C8.9849 16.6668 9.11797 16.616 9.21979 16.5142ZM9.89323 11.7188C8.88828 11.7188 8.07031 10.9011 8.07031 9.89593C8.07031 8.89072 8.88828 8.07301 9.89323 8.07301C10.8982 8.07301 11.7161 8.89072 11.7161 9.89593C11.7161 10.9011 10.8982 11.7188 9.89323 11.7188ZM9.89323 9.11468C9.4625 9.11468 9.11198 9.4652 9.11198 9.89593C9.11198 10.3267 9.4625 10.6772 9.89323 10.6772C10.324 10.6772 10.6745 10.3267 10.6745 9.89593C10.6745 9.4652 10.324 9.11468 9.89323 9.11468ZM15.1016 16.9272C14.0966 16.9272 13.2786 16.1092 13.2786 15.1043C13.2786 14.0993 14.0966 13.2813 15.1016 13.2813C16.1065 13.2813 16.9245 14.0993 16.9245 15.1043C16.9245 16.1092 16.1065 16.9272 15.1016 16.9272ZM15.1016 14.323C14.6708 14.323 14.3203 14.6735 14.3203 15.1043C14.3203 15.535 14.6708 15.8855 15.1016 15.8855C15.5323 15.8855 15.8828 15.535 15.8828 15.1043C15.8828 14.6735 15.5323 14.323 15.1016 14.323Z" fill="#599A39"/>
</svg>