<svg width="40" height="40" viewBox="0 0 40 40" fill="none" xmlns="http://www.w3.org/2000/svg">
    <path d="M36.4795 0H22.3516C21.7044 0 21.1797 0.524687 21.1797 1.17188V38.8281C21.1797 39.4753 21.7044 40 22.3516 40H36.4795C37.1266 40 37.6513 39.4753 37.6513 38.8281V1.17188C37.6513 0.524687 37.1266 0 36.4795 0ZM35.3076 37.6562H32.9766V24.5058C32.9766 23.8586 32.4519 23.3339 31.8047 23.3339C31.1575 23.3339 30.6328 23.8586 30.6328 24.5058V37.6562H28.2102L28.1982 18.5295C28.1982 17.8617 28.7414 17.3185 29.4091 17.3185C30.0769 17.3185 30.6201 17.8617 30.6201 18.5295C30.6201 18.853 30.4941 19.157 30.2654 19.3858C29.8077 19.8434 29.8077 20.5854 30.2654 21.043C30.723 21.5006 31.465 21.5006 31.9227 21.043C32.5941 20.3716 32.9638 19.479 32.9638 18.5295C32.9638 16.5694 31.3692 14.9748 29.4091 14.9748C27.4491 14.9748 25.8545 16.5694 25.8545 18.5302L25.8665 37.6562H23.5234V18.1416C23.6782 15.783 25.2362 13.7258 27.4979 12.9486C28.11 12.7384 28.4357 12.0716 28.2254 11.4595C28.0152 10.8474 27.3484 10.5215 26.7363 10.732C25.4932 11.1591 24.4026 11.8634 23.5234 12.7612V2.34375H25.9453V7.10469C25.9453 7.75188 26.47 8.27656 27.1172 8.27656C27.7644 8.27656 28.2891 7.75188 28.2891 7.10469V2.34375H30.6328V12.1828C30.6328 12.83 31.1575 13.3547 31.8047 13.3547C32.4519 13.3547 32.9766 12.83 32.9766 12.1828V2.34375H35.3076V37.6562Z" fill="#599A39"/>
    <path d="M18.8154 1.17188C18.8154 0.524687 18.2907 0 17.6435 0H3.51562C2.86844 0 2.34375 0.524687 2.34375 1.17188V38.8281C2.34375 39.4753 2.86844 40 3.51562 40H17.6435C18.2907 40 18.8154 39.4753 18.8154 38.8281V1.17188ZM14.0498 37.6562V32.8953C14.0498 32.2481 13.5251 31.7234 12.8779 31.7234C12.2307 31.7234 11.706 32.2481 11.706 32.8953V37.6562H9.36227V27.8172C9.36227 27.17 8.83758 26.6453 8.19039 26.6453C7.5432 26.6453 7.01852 27.17 7.01852 27.8172V37.6562H4.6875V2.34375H7.01852V15.4942C7.01852 16.1414 7.5432 16.6661 8.19039 16.6661C8.83758 16.6661 9.36227 16.1414 9.36227 15.4942V2.34375H11.7848L11.7969 21.4705C11.7969 22.1383 11.2537 22.6815 10.5859 22.6815C9.9182 22.6815 9.375 22.1383 9.375 21.4705C9.375 21.147 9.50094 20.843 9.72969 20.6142C10.1873 20.1566 10.1873 19.4146 9.72969 18.957C9.27211 18.4994 8.53008 18.4994 8.07242 18.957C7.40102 19.6284 7.03125 20.5211 7.03125 21.4705C7.03125 23.4306 8.62586 25.0252 10.5859 25.0252C12.546 25.0252 14.1406 23.4306 14.1406 21.4698L14.1286 2.34375H16.4716V21.8584C16.3169 24.217 14.7589 26.2742 12.4972 27.0514C11.8851 27.2616 11.5594 27.9284 11.7697 28.5405C11.9366 29.0265 12.3913 29.3319 12.8779 29.3319C13.0041 29.3319 13.1327 29.3113 13.2588 29.268C14.5019 28.8409 15.5925 28.1366 16.4716 27.2388V37.6562H14.0498Z" fill="#599A39"/>
</svg>