<svg width="51" height="50" viewBox="0 0 51 50" fill="none" xmlns="http://www.w3.org/2000/svg">
    <g clip-path="url(#clip0_1879_63555)">
        <path d="M50.0618 10.7808C50.0573 10.708 50.0431 10.6356 50.019 10.5668C50.0101 10.54 50.0032 10.5143 49.9918 10.4883C49.9511 10.3975 49.8945 10.3149 49.825 10.2441L39.825 0.244141C39.7542 0.174154 39.6711 0.117594 39.58 0.0773112C39.5552 0.0659179 39.5299 0.0590006 39.5043 0.0500489C39.4335 0.0256348 39.3603 0.0109864 39.2858 0.00651042C39.2716 0.00935873 39.2565 0 39.239 0H14.239C11.9392 0.00284831 10.0752 1.86646 10.0723 4.16667V10.2999C4.34359 12.8263 0.646484 18.4969 0.646484 24.7583C0.646484 31.0197 4.34359 36.6903 10.0723 39.2167V45.8333C10.0752 48.1335 11.9392 49.9972 14.239 50H45.9057C48.2059 49.9972 50.0699 48.1335 50.0723 45.8333V10.8333C50.0723 10.815 50.0634 10.7992 50.0618 10.7808ZM47.2273 10H40.9057C40.4455 10 40.0723 9.62687 40.0723 9.16667V2.84505L47.2273 10ZM2.33065 24.7583C2.32577 20.9993 3.81665 17.3934 6.47453 14.7355C9.13241 12.0776 12.7388 10.5868 16.4973 10.5916C16.9709 10.5916 17.4409 10.6148 17.9048 10.66C24.3485 11.2968 29.5344 16.2325 30.489 22.6367C30.5997 23.3386 30.6579 24.0479 30.6632 24.7583C30.6693 27.4272 29.9149 30.0423 28.4891 32.2982C27.3583 34.1007 25.8345 35.6242 24.0315 36.7542C19.6659 39.4958 14.1556 39.6497 9.64388 37.1554C5.13216 34.6615 2.33146 29.9133 2.33065 24.7583ZM26.1759 37.2766C26.2898 37.1883 26.4025 37.1008 26.514 37.0101C26.9254 36.6789 27.3193 36.3269 27.6948 35.9558C28.0659 35.5802 28.4179 35.1868 28.7491 34.7758C28.8398 34.6643 28.9273 34.5508 29.0156 34.4368C29.1165 34.305 29.226 34.1801 29.3224 34.0458L36.4265 41.1584C36.8969 41.6243 37.1618 42.2591 37.1618 42.9211C37.1618 43.5836 36.8969 44.2179 36.4265 44.6842C35.4426 45.6352 33.8822 45.6352 32.8983 44.6842L25.7848 37.5834C25.9191 37.4858 26.0448 37.3775 26.1759 37.2766ZM45.9057 48.3333H14.239C12.8584 48.3333 11.739 47.2139 11.739 45.8333V39.8673C11.7907 39.884 11.8448 39.895 11.8973 39.9109C12.0308 39.9516 12.1659 39.9841 12.3009 40.0216C12.6126 40.105 12.9268 40.1884 13.2441 40.2506C13.4 40.2832 13.5558 40.3133 13.7133 40.341C14.0307 40.3967 14.3509 40.4407 14.6724 40.4777C14.816 40.494 14.9576 40.5143 15.1016 40.5265C15.5635 40.566 16.0282 40.5916 16.4973 40.5916C19.252 40.5937 21.9587 39.8726 24.3468 38.5002L31.715 45.861C32.7489 46.9926 34.3212 47.4654 35.8076 47.0911C37.2944 46.7171 38.4557 45.557 38.8309 44.0706C39.2065 42.5842 38.7353 41.0116 37.6041 39.9768L30.2392 32.6074C31.6117 30.2193 32.3331 27.5126 32.3306 24.7583C32.3306 24.2305 32.3054 23.7069 32.2542 23.1877C31.8985 19.5467 30.2868 16.1434 27.6956 13.5616C24.7322 10.5823 20.6998 8.91276 16.4973 8.92497C16.0282 8.92497 15.5635 8.95101 15.1016 8.99007C14.9576 9.00269 14.8148 9.02262 14.6715 9.03931C14.3509 9.07511 14.0323 9.12069 13.7149 9.17603C13.5566 9.20369 13.3988 9.2338 13.2417 9.26676C12.9284 9.33187 12.6175 9.40837 12.3091 9.49341C12.1707 9.53084 12.0324 9.56421 11.8924 9.60571C11.8407 9.62158 11.7882 9.63257 11.7366 9.64925V4.16667C11.7366 2.78605 12.856 1.66667 14.2366 1.66667H38.4057V9.16667C38.4057 10.5473 39.5251 11.6667 40.9057 11.6667H48.4057V45.8333C48.4057 47.2139 47.2867 48.3333 45.9057 48.3333Z" fill="#599A39"/>
        <path d="M35.0723 5.83333C35.0723 5.37313 34.6991 5 34.2389 5H15.9056C15.4454 5 15.0723 5.37313 15.0723 5.83333C15.0723 6.29354 15.4454 6.66667 15.9056 6.66667H34.2389C34.6991 6.66667 35.0723 6.29354 35.0723 5.83333Z" fill="#599A39"/>
        <path d="M44.2396 20H34.2396C33.7794 20 33.4062 20.3731 33.4062 20.8333C33.4062 21.2935 33.7794 21.6667 34.2396 21.6667H44.2396C44.6998 21.6667 45.0729 21.2935 45.0729 20.8333C45.0729 20.3731 44.6998 20 44.2396 20Z" fill="#599A39"/>
        <path d="M44.2396 25H34.2396C33.7794 25 33.4062 25.3731 33.4062 25.8333C33.4062 26.2935 33.7794 26.6667 34.2396 26.6667H44.2396C44.6998 26.6667 45.0729 26.2935 45.0729 25.8333C45.0729 25.3731 44.6998 25 44.2396 25Z" fill="#599A39"/>
        <path d="M45.0723 30.8333C45.0723 30.3731 44.6991 30 44.2389 30H33.4056C32.9454 30 32.5723 30.3731 32.5723 30.8333C32.5723 31.2935 32.9454 31.6667 33.4056 31.6667H44.2389C44.6991 31.6667 45.0723 31.2935 45.0723 30.8333Z" fill="#599A39"/>
        <path d="M45.0729 35.8333C45.0729 35.3731 44.6998 35 44.2396 35H36.7396C36.2794 35 35.9062 35.3731 35.9062 35.8333C35.9062 36.2935 36.2794 36.6667 36.7396 36.6667H44.2396C44.6998 36.6667 45.0729 36.2935 45.0729 35.8333Z" fill="#599A39"/>
        <path d="M35.0716 10.8333C35.0716 10.3731 34.6985 10 34.2383 10H27.5716C27.1114 10 26.7383 10.3731 26.7383 10.8333C26.7383 11.2935 27.1114 11.6667 27.5716 11.6667H34.2383C34.6985 11.6667 35.0716 11.2935 35.0716 10.8333Z" fill="#599A39"/>
        <path d="M45.0729 15.8333C45.0729 15.3731 44.6998 15 44.2396 15H31.7396C31.2794 15 30.9062 15.3731 30.9062 15.8333C30.9062 16.2935 31.2794 16.6667 31.7396 16.6667H44.2396C44.6998 16.6667 45.0729 16.2935 45.0729 15.8333Z" fill="#599A39"/>
        <path d="M13.4056 20.8332H19.2389C19.6991 20.8332 20.0723 20.46 20.0723 19.9998C20.0723 19.5396 19.6991 19.1665 19.2389 19.1665H13.4056C12.9454 19.1665 12.5723 19.5396 12.5723 19.9998C12.5723 20.46 12.9454 20.8332 13.4056 20.8332Z" fill="#599A39"/>
        <path d="M23.4049 24.9998C23.4049 24.5396 23.0318 24.1665 22.5716 24.1665H10.0716C9.61141 24.1665 9.23828 24.5396 9.23828 24.9998C9.23828 25.46 9.61141 25.8332 10.0716 25.8332H22.5716C23.0318 25.8332 23.4049 25.46 23.4049 24.9998Z" fill="#599A39"/>
        <path d="M19.2389 29.1665H13.4056C12.9454 29.1665 12.5723 29.5396 12.5723 29.9998C12.5723 30.46 12.9454 30.8332 13.4056 30.8332H19.2389C19.6991 30.8332 20.0723 30.46 20.0723 29.9998C20.0723 29.5396 19.6991 29.1665 19.2389 29.1665Z" fill="#599A39"/>
        <path d="M22.4296 35.75C24.462 34.6676 26.1474 33.0327 27.2912 31.0344C27.3571 30.9193 27.4287 30.8078 27.4906 30.691C27.5227 30.6308 27.548 30.5685 27.5789 30.5083C27.7054 30.265 27.8287 30.0216 27.9378 29.7726C28.0472 29.5236 28.1331 29.2868 28.2222 29.0418C28.2478 28.971 28.2804 28.9019 28.3056 28.8302C30.4248 22.6677 27.4544 15.9107 21.4811 13.3062C15.5074 10.7016 8.53511 13.1235 5.46219 18.8701C4.49499 20.6804 3.99125 22.7023 3.99613 24.7551C3.9884 29.1594 6.30163 33.2419 10.0838 35.4985C13.8659 37.7556 18.5571 37.8529 22.4296 35.7549V35.75ZM11.3045 34.2652C10.3975 33.7708 9.5666 33.1483 8.83703 32.4167C8.33085 31.9109 7.87552 31.3571 7.47717 30.7626C7.28023 30.468 7.09916 30.1657 6.93273 29.8552C4.4246 25.1193 5.75353 19.2612 10.0598 16.0715C14.366 12.8818 20.3572 13.318 24.1564 17.0977C27.5211 20.4941 28.278 25.6877 26.0229 29.9032V29.9102C25.0293 31.7693 23.5058 33.2915 21.6463 34.2843C18.4204 36.0369 14.5251 36.0308 11.3045 34.2685V34.2652Z" fill="#599A39"/>
        <path d="M45.9056 40C45.4454 40 45.0723 40.3731 45.0723 40.8333V44.1667C45.0723 44.6269 44.6991 45 44.2389 45H40.9056C40.4454 45 40.0723 45.3731 40.0723 45.8333C40.0723 46.2935 40.4454 46.6667 40.9056 46.6667H44.2389C45.62 46.6667 46.7389 45.5473 46.7389 44.1667V40.8333C46.7389 40.3731 46.3658 40 45.9056 40Z" fill="#599A39"/>
    </g>
    <defs>
        <clipPath id="clip0_1879_63555">
            <rect width="50" height="50" fill="white" transform="translate(0.333984)"/>
        </clipPath>
    </defs>
</svg>