<svg width="50" height="50" viewBox="0 0 50 50" fill="none" xmlns="http://www.w3.org/2000/svg">
    <path d="M2.27167 21.8497H6.46597C6.71405 22.7443 7.0714 23.6049 7.53094 24.4114L4.56226 27.3789C4.4205 27.5207 4.34077 27.7129 4.34077 27.9137C4.34077 28.1146 4.4205 28.3068 4.56226 28.4486L7.76956 31.6568C8.06489 31.9515 8.54333 31.9515 8.83866 31.6568L11.8076 28.6875C12.6142 29.1467 13.4739 29.5044 14.3684 29.7522V33.9465C14.3684 34.3641 14.7069 34.7025 15.1245 34.7025H19.6608C20.0784 34.7025 20.4168 34.3641 20.4168 33.9465V29.7522C21.3114 29.5044 22.1711 29.1467 22.9777 28.6875L25.9466 31.6568C26.2467 31.9403 26.716 31.9403 27.0157 31.6568L30.2236 28.4486C30.3654 28.3068 30.4451 28.1146 30.4451 27.9137C30.4451 27.7129 30.3654 27.5207 30.2236 27.3789L27.2543 24.4114C27.7139 23.6049 28.0712 22.7443 28.3193 21.8497H32.5136C32.9312 21.8497 33.2697 21.5112 33.2697 21.0936V16.5574C33.2697 16.1401 32.9312 15.8013 32.5136 15.8013H28.3193C28.0712 14.907 27.7139 14.0464 27.2543 13.2399L30.223 10.2724C30.3648 10.1307 30.4445 9.93839 30.4445 9.73756C30.4445 9.53674 30.3648 9.34448 30.223 9.20272L27.0157 5.99453C26.7204 5.6995 26.242 5.6995 25.9466 5.99453L22.9777 8.9638C22.1711 8.50485 21.3111 8.14721 20.4168 7.89913V3.70453C20.4168 3.28723 20.0784 2.94849 19.6608 2.94849H15.1245C14.7069 2.94849 14.3684 3.28723 14.3684 3.70453V7.89913C13.4742 8.14721 12.6142 8.50485 11.8076 8.9638L8.83866 5.99453C8.53861 5.71102 8.06932 5.71102 7.76956 5.99453L4.56167 9.20272C4.41991 9.34448 4.34017 9.53674 4.34017 9.73756C4.34017 9.93839 4.41991 10.1307 4.56167 10.2724L7.53094 13.2399C7.0714 14.0464 6.71405 14.907 6.46597 15.8013H2.27167C1.85407 15.8013 1.51562 16.1401 1.51562 16.5574V21.0936C1.51562 21.5112 1.85407 21.8497 2.27167 21.8497ZM3.02772 17.3134H7.05752C7.4128 17.3134 7.72024 17.0662 7.79614 16.7192C8.04422 15.5869 8.49283 14.5078 9.1207 13.5332C9.31237 13.2343 9.26985 12.8418 9.01852 12.5905L6.16532 9.73727L8.30411 7.59818L11.1567 10.4514C11.408 10.7033 11.8008 10.7458 12.1003 10.5539C13.0752 9.92628 14.154 9.47767 15.2863 9.2293C15.6331 9.1531 15.8805 8.84566 15.8805 8.49038V4.46058H18.9047V8.49038C18.9047 8.84566 19.1522 9.1531 19.4989 9.2293C20.6312 9.47767 21.7101 9.92628 22.685 10.5539C22.9844 10.7458 23.3772 10.7033 23.6286 10.4514L26.4812 7.59818L28.6194 9.73727L25.7668 12.5896C25.5148 12.8412 25.4726 13.234 25.6646 13.5332C26.2925 14.5083 26.7405 15.5872 26.9883 16.7198C27.0644 17.0668 27.3719 17.3143 27.7269 17.3143H31.7576V20.3385H27.7269C27.3719 20.3385 27.0644 20.5857 26.9883 20.9327C26.7405 22.065 26.2922 23.1438 25.6646 24.1178C25.4729 24.417 25.5154 24.8095 25.7668 25.0608L28.62 27.9134L26.4812 30.0531L23.6286 27.1996C23.3772 26.948 22.9844 26.9055 22.685 27.0974C21.7107 27.7253 20.6321 28.1739 19.4998 28.422C19.1525 28.4976 18.9047 28.8053 18.9047 29.1606V33.1904H15.8805V29.1606C15.8805 28.8053 15.6328 28.4976 15.2855 28.422C14.1532 28.1739 13.0746 27.7253 12.1003 27.0974C11.8008 26.9055 11.408 26.948 11.1567 27.1996L8.30411 30.0531L6.16591 27.914L9.01852 25.0614C9.27044 24.8101 9.31267 24.4173 9.1207 24.1178C8.49283 23.143 8.04422 22.0638 7.79614 20.9312C7.71995 20.5842 7.4128 20.3376 7.05752 20.3376H3.02772V17.3134Z" fill="#599A39"/>
    <path d="M17.3921 24.8739C20.7326 24.8739 23.4405 22.1663 23.4405 18.8255C23.4405 15.485 20.7326 12.7771 17.3921 12.7771C14.0516 12.7771 11.3438 15.485 11.3438 18.8255C11.3473 22.1642 14.0534 24.8703 17.3921 24.8739ZM17.3921 14.2892C19.8971 14.2892 21.9284 16.3205 21.9284 18.8255C21.9284 21.3308 19.8971 23.3618 17.3921 23.3618C14.8871 23.3618 12.8558 21.3308 12.8558 18.8255C12.8585 16.3211 14.8877 14.2919 17.3921 14.2892Z" fill="#599A39"/>
    <path d="M17.3868 27.142C21.9798 27.142 25.7034 23.4188 25.7034 18.8255C25.7034 14.2325 21.9798 10.509 17.3868 10.509C12.7939 10.509 9.07031 14.2325 9.07031 18.8255C9.07592 23.4164 12.7959 27.1367 17.3868 27.142ZM17.3868 12.0211C21.1449 12.0211 24.1913 15.0674 24.1913 18.8255C24.1913 22.5836 21.1449 25.6299 17.3868 25.6299C13.6288 25.6299 10.5824 22.5836 10.5824 18.8255C10.5865 15.0695 13.6305 12.0252 17.3868 12.0211Z" fill="#599A39"/>
    <path d="M44.6104 37.7267V31.6783C44.6104 31.261 44.2719 30.9223 43.8543 30.9223H42.3422V24.8739C42.3422 24.4566 42.0038 24.1179 41.5862 24.1179H34.7818C34.3642 24.1179 34.0257 24.4566 34.0257 24.8739V30.9223H30.2455C29.8279 30.9223 29.4894 31.261 29.4894 31.6783V37.7267H5.29587C3.20906 37.7294 1.51828 39.4202 1.51562 41.507V43.0191C1.51828 45.1062 3.20906 46.797 5.29587 46.7993H44.6104C46.6972 46.797 48.388 45.1062 48.3906 43.0191V41.507C48.388 39.4202 46.6972 37.7294 44.6104 37.7267ZM43.0983 37.7267H37.806V32.4344H43.0983V37.7267ZM35.5378 25.63H40.8301V30.9223H35.5378V25.63ZM31.0015 32.4344H36.2939V37.7267H31.0015V32.4344ZM46.8785 43.0191C46.8785 44.2719 45.8629 45.2872 44.6104 45.2872H5.29587C4.04337 45.2872 3.02772 44.2719 3.02772 43.0191V41.507C3.02772 40.2545 4.04337 39.2388 5.29587 39.2388H44.6104C45.8629 39.2388 46.8785 40.2545 46.8785 41.507V43.0191Z" fill="#599A39"/>
    <path d="M24.9478 39.9949C23.6953 39.9949 22.6797 41.0105 22.6797 42.263C22.6797 43.5158 23.6953 44.5312 24.9478 44.5312C26.2003 44.5312 27.216 43.5158 27.216 42.263C27.216 41.0105 26.2003 39.9949 24.9478 39.9949ZM24.9478 43.0191C24.5302 43.0191 24.1918 42.6806 24.1918 42.263C24.1918 41.8457 24.5302 41.507 24.9478 41.507C25.3654 41.507 25.7039 41.8457 25.7039 42.263C25.7039 42.6806 25.3654 43.0191 24.9478 43.0191Z" fill="#599A39"/>
    <path d="M17.3853 39.9949C16.1328 39.9949 15.1172 41.0105 15.1172 42.263C15.1172 43.5158 16.1328 44.5312 17.3853 44.5312C18.6378 44.5312 19.6535 43.5158 19.6535 42.263C19.6535 41.0105 18.6378 39.9949 17.3853 39.9949ZM17.3853 43.0191C16.9677 43.0191 16.6293 42.6806 16.6293 42.263C16.6293 41.8457 16.9677 41.507 17.3853 41.507C17.8029 41.507 18.1414 41.8457 18.1414 42.263C18.1414 42.6806 17.8029 43.0191 17.3853 43.0191Z" fill="#599A39"/>
    <path d="M32.5103 39.9949C31.2578 39.9949 30.2422 41.0105 30.2422 42.263C30.2422 43.5158 31.2578 44.5312 32.5103 44.5312C33.7628 44.5312 34.7785 43.5158 34.7785 42.263C34.7785 41.0105 33.7628 39.9949 32.5103 39.9949ZM32.5103 43.0191C32.0927 43.0191 31.7543 42.6806 31.7543 42.263C31.7543 41.8457 32.0927 41.507 32.5103 41.507C32.9279 41.507 33.2664 41.8457 33.2664 42.263C33.2664 42.6806 32.9279 43.0191 32.5103 43.0191Z" fill="#599A39"/>
    <path d="M9.83065 39.9949C8.57814 39.9949 7.5625 41.0105 7.5625 42.263C7.5625 43.5158 8.57814 44.5312 9.83065 44.5312C11.0831 44.5312 12.0988 43.5158 12.0988 42.263C12.0988 41.0105 11.0831 39.9949 9.83065 39.9949ZM9.83065 43.0191C9.41305 43.0191 9.0746 42.6806 9.0746 42.263C9.0746 41.8457 9.41305 41.507 9.83065 41.507C10.2482 41.507 10.5867 41.8457 10.5867 42.263C10.5867 42.6806 10.2482 43.0191 9.83065 43.0191Z" fill="#599A39"/>
    <path d="M40.0728 39.9949C38.8203 39.9949 37.8047 41.0105 37.8047 42.263C37.8047 43.5158 38.8203 44.5312 40.0728 44.5312C41.3253 44.5312 42.341 43.5158 42.341 42.263C42.341 41.0105 41.3253 39.9949 40.0728 39.9949ZM40.0728 43.0191C39.6552 43.0191 39.3168 42.6806 39.3168 42.263C39.3168 41.8457 39.6552 41.507 40.0728 41.507C40.4904 41.507 40.8289 41.8457 40.8289 42.263C40.8289 42.6806 40.4904 43.0191 40.0728 43.0191Z" fill="#599A39"/>
</svg>