<svg width="50" height="50" viewBox="0 0 50 50" fill="none" xmlns="http://www.w3.org/2000/svg">
    <g clip-path="url(#clip0_1848_45762)">
        <path d="M0.161182 4.58663L3.49578 10.4218C3.60826 10.619 3.79653 10.7617 4.01669 10.8169L7.1277 11.5946L17.7978 22.2647L18.9768 21.0861L8.13967 10.2493C8.03302 10.1424 7.89928 10.0666 7.75285 10.0299L4.76358 9.27989L1.9245 4.30886L4.35858 1.87478L9.33168 4.7166L10.082 7.70587C10.1183 7.85264 10.1945 7.98673 10.3011 8.09338L21.1382 18.9305L22.3169 17.7515L11.6468 7.0814L10.869 3.97211C10.8138 3.75161 10.6711 3.563 10.474 3.45017L4.63841 0.115917C4.31297 -0.0692627 3.90352 -0.0143947 3.6381 0.25L0.303839 3.5846C0.0356717 3.84831 -0.0226255 4.25845 0.161182 4.58663Z" fill="#599A39"/>
        <path d="M34.8151 16.4292L16.4759 34.7688L15.2969 33.5898L33.6365 15.2505L34.8151 16.4292Z" fill="#599A39"/>
        <path d="M13.2693 35.4176C13.1184 35.1666 12.8475 35.0133 12.5547 35.0133H7.55309C7.26058 35.0133 6.98933 35.1666 6.83878 35.4176L4.33783 39.5855C4.17906 39.8496 4.17906 40.1798 4.33783 40.4442L6.83878 44.6121C6.98933 44.8628 7.26058 45.0164 7.55309 45.0164H12.5547C12.8475 45.0164 13.1184 44.8628 13.2693 44.6121L15.7699 40.4442C15.9287 40.1798 15.9287 39.8496 15.7699 39.5855L13.2693 35.4176ZM12.0831 43.3491H8.02496L6.02433 40.0149L8.02496 36.6803H12.0831L14.0838 40.0149L12.0831 43.3491Z" fill="#599A39"/>
        <path d="M40.06 20.0083C45.5657 20.0268 50.0443 15.5784 50.0628 10.0727C50.0655 9.2346 49.9627 8.39992 49.7566 7.58753C49.6455 7.1407 49.1931 6.86876 48.7463 6.97987C48.5995 7.01656 48.4658 7.09235 48.3588 7.199L43.1697 12.3847L39.0525 11.0127L37.6794 6.89654L42.8686 1.70637C43.194 1.3806 43.1937 0.852835 42.8679 0.527399C42.7606 0.420064 42.6254 0.343934 42.4776 0.307584C37.1383 -1.04457 31.7143 2.1875 30.3621 7.52649C30.1567 8.33648 30.0542 9.1691 30.0569 10.0048C30.059 10.6612 30.1265 11.3155 30.2596 11.9581L12.0033 30.2141C11.3607 30.0813 10.7063 30.0138 10.0503 30.0114C4.52547 30.0114 0.046875 34.49 0.046875 40.0148C0.046875 45.5394 4.52547 50.018 10.0503 50.018C15.5749 50.018 20.0534 45.5394 20.0534 40.0148C20.0514 39.3585 19.9835 38.7042 19.8508 38.0615L24.2214 33.691L26.1328 35.6024C26.4586 35.9279 26.986 35.9279 27.3118 35.6024L27.7284 35.1854C28.094 34.8223 28.6849 34.8223 29.0504 35.1854C29.4156 35.5496 29.4163 36.1408 29.0521 36.506C29.0518 36.5064 29.0511 36.5071 29.0504 36.5078L28.6338 36.9244C28.3083 37.2498 28.3083 37.7776 28.6338 38.103L38.5779 48.0472C41.1934 50.6867 45.4532 50.7059 48.0927 48.0904C50.7318 45.4749 50.751 41.2147 48.1356 38.5756C48.1215 38.5612 48.1071 38.5468 48.0927 38.5324L38.1486 28.5886C37.8231 28.2632 37.2954 28.2632 36.9699 28.5886L36.5533 29.0052C36.1874 29.3687 35.5969 29.3687 35.231 29.0052C34.8661 28.6411 34.8651 28.0499 35.2292 27.685C35.2299 27.6843 35.2306 27.684 35.231 27.6833L35.648 27.2663C35.9734 26.9408 35.9734 26.4131 35.648 26.0876L33.7365 24.1762L38.1071 19.8056C38.7497 19.9383 39.404 20.0062 40.06 20.0083ZM43.3353 48.351C42.7297 48.35 42.1292 48.2406 41.5624 48.0276L48.0728 41.5169C49.0553 44.1303 47.7333 47.0451 45.1199 48.0276C44.5496 48.2419 43.945 48.3517 43.3353 48.351ZM33.8915 26.6854C32.9683 27.7865 33.1131 29.4277 34.2142 30.3505C35.1819 31.1616 36.5924 31.1609 37.5591 30.3481L46.9141 39.7114C47.0156 39.8132 47.1106 39.9205 47.2025 40.0296L40.0751 47.1569C39.9657 47.0654 39.8584 46.9704 39.7565 46.8685L30.3943 37.5057C31.3175 36.4045 31.1728 34.7633 30.0717 33.8405C29.1039 33.0291 27.6931 33.0302 26.7264 33.8425L25.3928 32.5089L32.5575 25.3548L33.8915 26.6854ZM37.2576 18.3012L18.3471 37.208C18.1396 37.4151 18.0563 37.7159 18.1269 38.0002C19.2706 42.4914 16.5566 47.0595 12.065 48.2029C7.57373 49.3465 3.00563 46.6326 1.86198 42.141C0.718665 37.6497 3.43257 33.0816 7.9242 31.9379C9.28287 31.5923 10.7063 31.5923 12.065 31.9379C12.3493 32.0075 12.6494 31.9242 12.8572 31.7181L31.7633 12.811C31.9704 12.6038 32.0538 12.3031 31.9824 12.0192C30.8467 7.58033 33.5242 3.06127 37.963 1.92516C38.8018 1.71083 39.6694 1.62853 40.5336 1.68237L36.1363 6.08141C35.913 6.30431 35.8349 6.63455 35.9346 6.93392L37.6016 11.9358C37.6849 12.1844 37.8804 12.3799 38.1294 12.4626L43.1313 14.1299C43.4303 14.2296 43.7605 14.1518 43.9838 13.9289L48.3811 9.53157C48.391 9.69069 48.3962 9.84809 48.3962 10.0048C48.4195 14.5853 44.7255 18.3173 40.1451 18.341C39.4369 18.3444 38.7312 18.2573 38.0453 18.0817C37.7611 18.0107 37.4603 18.0937 37.2532 18.3008H37.2576V18.3012Z" fill="#599A39"/>
        <path d="M43.1554 41.926L41.9764 43.1049L33.6406 34.7691L34.8193 33.5901L43.1554 41.926Z" fill="#599A39"/>
    </g>
    <defs>
        <clipPath id="clip0_1848_45762">
            <rect width="50" height="50" fill="white"/>
        </clipPath>
    </defs>
</svg>