<svg width="40" height="40" viewBox="0 0 40 40" fill="none" xmlns="http://www.w3.org/2000/svg">
    <g clip-path="url(#clip0_1919_64738)">
        <path d="M25.0234 3.59961C25.6706 3.59961 26.1953 3.07494 26.1953 2.42773C26.1953 1.78053 25.6706 1.25586 25.0234 1.25586C24.3762 1.25586 23.8516 1.78053 23.8516 2.42773C23.8516 3.07494 24.3762 3.59961 25.0234 3.59961Z" fill="#599A39"/>
        <path d="M4.9375 4.22656H5.64844V4.9375C5.64844 5.58469 6.17313 6.10938 6.82031 6.10938C7.4675 6.10938 7.99219 5.58469 7.99219 4.9375V4.22656H8.7032C9.35039 4.22656 9.87508 3.70187 9.87508 3.05469C9.87508 2.4075 9.35039 1.88281 8.7032 1.88281H7.99219V1.17188C7.99219 0.524687 7.4675 0 6.82031 0C6.17313 0 5.64844 0.524687 5.64844 1.17188V1.88281H4.9375C4.29031 1.88281 3.76562 2.4075 3.76562 3.05469C3.76562 3.70187 4.29031 4.22656 4.9375 4.22656Z" fill="#599A39"/>
        <path d="M35.0651 7.36461C37.0955 7.36461 38.7474 5.71273 38.7474 3.68234C38.7474 1.65195 37.0955 0 35.0651 0C33.0347 0 31.3828 1.65187 31.3828 3.68227C31.3828 5.71266 33.0347 7.36461 35.0651 7.36461ZM35.0651 2.34375C35.8031 2.34375 36.4037 2.94422 36.4037 3.68227C36.4037 4.42031 35.8031 5.02078 35.0651 5.02078C34.327 5.02078 33.7266 4.42031 33.7266 3.68227C33.7266 2.94422 34.327 2.34375 35.0651 2.34375Z" fill="#599A39"/>
        <path d="M37.5756 15.0625H33.7266V13.724C33.7266 13.0768 33.202 12.5521 32.5548 12.5521H31.2162V11.8412C31.2162 9.46023 29.2902 7.53125 26.9062 7.53125C24.8668 7.53125 23.7558 8.88875 23.5935 9.0832C22.9455 8.39625 22.1032 7.89469 21.1553 7.66711C20.9488 5.48156 19.1033 3.76562 16.8646 3.76562C14.6259 3.76562 12.7805 5.48125 12.574 7.6668C10.4057 8.18688 8.78914 10.142 8.78914 12.4675V12.5521H7.45055C6.80336 12.5521 6.27867 13.0768 6.27867 13.724V15.0625H2.42969C1.7825 15.0625 1.25781 15.5872 1.25781 16.2344C1.25781 21.5545 4.30133 26.176 8.7382 28.4523L10.0534 38.9735C10.1266 39.5599 10.6252 40.0001 11.2162 40.0001H28.7891C29.3801 40.0001 29.8787 39.56 29.952 38.9735L31.2671 28.4523C35.704 26.1761 38.7475 21.5545 38.7475 16.2344C38.7475 15.5872 38.2228 15.0625 37.5756 15.0625ZM24.9402 11.8412C24.9402 10.7586 25.8201 9.875 26.9062 9.875C27.9955 9.875 28.8724 10.7615 28.8724 11.8412V12.5521H24.9402V11.8412ZM11.1329 12.4675C11.1329 11.038 12.2959 9.875 13.7266 9.875C14.3738 9.875 14.8985 9.35031 14.8985 8.70312V8.07555C14.8985 6.99141 15.7805 6.10937 16.8646 6.10937C17.9487 6.10937 18.8308 6.99141 18.8308 8.07555V8.70312C18.8308 9.35031 19.3555 9.875 20.0027 9.875C21.4329 9.875 22.5964 11.0386 22.5964 12.4688V12.552H11.1329V12.4675ZM3.66148 17.4062H6.27867V18.7448C6.27867 19.392 6.80336 19.9166 7.45055 19.9166H7.67133L8.36789 25.4895C5.78367 23.6377 4.00328 20.7322 3.66148 17.4062ZM27.7546 37.6562H12.2507L11.223 29.4338C12.056 29.6713 12.921 29.8323 13.81 29.9078V31.2969C13.81 31.9441 14.3347 32.4688 14.9819 32.4688H25.0235C25.6707 32.4688 26.1954 31.9441 26.1954 31.2969V29.9078C27.0844 29.8323 27.9494 29.6713 28.7824 29.4338L27.7546 37.6562ZM16.1537 30.125V27.4479H23.8516V30.125H16.1537ZM29.1045 26.8571C28.1858 27.2112 27.2102 27.4497 26.1954 27.554V26.276C26.1954 25.6288 25.6707 25.1041 25.0235 25.1041H14.9818C14.3346 25.1041 13.8099 25.6288 13.8099 26.276V27.554C12.7951 27.4497 11.8195 27.2112 10.9009 26.8571L10.0334 19.9166H29.972L29.1045 26.8571ZM31.3829 17.5729H8.62242V14.8958H31.3829V17.5729ZM31.6374 25.4895L32.334 19.9166H32.5548C33.202 19.9166 33.7266 19.392 33.7266 18.7448V17.4062H36.3438C36.002 20.7322 34.2216 23.6377 31.6374 25.4895Z" fill="#599A39"/>
    </g>
    <defs>
        <clipPath id="clip0_1919_64738">
            <rect width="40" height="40" fill="white"/>
        </clipPath>
    </defs>
</svg>