<svg width="40" height="40" viewBox="0 0 40 40" fill="none" xmlns="http://www.w3.org/2000/svg">
    <g clip-path="url(#clip0_1919_64181)">
        <path d="M36.5384 19.6151H31.923V17.3074H34.6154C36.5241 17.3074 38.077 15.7546 38.077 13.8459V7.69203C38.077 5.78336 36.5241 4.23047 34.6154 4.23047H5.38461C3.47594 4.23047 1.92305 5.78328 1.92305 7.69203V13.8459C1.92305 15.7545 3.47586 17.3074 5.38461 17.3074H8.07695V19.6151H3.46156C1.55281 19.6151 0 21.1679 0 23.0766V24.6151C0 26.5238 1.55281 28.0766 3.46156 28.0766V33.0766C3.46156 34.5612 4.6693 35.7689 6.15391 35.7689H7.69234C9.17688 35.7689 10.3847 34.5612 10.3847 33.0766V28.0766H29.6155V33.0766C29.6155 34.5612 30.8232 35.7689 32.3078 35.7689H33.8462C35.3308 35.7689 36.5386 34.5612 36.5386 33.0766V28.0766C38.4473 28.0766 40.0002 26.5238 40.0002 24.6151V23.0766C40 21.1679 38.4472 19.6151 36.5384 19.6151ZM5.38461 14.9997C4.74836 14.9997 4.23078 14.4821 4.23078 13.8459V7.69203C4.23078 7.05578 4.74836 6.5382 5.38461 6.5382H34.6154C35.2516 6.5382 35.7692 7.05578 35.7692 7.69203V13.8459C35.7692 14.4821 35.2516 14.9997 34.6154 14.9997H5.38461ZM29.6154 17.3073V19.615H10.3846V17.3073H29.6154ZM8.07695 33.0766C8.07695 33.2888 7.90445 33.4613 7.69234 33.4613H6.15383C5.94172 33.4613 5.76922 33.2888 5.76922 33.0766V28.0766H8.07695V33.0766ZM34.2308 33.0766C34.2308 33.2888 34.0582 33.4613 33.8462 33.4613H32.3077C32.0956 33.4613 31.9231 33.2888 31.9231 33.0766V28.0766H34.2309V33.0766H34.2308ZM37.6923 24.6151C37.6923 25.2513 37.1748 25.7689 36.5385 25.7689H3.46156C2.82531 25.7689 2.30773 25.2513 2.30773 24.6151V23.0766C2.30773 22.4404 2.82531 21.9228 3.46156 21.9228H36.5385C37.1748 21.9228 37.6923 22.4404 37.6923 23.0766V24.6151Z" fill="#599A39"/>
    </g>
    <defs>
        <clipPath id="clip0_1919_64181">
            <rect width="40" height="40" fill="white"/>
        </clipPath>
    </defs>
</svg>