<svg width="30" height="30" viewBox="0 0 30 30" fill="none" xmlns="http://www.w3.org/2000/svg">
    <path d="M27.2905 1.29536C27.1872 1.23166 27.0683 1.19775 26.947 1.19775H7.36474C5.68121 1.19775 4.31157 2.55403 4.31157 4.21624L4.1965 21.0795H0.657589C0.294374 21.0795 0 21.3739 0 21.7371V24.7751C0.00231183 27.0061 1.81017 28.8139 4.04109 28.8165C4.0863 28.8165 4.13177 28.8119 4.1762 28.8026H20.5145C20.6118 28.8096 20.7099 28.8142 20.8088 28.8142C23.0744 28.8101 24.909 26.9729 24.9098 24.7073V14.8497H29.3423C29.7056 14.8497 29.9999 14.5553 29.9999 14.1921V4.43047C29.992 2.86073 28.8425 1.5304 27.2905 1.29536ZM1.31518 24.7754V22.395H16.7079V24.7076C16.7071 25.7379 17.0947 26.7304 17.7937 27.4874H3.95119C3.9201 27.4877 3.88928 27.49 3.85871 27.4946C2.4282 27.3973 1.31698 26.2093 1.31518 24.7754ZM23.5946 4.43047V24.7073C23.5933 25.4425 23.3013 26.1468 22.7821 26.667C22.2851 27.1769 21.6098 27.4746 20.8982 27.4972C20.8628 27.491 20.8268 27.488 20.7906 27.4877H20.5594C19.1271 27.3467 18.0326 26.1471 18.0231 24.7078V21.7371C18.0231 21.3742 17.7287 21.0795 17.3655 21.0795H5.51168L5.62675 4.22087C5.63626 3.26993 6.41355 2.50574 7.36474 2.51293H24.2478C23.8242 3.06238 23.5943 3.73666 23.5946 4.43047ZM28.6848 13.5345H24.9098V4.43047C24.927 3.40016 25.767 2.57432 26.7973 2.57432C27.8276 2.57432 28.6675 3.40016 28.6848 4.43047V13.5345Z" fill="#599A39"/>
    <path d="M8.44275 8.32153H14.6708C15.034 8.32153 15.3284 8.02715 15.3284 7.66394C15.3284 7.30072 15.034 7.00635 14.6708 7.00635H8.44275C8.07953 7.00635 7.78516 7.30072 7.78516 7.66394C7.78516 8.02715 8.07953 8.32153 8.44275 8.32153Z" fill="#599A39"/>
    <path d="M20.0605 11.708H8.44275C8.07953 11.708 7.78516 12.0024 7.78516 12.3656C7.78516 12.7286 8.07953 13.0232 8.44275 13.0232H20.0605C20.4237 13.0232 20.7181 12.7286 20.7181 12.3656C20.7181 12.0024 20.4237 11.708 20.0605 11.708Z" fill="#599A39"/>
    <path d="M20.0605 16.4097H8.44275C8.07953 16.4097 7.78516 16.7043 7.78516 17.0673C7.78516 17.4305 8.07953 17.7248 8.44275 17.7248H20.0605C20.4237 17.7248 20.7181 17.4305 20.7181 17.0673C20.7181 16.7043 20.4237 16.4097 20.0605 16.4097Z" fill="#599A39"/>
</svg>