<svg width="40" height="40" viewBox="0 0 40 40" fill="none" xmlns="http://www.w3.org/2000/svg">
    <g clip-path="url(#clip0_1919_64188)">
        <path d="M20 2.34375C24.0738 2.34539 28.0218 3.75536 31.1751 6.33475C34.3283 8.91415 36.4929 12.5043 37.302 16.497C38.1111 20.4897 37.515 24.6393 35.6147 28.2428C33.7144 31.8463 30.6268 34.682 26.875 36.2695C22.5601 38.0929 17.6975 38.1275 13.3571 36.3657C9.01662 34.6038 5.55383 31.1899 3.73047 26.875C1.90711 22.5601 1.87253 17.6975 3.63435 13.3571C5.39616 9.01662 8.81005 5.55383 13.125 3.73047C15.2999 2.81008 17.6383 2.33841 20 2.34375ZM20 0C8.95469 0 0 8.95469 0 20C0 31.0453 8.95469 40 20 40C31.0453 40 40 31.0453 40 20C40 8.95469 31.0453 0 20 0Z" fill="#599A39"/>
        <path d="M29.7719 26.0469L26.3344 22.6094C27.3413 20.7094 27.633 18.5111 27.1563 16.4142C26.6796 14.3174 25.4662 12.4613 23.7368 11.1834C22.0074 9.90544 19.8767 9.29063 17.7324 9.45071C15.588 9.61079 13.5723 10.5351 12.0517 12.0557C10.5312 13.5762 9.60688 15.5919 9.4468 17.7363C9.28672 19.8807 9.90154 22.0113 11.1794 23.7407C12.4574 25.4701 14.3135 26.6835 16.4103 27.1602C18.5072 27.6369 20.7055 27.3452 22.6055 26.3383L26.043 29.7758C26.5373 30.2702 27.2079 30.5479 27.907 30.5479C28.6062 30.5479 29.2767 30.2702 29.7711 29.7758C30.2655 29.2814 30.5432 28.6109 30.5432 27.9117C30.5432 27.2125 30.2655 26.542 29.7711 26.0476L29.7719 26.0469ZM11.5601 18.4187C11.5601 17.0629 11.9622 15.7374 12.7155 14.61C13.4688 13.4827 14.5395 12.604 15.7921 12.0851C17.0448 11.5662 18.4232 11.4305 19.753 11.695C21.0829 11.9595 22.3044 12.6124 23.2632 13.5712C24.2219 14.5299 24.8748 15.7515 25.1394 17.0813C25.4039 18.4111 25.2681 19.7895 24.7492 21.0422C24.2304 22.2949 23.3517 23.3656 22.2243 24.1189C21.0969 24.8721 19.7715 25.2742 18.4156 25.2742C16.5981 25.2719 14.8557 24.5489 13.5706 23.2638C12.2854 21.9786 11.5624 20.2362 11.5601 18.4187ZM28.2789 28.282C28.23 28.331 28.1719 28.3699 28.108 28.3964C28.044 28.4229 27.9755 28.4366 27.9062 28.4366C27.837 28.4366 27.7685 28.4229 27.7045 28.3964C27.6406 28.3699 27.5825 28.331 27.5336 28.282L24.3609 25.1101C24.6239 24.8761 24.873 24.627 25.107 24.3641L28.2789 27.5383C28.3772 27.6371 28.4323 27.7708 28.4323 27.9101C28.4323 28.0495 28.3772 28.1832 28.2789 28.282Z" fill="#599A39"/>
        <path d="M17.4437 19.0226L16.0108 17.5625C15.8147 17.3629 15.5473 17.2494 15.2675 17.2469C14.9877 17.2444 14.7183 17.3532 14.5187 17.5492C14.3191 17.7452 14.2057 18.0125 14.2032 18.2922C14.2007 18.5718 14.3094 18.8411 14.5054 19.0406L16.6929 21.2664C16.7909 21.3666 16.9079 21.4462 17.0371 21.5006C17.1663 21.5549 17.3051 21.5829 17.4452 21.5829C17.5854 21.5829 17.7241 21.5549 17.8533 21.5006C17.9825 21.4462 18.0996 21.3666 18.1976 21.2664L22.3382 17.0476C22.5342 16.8481 22.6429 16.5789 22.6404 16.2992C22.6379 16.0195 22.5244 15.7522 22.3249 15.5562C22.1252 15.3602 21.8559 15.2515 21.5761 15.2539C21.2963 15.2564 21.0289 15.3699 20.8327 15.5695L17.4437 19.0226Z" fill="#599A39"/>
    </g>
    <defs>
        <clipPath id="clip0_1919_64188">
            <rect width="40" height="40" fill="white"/>
        </clipPath>
    </defs>
</svg>