<svg width="25" height="25" viewBox="0 0 25 25" fill="none" xmlns="http://www.w3.org/2000/svg">
    <g clip-path="url(#clip0_1721_100948)">
        <path d="M23.0583 9.81781C23.511 9.37131 23.6708 8.71603 23.4755 8.10768C23.2801 7.49933 22.7701 7.0643 22.1446 6.97235L16.6743 6.16805C16.567 6.15229 16.4741 6.08406 16.4261 5.98554L13.9798 0.96998C13.7 0.396363 13.1335 0.0400391 12.5013 0.0400391C11.8692 0.0400391 11.3027 0.396363 11.0229 0.96998L8.57659 5.98559C8.52849 6.08406 8.43572 6.15229 8.3283 6.1681L2.85818 6.97235C2.23259 7.0643 1.72268 7.49933 1.52727 8.10768C1.33186 8.71603 1.49172 9.37131 1.94446 9.81781L5.90271 13.7219C5.9804 13.7986 6.01589 13.909 5.99753 14.0173L5.06311 19.5299C4.95627 20.1604 5.20754 20.7855 5.71897 21.1615C6.2304 21.5376 6.89583 21.5862 7.4553 21.2886L12.3479 18.6859C12.444 18.6348 12.5587 18.6348 12.6549 18.6859L17.5475 21.2886C17.7909 21.4181 18.0542 21.482 18.3163 21.482C18.6566 21.482 18.9948 21.3741 19.2837 21.1615C19.7951 20.7854 20.0465 20.1602 19.9396 19.5299L19.0052 14.0172C18.9868 13.909 19.0223 13.7985 19.1 13.7219L23.0583 9.81781ZM17.7053 14.2429L18.6397 19.7556C18.671 19.9401 18.5584 20.0453 18.5086 20.0819C18.4587 20.1185 18.325 20.1944 18.1613 20.1073L13.2686 17.5046C13.0284 17.3768 12.765 17.3129 12.5014 17.3129C12.2379 17.3129 11.9744 17.3768 11.7343 17.5045L6.84163 20.1072C6.67786 20.1943 6.54421 20.1184 6.49436 20.0818C6.44451 20.0452 6.33191 19.94 6.36321 19.7556L7.29763 14.2429C7.38938 13.7016 7.21218 13.1497 6.82346 12.7663L2.86521 8.86222C2.73274 8.73149 2.76272 8.57946 2.78181 8.52018C2.80081 8.46084 2.86492 8.31998 3.04797 8.2931L8.51804 7.4888C9.0551 7.40985 9.51922 7.06874 9.75945 6.5762L12.2058 1.56059C12.2877 1.39276 12.4398 1.37462 12.5015 1.37462C12.5631 1.37462 12.7152 1.39271 12.7971 1.56059V1.56064L15.2435 6.57625C15.4837 7.06879 15.9477 7.4099 16.4848 7.48885L21.955 8.29315C22.138 8.32003 22.2021 8.46089 22.2211 8.52023C22.2402 8.57956 22.2702 8.73164 22.1377 8.86227L18.1794 12.7664C17.7907 13.1497 17.6136 13.7016 17.7053 14.2429Z" fill="#599A39"/>
        <path d="M20.2081 0.969513C19.9134 0.752912 19.501 0.819019 19.287 1.11714L18.5869 2.09204C18.3729 2.39016 18.4382 2.80751 18.7328 3.02411C18.85 3.11013 18.9856 3.15158 19.1199 3.15158C19.3239 3.15158 19.525 3.05617 19.654 2.87653L20.354 1.90163C20.5681 1.60346 20.5028 1.18611 20.2081 0.969513Z" fill="#599A39"/>
        <path d="M6.41651 2.08831L5.71646 1.11341C5.50244 0.815384 5.09004 0.749278 4.79531 0.96578C4.50068 1.18238 4.43535 1.59972 4.64942 1.89784L5.34946 2.87275C5.47852 3.05254 5.67959 3.14789 5.8836 3.14789C6.01802 3.14789 6.15366 3.10644 6.27066 3.02037C6.56528 2.80382 6.63062 2.38648 6.41651 2.08831Z" fill="#599A39"/>
        <path d="M2.41952 15.0113C2.30697 14.6609 1.93495 14.469 1.58852 14.5829L0.45585 14.9553C0.109414 15.0692 -0.080088 15.4457 0.0324608 15.7962C0.122988 16.0782 0.381533 16.2575 0.659512 16.2575C0.727041 16.2575 0.795742 16.2469 0.863467 16.2246L1.99613 15.8522C2.34252 15.7383 2.53207 15.3618 2.41952 15.0113Z" fill="#599A39"/>
        <path d="M12.5032 22.4202C12.139 22.4202 11.8438 22.7189 11.8438 23.0875V24.2926C11.8438 24.6611 12.139 24.9599 12.5032 24.9599C12.8674 24.9599 13.1627 24.6611 13.1627 24.2926V23.0875C13.1627 22.7189 12.8675 22.4202 12.5032 22.4202Z" fill="#599A39"/>
        <path d="M24.543 14.9563L23.4103 14.5838C23.0641 14.47 22.6919 14.6617 22.5793 15.0123C22.4668 15.3628 22.6563 15.7393 23.0027 15.8531L24.1354 16.2256C24.2031 16.2478 24.2718 16.2584 24.3393 16.2584C24.6173 16.2584 24.8759 16.0791 24.9664 15.7971C25.0789 15.4466 24.8894 15.0701 24.543 14.9563Z" fill="#599A39"/>
    </g>
    <defs>
        <clipPath id="clip0_1721_100948">
            <rect width="25" height="25" fill="white"/>
        </clipPath>
    </defs>
</svg>