<svg width="25" height="25" viewBox="0 0 25 25" fill="none" xmlns="http://www.w3.org/2000/svg">
    <g clip-path="url(#clip0_1721_100953)">
        <path d="M21.8387 14.8823L21.8209 14.6377C21.5345 10.9096 19.7987 8.57253 18.2673 6.51113C16.8492 4.60231 15.6245 2.95394 15.6245 0.521751C15.6245 0.326446 15.5152 0.147937 15.3417 0.0583892C15.1678 -0.0316465 14.9587 -0.016901 14.8006 0.098085C12.5007 1.74392 10.5817 4.51789 9.91137 7.16467C9.44601 9.00737 9.38444 11.0789 9.37579 12.4471C7.25185 11.9934 6.77071 8.81612 6.76564 8.78155C6.74171 8.61676 6.64103 8.47331 6.49455 8.39499C6.34656 8.3177 6.17259 8.31209 6.02255 8.38635C5.91118 8.44026 3.28876 9.77282 3.13618 15.0939C3.12549 15.2709 3.125 15.4479 3.125 15.6253C3.125 20.7943 7.33066 25 12.4997 25C17.6687 25 21.8743 20.7943 21.8743 15.6253C21.8743 15.366 21.8565 15.1239 21.8387 14.8823ZM12.4997 23.9584C10.7765 23.9584 9.37477 22.4651 9.37477 20.6296C9.37477 20.567 9.37428 20.5039 9.37882 20.4266C9.39967 19.6525 9.54669 19.1241 9.70791 18.7726C10.01 19.4216 10.5507 20.0182 11.4275 20.0182C11.7154 20.0182 11.9484 19.7852 11.9484 19.4974C11.9484 18.7558 11.9636 17.9004 12.1482 17.1283C12.3126 16.4432 12.7052 15.7153 13.2026 15.1315C13.4238 15.8893 13.8552 16.5027 14.2763 17.1013C14.879 17.9578 15.502 18.8433 15.6114 20.3533C15.618 20.4428 15.6246 20.5329 15.6246 20.6295C15.6245 22.4651 14.2228 23.9584 12.4997 23.9584ZM15.7911 23.2779C16.3317 22.5407 16.6662 21.6294 16.6662 20.6296C16.6662 20.507 16.6586 20.393 16.6433 20.18C16.5197 18.4797 15.7807 17.4289 15.1282 16.5017C14.5723 15.7124 14.0927 15.0303 14.0927 14.063C14.0927 13.8651 13.9808 13.6845 13.8038 13.5966C13.6278 13.508 13.4152 13.5279 13.258 13.6474C12.2591 14.4022 11.426 15.6727 11.1351 16.8857C10.9866 17.5078 10.9347 18.1807 10.9164 18.734C10.5553 18.3455 10.4434 17.6253 10.4424 17.6156C10.419 17.4483 10.3163 17.3023 10.1662 17.2245C10.0172 17.1472 9.83872 17.1452 9.68867 17.2225C9.55743 17.2896 8.40444 17.9508 8.33833 20.3829C8.33374 20.4653 8.33325 20.5477 8.33325 20.6296C8.33325 21.6294 8.66772 22.5407 9.20832 23.2779C6.24632 21.9989 4.16676 19.0514 4.16676 15.6254C4.16676 15.4693 4.16627 15.3137 4.17691 15.1402C4.26641 12.0183 5.26535 10.4702 5.91738 9.78713C6.37205 11.4147 7.56321 13.5422 9.8957 13.5422C10.1836 13.5422 10.4165 13.3092 10.4165 13.0213C10.4165 11.2783 10.4557 9.26425 10.9216 7.42003C11.4505 5.33065 12.8995 3.07449 14.6486 1.54715C14.9391 3.77793 16.1541 5.41361 17.4313 7.13215C18.9495 9.17573 20.519 11.289 20.782 14.7109L20.7998 14.9601C20.816 15.1768 20.8328 15.393 20.8328 15.6254C20.8327 19.0513 18.7531 21.9989 15.7911 23.2779Z" fill="#599A39"/>
    </g>
    <defs>
        <clipPath id="clip0_1721_100953">
            <rect width="25" height="25" fill="white"/>
        </clipPath>
    </defs>
</svg>