<svg width="51" height="50" viewBox="0 0 51 50" fill="none" xmlns="http://www.w3.org/2000/svg">
    <g clip-path="url(#clip0_1879_66114)">
        <path d="M43.166 12.1873H31.4993V11.354C31.4945 7.21379 28.1396 3.85889 23.9993 3.854H8.16602C4.0258 3.85889 0.670898 7.21379 0.666016 11.354V21.354C0.670898 25.4942 4.0258 28.8491 8.16602 28.854H8.99935V35.5207C8.99935 35.8576 9.20239 36.1615 9.51367 36.2905C9.82495 36.4195 10.1834 36.3479 10.4219 36.1099L17.6777 28.854H19.8327V29.6873C19.8376 33.8276 23.1925 37.1825 27.3327 37.1873H31.9876L40.9102 46.1099C41.1486 46.3479 41.5071 46.4195 41.8184 46.2905C42.1296 46.1615 42.3327 45.8576 42.3327 45.5207V37.1873H43.166C47.3062 37.1825 50.6611 33.8276 50.666 29.6873V19.6873C50.6611 15.5471 47.3062 12.1922 43.166 12.1873ZM17.3327 27.1873C17.1117 27.1873 16.8997 27.2752 16.7435 27.4315L10.666 33.509V28.0207C10.666 27.5605 10.2929 27.1873 9.83268 27.1873H8.16602C4.9458 27.1837 2.33634 24.5742 2.33268 21.354V11.354C2.33634 8.13379 4.9458 5.52433 8.16602 5.52067H23.9993C27.2196 5.52433 29.829 8.13379 29.8327 11.354V12.1873H27.3327C23.1925 12.1922 19.8376 15.5471 19.8327 19.6873V27.1873H17.3327ZM48.9993 29.6873C48.9957 32.9076 46.3862 35.517 43.166 35.5207H41.4993C41.0391 35.5207 40.666 35.8938 40.666 36.354V43.509L32.9219 35.7648C32.7656 35.6086 32.5536 35.5207 32.3327 35.5207H27.3327C24.1125 35.517 21.503 32.9076 21.4993 29.6873V19.6873C21.503 16.4671 24.1125 13.8577 27.3327 13.854H43.166C46.3862 13.8577 48.9957 16.4671 48.9993 19.6873V29.6873Z" fill="#599A39"/>
        <path d="M44.832 18.854H25.6654C25.2052 18.854 24.832 19.2271 24.832 19.6873C24.832 20.1475 25.2052 20.5207 25.6654 20.5207H44.832C45.2922 20.5207 45.6654 20.1475 45.6654 19.6873C45.6654 19.2271 45.2922 18.854 44.832 18.854Z" fill="#599A39"/>
        <path d="M44.832 23.854H25.6654C25.2052 23.854 24.832 24.2271 24.832 24.6873C24.832 25.1475 25.2052 25.5207 25.6654 25.5207H44.832C45.2922 25.5207 45.6654 25.1475 45.6654 24.6873C45.6654 24.2271 45.2922 23.854 44.832 23.854Z" fill="#599A39"/>
        <path d="M44.832 28.854H25.6654C25.2052 28.854 24.832 29.2271 24.832 29.6873C24.832 30.1475 25.2052 30.5207 25.6654 30.5207H44.832C45.2922 30.5207 45.6654 30.1475 45.6654 29.6873C45.6654 29.2271 45.2922 28.854 44.832 28.854Z" fill="#599A39"/>
        <path d="M5.66536 12.1877H23.1654C23.6256 12.1877 23.9987 11.8145 23.9987 11.3543C23.9987 10.8941 23.6256 10.521 23.1654 10.521H5.66536C5.20516 10.521 4.83203 10.8941 4.83203 11.3543C4.83203 11.8145 5.20516 12.1877 5.66536 12.1877Z" fill="#599A39"/>
        <path d="M18.1654 15.521H5.66536C5.20516 15.521 4.83203 15.8941 4.83203 16.3543C4.83203 16.8145 5.20516 17.1877 5.66536 17.1877H18.1654C18.6256 17.1877 18.9987 16.8145 18.9987 16.3543C18.9987 15.8941 18.6256 15.521 18.1654 15.521Z" fill="#599A39"/>
        <path d="M17.332 20.521H5.66536C5.20516 20.521 4.83203 20.8941 4.83203 21.3543C4.83203 21.8145 5.20516 22.1877 5.66536 22.1877H17.332C17.7922 22.1877 18.1654 21.8145 18.1654 21.3543C18.1654 20.8941 17.7922 20.521 17.332 20.521Z" fill="#599A39"/>
    </g>
    <defs>
        <clipPath id="clip0_1879_66114">
            <rect width="50" height="50" fill="white" transform="translate(0.666016)"/>
        </clipPath>
    </defs>
</svg>