<svg width="40" height="40" viewBox="0 0 40 40" fill="none" xmlns="http://www.w3.org/2000/svg">
    <g clip-path="url(#clip0_1919_80855)">
        <path d="M30.606 21.2109C25.4256 21.2109 21.2109 25.4255 21.2109 30.606C21.2109 35.7865 25.4255 40.0011 30.606 40.0011C35.7865 40.0011 40.0011 35.7865 40.0011 30.606C40.0011 25.4256 35.7865 21.2109 30.606 21.2109ZM30.606 37.6572C26.718 37.6572 23.5548 34.4941 23.5548 30.606C23.5548 26.718 26.7179 23.5548 30.606 23.5548C34.4941 23.5548 37.6572 26.7179 37.6572 30.606C37.6572 34.494 34.4941 37.6572 30.606 37.6572Z" fill="#599A39"/>
        <path d="M28.8458 15.5593L25.5308 12.2443L27.1884 10.5868L25.291 8.68947C24.4696 7.86808 23.3776 7.41571 22.216 7.41571C21.0544 7.41571 19.9624 7.86808 19.141 8.68947L16.4014 11.429L12.1719 7.19945C11.236 6.26361 10.5202 5.10533 10.1017 3.85001L10.0697 3.75399C9.78624 2.90355 9.30136 2.11904 8.66749 1.4851C6.68729 -0.495032 3.46528 -0.495032 1.48515 1.4851C-0.495051 3.46522 -0.495051 6.68723 1.48515 8.66751C2.11902 9.30138 2.9036 9.78625 3.75405 10.0697L3.84984 10.1016C5.10539 10.5201 6.26367 11.236 7.19943 12.1717L11.429 16.4013L8.68937 19.1408C6.99379 20.8364 6.99379 23.5953 8.68937 25.2909L10.5868 27.1882L12.2442 25.5308L15.5592 28.8458L28.8458 15.5593ZM4.5909 7.87801L4.49504 7.84605C3.98805 7.67706 3.52036 7.38798 3.14245 7.01006C2.07621 5.94374 2.07621 4.20879 3.14245 3.14247C4.20877 2.07623 5.94372 2.07623 7.01004 3.14247C7.38788 3.52038 7.67704 3.98807 7.84595 4.49498L7.87799 4.59108C8.41099 6.18993 9.32261 7.66502 10.5144 8.85682L11.4213 9.76375L9.76373 11.4214L8.8568 10.5144C7.66508 9.32271 6.18999 8.41109 4.5909 7.87801ZM11.4211 13.0788L13.0787 11.4212L14.744 13.0865L13.0864 14.7441L11.4211 13.0788ZM10.3467 23.6337C9.56505 22.852 9.56505 21.5801 10.3467 20.7984L20.7983 10.3468C21.177 9.96814 21.6804 9.75961 22.2159 9.75961C22.7514 9.75961 23.2549 9.96814 23.6336 10.3468L23.8736 10.5868L10.5868 23.8736L10.3467 23.6337ZM23.8735 13.9017L25.5311 15.5593L15.5593 25.5311L13.9017 23.8735L23.8735 13.9017Z" fill="#599A39"/>
        <path d="M29.7975 31.4134L27.673 29.2889L26.0156 30.9462L29.7975 34.7282L35.1925 29.3332L33.5353 27.6758L29.7975 31.4134Z" fill="#599A39"/>
    </g>
    <defs>
        <clipPath id="clip0_1919_80855">
            <rect width="40" height="40" fill="white"/>
        </clipPath>
    </defs>
</svg>