<svg width="73" height="24" viewBox="0 0 73 24" fill="none" xmlns="http://www.w3.org/2000/svg">    <g clip-path="url(#clip0_1536_74403)">        <path d="M47.5369 0.0371094C42.3588 0.0371094 37.7314 2.75477 37.7314 7.77587C37.7314 13.5341 45.9382 13.9318 45.9382 16.8246C45.9382 18.0426 44.5597 19.133 42.2053 19.133C38.8638 19.133 36.3664 17.6095 36.3664 17.6095L35.2978 22.6763C35.2978 22.6763 38.1748 23.9632 41.9944 23.9632C47.6557 23.9632 52.1105 21.1121 52.1105 16.0051C52.1105 9.92052 43.8694 9.53462 43.8694 6.84964C43.8694 5.89549 45.0011 4.85003 47.3488 4.85003C49.9977 4.85003 52.1589 5.95804 52.1589 5.95804L53.2047 1.06433C53.2047 1.06433 50.8532 0.0371094 47.5369 0.0371094ZM0.162248 0.406447L0.0368652 1.14512C0.0368652 1.14512 2.2153 1.54882 4.17734 2.35412C6.70362 3.27756 6.88358 3.81513 7.30905 5.48482L11.9453 23.5823H18.1603L27.735 0.406447H21.5343L15.382 16.1638L12.8715 2.80713C12.6412 1.27847 11.475 0.406447 10.0475 0.406447H0.162248ZM30.2284 0.406447L25.3641 23.5823H31.2771L36.1242 0.406447H30.2284ZM63.2068 0.406447C61.781 0.406447 61.0256 1.17941 60.4712 2.53013L51.8084 23.5823H58.0092L59.2088 20.0736H66.7631L67.4926 23.5823H72.9639L68.1908 0.406447H63.2068ZM64.0133 6.66786L65.8513 15.3646H60.9272L64.0133 6.66786Z" fill="#1434CB"/>    </g>    <defs>        <clipPath id="clip0_1536_74403">            <rect width="73" height="24" fill="white"/>        </clipPath>    </defs></svg>