<svg width="50" height="50" viewBox="0 0 50 50" fill="none" xmlns="http://www.w3.org/2000/svg">
    <path d="M49.9298 27.8309C49.9297 27.8307 49.9297 27.8305 49.9296 27.8303L40.4894 4.12674C40.289 3.6231 39.7182 3.37723 39.2145 3.57758C39.2141 3.5777 39.2138 3.57783 39.2134 3.57807L0.915752 18.8278C0.759568 18.8953 0.62412 19.003 0.523146 19.14C0.204645 19.3055 0.0034353 19.6331 0 19.9919V45.5113C0 46.0533 0.439472 46.4928 0.981513 46.4928H42.2051C42.7471 46.4928 43.1866 46.0533 43.1866 45.5113V31.5738L49.3819 29.1062C49.8854 28.9054 50.1307 28.3344 49.9298 27.8309ZM41.2235 44.5298H1.96303V20.9734H41.2235V44.5298ZM16.3765 19.0153L32.811 12.4667C34.2777 14.0084 36.3101 14.8846 38.438 14.893L40.0771 19.0153H16.3765ZM43.1866 29.4655V19.9919C43.1866 19.4499 42.7471 19.0104 42.2051 19.0104H42.1894L40.1095 13.7868C40.0865 13.7432 40.0596 13.7018 40.029 13.6631C39.9238 13.1904 39.486 12.8678 39.0034 12.9074C37.0234 13.0878 35.0865 12.2538 33.8573 10.6911C33.5514 10.3136 33.0138 10.2197 32.598 10.4712C32.5514 10.4768 32.5051 10.4853 32.4596 10.4968L12.3955 18.4863C12.1527 18.5815 11.9585 18.7703 11.8567 19.0104H5.76344L39.0289 5.76488L47.7437 27.6477L43.1866 29.4655Z" fill="#599A39"/>
    <path d="M4.62658 37.9036C6.53219 38.4669 8.02336 39.9562 8.58895 41.8611C8.71299 42.2769 9.09541 42.5617 9.52924 42.5619C9.58016 42.5587 9.63071 42.5511 9.6804 42.5393C9.72444 42.5518 9.76947 42.561 9.81486 42.5668H33.3712C33.4117 42.5615 33.4517 42.5533 33.4909 42.5422C33.9813 42.6615 34.4755 42.3608 34.5949 41.8704C34.5953 41.8686 34.5958 41.8668 34.5961 41.865C35.1602 39.9582 36.6517 38.4668 38.5585 37.9026C39.0209 37.7613 39.3082 37.3005 39.2318 36.823C39.2449 36.7754 39.2544 36.7268 39.2603 36.6777V28.8256C39.2545 28.7764 39.2447 28.7278 39.2308 28.6803C39.3078 28.2027 39.0203 27.7416 38.5575 27.6007C36.6507 27.0367 35.1596 25.5446 34.5971 23.6373C34.455 23.1717 33.9897 22.8836 33.5096 22.964C33.4642 22.9514 33.4179 22.9422 33.3712 22.9365H9.81486C9.76542 22.9424 9.71647 22.9522 9.66862 22.966C9.19123 22.8899 8.73066 23.1771 8.58895 23.6393C8.02446 25.5458 6.53317 27.0367 4.62658 27.6007C4.16417 27.742 3.87683 28.2028 3.95326 28.6803C3.9405 28.7281 3.9313 28.7765 3.92578 28.8256V36.6777C3.93142 36.7238 3.94063 36.7695 3.95326 36.8141C3.87278 37.2947 4.16073 37.7607 4.62658 37.9036ZM5.88881 29.2241C7.85969 28.4325 9.42177 26.8704 10.2134 24.8995H32.9717C33.7637 26.8704 35.3261 28.4325 37.2972 29.2241V36.2792C35.327 37.0717 33.7651 38.6335 32.9727 40.6038H10.2134C9.42091 38.6335 7.85907 37.0717 5.88881 36.2792V29.2241Z" fill="#599A39"/>
    <path d="M21.5922 38.6405C24.8447 38.6405 27.4813 36.0039 27.4813 32.7514C27.4813 29.4989 24.8447 26.8623 21.5922 26.8623C18.3397 26.8623 15.7031 29.4989 15.7031 32.7514C15.7063 36.0025 18.3411 38.6373 21.5922 38.6405ZM21.5922 28.8253C23.7605 28.8253 25.5183 30.5831 25.5183 32.7514C25.5183 34.9197 23.7605 36.6774 21.5922 36.6774C19.4239 36.6774 17.6662 34.9197 17.6662 32.7514C17.6662 30.5831 19.4239 28.8253 21.5922 28.8253Z" fill="#599A39"/>
    <path d="M10.7965 34.2238C11.6095 34.2238 12.2688 33.5646 12.2688 32.7516C12.2688 31.9385 11.6095 31.2793 10.7965 31.2793C9.98343 31.2793 9.32422 31.9385 9.32422 32.7516C9.32422 33.5647 9.98343 34.2238 10.7965 34.2238ZM10.7965 32.2608C11.0675 32.2608 11.2872 32.4805 11.2872 32.7516C11.2872 33.0226 11.0675 33.2423 10.7965 33.2423C10.5255 33.2423 10.3057 33.0226 10.3057 32.7516C10.3057 32.4805 10.5255 32.2608 10.7965 32.2608Z" fill="#599A39"/>
    <path d="M32.3902 34.2238C33.2033 34.2238 33.8625 33.5646 33.8625 32.7516C33.8625 31.9385 33.2033 31.2793 32.3902 31.2793C31.5772 31.2793 30.918 31.9385 30.918 32.7516C30.918 33.5647 31.5772 34.2238 32.3902 34.2238ZM32.3902 32.2608C32.6613 32.2608 32.881 32.4805 32.881 32.7516C32.881 33.0226 32.6613 33.2423 32.3902 33.2423C32.1192 33.2423 31.8995 33.0226 31.8995 32.7516C31.8995 32.4805 32.1192 32.2608 32.3902 32.2608Z" fill="#599A39"/>
</svg>