<svg width="26" height="26" viewBox="0 0 26 26" fill="none" xmlns="http://www.w3.org/2000/svg">
    <path d="M15.1559 17.7128C13.8776 17.7128 12.5884 17.3661 11.3426 16.6944C10.1943 16.0769 9.46842 14.8853 9.46842 13.5744V9.45777C9.46842 8.29861 10.0426 7.21527 10.9959 6.54361C11.5809 6.13194 12.2634 5.92611 12.9784 5.92611C13.3901 5.92611 13.8018 6.00194 14.1809 6.14277C14.5276 6.27277 14.8418 6.33777 15.1559 6.33777C15.5676 6.31611 15.9468 6.20777 16.5101 6.00194C16.6726 5.93694 16.8459 5.88277 17.0409 5.80694V5.38444C17.0409 3.73777 15.7084 2.40527 14.0618 2.40527H5.40592C3.75926 2.40527 2.42676 3.73777 2.42676 5.38444V20.5511C2.42676 22.1978 3.75926 23.5303 5.40592 23.5303H14.0726C15.7193 23.5303 17.0518 22.1978 17.0518 20.5511V17.4419C16.5101 17.5936 15.9034 17.7019 15.1776 17.7019H15.1451L15.1559 17.7128ZM10.8226 20.2911H8.65592C8.21176 20.2911 7.84342 19.9228 7.84342 19.4786C7.84342 19.0344 8.21176 18.6661 8.65592 18.6661H10.8226C11.2668 18.6661 11.6351 19.0344 11.6351 19.4786C11.6351 19.9228 11.2668 20.2911 10.8226 20.2911Z" fill="#FBCF58"/>
    <path d="M21.7862 6.77069C20.9737 6.71652 20.1503 6.77069 19.3595 6.88986C18.3845 7.05236 17.6912 7.30152 17.0845 7.52902C16.4128 7.77819 15.8712 7.92986 15.167 7.96236C14.6578 7.96236 14.1487 7.86486 13.6287 7.66986C13.0653 7.46402 12.4262 7.53986 11.9278 7.88652C11.4078 8.24402 11.1045 8.82902 11.1045 9.45736V13.574C11.1045 14.2782 11.4945 14.9174 12.1228 15.2532C13.1303 15.7949 14.1595 16.0765 15.167 16.0765H15.1995C16.1962 16.0765 16.9112 15.8165 17.6587 15.5457C18.2328 15.3399 18.8178 15.1232 19.6412 14.9824C20.2695 14.874 20.9195 14.8415 21.5695 14.874C22.0787 14.9065 22.6095 14.7115 22.9887 14.3432C23.3678 13.9857 23.5737 13.4982 23.5737 12.9782V8.64486C23.5737 7.64819 22.7937 6.81402 21.8078 6.74902L21.7862 6.77069Z" fill="#FBCF58"/>
</svg>