<svg width="24" height="24" viewBox="0 0 24 24" fill="none" xmlns="http://www.w3.org/2000/svg">
    <g clip-path="url(#clip0_1688_87909)">
        <path d="M12 0C5.37281 0 0 5.37281 0 12C0 18.6272 5.37281 24 12 24C18.6272 24 24 18.6272 24 12C24 5.37281 18.6272 0 12 0ZM13.6795 16.883C13.6795 17.3284 13.5026 17.7556 13.1876 18.0706C12.8726 18.3855 12.4454 18.5625 12 18.5625C11.5546 18.5625 11.1274 18.3855 10.8124 18.0706C10.4974 17.7556 10.3205 17.3284 10.3205 16.883C10.3205 16.4375 10.4974 16.0103 10.8124 15.6954C11.1274 15.3804 11.5546 15.2034 12 15.2034C12.4454 15.2034 12.8726 15.3804 13.1876 15.6954C13.5026 16.0103 13.6795 16.4375 13.6795 16.883ZM13.9027 7.18594L13.6809 12.7847C13.6636 13.2189 13.479 13.6296 13.1656 13.9307C12.8523 14.2318 12.4346 14.4 12 14.4C11.5654 14.4 11.1477 14.2318 10.8344 13.9307C10.521 13.6296 10.3364 13.2189 10.3191 12.7847L10.0973 7.18594C10.0884 6.95963 10.1253 6.73385 10.2058 6.52215C10.2863 6.31044 10.4086 6.11716 10.5656 5.95389C10.7226 5.79062 10.9109 5.66073 11.1193 5.57199C11.3276 5.48326 11.5518 5.43751 11.7783 5.4375H12.2217C12.4482 5.43751 12.6724 5.48326 12.8807 5.57199C13.0891 5.66073 13.2774 5.79062 13.4344 5.95389C13.5914 6.11716 13.7137 6.31044 13.7942 6.52215C13.8747 6.73385 13.9116 6.95963 13.9027 7.18594Z" fill="#599A39"/>
    </g>
    <defs>
        <clipPath id="clip0_1688_87909">
            <rect width="24" height="24" fill="white"/>
        </clipPath>
    </defs>
</svg>