<svg width="50" height="50" viewBox="0 0 50 50" fill="none" xmlns="http://www.w3.org/2000/svg">
    <g clip-path="url(#clip0_1725_90470)">
        <path d="M12.0953 6.99543H10.3184C10.5856 5.01662 11.6798 4.91721 12.1833 4.87141C12.6863 4.82561 13.0714 4.40393 13.0714 3.89885V0.976484C13.0714 0.708027 12.9608 0.451289 12.7657 0.266816C12.5706 0.0823437 12.3079 -0.0132618 12.04 0.00148434C8.95312 0.175117 5.27344 1.73371 5.27344 8.17297V13.255C5.27344 14.1033 5.96357 14.7935 6.81191 14.7935H12.0954C12.9438 14.7935 13.6339 14.1032 13.6338 13.2549V8.53391C13.6338 7.68557 12.9437 6.99543 12.0953 6.99543ZM11.6808 12.8403H7.22656V8.17297C7.22656 3.67981 9.22471 2.42492 11.1183 2.07072V3.09748C9.81055 3.49553 8.30547 4.67111 8.30547 7.97199C8.30547 8.51135 8.74268 8.94856 9.28203 8.94856H11.6808V12.8403Z" fill="#599A39"/>
        <path d="M22.0798 6.99543H20.3027C20.57 5.01662 21.6642 4.91721 22.1677 4.87141C22.6707 4.82561 23.0558 4.40393 23.0558 3.89885V0.976484C23.0558 0.708027 22.9452 0.451289 22.7501 0.266816C22.555 0.0823437 22.2921 -0.0132618 22.0244 0.00148434C18.9375 0.175117 15.2578 1.73371 15.2578 8.17297V13.255C15.2578 14.1033 15.948 14.7935 16.7963 14.7935H22.0798C22.9281 14.7935 23.6184 14.1032 23.6183 13.2548V8.53391C23.6183 7.68557 22.9281 6.99543 22.0798 6.99543ZM21.6651 12.8404H17.2109V8.17297C17.2109 3.67981 19.2091 2.42492 21.1026 2.07072V3.09748C19.7949 3.49553 18.2898 4.67111 18.2898 7.97199C18.2898 8.51135 18.7271 8.94856 19.2664 8.94856H21.6651V12.8404Z" fill="#599A39"/>
        <path d="M27.8389 7.8916C27.6572 7.70996 27.4053 7.60547 27.1484 7.60547C26.8916 7.60547 26.6396 7.70996 26.458 7.8916C26.2764 8.07324 26.1719 8.3252 26.1719 8.58203C26.1719 8.83887 26.2764 9.09082 26.458 9.27246C26.6396 9.4541 26.8916 9.55859 27.1484 9.55859C27.4053 9.55859 27.6572 9.4541 27.8389 9.27246C28.0205 9.09082 28.125 8.83887 28.125 8.58203C28.125 8.3252 28.0205 8.07324 27.8389 7.8916Z" fill="#599A39"/>
        <path d="M32.6433 7.60547H31.4127C30.8733 7.60547 30.4361 8.04268 30.4361 8.58203C30.4361 9.12139 30.8733 9.55859 31.4127 9.55859H32.6433C41.1368 9.55859 48.0469 16.4687 48.0469 24.9622C48.0469 32.2114 42.9055 38.5513 35.8216 40.0369C35.3693 40.1318 35.0455 40.5307 35.0455 40.9927V46.6669L29.0305 40.6519C28.8474 40.4688 28.5989 40.3658 28.3399 40.3658H17.3567C8.86318 40.3658 1.95312 33.4558 1.95312 24.9622C1.95312 22.3445 2.62139 19.7597 3.88574 17.4868C4.14805 17.0155 3.97842 16.4209 3.50713 16.1587C3.03574 15.8964 2.44111 16.066 2.179 16.5373C0.753418 19.0997 0 22.013 0 24.9622C0 34.5328 7.78613 42.3189 17.3567 42.3189H27.9354L35.3315 49.715C35.5184 49.9019 35.7681 50.0011 36.0223 50.0011C36.148 50.0011 36.275 49.9768 36.3958 49.9267C36.7606 49.7756 36.9986 49.4195 36.9986 49.0245V41.7666C40.5321 40.851 43.7271 38.8136 46.0618 35.9714C48.6014 32.8799 50 28.9701 50 24.9622C50 15.3917 42.2139 7.60557 32.6433 7.60547Z" fill="#599A39"/>
        <path d="M37.0202 17.332H12.9844C12.445 17.332 12.0078 17.7692 12.0078 18.3086C12.0078 18.8479 12.445 19.2852 12.9844 19.2852H37.0201C37.5595 19.2852 37.9968 18.8479 37.9968 18.3086C37.9968 17.7692 37.5596 17.332 37.0202 17.332Z" fill="#599A39"/>
        <path d="M37.0202 22.543H12.9844C12.445 22.543 12.0078 22.9802 12.0078 23.5195C12.0078 24.0589 12.445 24.4961 12.9844 24.4961H37.0201C37.5595 24.4961 37.9968 24.0589 37.9968 23.5195C37.9968 22.9802 37.5596 22.543 37.0202 22.543Z" fill="#599A39"/>
        <path d="M37.0202 27.75H12.9844C12.445 27.75 12.0078 28.1873 12.0078 28.7266C12.0078 29.2658 12.445 29.7031 12.9844 29.7031H37.0201C37.5595 29.7031 37.9968 29.2658 37.9968 28.7266C37.9968 28.1873 37.5596 27.75 37.0202 27.75Z" fill="#599A39"/>
        <path d="M37.0187 32.957H24.207C23.6677 32.957 23.2305 33.3943 23.2305 33.9336C23.2305 34.4729 23.6677 34.9102 24.207 34.9102H37.0187C37.5581 34.9102 37.9953 34.4729 37.9953 33.9336C37.9953 33.3943 37.5581 32.957 37.0187 32.957Z" fill="#599A39"/>
        <path d="M18.711 32.957H18.6953C18.156 32.957 17.7188 33.3943 17.7188 33.9336C17.7188 34.4729 18.156 34.9102 18.6953 34.9102H18.711C19.2504 34.9102 19.6876 34.4729 19.6876 33.9336C19.6876 33.3943 19.2504 32.957 18.711 32.957Z" fill="#599A39"/>
    </g>
    <defs>
        <clipPath id="clip0_1725_90470">
            <rect width="50" height="50" fill="white"/>
        </clipPath>
    </defs>
</svg>