<svg width="130" height="130" viewBox="0 0 130 130" fill="none" xmlns="http://www.w3.org/2000/svg">
    <path fill-rule="evenodd" clip-rule="evenodd" d="M65 117C93.7188 117 117 93.7188 117 65C117 36.2812 93.7188 13 65 13C36.2812 13 13 36.2812 13 65C13 93.7188 36.2812 117 65 117ZM62.1055 46.5917C60.111 45.262 57.5464 45.138 55.4329 46.2691C53.3194 47.4002 52 49.6028 52 52V78C52 80.3972 53.3194 82.5998 55.4329 83.7309C57.5464 84.862 60.111 84.7381 62.1055 83.4083L81.6056 70.4083C83.4138 69.2028 84.5 67.1733 84.5 65C84.5 62.8267 83.4138 60.7972 81.6056 59.5917L62.1055 46.5917Z" fill="#FBCF58"/>
</svg>