<svg width="40" height="40" viewBox="0 0 40 40" fill="none" xmlns="http://www.w3.org/2000/svg">
    <g clip-path="url(#clip0_1919_63879)">
        <path d="M18.8281 16.4746H21.1719V18.8184H18.8281V16.4746Z" fill="#599A39"/>
        <path d="M9.41406 16.4746H11.7578V18.8184H9.41406V16.4746Z" fill="#599A39"/>
        <path d="M14.125 18.8281H16.4688V21.1719H14.125V18.8281Z" fill="#599A39"/>
        <path d="M15.291 9.41406C13.3471 9.41406 11.7656 10.9955 11.7656 12.9395C11.7656 14.8834 13.3471 16.4648 15.291 16.4648C17.2349 16.4648 18.8164 14.8834 18.8164 12.9395C18.8164 10.9955 17.2349 9.41406 15.291 9.41406ZM15.291 14.1211C14.6395 14.1211 14.1094 13.591 14.1094 12.9395C14.1094 12.2879 14.6395 11.7578 15.291 11.7578C15.9426 11.7578 16.4727 12.2879 16.4727 12.9395C16.4727 13.591 15.9426 14.1211 15.291 14.1211Z" fill="#599A39"/>
        <path d="M30.5908 21.1807C28.4181 21.1807 26.4153 21.9212 24.8209 23.1627L23.5573 21.8992C24.7787 20.3744 25.5877 18.5059 25.8136 16.4639H28.1891C28.1594 16.7958 28.1177 17.1258 28.063 17.4519L30.3744 17.8396C30.5147 17.0034 30.5858 16.1463 30.5858 15.292C30.5858 14.4377 30.5147 13.5806 30.3744 12.7445L28.063 13.1323C28.1177 13.4583 28.1593 13.7884 28.1891 14.1202H25.8136C25.5877 12.0782 24.7787 10.2097 23.5573 8.68492L25.2405 7.00172C25.4541 7.25734 25.658 7.52023 25.8498 7.78945L27.7585 6.42922C27.2663 5.73867 26.7106 5.08234 26.1066 4.47828C25.5025 3.87422 24.8461 3.31844 24.1557 2.82641L22.7954 4.73508C23.0646 4.92695 23.3275 5.13086 23.5831 5.34445L21.8999 7.02766C20.3752 5.80617 18.5066 4.99727 16.4647 4.77133V2.39617C16.7965 2.4257 17.1264 2.46719 17.4526 2.52195L17.8405 0.210469C16.1684 -0.0701562 14.4176 -0.0701562 12.7453 0.210469L13.1332 2.52187C13.4593 2.46719 13.7892 2.42563 14.1211 2.39609V4.77125C12.0791 4.99719 10.2106 5.80609 8.68578 7.02766L7.00258 5.34438C7.2582 5.13078 7.52109 4.92688 7.79039 4.73492L6.43008 2.82633C5.73953 3.31852 5.08313 3.8743 4.4793 4.4782C3.87516 5.08234 3.31922 5.73875 2.82727 6.42922L4.73602 7.7893C4.92789 7.52008 5.13172 7.25727 5.34531 7.00164L7.02852 8.68492C5.80703 10.2097 4.99813 12.0782 4.77219 14.1201H2.39672C2.42641 13.7883 2.46813 13.4582 2.52281 13.1322L0.211406 12.7445C0.0710938 13.5805 0 14.4377 0 15.292C0 16.1462 0.0710938 17.0034 0.211406 17.8395L2.52281 17.4518C2.46813 17.1257 2.42648 16.7957 2.39672 16.4638H4.77219C4.99813 18.5058 5.80703 20.3743 7.02852 21.8991L5.34531 23.5823C5.13172 23.3267 4.92789 23.0639 4.73602 22.7947L2.82727 24.1548C3.31922 24.8452 3.87508 25.5016 4.47914 26.1057C5.08305 26.7097 5.73953 27.2655 6.43008 27.7577L7.79039 25.849C7.52109 25.657 7.2582 25.4532 7.00258 25.2395L8.68578 23.5563C10.2105 24.7779 12.0791 25.5868 14.1211 25.8127V28.1879C13.7893 28.1584 13.4594 28.1169 13.1332 28.0621L12.7453 30.3735C13.5814 30.5138 14.4386 30.585 15.2929 30.585C16.1472 30.585 17.0044 30.5138 17.8405 30.3735L17.4526 28.0621C17.1265 28.1168 16.7966 28.1584 16.4647 28.1879V25.8127C18.5066 25.5868 20.3752 24.7779 21.8999 23.5564L23.1635 24.8199C21.922 26.4144 21.1815 28.4171 21.1815 30.5898C21.1815 35.7781 25.4024 39.9991 30.5907 39.9991C35.779 39.9991 40 35.7781 40 30.5898C40 25.4016 35.7791 21.1807 30.5908 21.1807ZM15.293 23.5342C10.7482 23.5342 7.05078 19.8368 7.05078 15.292C7.05078 10.7473 10.7482 7.04984 15.293 7.04984C19.8377 7.04984 23.5352 10.7473 23.5352 15.292C23.5352 19.8368 19.8377 23.5342 15.293 23.5342ZM23.5254 30.5898C23.5254 29.0641 24.0116 27.6497 24.8372 26.4935L34.6871 36.3434C33.5309 37.169 32.1166 37.6552 30.5908 37.6552C26.6949 37.6553 23.5254 34.4858 23.5254 30.5898ZM36.3445 34.6862L26.4945 24.8363C27.6507 24.0107 29.065 23.5245 30.5908 23.5245C34.4866 23.5245 37.6562 26.694 37.6562 30.5899C37.6562 32.1157 37.17 33.53 36.3445 34.6862Z" fill="#599A39"/>
        <path d="M33.7734 16.4746H36.1172V18.8184H33.7734V16.4746Z" fill="#599A39"/>
        <path d="M16.4766 33.6699H18.8203V36.0137H16.4766V33.6699Z" fill="#599A39"/>
        <path d="M12.1133 31.2477L10.934 31.9285C10.5019 31.5275 9.98117 31.2208 9.40437 31.0424V29.6836H7.06062V31.0424C6.48383 31.2207 5.96312 31.5274 5.53102 31.9285L4.35156 31.2477L3.17969 33.2773L4.35734 33.9573C4.29242 34.2418 4.25703 34.5374 4.25703 34.8413C4.25703 35.1452 4.29242 35.4409 4.35734 35.7254L3.17969 36.4054L4.35156 38.4351L5.53086 37.7542C5.96297 38.1552 6.48367 38.462 7.06047 38.6403V39.9991H9.40422V38.6403C9.98102 38.462 10.5017 38.1553 10.9338 37.7542L12.1131 38.4351L13.285 36.4054L12.1073 35.7255C12.1723 35.4409 12.2077 35.1453 12.2077 34.8414C12.2077 34.5375 12.1722 34.2419 12.1073 33.9573L13.285 33.2774L12.1133 31.2477ZM8.23242 36.473C7.33273 36.473 6.60078 35.7411 6.60078 34.8414C6.60078 33.9417 7.33273 33.2098 8.23242 33.2098C9.13211 33.2098 9.86406 33.9417 9.86406 34.8414C9.86406 35.7411 9.13211 36.473 8.23242 36.473Z" fill="#599A39"/>
        <path d="M38.9264 8.23195C38.9264 7.92805 38.8909 7.63242 38.8261 7.34789L40.0037 6.66789L38.8319 4.6382L37.6526 5.31906C37.2205 4.91805 36.6998 4.61133 36.123 4.43297V3.07422H33.7792V4.43305C33.2024 4.61133 32.6817 4.91805 32.2496 5.31914L31.0703 4.63828L29.8984 6.66797L31.0761 7.34789C31.0112 7.63242 30.9758 7.92805 30.9758 8.23195C30.9758 8.53586 31.0112 8.83148 31.0761 9.11602L29.8984 9.79594L31.0703 11.8256L32.2496 11.1448C32.6817 11.5458 33.2024 11.8525 33.7792 12.0309V13.3897H36.123V12.0309C36.6998 11.8526 37.2205 11.5459 37.6526 11.1448L38.8319 11.8257L40.0037 9.79602L38.8261 9.11609C38.891 8.83148 38.9264 8.53586 38.9264 8.23195ZM34.951 9.86359C34.0513 9.86359 33.3194 9.13164 33.3194 8.23195C33.3194 7.33227 34.0513 6.60031 34.951 6.60031C35.8507 6.60031 36.5827 7.33227 36.5827 8.23195C36.5827 9.13164 35.8507 9.86359 34.951 9.86359Z" fill="#599A39"/>
    </g>
    <defs>
        <clipPath id="clip0_1919_63879">
            <rect width="40" height="40" fill="white"/>
        </clipPath>
    </defs>
</svg>