<svg width="41" height="40" viewBox="0 0 41 40" fill="none" xmlns="http://www.w3.org/2000/svg">
    <g clip-path="url(#clip0_1702_74387)">
        <path d="M40.7965 3.972C40.799 3.42877 40.5828 2.90739 40.1965 2.52534L38.2713 0.600025C37.891 0.215607 37.3726 -0.000459962 36.8319 7.35213e-07H36.8253C36.2878 0.000329804 35.7731 0.216528 35.3966 0.600025L26.6634 9.33326H9.4635V2.00002C9.4635 0.895398 8.56804 7.35213e-07 7.46349 7.35213e-07H6.13016C3.18605 0.00329143 0.800166 2.38917 0.796875 5.33329V34.8337C0.963713 37.7554 3.39724 40.0301 6.32353 39.9997H38.7966C39.9011 39.9997 40.7965 39.1043 40.7965 37.9997V11.3333C40.7965 10.2287 39.9011 9.33326 38.7966 9.33326H36.2633L40.1966 5.39996C40.5793 5.02324 40.7954 4.50904 40.7965 3.972ZM24.65 16.6666C24.5089 16.6858 24.3671 16.6362 24.2687 16.5332C24.1695 16.4346 24.1204 16.2963 24.1354 16.1572L24.388 13.8906C24.3986 13.8432 24.412 13.7964 24.4281 13.7506L27.054 16.3766C27.0107 16.3859 26.9714 16.4073 26.926 16.4126L24.65 16.6666ZM28.1426 15.5779L25.2253 12.6599L32.492 5.39331L35.4079 8.3086L28.1426 15.5779ZM33.432 4.44994L34.4206 3.46194L37.3353 6.37723L36.3473 7.36588L33.432 4.44994ZM2.1302 5.33329C2.13243 3.1251 3.92198 1.3355 6.13016 1.33332H7.46349C7.83165 1.33332 8.13018 1.63179 8.13018 1.99995V28.6664C8.13018 29.0346 7.83171 29.333 7.46349 29.333H6.13016C4.59861 29.3326 3.1411 29.9918 2.1302 31.1423V5.33329ZM38.7966 10.6666C39.1648 10.6666 39.4633 10.965 39.4633 11.3333V37.9997C39.4633 38.3679 39.1648 38.6664 38.7966 38.6664H6.32353C4.12271 38.7034 2.279 37.0092 2.1302 34.8131V34.6664C2.13243 32.4582 3.92198 30.6687 6.13016 30.6664H7.46349C8.56804 30.6664 9.46344 29.771 9.46344 28.6665V10.6666H25.33L23.816 12.1806C23.3933 12.597 23.1274 13.1466 23.0633 13.7365L22.8107 16.0078C22.7899 16.2294 22.8109 16.4527 22.8727 16.6665H11.4635C11.0953 16.6665 10.7968 16.965 10.7968 17.3332C10.7968 17.7014 11.0952 17.9998 11.4635 17.9998H13.4635V35.9997C13.4635 36.3679 13.7619 36.6664 14.1302 36.6664C14.4984 36.6664 14.7969 36.3679 14.7969 35.9997V26.6664H22.1301V31.9997H17.4634C17.0953 31.9997 16.7968 32.2982 16.7968 32.6664C16.7968 33.0345 17.0953 33.3331 17.4634 33.3331H30.7967C31.533 33.3331 32.13 32.7361 32.13 31.9997V21.9999C32.13 21.6317 31.8315 21.3332 31.4634 21.3332C31.0952 21.3332 30.7967 21.6316 30.7967 21.9999V25.3331H14.7968V17.9999H24.6021C24.6671 18 24.7321 17.9965 24.7967 17.9892L27.0747 17.7299C27.6529 17.6643 28.1925 17.4074 28.608 16.9999L34.9333 10.6666L38.7966 10.6666ZM30.7967 26.6664V31.9997H23.4634V26.6664H30.7967ZM39.2566 4.45461L38.2779 5.43392L35.3633 2.51929L36.3426 1.53998C36.4707 1.40848 36.6463 1.33398 36.8299 1.33332C37.0169 1.33378 37.1957 1.40921 37.3266 1.54268L39.2546 3.46668C39.3887 3.5987 39.4639 3.77916 39.4633 3.96732C39.4627 4.15094 39.3882 4.3266 39.2566 4.45461Z" fill="white"/>
    </g>
    <defs>
        <clipPath id="clip0_1702_74387">
            <rect width="40" height="40" fill="white" transform="translate(0.796875)"/>
        </clipPath>
    </defs>
</svg>