<svg width="41" height="40" viewBox="0 0 41 40" fill="none" xmlns="http://www.w3.org/2000/svg">
    <g clip-path="url(#clip0_1919_91862)">
        <path d="M20.6641 0C9.61823 0 0.664062 8.95416 0.664062 20C0.664062 31.0458 9.61823 40 20.6641 40C31.7099 40 40.6641 31.0458 40.6641 20C40.6516 8.95935 31.7047 0.0125122 20.6641 0ZM20.6641 37.5C10.9991 37.5 3.16406 29.6649 3.16406 20C3.16406 10.3351 10.9991 2.5 20.6641 2.5C30.329 2.5 38.1641 10.3351 38.1641 20C38.1534 29.6606 30.3247 37.4893 20.6641 37.5Z" fill="#599A39"/>
        <path d="M29.6591 15.025L24.0091 13.8943L21.7822 9.44122C21.5704 9.01764 21.1377 8.75 20.664 8.75C20.1904 8.75 19.7576 9.01764 19.5459 9.44122L17.319 13.8943L11.669 15.025C11.2481 15.1093 10.8996 15.4034 10.7464 15.8044C10.5932 16.2054 10.6564 16.6571 10.914 17.0007L14.3283 21.5536L13.1884 27.2556C13.099 27.7048 13.2623 28.1668 13.6145 28.4601C13.9663 28.7531 14.4503 28.8303 14.8758 28.6612L20.664 26.3467L26.4495 28.6594C26.8753 28.8284 27.3593 28.7512 27.7111 28.4583C28.063 28.165 28.2266 27.7029 28.1372 27.2537L26.997 21.5518L30.4141 17.0007C30.6716 16.6571 30.7348 16.2054 30.5816 15.8044C30.4284 15.4034 30.0799 15.1093 29.6591 15.025ZM24.664 20.5005C24.4506 20.7852 24.3685 21.1469 24.4384 21.4957L25.2359 25.4831L21.1285 23.84C20.8303 23.7207 20.4977 23.7207 20.1995 23.84L16.0922 25.4831L16.8896 21.4957C16.9595 21.1469 16.8774 20.7852 16.6641 20.5005L14.1015 17.0874L18.4066 16.2262C18.7854 16.1514 19.1085 15.9055 19.2816 15.56L20.664 12.7957L22.0459 15.563C22.2189 15.9085 22.5421 16.1545 22.9208 16.2292L27.2265 17.0874L24.664 20.5005Z" fill="#599A39"/>
    </g>
    <defs>
        <clipPath id="clip0_1919_91862">
            <rect width="40" height="40" fill="white" transform="translate(0.664062)"/>
        </clipPath>
    </defs>
</svg>