<svg width="46" height="50" viewBox="0 0 46 50" fill="none" xmlns="http://www.w3.org/2000/svg">
    <path d="M29.8867 0.507468C26.7718 0.138887 23.6365 -0.0306237 20.5 -3.19085e-05C9.285 -3.19085e-05 0.5 4.39247 0.5 9.99997V23.3333C0.5 27.8191 6.1525 31.5975 14.4792 32.8708C12.1519 34.5508 9.69195 36.2822 7.09917 38.065C6.6644 38.3634 6.39709 38.8505 6.37885 39.3775C6.3606 39.9045 6.59358 40.4089 7.00667 40.7366L18.1267 49.6341C18.7163 50.1044 19.5473 50.1232 20.1575 49.68C22.0192 48.3241 23.8367 46.9075 25.6067 45.4533C27.3289 44.0361 28.9956 42.5819 30.6067 41.0908C30.615 41.0816 30.6267 41.0791 30.6342 41.07L30.64 41.06C32.2178 39.6016 33.73 38.1194 35.1767 36.6133C35.1942 36.5966 35.2175 36.59 35.2333 36.5708C35.2492 36.5516 35.2467 36.5433 35.2558 36.5308C36.3175 35.4233 37.3525 34.3091 38.33 33.1883C41.1067 30.0033 44.5617 26.0408 45.22 21.16C45.8917 16.1816 44.9642 8.80414 40.1417 4.3958C37.1292 1.63247 33.2683 0.939968 29.8867 0.507468ZM20.5 1.66663C30.4375 1.66663 38.8333 5.4833 38.8333 9.99997C38.8333 15.4008 28.0833 18.3333 20.5 18.3333C10.5625 18.3333 2.16667 14.5166 2.16667 9.99997C2.16667 5.4833 10.5625 1.66663 20.5 1.66663ZM2.16667 23.3333V14.0616C5.225 17.5891 12.1942 20 20.5 20C24.8812 20.0709 29.2353 19.3 33.3258 17.7291C28.2116 22.4465 22.8153 26.8485 17.1667 30.9108V26.6666C17.1667 26.2064 16.7936 25.8333 16.3333 25.8333C15.8731 25.8333 15.5 26.2064 15.5 26.6666V31.3333C14.0943 31.1496 12.7024 30.8729 11.3333 30.505V25.8333C11.3333 25.3731 10.9602 25 10.5 25C10.0398 25 9.66667 25.3731 9.66667 25.8333V30C8.514 29.614 7.3984 29.125 6.33333 28.5391V23.3333C6.33333 22.8731 5.96024 22.5 5.5 22.5C5.03976 22.5 4.66667 22.8731 4.66667 23.3333V27.4425C3.08333 26.2075 2.16667 24.7958 2.16667 23.3333ZM19.1667 48.3333L8.0425 39.4391C9.31333 38.5658 10.6733 37.6208 12.085 36.6266C12.8179 37.0964 13.6968 37.2834 14.5575 37.1525C15.0964 37.0373 15.659 37.1553 16.1062 37.4774C16.5534 37.7995 16.8435 38.2956 16.905 38.8433C17.2402 40.7774 19.0576 42.0907 20.9992 41.8016C21.5388 41.6913 22.1 41.8122 22.5464 42.135C22.9927 42.4578 23.2833 42.9529 23.3475 43.5C23.4405 43.9419 23.5989 44.3674 23.8175 44.7625C22.3017 45.985 20.75 47.1808 19.1667 48.3333ZM43.5758 20.9333C43.383 22.2509 42.9854 23.5302 42.3975 24.725L41.2125 23.0583C40.9456 22.6832 40.4251 22.5955 40.05 22.8625C39.6749 23.1294 39.5872 23.6499 39.8542 24.025L41.5133 26.3583C40.7102 27.6503 39.8146 28.8824 38.8333 30.045L36.5142 27.3933C36.3188 27.1673 36.0173 27.0632 35.7241 27.1205C35.4309 27.1777 35.1908 27.3876 35.0947 27.6705C34.9987 27.9534 35.0614 28.266 35.2592 28.49L37.74 31.3333C37.5175 31.5908 37.2967 31.845 37.0808 32.0916C36.2692 33.0233 35.4142 33.95 34.5425 34.8725L31.0425 31.8725C30.8183 31.6654 30.4989 31.5974 30.2098 31.6952C29.9207 31.7931 29.7082 32.0412 29.656 32.3419C29.6037 32.6426 29.72 32.9478 29.9592 33.1375L33.39 36.0816C32.2942 37.2025 31.1525 38.3108 29.9792 39.4066L26.0417 36.0333C25.8154 35.8398 25.5031 35.7817 25.2224 35.8809C24.9416 35.9801 24.7351 36.2215 24.6807 36.5142C24.6262 36.8069 24.7321 37.1064 24.9583 37.3L28.75 40.545C27.5833 41.6058 26.3692 42.645 25.1383 43.67C25.0683 43.481 25.0102 43.2878 24.9642 43.0916C24.6298 41.1603 22.8143 39.8495 20.8758 40.14C20.3343 40.2498 19.7716 40.1278 19.3241 39.8037C18.8766 39.4796 18.5853 38.9829 18.5208 38.4341C18.1911 36.5007 16.3707 35.1898 14.4325 35.49C14.1833 35.5168 13.932 35.5182 13.6825 35.4941C23.1658 28.7441 34.4933 20.0275 38.7658 14.1375C39.8073 13.0381 40.4222 11.6031 40.5 10.0908C40.5433 7.4708 38.7033 5.39247 36.5092 3.93497C37.4247 4.37541 38.2729 4.94388 39.0283 5.6233C43.0933 9.34163 44.2417 15.9916 43.5758 20.9333Z" fill="#599A39"/>
    <path d="M20.4716 15C23.8807 15 29.5707 14.0216 31.0366 10.9333C32.0316 8.83664 30.3041 6.6833 28.3574 5.3683C26.5203 4.20448 24.4975 3.36399 22.3766 2.8833C21.7279 2.7188 21.0397 2.85034 20.4974 3.24247C20.1655 3.48157 19.9034 3.80492 19.7382 4.17914C13.9507 4.3683 9.66406 6.63997 9.66406 9.58331C9.66406 13.5125 16.2274 15 20.4716 15ZM26.5907 12.3333L26.8891 6.41164C27.0746 6.52275 27.2538 6.63636 27.4266 6.75247C30.5566 8.86247 30.4907 10.8708 26.5907 12.3333ZM21.2107 5.06914V5.0533C21.225 4.86966 21.3195 4.70165 21.4691 4.59414C21.6109 4.48857 21.7929 4.45301 21.9641 4.49747C23.0897 4.77681 24.1922 5.14262 25.2616 5.59164L24.8966 12.8466C23.4932 13.1721 22.0572 13.3354 20.6166 13.3333L21.2107 5.06914ZM19.4841 5.85747L18.9516 13.2741C14.3591 12.9425 11.3307 11.1591 11.3307 9.58331C11.3307 7.93581 14.6349 6.09164 19.4841 5.85747Z" fill="#599A39"/>
    <path d="M22.9974 8.33325C22.5372 8.33325 22.1641 8.70635 22.1641 9.16659V9.99992C22.1641 10.4602 22.5372 10.8333 22.9974 10.8333C23.4576 10.8333 23.8307 10.4602 23.8307 9.99992V9.16659C23.8307 8.70635 23.4576 8.33325 22.9974 8.33325Z" fill="#599A39"/>
    <path d="M14.3544 40.1825C13.995 39.8949 13.4704 39.9531 13.1828 40.3125C12.8951 40.672 12.9533 41.1965 13.3128 41.4842L17.4794 44.8175C17.8389 45.1052 18.3635 45.047 18.6511 44.6875C18.9388 44.3281 18.8806 43.8035 18.5211 43.5159L14.3544 40.1825Z" fill="#599A39"/>
</svg>