<svg width="30" height="30" viewBox="0 0 30 30" fill="none" xmlns="http://www.w3.org/2000/svg">
    <g clip-path="url(#clip0_1780_100941)">
        <path d="M30 7.74434C30 6.08344 28.6534 4.73682 26.9925 4.73682H3.00752C1.34663 4.73682 0 6.08344 0 7.74434V22.1804C0 23.8413 1.34663 25.1879 3.00752 25.1879H26.9925C28.6534 25.1879 30 23.8413 30 22.1804V7.74434ZM28.4962 22.1804C28.4962 23.011 27.8231 23.6842 26.9925 23.6842H3.00752C2.17693 23.6842 1.50376 23.011 1.50376 22.1804V7.74434C1.50376 6.91374 2.17693 6.24058 3.00752 6.24058H26.9925C27.8231 6.24058 28.4962 6.91374 28.4962 7.74434V22.1804Z" fill="#599A39"/>
        <path d="M9.24742 8.34563C9.24742 7.93033 8.91083 7.59375 8.49554 7.59375H3.53313C3.11783 7.59375 2.78125 7.93033 2.78125 8.34563V13.308C2.78125 13.7233 3.11783 14.0599 3.53313 14.0599H8.49554C8.91083 14.0599 9.24742 13.7233 9.24742 13.308V8.34563ZM4.28501 9.09751H7.74366V12.481H4.28501V9.09751Z" fill="#599A39"/>
        <path d="M26.0803 16.1655H3.52922C3.11393 16.1655 2.77734 16.5021 2.77734 16.9174C2.77734 17.3327 3.11393 17.6693 3.52922 17.6693H26.0803C26.4956 17.6693 26.8322 17.3327 26.8322 16.9174C26.8322 16.5021 26.4956 16.1655 26.0803 16.1655Z" fill="#599A39"/>
        <path d="M26.0803 19.248H3.52922C3.11393 19.248 2.77734 19.5846 2.77734 19.9999C2.77734 20.4152 3.11393 20.7518 3.52922 20.7518H26.0803C26.4956 20.7518 26.8322 20.4152 26.8322 19.9999C26.8322 19.5846 26.4956 19.248 26.0803 19.248Z" fill="#599A39"/>
    </g>
    <defs>
        <clipPath id="clip0_1780_100941">
            <rect width="30" height="30" fill="white"/>
        </clipPath>
    </defs>
</svg>