<svg width="45" height="50" viewBox="0 0 45 50" fill="none" xmlns="http://www.w3.org/2000/svg">
    <path d="M43.1764 26.6335C42.5722 26.1167 41.803 25.8329 41.0079 25.8333C40.4724 25.8361 39.9456 25.9692 39.4729 26.2208C39.0718 25.8164 38.6529 25.4117 38.2162 25.0067C39.2122 24.0914 40.158 23.123 41.0496 22.1058C44.4662 18.1725 45.6287 14.7625 44.3254 12.5042C43.6504 11.4305 42.5672 10.6783 41.3254 10.4208C38.7646 9.73083 34.8921 10.1858 30.4529 11.5558C30.1581 10.2333 29.7918 8.92781 29.3554 7.645C27.6571 2.71583 25.2846 0 22.6746 0H22.6679C21.3887 0 19.5262 0.674167 17.7229 3.75833C16.0112 3.44031 14.3432 4.49312 13.8937 6.175C13.5105 7.58052 14.0949 9.07104 15.3312 9.84167C15.1812 10.3905 15.0401 10.9558 14.9079 11.5375C13.6177 11.1337 12.3066 10.7999 10.9804 10.5375C5.8679 9.545 2.33206 10.2408 1.02873 12.5C0.434771 13.6207 0.323417 14.9353 0.720397 16.14C1.40456 18.7025 3.73456 21.8283 7.13706 24.9875C6.13904 25.9049 5.19123 26.8754 4.2979 27.895C0.88123 31.8267 -0.280437 35.2375 1.02206 37.4958C1.65956 38.6067 3.17373 39.8875 6.7529 39.9067C7.36644 41.6424 9.27081 42.5521 11.0065 41.9385C11.7558 41.6737 12.3857 41.1499 12.7829 40.4617C13.0483 39.9965 13.1964 39.4736 13.2146 38.9383C13.7651 38.7933 14.3251 38.6328 14.8946 38.4567C15.1893 39.7764 15.555 41.0791 15.9904 42.3592C17.6921 47.2842 20.0646 50 22.6746 50C23.9399 49.9518 25.1313 49.3914 25.9754 48.4475C27.8521 46.5733 29.3921 42.9925 30.4279 38.4633C31.721 38.8692 33.0352 39.2047 34.3646 39.4683C35.7209 39.7449 37.1004 39.8923 38.4846 39.9083C41.3804 39.9083 43.4012 39.0925 44.3179 37.505C44.9629 36.3942 45.3162 34.4425 43.5429 31.3333C44.7395 29.9344 44.5754 27.8302 43.1764 26.6335ZM11.3412 39.6275C10.8807 40.4243 9.86144 40.697 9.06456 40.2367C8.60029 39.9746 8.29321 39.5024 8.24206 38.9717C8.20446 38.6207 8.27883 38.2669 8.45456 37.9608C8.52425 37.8434 8.60821 37.7351 8.70456 37.6383C8.72873 37.6133 8.75373 37.5917 8.77873 37.5683C8.858 37.4956 8.94425 37.4308 9.03623 37.375C9.05873 37.3608 9.07956 37.3458 9.1029 37.3333C9.33863 37.2057 9.60154 37.1366 9.86956 37.1317C9.89873 37.1317 9.92706 37.1317 9.9529 37.1317C10.0558 37.1355 10.1582 37.149 10.2587 37.1717C10.2921 37.1792 10.3254 37.185 10.3579 37.195C10.9643 37.3604 11.4196 37.8628 11.5246 38.4825C11.608 38.8736 11.5426 39.282 11.3412 39.6275ZM12.8829 37.3117H12.8812C12.8052 37.1592 12.7177 37.0126 12.6196 36.8733C12.6037 36.8517 12.5846 36.8325 12.5687 36.8108C12.4581 36.6622 12.3355 36.5228 12.2021 36.3942C12.1621 36.355 12.1187 36.3175 12.0787 36.28C11.9199 36.1384 11.7477 36.0125 11.5646 35.9042C11.3701 35.7921 11.1649 35.6997 10.9521 35.6283C10.9246 35.6192 10.8962 35.6175 10.8687 35.6092C9.65154 35.228 8.32363 35.5853 7.46206 36.5258C7.44373 36.5458 7.42123 36.5608 7.40373 36.5808C7.25508 36.7491 7.12363 36.9316 7.01123 37.1258C6.91821 37.2885 6.83935 37.4589 6.7754 37.635C6.75456 37.6917 6.74206 37.7508 6.72456 37.8083C6.6854 37.9295 6.65321 38.0527 6.6279 38.1775C6.62373 38.1975 6.61623 38.2167 6.6129 38.2367C4.49456 38.2008 3.03623 37.6533 2.46873 36.6633C1.56123 35.0908 2.68706 32.2933 5.55873 28.9858C6.44769 27.9736 7.39227 27.0116 8.3879 26.1042C10.0805 27.5598 11.8541 28.9183 13.7004 30.1733C13.8598 32.4045 14.1463 34.6248 14.5587 36.8233C13.9912 37 13.4312 37.1667 12.8829 37.3117ZM13.5811 28.0658C12.1595 27.0567 10.8311 26.0292 9.62863 25.0008C10.8411 23.9625 12.1711 22.9367 13.5836 21.9333C13.5386 22.9475 13.5078 23.9692 13.5078 25C13.5078 26.0308 13.5379 27.055 13.5811 28.0658ZM13.7129 19.81C11.8572 21.0657 10.0748 22.4266 8.37456 23.8858C5.14623 20.935 2.95373 18.045 2.3304 15.71C2.05727 14.9308 2.108 14.0748 2.47123 13.3333C3.07373 12.29 4.59123 11.75 6.80456 11.75C8.1029 11.7671 9.39665 11.9066 10.6687 12.1667C11.9872 12.4299 13.29 12.7659 14.5712 13.1733C14.1608 15.3677 13.8743 17.5834 13.7129 19.81ZM29.8746 18.66C29.0187 18.1142 28.1496 17.5767 27.2571 17.0617C26.3646 16.5467 25.4604 16.0583 24.5612 15.5892H24.5604C26.1437 14.8617 27.6996 14.2308 29.1954 13.6992C29.4879 15.2692 29.7121 16.9342 29.8746 18.66ZM22.6696 1.66667H22.6746C24.4904 1.66667 26.3504 4.04167 27.7779 8.18083C28.211 9.45667 28.5727 10.7556 28.8612 12.0717C26.7543 12.8105 24.6907 13.6677 22.6804 14.6392C20.6687 13.6609 18.6029 12.7984 16.4929 12.0558C16.6229 11.4792 16.7579 10.9117 16.9079 10.3642C16.9487 10.3642 16.9912 10.3642 17.0312 10.3642C17.0712 10.3642 17.0954 10.3717 17.1279 10.3717C17.1779 10.3717 17.2279 10.3642 17.2787 10.3617C17.3421 10.3617 17.4054 10.3558 17.4687 10.35C17.5596 10.34 17.6487 10.325 17.7387 10.3075C17.8004 10.2958 17.8621 10.2867 17.9237 10.2708C18.0187 10.2475 18.1129 10.2158 18.2062 10.1833C18.2587 10.165 18.3112 10.1508 18.3629 10.13C18.5063 10.0724 18.6456 10.0047 18.7796 9.9275C18.9738 9.8151 19.1563 9.68365 19.3246 9.535C19.3404 9.52083 19.3521 9.50333 19.3679 9.48833C20.3158 8.62708 20.6774 7.29385 20.2946 6.07167C20.2862 6.04333 20.2846 6.015 20.2754 5.98833C20.2038 5.77583 20.1114 5.57094 19.9996 5.37667C19.9047 5.21521 19.7965 5.06187 19.6762 4.91833C19.6362 4.87 19.5929 4.82833 19.5462 4.7825C19.4632 4.69031 19.375 4.60292 19.2821 4.52083C19.2654 4.50667 19.2529 4.48917 19.2362 4.47583C20.3296 2.6575 21.532 1.66667 22.6696 1.66667ZM20.7829 15.5925C19.8862 16.0592 18.9879 16.5442 18.0912 17.0617C17.1946 17.5792 16.3296 18.1125 15.4771 18.655C15.6437 16.9358 15.8654 15.2717 16.1571 13.7042C17.6571 14.235 19.2104 14.8708 20.7829 15.5925ZM16.2829 5.59667C16.7415 5.32521 17.3037 5.29417 17.7896 5.51333C18.6315 5.88521 19.0127 6.86927 18.6408 7.71125C18.4981 8.03448 18.2562 8.30396 17.9504 8.48083C17.5301 8.72229 17.0248 8.76677 16.5687 8.6025C16.1895 8.47812 15.8702 8.21698 15.6729 7.87C15.2149 7.07365 15.4877 6.05687 16.2829 5.59667ZM15.4737 31.3417C16.3254 31.885 17.1946 32.425 18.0912 32.9383C18.9879 33.4517 19.8829 33.9383 20.7787 34.4058C19.2079 35.1233 17.6546 35.7608 16.1512 36.2925C15.8595 34.7258 15.6362 33.0633 15.4737 31.3417ZM24.8004 47.2642H24.7979C24.2614 47.89 23.4968 48.2751 22.6746 48.3333C20.8587 48.3333 18.9987 45.9583 17.5712 41.8192C17.1385 40.546 16.7769 39.2499 16.4879 37.9367C18.5936 37.1943 20.656 36.3343 22.6654 35.3608C24.6806 36.3387 26.7498 37.2012 28.8629 37.9442C27.9179 42.2125 26.5078 45.5567 24.8004 47.2642ZM29.1979 36.2975C27.6929 35.7658 26.1396 35.1308 24.5646 34.4067C25.4654 33.9375 26.3654 33.4542 27.2579 32.9383C28.1504 32.4225 29.0221 31.8858 29.8762 31.3425C29.7096 33.0783 29.4853 34.7383 29.1979 36.2975ZM30.0396 29.2533C28.8787 30.0217 27.6746 30.7733 26.4246 31.495C25.1804 32.2125 23.9246 32.8817 22.6746 33.5033C21.4246 32.8833 20.1746 32.2167 18.9246 31.495C17.6746 30.7733 16.4671 30.0192 15.3096 29.2525C15.2237 27.8625 15.1746 26.4433 15.1746 25C15.1746 23.5567 15.2237 22.1425 15.3112 20.75C16.4712 19.9817 17.6754 19.2292 18.9246 18.5083C20.1737 17.7875 21.4304 17.1167 22.6746 16.4983C23.9246 17.1192 25.1746 17.7858 26.4246 18.5083C27.6746 19.2308 28.8746 19.9792 30.0396 20.7533C30.1229 22.1425 30.1746 23.5608 30.1746 25.0033C30.1746 26.4458 30.1254 27.8692 30.0396 29.2533ZM39.9246 27.91C40.2223 27.6436 40.6084 27.4975 41.0079 27.5C41.9284 27.5 42.6746 28.2461 42.6746 29.1667C42.6791 29.7001 42.4231 30.2021 41.9887 30.5117C41.2446 31.0533 40.2021 30.8892 39.6604 30.145C39.4535 29.8607 39.3418 29.5182 39.3412 29.1667C39.341 28.6823 39.5545 28.2225 39.9246 27.91ZM38.4596 11.75C39.2795 11.7376 40.0974 11.832 40.8929 12.0308C41.7029 12.1812 42.4186 12.6505 42.8796 13.3333C43.7871 14.9058 42.6612 17.7033 39.7896 21.0108C38.9026 22.0208 37.9603 22.9809 36.9671 23.8867C35.2716 22.434 33.4958 21.0779 31.6479 19.825C31.4883 17.5882 31.2009 15.3623 30.7871 13.1583C33.2615 12.3147 35.8468 11.8402 38.4596 11.75ZM31.7679 21.9398C33.1751 22.9412 34.5081 23.9677 35.7162 25C34.5046 26.0367 33.1771 27.0608 31.7671 28.0617C31.8121 27.0558 31.8412 26.0358 31.8412 25C31.8412 23.9644 31.8112 22.9496 31.7679 21.9398ZM42.8787 36.6667C41.9712 38.2392 38.9829 38.6667 34.6854 37.8333C33.364 37.5697 32.0584 37.2328 30.7746 36.8242C31.1886 34.6306 31.4782 32.4154 31.6421 30.1892C33.4958 28.9356 35.2764 27.5773 36.9754 26.1208C37.4137 26.5233 37.8371 26.9267 38.2371 27.3283C38.1426 27.4704 38.059 27.6195 37.9871 27.7742C37.9762 27.7975 37.9696 27.8225 37.9596 27.8458C37.886 28.017 37.827 28.194 37.7829 28.375C37.7696 28.4283 37.7571 28.4817 37.7462 28.5358C37.3794 30.321 38.5291 32.0657 40.3144 32.4326C40.5425 32.4795 40.775 32.5021 41.0079 32.5C41.1957 32.499 41.383 32.482 41.5679 32.4492C41.6271 32.4392 41.6837 32.42 41.7421 32.4067C41.8678 32.3799 41.9919 32.3459 42.1137 32.305C42.1321 32.2983 42.1512 32.2958 42.1696 32.2892C43.197 34.1425 43.4511 35.6792 42.8787 36.6667Z" fill="#599A39"/>
</svg>