<svg width="249" height="70" viewBox="0 0 249 70" fill="none" xmlns="http://www.w3.org/2000/svg">
    <path d="M20.8836 47.4662H8.07729V62.4366H0V22.5537H20.8836C24.3807 22.5537 27.2495 23.7065 29.5065 26.0122C31.7635 28.3178 32.8961 31.1958 32.8961 34.6461C32.8961 38.1455 31.8048 41.1461 29.614 43.6398C27.2826 46.1907 24.3724 47.4662 20.8836 47.4662ZM18.4033 29.1109H8.06902V40.8436H18.4033C20.1974 40.8436 21.7186 40.2876 22.9504 39.1838C24.1905 38.0801 24.8106 36.6411 24.8106 34.8587C24.8106 33.1335 24.1905 31.7436 22.9504 30.6889C21.7186 29.6342 20.2056 29.1109 18.4033 29.1109Z" fill="#988367"/>
    <path d="M48.83 63.0089C43.9274 63.0089 40.0995 61.5699 37.3299 58.6919C34.5603 55.8139 33.1797 51.9467 33.1797 47.1064C33.1797 42.5442 34.643 38.7587 37.5449 35.7335C40.455 32.7084 44.2167 31.1958 48.83 31.1958C53.4432 31.1958 57.2131 32.692 60.1481 35.6926C63.083 38.6933 64.5464 42.4951 64.5464 47.1064C64.5464 51.9058 63.1326 55.7567 60.2886 58.6592C57.4612 61.5535 53.6333 63.0089 48.83 63.0089ZM48.83 37.4587C46.1182 37.4587 44.0762 38.4398 42.712 40.4102C41.4967 42.1354 40.8932 44.392 40.8932 47.18C40.8932 53.5573 43.5636 56.7542 48.8961 56.7542C54.1376 56.7542 56.7584 53.5655 56.7584 47.18C56.7667 40.6964 54.1211 37.4587 48.83 37.4587Z" fill="#988367"/>
    <path d="M98.6298 69.9998H90.4368L93.6694 62.8703L80.9375 31.7031H89.8663L98.0346 53.0672L106.55 31.7031H114.272L98.6298 69.9998Z" fill="#988367"/>
    <path d="M140.477 31.7026L148.248 52.5353L155.829 31.7026H163.187L152.117 62.4365H143.932L137.31 43.4189L130.498 62.4365H122.354L111.656 31.7026H118.915L126.645 52.5761L134.284 31.7026H140.477Z" fill="#988367"/>
    <path d="M241.715 62.4366V57.8335C239.623 60.9077 236.812 62.4366 233.265 62.4366C228.999 62.4366 225.51 61.1039 222.824 58.4385C220.128 55.7731 218.789 52.331 218.789 48.104C218.789 43.6971 220.054 39.9034 222.576 36.7311C225.296 33.2236 228.809 31.4739 233.133 31.4739C235.704 31.4739 238.565 32.3814 241.723 34.2129V24.2871L248.998 21.6953V62.4366H241.715ZM241.715 43.2147C241.376 42.4462 240.499 41.2933 239.094 39.7562C237.738 38.7015 236.283 38.1783 234.729 38.1783C232.207 38.1783 230.339 38.7097 229.123 39.7562C227.181 41.4405 226.213 44.2204 226.213 48.104C226.213 50.6958 226.982 52.748 228.512 54.2606C230.041 55.765 232.116 56.5253 234.737 56.5253C237.358 56.5253 239.689 54.653 241.723 50.9166V43.2147H241.715Z" fill="#988367"/>
    <path d="M69.8125 62.4365V25.08L77.1623 22.6108V62.4365H69.8125Z" fill="#7E4632"/>
    <path fill-rule="evenodd" clip-rule="evenodd" d="M82.3281 13.315C87.1563 4.04331 97.7386 -0.404474 113.058 0.0288575C111.231 2.97224 108.495 5.70305 104.84 8.2131C96.5481 6.03827 88.6858 7.76342 82.3281 13.315Z" fill="#3E6D4D"/>
    <path fill-rule="evenodd" clip-rule="evenodd" d="M104.801 9.07187C97.187 6.99515 91.3172 8.02534 85.5713 11.6964C94.0372 8.63037 100.668 9.92219 107.612 15.114C111.63 17.9184 116.368 19.7008 121.816 20.4693C116.186 22.2926 109.233 18.6297 101.494 13.7404C96.8564 11.1977 91.342 10.47 83.893 12.8656C81.5947 14.6234 79.4451 16.8555 77.4609 19.5945C80.214 16.1523 84.0005 14.509 85.5465 15.7844C89.7216 20.1341 94.8556 23.5599 100.924 26.0617C111.349 29.1441 122.097 26.4297 133.183 17.9102C128.951 19.9052 119.112 15.0649 104.801 9.07187Z" fill="#3E6D4D"/>
    <path fill-rule="evenodd" clip-rule="evenodd" d="M77.0312 22.3906C77.6596 16.2995 79.776 11.4511 82.9507 7.69824C83.2401 8.97371 83.0499 8.31962 83.6783 9.57874C80.8508 13.0944 78.4532 17.3051 77.0312 22.3906Z" fill="#7E4632"/>
    <path fill-rule="evenodd" clip-rule="evenodd" d="M92.5817 16.8393C85.9099 12.7839 78.3452 15.3594 76.6255 22.4317C76.6503 22.4072 76.609 23.0531 76.6421 23.0204C76.4519 23.7726 76.9893 22.7751 77.0554 22.3826C77.7747 21.1562 76.5925 23.2411 77.1298 22.5216C77.6259 20.216 80.6352 16.3323 84.2068 15.8581C88.5058 21.2298 94.136 23.3638 99.8653 18.965C98.1788 19.3657 95.7564 18.6543 92.5817 16.8393Z" fill="#7E4632"/>
    <path d="M201.322 30.4927C196.238 30.4927 191.831 33.4279 189.145 38.5625C186.334 33.3707 181.944 30.509 176.652 30.4927C170.08 30.4927 162.995 35.4719 162.953 46.4033C162.92 56.2228 169.121 63.3768 177.686 63.4013H177.719C182.803 63.4013 187.21 60.4661 189.889 55.3316C192.708 60.5234 197.09 63.385 202.339 63.4013H202.389C208.962 63.4013 216.055 58.4221 216.088 47.4907C216.121 37.6713 209.929 30.5172 201.322 30.4927ZM191.989 47.8995C193.89 40.9826 197.23 37.475 201.918 37.475V37.2298L201.951 37.475C204.224 37.4832 206.167 38.3662 207.581 40.0341C209.036 41.7593 209.805 44.1876 209.797 47.0656C209.772 53.7863 205.613 56.1819 201.703 56.1819C197.387 56.1655 193.758 53.075 191.989 47.8995ZM171.46 53.8599C170.005 52.1347 169.237 49.7064 169.245 46.8366C169.27 40.1159 173.428 37.7121 177.306 37.7121V37.4669L177.33 37.7121C181.638 37.7285 185.275 40.819 187.045 45.9863C185.135 52.9033 181.795 56.419 177.074 56.419C174.817 56.4108 172.866 55.5278 171.46 53.8599Z" fill="#988367"/>
</svg>