<svg width="110" height="110" viewBox="0 0 110 110" fill="none" xmlns="http://www.w3.org/2000/svg">
    <path d="M110 55C110 85.3757 85.3757 110 55 110C24.6243 110 0 85.3757 0 55C0 24.6243 24.6243 0 55 0C85.3757 0 110 24.6243 110 55Z" fill="#FBCF58"/>
    <path d="M22.2513 44.941C21.867 46.027 21.3014 46.8735 20.5548 47.4805C19.8031 48.0857 18.9286 48.4466 17.9312 48.5631C16.9356 48.6747 15.8772 48.532 14.756 48.1352C13.6349 47.7383 12.7224 47.1834 12.0186 46.4704C11.3166 45.7524 10.8664 44.9226 10.6678 43.9811C10.4642 43.0377 10.5546 42.0231 10.939 40.9371C11.3234 39.8511 11.8914 39.0055 12.6431 38.4003C13.3915 37.7883 14.2635 37.4265 15.2591 37.315C16.2565 37.1984 17.3158 37.3386 18.437 37.7354C19.5581 38.1322 20.4697 38.6896 21.1717 39.4077C21.8755 40.1207 22.3282 40.9514 22.5301 41.8997C22.7286 42.8413 22.6357 43.855 22.2513 44.941ZM20.5394 44.3351C20.8025 43.6078 20.856 42.9451 20.7 42.3467C20.5458 41.7434 20.2148 41.216 19.707 40.7647C19.2009 40.3084 18.5507 39.9396 17.7563 39.6585C16.9619 39.3773 16.2295 39.2567 15.5591 39.2966C14.8855 39.3298 14.2989 39.5323 13.7995 39.9043C13.3019 40.2713 12.919 40.8176 12.6509 41.543C12.3879 42.2703 12.3343 42.933 12.4903 43.5314C12.6463 44.1297 12.9773 44.657 13.4834 45.1134C13.9912 45.5647 14.6423 45.9309 15.4367 46.2121C16.2311 46.4932 16.9651 46.6173 17.6388 46.5841C18.3074 46.5492 18.8905 46.3483 19.3881 45.9813C19.8876 45.6093 20.2713 45.0605 20.5394 44.3351Z" fill="#292929"/>
    <path d="M24.3226 38.9713L17.3542 33.8634L21.7906 27.8112L28.759 32.9191L27.6191 34.4741L22.1089 30.4351L19.9523 33.3773L25.4624 37.4163L24.3226 38.9713Z" fill="#292929"/>
    <path d="M29.7675 31.3977L24.552 24.5095L26.0901 23.3471L27.8265 25.6448L28.5988 25.0612C28.7903 24.9165 29.0084 24.7583 29.2531 24.5868C29.502 24.412 29.7186 24.2784 29.9028 24.186C30.3543 23.9785 30.787 23.8655 31.2008 23.8469C31.6189 23.8251 32.0144 23.9106 32.3873 24.1034C32.7603 24.2961 33.1076 24.6053 33.4291 25.0308C33.8889 25.6392 34.0997 26.2454 34.0614 26.8493C34.0198 27.4489 33.7659 28.0285 33.2997 28.5881C33.1627 28.7518 32.9756 28.9332 32.7385 29.1325C32.4981 29.3275 32.2822 29.4974 32.0907 29.6421L29.7675 31.3977ZM30.3877 29.0339L31.3131 28.3345C31.4068 28.2638 31.5078 28.1807 31.6162 28.0854C31.7247 27.9901 31.8187 27.8889 31.8983 27.782C32.0512 27.5862 32.1346 27.3427 32.1485 27.0514C32.1591 26.7559 32.0648 26.4763 31.8654 26.2125C31.6564 25.9359 31.4099 25.7645 31.1259 25.6984C30.842 25.6322 30.5706 25.6535 30.3118 25.7621C30.1904 25.8138 30.0733 25.8755 29.9604 25.9474C29.8519 26.0161 29.7529 26.0842 29.6636 26.1517L28.7381 26.8511L30.3877 29.0339ZM35.8819 26.777L30.6728 19.884L32.2109 18.7216L37.4201 25.6146L35.8819 26.777Z" fill="#292929"/>
    <path d="M41.1216 23.9693L38.5666 17.5296L35.8822 18.5947L35.2508 17.0034L42.4118 14.1622L43.0431 15.7535L40.3587 16.8186L42.9137 23.2583L41.1216 23.9693Z" fill="#292929"/>
    <path d="M54.4918 21.2936C53.6492 21.3033 52.9402 21.1115 52.365 20.7182C51.7897 20.3248 51.3541 19.7858 51.0582 19.1012C50.7622 18.4112 50.6092 17.637 50.5992 16.7784C50.5892 15.9091 50.7242 15.1288 51.0042 14.4375C51.2842 13.7462 51.6992 13.2 52.2493 12.799C52.8046 12.3925 53.4929 12.1845 54.3142 12.175C55.1301 12.1656 55.8391 12.3574 56.441 12.7504C57.0482 13.1381 57.5211 13.674 57.8597 14.3581C58.1983 15.0369 58.3726 15.8136 58.3827 16.6882C58.3927 17.5522 58.2391 18.33 57.9217 19.0217C57.6044 19.7134 57.152 20.2627 56.5647 20.6695C55.9774 21.0764 55.2864 21.2844 54.4918 21.2936ZM50.3658 24.9416L50.2212 12.4624L51.9251 12.4427L51.9954 18.5063L52.2353 18.5035L52.3096 24.9191L50.3658 24.9416ZM54.1758 19.5691C54.6771 19.5633 55.089 19.4332 55.4114 19.1788C55.7338 18.9244 55.9698 18.5829 56.1196 18.1545C56.2745 17.7207 56.349 17.2398 56.3429 16.7118C56.3368 16.1892 56.2513 15.7155 56.0864 15.2907C55.9214 14.8606 55.6695 14.5222 55.3306 14.2754C54.9916 14.0233 54.5635 13.9003 54.0462 13.9062C53.5556 13.9119 53.157 14.0365 52.8505 14.2801C52.5439 14.5183 52.3184 14.8516 52.174 15.28C52.0349 15.703 51.9686 16.1971 51.9752 16.7624C51.9816 17.3224 52.0593 17.8148 52.2083 18.2398C52.3625 18.6647 52.5984 18.9953 52.9158 19.2317C53.2385 19.4626 53.6585 19.5751 54.1758 19.5691Z" fill="#292929"/>
    <path d="M62.1328 21.9384C61.5275 21.7866 61.0439 21.5444 60.6819 21.2117C60.3213 20.8739 60.0803 20.4863 59.959 20.049C59.8429 19.613 59.8425 19.1648 59.958 18.7044C60.0591 18.3009 60.2172 17.9556 60.4321 17.6686C60.6483 17.3764 60.9253 17.1489 61.263 16.9862C61.602 16.8182 62.0128 16.715 62.4953 16.6766C62.8588 16.6522 63.2766 16.6525 63.7487 16.6774C64.226 16.7036 64.7376 16.7466 65.2834 16.8065C65.8357 16.8625 66.4125 16.9191 67.014 16.9765L66.2513 17.1894C66.4018 16.6113 66.3794 16.1521 66.1843 15.8117C65.9892 15.4714 65.5787 15.2228 64.9528 15.0658C64.5751 14.9712 64.1884 14.9677 63.7925 15.0554C63.3966 15.143 63.075 15.3841 62.8277 15.7784L61.2547 14.815C61.6394 14.1581 62.1752 13.6877 62.8623 13.4035C63.5545 13.1207 64.3946 13.1032 65.3827 13.3509C66.1277 13.5377 66.7516 13.8233 67.2545 14.2078C67.7626 14.5937 68.0844 15.0977 68.2198 15.72C68.2959 16.0525 68.3105 16.3778 68.2637 16.696C68.2182 17.009 68.1501 17.3465 68.0593 17.7087L66.7694 22.8534L65.1321 22.4429L65.5874 20.6271L65.785 20.9901C65.2556 21.5007 64.7018 21.8347 64.1235 21.9921C63.5516 22.1456 62.8881 22.1277 62.1328 21.9384ZM62.8788 20.5419C63.303 20.6482 63.6839 20.664 64.0216 20.5892C64.3592 20.5144 64.6433 20.3904 64.8736 20.2172C65.1092 20.0454 65.282 19.8715 65.392 19.6957C65.55 19.4823 65.6724 19.2244 65.7593 18.9217C65.8526 18.6152 65.9233 18.3663 65.9713 18.1749L66.5027 18.4895C65.9168 18.4361 65.4136 18.3924 64.9932 18.3585C64.5729 18.3246 64.21 18.3024 63.9048 18.2918C63.6008 18.2761 63.3285 18.2766 63.0879 18.2932C62.8512 18.3163 62.6448 18.3608 62.4689 18.4267C62.2929 18.4925 62.1467 18.5823 62.0302 18.6961C61.9189 18.8111 61.8405 18.9592 61.7951 19.1403C61.7432 19.3472 61.7489 19.5438 61.8122 19.7301C61.8767 19.9112 61.9956 20.073 62.1689 20.2154C62.3473 20.3591 62.5839 20.4679 62.8788 20.5419Z" fill="#292929"/>
    <path d="M71.314 25.2523C70.5955 24.8542 70.0671 24.3615 69.7288 23.7741C69.3905 23.1867 69.2321 22.5294 69.2534 21.8022C69.2748 21.0751 69.4644 20.3052 69.8224 19.4924C70.0087 19.078 70.2462 18.6304 70.5347 18.1497C70.8233 17.669 71.1337 17.2152 71.4659 16.7883C71.7982 16.3614 72.1232 16.0213 72.4408 15.7682C72.7632 15.5176 73.1163 15.3168 73.5001 15.1658C73.8865 15.0101 74.2664 14.9115 74.6398 14.87C75.066 14.8205 75.4915 14.8341 75.9164 14.9111C76.346 14.9905 76.7768 15.1069 77.209 15.2604C77.6437 15.4092 78.0863 15.5713 78.5369 15.7468C78.9875 15.9223 79.441 16.0812 79.8974 16.2235L79.2459 17.8078C78.9475 17.7323 78.6143 17.6199 78.2465 17.4707C77.8858 17.3193 77.5086 17.165 77.1147 17.0079C76.7255 16.8533 76.3427 16.7263 75.9662 16.627C75.5897 16.5276 75.2377 16.4898 74.9101 16.5136C74.4608 16.5386 74.0433 16.6958 73.6578 16.9851C73.2723 17.2744 72.9483 17.624 72.6857 18.0339C73.2092 17.7582 73.7338 17.6495 74.2594 17.7079C74.7922 17.7641 75.2818 17.9121 75.7282 18.1519C76.4047 18.5154 76.8991 18.9869 77.2114 19.5663C77.5283 20.1483 77.6684 20.7836 77.6314 21.4721C77.6017 22.1584 77.4064 22.8375 77.0454 23.5094C76.6416 24.2611 76.1308 24.8343 75.5131 25.2289C74.8954 25.6236 74.2237 25.8258 73.4981 25.8355C72.7724 25.8452 72.0443 25.6508 71.314 25.2523ZM72.2542 23.7051C72.865 24.0332 73.4264 24.0927 73.9384 23.8834C74.4576 23.672 74.8864 23.2515 75.2246 22.6219C75.5704 21.9783 75.6809 21.3838 75.5562 20.8385C75.4361 20.2956 75.0801 19.8652 74.4881 19.5472C73.8867 19.2241 73.329 19.1636 72.8148 19.3656C72.3006 19.5676 71.8706 19.9905 71.5248 20.6341C71.1714 21.2919 71.056 21.8898 71.1786 22.4279C71.3037 22.9613 71.6622 23.387 72.2542 23.7051Z" fill="#292929"/>
    <path d="M78.4323 30.1798C77.7995 29.5915 77.3794 28.935 77.172 28.2105C76.9645 27.4859 76.9623 26.752 77.1655 26.0087C77.3762 25.2652 77.7848 24.5673 78.3913 23.915C79.0087 23.251 79.6827 22.7926 80.4131 22.5396C81.1436 22.2866 81.8758 22.2392 82.6099 22.3975C83.344 22.5557 84.0216 22.9235 84.6426 23.501C85.2792 24.093 85.7013 24.7512 85.9087 25.4758C86.1162 26.2003 86.1165 26.9362 85.9097 27.6834C85.7066 28.4266 85.3017 29.1244 84.6952 29.7767C84.0851 30.4328 83.413 30.8894 82.6789 31.1462C81.9523 31.4028 81.2202 31.454 80.4825 31.2997C79.7484 31.1414 79.065 30.7682 78.4323 30.1798ZM79.6634 28.8558C80.2259 29.3787 80.8181 29.5799 81.4402 29.4591C82.0622 29.3384 82.6492 28.9812 83.2013 28.3875C83.7715 27.7743 84.0868 27.1572 84.1472 26.5361C84.2113 25.9111 83.966 25.3407 83.4114 24.825C83.0325 24.4727 82.6402 24.2681 82.2343 24.2112C81.836 24.154 81.4366 24.2232 81.0362 24.4189C80.6394 24.6107 80.2557 24.9058 79.8853 25.3042C79.3151 25.9174 78.998 26.5365 78.9339 27.1615C78.8774 27.7862 79.1205 28.3509 79.6634 28.8558Z" fill="#292929"/>
    <path d="M83.7734 35.7804L89.5634 31.976L87.9774 29.5624L89.4082 28.6223L93.6388 35.0608L92.208 36.0009L90.6221 33.5873L84.8321 37.3917L83.7734 35.7804Z" fill="#292929"/>
    <path d="M86.8945 40.2075L95.1201 37.5638L95.7083 39.3999L92.9656 40.2786L93.2609 41.2005C93.3342 41.429 93.4113 41.6871 93.4922 41.9748C93.5748 42.2676 93.6293 42.5161 93.6555 42.7205C93.702 43.2153 93.6656 43.661 93.5463 44.0576C93.4286 44.4594 93.2171 44.8043 92.9118 45.0926C92.6065 45.3808 92.1999 45.6062 91.692 45.769C90.9657 46.0017 90.3239 46 89.7667 45.7641C89.2146 45.5266 88.7516 45.0953 88.3777 44.4702C88.2685 44.2868 88.1592 44.0502 88.0495 43.7605C87.945 43.4692 87.8561 43.2092 87.7829 42.9807L86.8945 40.2075ZM88.9202 41.5747L89.2741 42.6794C89.3099 42.7911 89.3548 42.9139 89.4089 43.0478C89.463 43.1817 89.5273 43.3039 89.6019 43.4144C89.7361 43.6234 89.9383 43.7826 90.2086 43.8921C90.484 43.9998 90.7791 44.0033 91.094 43.9024C91.4241 43.7967 91.6674 43.6207 91.8238 43.3746C91.9801 43.1285 92.0498 42.8653 92.0329 42.5852C92.0243 42.4535 92.0047 42.3226 91.9742 42.1923C91.9453 42.0672 91.9138 41.9513 91.8796 41.8446L91.5257 40.7399L88.9202 41.5747ZM89.2327 47.5061L97.4608 44.8701L98.049 46.7061L89.821 49.3422L89.2327 47.5061Z" fill="#292929"/>
    <path d="M55 41L58.9911 49.5068L68.3148 50.6738L61.4577 57.0982L63.229 66.3262L55 61.79L46.771 66.3262L48.5423 57.0982L41.6852 50.6738L51.0089 49.5068L55 41Z" fill="#292929"/>
    <path d="M24.6235 87.934L30.7545 80.7875L28.2557 80.3829L29.6413 78.7679L32.1245 79.1907L33.6182 80.4721L26.1172 89.2154L24.6235 87.934Z" fill="#292929"/>
    <path d="M33.8512 94.6531C33.1728 94.3046 32.641 93.8575 32.2557 93.3119C31.8705 92.7662 31.6539 92.1723 31.606 91.5302C31.5581 90.888 31.6962 90.2515 32.0203 89.6205C32.3103 89.0559 32.7101 88.5987 33.2195 88.2489C33.729 87.899 34.3095 87.7085 34.9611 87.6774L34.644 88.2071C34.4038 87.706 34.2745 87.2049 34.2561 86.7037C34.2448 86.2003 34.3647 85.7043 34.6157 85.2157C34.9179 84.6274 35.3174 84.1881 35.8143 83.8977C36.316 83.6098 36.8697 83.4715 37.4754 83.4828C38.0836 83.4894 38.7032 83.6548 39.3341 83.9789C39.9651 84.303 40.4604 84.7103 40.82 85.2008C41.1868 85.689 41.3969 86.2196 41.4503 86.7927C41.5084 87.3682 41.3864 87.95 41.0843 88.5383C40.8333 89.0269 40.5035 89.4122 40.0949 89.6939C39.6911 89.9782 39.2 90.1696 38.6217 90.2683L38.8997 89.7096C39.2493 90.2429 39.4291 90.8209 39.439 91.4436C39.4561 92.0639 39.3197 92.6564 39.0297 93.2209C38.7056 93.8519 38.2663 94.3337 37.7116 94.6664C37.1618 95.0015 36.5505 95.1702 35.8778 95.1724C35.2099 95.1771 34.5344 95.004 33.8512 94.6531ZM34.681 93.0377C35.1838 93.296 35.6625 93.368 36.1169 93.2537C36.5761 93.1418 36.9422 92.8202 37.2151 92.2888C37.488 91.7575 37.5386 91.2738 37.3668 90.8379C37.1975 90.3971 36.859 90.0464 36.3514 89.7856C35.8485 89.5273 35.371 89.4589 34.9189 89.5804C34.4692 89.6972 34.1079 90.0212 33.835 90.5526C33.562 91.0839 33.5091 91.5664 33.6761 91.9999C33.8431 92.4335 34.1781 92.7794 34.681 93.0377ZM37.1885 88.156C37.6107 88.3729 38.0059 88.444 38.374 88.3693C38.7493 88.2923 39.0479 88.0379 39.2696 87.6062C39.4914 87.1745 39.523 86.786 39.3646 86.4408C39.2133 86.0933 38.9266 85.8111 38.5044 85.5943C38.0869 85.3798 37.6905 85.3111 37.3152 85.3881C36.947 85.4628 36.6521 85.716 36.4303 86.1478C36.2086 86.5795 36.1733 86.9691 36.3246 87.3166C36.483 87.6618 36.771 87.9416 37.1885 88.156Z" fill="#292929"/>
    <path d="M44.9298 96.4013L45.5521 93.6057L42.7565 92.9835L43.085 91.5076L45.8806 92.1298L46.5011 89.342L47.9769 89.6705L47.3564 92.4583L50.1364 93.0771L49.8079 94.553L47.0279 93.9342L46.4057 96.7298L44.9298 96.4013Z" fill="#292929"/>
    <path d="M58.3997 100.125L58.1395 98.53C58.4595 98.5373 58.6982 98.4929 58.8555 98.397C59.0119 98.2959 59.1159 98.1384 59.1675 97.9247C59.2191 97.7109 59.2494 97.4331 59.2585 97.0911C59.2663 96.6089 59.252 96.0574 59.2156 95.4365C59.1844 94.8147 59.1358 94.1526 59.0699 93.45C59.0092 92.7466 58.9407 92.0283 58.8643 91.295L65.1413 90.2712L66.5322 98.7985L64.6373 99.1076L63.5374 92.3647L60.8292 92.8064C60.8587 93.1528 60.8898 93.5422 60.9225 93.9746C60.9543 94.4017 60.9844 94.8345 61.0127 95.273C61.041 95.7115 61.0606 96.1298 61.0715 96.5279C61.0868 96.9199 61.0904 97.2571 61.0824 97.5394C61.0618 98.175 60.9675 98.6902 60.7996 99.0851C60.6369 99.4791 60.3637 99.7587 59.9799 99.9239C59.5971 100.094 59.0703 100.161 58.3997 100.125Z" fill="#292929"/>
    <path d="M75.1202 96.0881C74.3211 96.4438 73.5425 96.5832 72.7843 96.5062C72.0261 96.4292 71.3399 96.1596 70.7255 95.6975C70.116 95.2332 69.6335 94.6016 69.2778 93.8025C68.8939 92.9401 68.7266 92.1184 68.776 91.3375C68.8232 90.5517 69.0635 89.8522 69.4969 89.239C69.9303 88.6257 70.5344 88.1467 71.3091 87.8018C72.1276 87.4375 72.9076 87.3209 73.649 87.452C74.3932 87.5762 75.0592 87.9248 75.647 88.4979C76.2349 89.071 76.7051 89.8454 77.0577 90.821L75.3109 91.5986L75.0246 90.9554C74.638 90.1 74.2083 89.5412 73.7354 89.2788C73.2625 89.0164 72.7069 89.0273 72.0686 89.3114C71.3475 89.6324 70.9113 90.0951 70.76 90.6996C70.6066 91.2991 70.7207 92.0276 71.1024 92.8852C71.4581 93.6843 71.909 94.225 72.455 94.5073C73.001 94.7897 73.6102 94.7812 74.2826 94.4819C74.7162 94.2889 75.0467 94.028 75.2739 93.6991C75.5039 93.3633 75.6228 92.9747 75.6307 92.5333L77.6044 92.2853C77.6189 93.1311 77.3973 93.8923 76.9396 94.5689C76.4867 95.2434 75.8803 95.7498 75.1202 96.0881ZM70.7649 93.6221L70.1728 92.292L75.6032 89.8748L76.1953 91.2049L70.7649 93.6221Z" fill="#292929"/>
    <path d="M83.3919 91.0875L79.1948 85.5756L76.8971 87.3252L75.8599 85.9631L81.9893 81.2959L83.0264 82.658L80.7287 84.4076L84.9258 89.9195L83.3919 91.0875Z" fill="#292929"/>
</svg>